<svg preserveAspectRatio="none" width="100%" height="100%" overflow="visible" style="display: block;" viewBox="0 0 144 39" fill="none" xmlns="http://www.w3.org/2000/svg">
<g id="horizontal_logo 1" clip-path="url(#clip0_2139_38328)">
<path id="Vector" d="M81.7268 16.8542H82.9622V15.6405H81.7268V16.8542ZM83.4601 28.951V25.1398H86.3523V23.7833H84.2984L83.4601 25.0106V21.8131H83.4442L80.3884 25.1398H81.9489V29.0319C81.9489 30.6144 83.0334 31.8577 84.8569 31.8577C85.3821 31.8577 85.9248 31.7608 86.3848 31.5511V30.1943C85.9248 30.4367 85.4807 30.5012 85.1032 30.5012C84.0028 30.5012 83.4601 29.823 83.4601 28.951ZM90.1963 27.0132L89.3581 28.1757L89.3414 27.7882C89.3414 26.0602 90.5086 24.9137 91.9539 24.9137C93.2029 24.9137 94.1063 25.7372 94.3359 27.0132H90.1963ZM91.9213 23.6218C89.6703 23.6218 87.8961 25.3659 87.8961 27.7559C87.8961 30.1459 89.6536 31.8577 92.2328 31.8577C93.3666 31.8577 94.4178 31.5187 95.1249 30.9857V29.5809C94.1715 30.2751 93.3173 30.5496 92.3646 30.5496C90.6563 30.5496 89.5392 29.6453 89.3747 28.208H95.782V27.6751C95.782 25.3496 94.1715 23.6218 91.9213 23.6218ZM89.5149 12.3493C89.4627 11.6865 89.2853 11.2375 88.8253 10.8221C88.3652 10.4068 87.8317 10.199 87.2231 10.199H85.2563V11.4252H87.2231C87.2397 11.4252 87.2542 11.4246 87.2701 11.4252C87.2837 11.4246 87.2966 11.4252 87.311 11.4252C87.58 11.4299 87.837 11.5384 88.0264 11.7274C88.2152 11.9164 88.3205 12.1707 88.3205 12.4357C88.3205 12.7006 88.2152 12.9549 88.0264 13.1439C87.837 13.3329 87.58 13.4414 87.311 13.4461C87.2936 13.4461 87.2784 13.4467 87.2617 13.4461C87.2488 13.4471 87.2367 13.4455 87.2231 13.4461H84.7099V14.6617H87.2231C87.8317 14.6617 88.3652 14.4513 88.8253 14.0293C89.2853 13.6074 89.5703 13.0452 89.5149 12.3493ZM82.2475 14.6617C83.2888 14.6617 83.952 13.8105 83.952 12.9851V10.364H82.7181V12.8241C82.7181 13.203 82.4013 13.4479 82.0845 13.4479H80.3581V12.1529C80.3581 10.5631 79.1075 9.8436 78.1011 9.8436C77.0059 9.8436 75.8456 10.6489 75.8456 12.1529V13.4479L72.4227 13.4477C72.3392 13.4481 72.2566 13.4322 72.1793 13.4011C72.1021 13.3699 72.032 13.324 71.9729 13.266C71.9138 13.208 71.8671 13.1392 71.8352 13.0633C71.8034 12.9874 71.7872 12.9062 71.7874 12.8241V10.2964L70.5546 10.6687V12.9851C70.5546 13.9938 71.4084 14.662 72.2593 14.662H77.0779V12.0664C77.0779 11.5085 77.5288 11.0561 78.0973 11.0561C78.3693 11.0561 78.6308 11.1625 78.8241 11.3519C79.0166 11.5414 79.125 11.7983 79.125 12.0664V14.6617H82.2475ZM76.8725 25.1398V29.9362C76.1987 30.3399 75.6236 30.4852 74.9996 30.4852C73.4389 30.4852 72.3382 29.3869 72.3382 27.8207C72.3382 26.2862 73.406 25.1398 75.2459 25.1398H76.8725ZM70.8103 27.8207C70.8103 30.1459 72.4368 31.8416 74.7859 31.8416C75.2296 31.8416 75.6403 31.7448 75.9357 31.5995L76.8725 30.0654V31.6963H78.3837V23.7833H75.0652C72.5516 23.7833 70.8103 25.5112 70.8103 27.8207ZM67.1301 23.9286L66.1772 25.4467V23.7833H64.6658V31.6963H66.1772V25.5595C66.8016 25.1398 67.4589 24.9782 68.2967 24.9782C68.7896 24.9782 69.2003 25.043 69.6929 25.2043V23.751C69.3644 23.6541 69.0196 23.6218 68.6581 23.6218C68.0501 23.6218 67.5245 23.735 67.1301 23.9286ZM75.5977 15.6405H74.363V16.8542H75.5977V15.6405ZM72.5238 16.8605H73.7585V15.6468H72.5238V16.8605ZM101.532 27.1909L100.037 26.8676C99.3797 26.7384 99.0675 26.4318 99.0675 25.9473C99.0675 25.2527 99.6586 24.8974 100.891 24.8974C101.828 24.8974 102.6 25.0914 103.125 25.4467V24.0578C102.616 23.751 101.942 23.6218 101.105 23.6218C98.9363 23.6218 97.704 24.4937 97.704 26.0117C97.704 27.1585 98.3778 27.8851 99.6753 28.1596L101.187 28.4825C101.893 28.6281 102.205 28.9832 102.205 29.484C102.205 30.2107 101.597 30.582 100.251 30.582C99.2812 30.582 98.493 30.4043 97.7207 29.9846V31.3895C98.4437 31.6964 99.2152 31.8416 100.168 31.8416C102.419 31.8416 103.553 31.0018 103.553 29.4193C103.553 28.1436 102.83 27.4654 101.532 27.1909ZM135.77 14.6623H138.075C138.381 14.6334 138.691 14.5428 138.881 14.335C139.076 14.0976 139.186 13.9438 139.186 13.5787L140.136 14.6623H141.816C142.713 14.6623 143.52 13.945 143.52 12.9867V10.364H142.286V12.8005C142.286 13.18 142.018 13.4479 141.647 13.4479H139.186V10.7064H137.951V12.8005C137.951 12.9835 137.888 13.1339 137.762 13.2518C137.642 13.3826 137.489 13.4479 137.302 13.4479H135.9C135.593 13.4479 135.364 13.3335 135.211 13.1046C135.237 12.9672 135.251 12.8364 135.251 12.7122V8.02718L134.019 7.14265V12.8005C134.019 12.9769 133.949 13.1291 133.829 13.2568C133.71 13.3841 133.556 13.4479 133.371 13.4479H128.499C128.17 13.4479 127.85 13.2169 127.85 12.8005V10.9247L126.618 11.2976V12.9867C126.618 13.9891 127.45 14.6623 128.322 14.6623H133.375C133.794 14.6623 134.186 14.5249 134.552 14.2501C134.951 14.5249 135.357 14.6623 135.77 14.6623ZM61.897 13.4832L61.7671 13.5439C61.5425 13.6517 61.2954 13.7064 61.0455 13.7036C60.2602 13.7036 59.7912 13.2841 59.7912 12.582C59.7912 11.8223 60.3258 11.3315 61.1532 11.3315H61.897V13.4832ZM65.7681 12.8175V7.14265H64.5407V12.8203C64.5407 12.9967 64.4707 13.1407 64.351 13.252C64.2314 13.3828 64.0782 13.4482 63.892 13.4482H63.0322V10.2942H61.0007C59.664 10.2942 58.6557 11.2777 58.6557 12.582C58.6557 13.8932 59.5235 14.7406 60.8664 14.7406C61.0384 14.7406 61.2185 14.711 61.3736 14.6579L61.4249 14.6406L61.897 13.8458V15.3106C61.897 15.6333 61.6337 15.9361 61.2614 15.9361H59.8962L60.4253 17.1473H61.47C62.2639 17.1473 63.1294 16.4819 63.1294 15.472V14.6617H63.892C64.4108 14.6617 64.8536 14.4837 65.2192 14.1272C65.5851 13.7709 65.7681 13.3342 65.7681 12.8175ZM127.539 30.4043H124.63V26.6095H127.571C128.656 26.6095 129.559 27.2392 129.559 28.5634C129.559 29.7585 128.803 30.4043 127.539 30.4043ZM124.63 21.8452H127.21C128.212 21.8452 129.05 22.459 129.05 23.6218C129.05 24.7685 128.245 25.3335 127.21 25.3335H125.534L124.63 26.5287V21.8452ZM129.033 25.9149C129.921 25.4788 130.578 24.4937 130.578 23.3957C130.578 21.7647 129.23 20.5535 127.44 20.5535H123.103V31.6963H127.817C129.69 31.6963 131.104 30.4367 131.104 28.6602C131.104 27.4006 130.265 26.3026 129.033 25.9149ZM141.178 16.8542H142.413V15.6405H141.178V16.8542ZM138.085 30.3399H136.574L135.621 31.5832V21.926H138.085C140.681 21.926 142.455 23.6057 142.455 26.1086C142.455 28.5794 140.665 30.3399 138.085 30.3399ZM138.085 20.5535H134.094V31.6963H138.085C141.503 31.6963 144 29.3064 144 26.1086C144 22.9112 141.503 20.5535 138.085 20.5535ZM105.318 15.3106C105.318 15.6333 105.055 15.9361 104.682 15.9361H103.317L103.846 17.1473H104.89C105.685 17.1473 106.55 16.4819 106.55 15.472V10.364H105.318V15.3106ZM124.074 7.14265H122.841V14.6623H124.074V7.14265ZM118.108 30.0815L112.901 20.5535H110.683V31.6963H112.21V22.1845L117.418 31.6963H119.636V20.5535H118.108V30.0815ZM112.4 11.3315H113.144C113.971 11.3315 114.506 11.8223 114.506 12.582C114.506 13.2841 114.037 13.7036 113.251 13.7036C112.989 13.7036 112.766 13.6542 112.53 13.5439L112.4 13.4832V11.3315ZM112.4 13.8458L112.873 14.6406L112.923 14.6579C113.087 14.7125 113.258 14.7404 113.431 14.7406C114.773 14.7406 115.641 13.8932 115.641 12.582C115.641 11.2777 114.633 10.2942 113.296 10.2942H111.265V13.4482H109.62C109.535 13.4499 109.451 13.4348 109.372 13.4039C109.293 13.373 109.221 13.3268 109.16 13.2682C109.1 13.2095 109.052 13.1395 109.019 13.0624C108.987 12.9853 108.971 12.9026 108.971 12.8191V8.03783L107.739 7.14202V12.9851C107.739 13.9312 108.523 14.6617 109.443 14.6617H112.4V13.8458ZM119.096 16.8719C118.936 16.8719 118.82 16.8328 118.746 16.7548C118.672 16.6765 118.635 16.5728 118.635 16.4435C118.635 16.309 118.686 16.1901 118.787 16.0879C118.889 15.9854 119.018 15.9345 119.177 15.9345H119.572L119.334 15.4172H119.087C118.812 15.4132 118.547 15.5146 118.347 15.6999C118.134 15.8939 118.027 16.1417 118.027 16.4435C118.027 16.5892 118.068 16.7316 118.15 16.8719H117.722L117.805 17.4781H119.703L119.581 16.8719H119.096ZM120.68 12.8241C120.68 13.1131 120.461 13.4464 120.036 13.4464H119.218V8.0712H117.985V12.6282L118.844 13.4464H116.17L116.554 14.662H120.208C121.205 14.6607 121.913 13.8482 121.913 12.9851V7.14265H120.68V12.8241ZM60.1646 22.0392H61.676V20.5535H60.1646V22.0392ZM103.844 8.03783L102.612 7.14202V14.662H103.844V8.03783ZM96.505 9.49965H95.2696V10.7134H96.505V9.49965ZM98.3444 9.49335H97.1098V10.7071H98.3444V9.49335ZM48.0736 8.52053H46.839V9.73418H48.0736V8.52053ZM94.0896 14.662H99.5245C100.455 14.662 101.229 13.9042 101.229 12.9851V10.275L99.9974 11.1705V12.8207C99.9974 13.1414 99.7427 13.4477 99.3608 13.4477H94.2533C93.8759 13.4477 93.6182 13.1465 93.6182 12.8241V11.1146L92.3851 12.0041V12.9851C92.3851 13.9938 93.2392 14.662 94.0896 14.662ZM36.7208 26.6416H41.9615V25.3011H37.657L36.7208 26.5124V21.926H42.2571V20.5535H35.1927V31.6963H42.3393V30.3236H36.7208V26.6416ZM67.8511 7.14265H66.618V14.6623H67.8511V7.14265ZM129.948 10.9627H131.846L131.724 10.3565H131.239C131.079 10.3565 130.963 10.3175 130.889 10.2392C130.815 10.1612 130.778 10.0574 130.778 9.9282C130.778 9.79328 130.829 9.67478 130.93 9.57255C131.032 9.4701 131.161 9.4191 131.32 9.4191H131.715L131.477 8.9016H131.23C130.945 8.9016 130.698 8.99588 130.491 9.18458C130.277 9.3786 130.17 9.62633 130.17 9.9282C130.17 10.0735 130.211 10.2162 130.293 10.3565H129.865L129.948 10.9627ZM55.2759 10.226H52.2352L51.4611 11.4375H55.3639C55.9316 11.4375 56.3916 11.8808 56.3916 12.439C56.3916 12.5716 56.3651 12.7029 56.3134 12.8254C56.2617 12.948 56.186 13.0593 56.0906 13.1531C55.9952 13.2469 55.8819 13.3212 55.7572 13.3719C55.6324 13.4226 55.4988 13.4487 55.3639 13.4486L51.4486 13.4492V8.03783L50.2158 7.14202V13.4492C49.0375 13.4492 48.0791 13.4486 48.0791 13.4486V10.7064H46.8473V13.4486H45.0227V12.1529C45.0227 10.5631 43.7721 9.8436 42.7653 9.8436C41.6701 9.8436 40.5103 10.6489 40.5103 12.1529V13.4486H37.0611C36.6836 13.4486 36.4255 13.1465 36.4255 12.8241V10.2964L35.1927 10.6687V12.9851C35.1927 13.9938 36.0465 14.662 36.8973 14.662H41.7424V12.0676C41.7424 11.5085 42.1934 11.0561 42.7613 11.0561C42.8963 11.0561 43.0301 11.0823 43.1549 11.1332C43.2797 11.184 43.393 11.2586 43.4885 11.3525C43.584 11.4464 43.6597 11.5579 43.7114 11.6806C43.7631 11.8033 43.7896 11.9348 43.7896 12.0676V14.662H55.2759C56.8932 14.6632 57.6251 13.4323 57.6251 12.443C57.6251 11.3661 56.8059 10.226 55.2759 10.226ZM37.206 16.8605H38.4407V15.6468H37.206V16.8605ZM54.2664 23.6218C53.5928 23.6218 53.0179 23.7994 52.6894 24.0094L51.7695 25.5759C51.4573 24.4776 50.5207 23.6218 48.7464 23.6218C48.073 23.6218 47.5142 23.7833 47.2024 23.961L46.2658 25.4467V23.7833H44.7544V31.6963H46.2658V25.5595C46.8204 25.1808 47.4796 24.9779 48.1549 24.9782C49.6007 24.9782 50.2907 25.7696 50.2907 26.7708V31.6963H51.8021V25.7048C52.3443 25.2527 52.9687 24.9782 53.6916 24.9782C55.1371 24.9782 55.8271 25.802 55.8271 27.0937V31.6963H57.3385V26.7223C57.3385 24.7521 56.2378 23.6218 54.2664 23.6218ZM60.1646 31.6963H61.676V23.7833H60.1646V31.6963ZM139.186 8.52053H137.951V9.73418H139.186V8.52053ZM39.0456 16.8542H40.2803V15.6405H39.0456V16.8542ZM13.9416 29.806C13.981 29.8682 15.0798 29.2771 15.7221 28.8489C16.7057 28.1932 17.5773 27.4043 18.3389 26.5177C20.533 23.9623 21.7411 20.644 21.793 17.3098C21.8342 14.6242 21.0703 12.2871 20.3663 10.8407C20.0029 10.0927 19.4611 9.14843 19.3856 9.18705C19.3513 9.20378 19.3856 9.34905 19.4511 9.56003C19.5432 9.85778 20.9248 14.1884 19.8747 19.4313C19.6725 20.4409 19.351 21.4512 18.94 22.4395C19.0177 21.848 19.0439 21.2512 19.0184 20.6554C18.9352 18.7571 18.2916 17.1372 17.728 16.1445C17.4366 15.6304 17.0108 14.9855 16.9584 15.0157C16.935 15.0292 16.9648 15.1308 17.0211 15.2771C17.0995 15.4839 18.2676 18.4865 17.7388 22.2329C17.3624 24.9062 15.8238 27.6521 14.1118 29.5913C14.0079 29.7086 13.919 29.7787 13.9416 29.806ZM2.35618 2.31674H13.2172C8.27735 7.92908 5.83352 15.0211 6.31749 22.3005C6.71381 28.252 10.1032 33.76 12.9062 36.6824H2.35618V2.31674ZM19.4621 2.31674C13.7888 7.16718 9.97556 13.9718 9.81754 21.5368C9.69726 27.3056 10.781 31.7366 13.7405 36.1563C10.9099 32.09 9.06677 28.5254 8.6375 23.7714C7.93637 16.0159 10.9985 8.21108 17.0425 2.31674H19.4621ZM24.1145 2.31674H26.0968V36.6824H15.2832C12.7578 32.4542 11.959 28.0181 12.1359 23.2303C12.4498 14.7324 17.11 7.20869 24.1145 2.31674ZM0 39H28.3916V0H0V39Z" fill="var(--fill-0, black)"/>
</g>
<defs>
<clipPath id="clip0_2139_38328">
<rect width="144" height="39" fill="white"/>
</clipPath>
</defs>
</svg>
