<svg preserveAspectRatio="none" width="100%" height="100%" overflow="visible" style="display: block;" viewBox="0 0 12.6337 17.6872" fill="none" xmlns="http://www.w3.org/2000/svg">
<path id="Vector" d="M6.31684 12.6337C7.32172 12.6326 8.28514 12.233 8.9957 11.5224C9.70626 10.8119 10.1059 9.84846 10.107 8.84358V3.79011C10.107 2.78491 9.70764 1.82088 8.99686 1.1101C8.28607 0.399314 7.32204 0 6.31684 0C5.31165 0 4.34762 0.399314 3.63683 1.1101C2.92605 1.82088 2.52674 2.78491 2.52674 3.79011V8.84358C2.52778 9.84846 2.92743 10.8119 3.63799 11.5224C4.34855 12.233 5.31197 12.6326 6.31684 12.6337ZM3.79011 3.79011C3.79011 3.11997 4.05632 2.47729 4.53017 2.00343C5.00403 1.52958 5.64671 1.26337 6.31684 1.26337C6.98698 1.26337 7.62966 1.52958 8.10352 2.00343C8.57737 2.47729 8.84358 3.11997 8.84358 3.79011V8.84358C8.84358 9.51372 8.57737 10.1564 8.10352 10.6303C7.62966 11.1041 6.98698 11.3703 6.31684 11.3703C5.64671 11.3703 5.00403 11.1041 4.53017 10.6303C4.05632 10.1564 3.79011 9.51372 3.79011 8.84358V3.79011ZM6.94853 15.1288V17.0555C6.94853 17.223 6.88198 17.3837 6.76351 17.5021C6.64505 17.6206 6.48438 17.6872 6.31684 17.6872C6.14931 17.6872 5.98864 17.6206 5.87018 17.5021C5.75171 17.3837 5.68516 17.223 5.68516 17.0555V15.1288C4.12778 14.9704 2.68447 14.24 1.63436 13.0791C0.584246 11.9181 0.00192357 10.409 0 8.84358C0 8.67605 0.0665524 8.51538 0.185016 8.39691C0.30348 8.27845 0.464151 8.2119 0.631684 8.2119C0.799218 8.2119 0.959889 8.27845 1.07835 8.39691C1.19682 8.51538 1.26337 8.67605 1.26337 8.84358C1.26337 10.1838 1.79579 11.4692 2.7435 12.4169C3.69121 13.3646 4.97658 13.8971 6.31684 13.8971C7.65711 13.8971 8.94248 13.3646 9.89019 12.4169C10.8379 11.4692 11.3703 10.1838 11.3703 8.84358C11.3703 8.67605 11.4369 8.51538 11.5553 8.39691C11.6738 8.27845 11.8345 8.2119 12.002 8.2119C12.1695 8.2119 12.3302 8.27845 12.4487 8.39691C12.5671 8.51538 12.6337 8.67605 12.6337 8.84358C12.6318 10.409 12.0494 11.9181 10.9993 13.0791C9.94922 14.24 8.50591 14.9704 6.94853 15.1288Z" fill="var(--fill-0, black)"/>
</svg>
