<svg preserveAspectRatio="none" width="100%" height="100%" overflow="visible" style="display: block;" viewBox="0 0 49.8828 58.9394" fill="none" xmlns="http://www.w3.org/2000/svg">
<g id="Group 11060">
<path id="Path 49883" d="M29.8304 24.3805C29.8304 24.6341 29.7309 24.8774 29.554 25.0567C29.3771 25.2361 29.1371 25.3368 28.8869 25.3368H26.4366C26.3117 25.3385 26.1877 25.3149 26.0718 25.2676C25.956 25.2203 25.8505 25.1501 25.7616 25.0611C25.6727 24.9721 25.6022 24.8661 25.554 24.7493C25.5058 24.6325 25.481 24.5071 25.481 24.3805V21.8925C25.4794 21.7649 25.503 21.6382 25.5505 21.5199C25.5979 21.4016 25.6683 21.2942 25.7573 21.2039C25.8464 21.1136 25.9523 21.0423 26.069 20.9943C26.1857 20.9462 26.3107 20.9222 26.4366 20.9239H28.8869C29.0118 20.9239 29.1355 20.949 29.2508 20.9978C29.366 21.0467 29.4706 21.1182 29.5583 21.2083C29.6461 21.2984 29.7154 21.4053 29.7621 21.5228C29.8087 21.6402 29.832 21.7659 29.8304 21.8925V24.3805Z" fill="var(--fill-0, white)"/>
<path id="Path 49884" d="M28.972 18.4101C28.9722 18.511 28.9526 18.611 28.9145 18.7042C28.8764 18.7975 28.8205 18.8822 28.75 18.9534C28.6794 19.0247 28.5957 19.081 28.5036 19.1193C28.4115 19.1576 28.3128 19.1771 28.2132 19.1765H26.2737C26.0722 19.1773 25.8787 19.097 25.7354 18.9533C25.5922 18.8097 25.5109 18.6143 25.5095 18.4101V16.429C25.5117 16.2252 25.5932 16.0306 25.7364 15.8875C25.8795 15.7444 26.0727 15.6646 26.2737 15.6653H28.2199C28.3192 15.6648 28.4177 15.6841 28.5097 15.7222C28.6016 15.7603 28.6853 15.8165 28.7558 15.8874C28.8263 15.9584 28.8822 16.0428 28.9205 16.1357C28.9588 16.2286 28.9786 16.3283 28.9787 16.429L28.972 18.4101Z" fill="var(--fill-0, white)"/>
<path id="Path 49885" d="M34.976 21.7997C34.9711 22.0105 34.885 22.211 34.7361 22.3583C34.5873 22.5056 34.3875 22.588 34.1794 22.588H32.1578C31.9514 22.5876 31.7535 22.5045 31.6073 22.3569C31.4611 22.2092 31.3785 22.0089 31.3774 21.7997V19.7503C31.3769 19.6461 31.3967 19.5429 31.4357 19.4465C31.4747 19.3502 31.5321 19.2626 31.6046 19.1888C31.6772 19.115 31.7634 19.0565 31.8583 19.0166C31.9532 18.9768 32.055 18.9563 32.1578 18.9565H34.1794C34.3886 18.9565 34.5894 19.0399 34.7385 19.1887C34.8875 19.3374 34.9728 19.5397 34.976 19.7517V21.7997Z" fill="var(--fill-0, white)"/>
<path id="Path 49886" d="M33.143 16.3607C33.1423 16.5514 33.0673 16.7341 32.9342 16.869C32.8012 17.0038 32.6209 17.0799 32.4327 17.0807H30.6186C30.5259 17.0805 30.4342 17.0617 30.3488 17.0253C30.2634 16.9889 30.186 16.9356 30.121 16.8686C30.0561 16.8016 30.0049 16.7222 29.9705 16.635C29.936 16.5478 29.919 16.4546 29.9205 16.3607V14.5313C29.9192 14.4375 29.9364 14.3443 29.9709 14.2573C30.0054 14.1702 30.0565 14.091 30.1215 14.0242C30.1864 13.9573 30.2638 13.9042 30.3491 13.8679C30.4345 13.8316 30.5261 13.8128 30.6186 13.8126H32.4327C32.6204 13.814 32.8001 13.8902 32.933 14.0246C33.0658 14.159 33.1413 14.341 33.143 14.5313V16.3607Z" fill="var(--fill-0, white)"/>
<path id="Path 49887" d="M27.8369 9.45026C27.8351 9.58785 27.7799 9.7192 27.6833 9.81586C27.5867 9.91252 27.4564 9.96671 27.3207 9.9667H25.9837C25.8495 9.96561 25.7213 9.91064 25.627 9.81382C25.5328 9.71701 25.4802 9.58627 25.481 9.45026V8.09768C25.4813 7.962 25.5342 7.83187 25.6282 7.73529C25.7222 7.63871 25.8498 7.58339 25.9837 7.58125H27.3207C27.4559 7.58297 27.5852 7.63772 27.6814 7.73401C27.7777 7.83031 27.8334 7.96065 27.8369 8.09768V9.45026Z" fill="var(--fill-0, white)"/>
<path id="Path 49888" d="M46.0291 22.6235C46.0288 22.7482 45.9799 22.8677 45.893 22.9559C45.8062 23.0442 45.6885 23.0942 45.5655 23.0949H44.3673C44.2429 23.0949 44.1233 23.0457 44.0342 22.9576C43.945 22.8695 43.8934 22.7497 43.8902 22.6235V21.4076C43.8923 21.2804 43.9437 21.1591 44.0332 21.0699C44.1227 20.9807 44.2432 20.9307 44.3687 20.9308H45.5669C45.6898 20.9346 45.8065 20.9863 45.8928 21.0751C45.9792 21.1639 46.0285 21.2829 46.0305 21.4076L46.0291 22.6235Z" fill="var(--fill-0, white)"/>
<path id="Path 49889" d="M39.5265 12.5734C39.5265 12.7018 39.4763 12.825 39.3868 12.9159C39.2974 13.0068 39.176 13.0581 39.0494 13.0585H37.8229C37.6974 13.0563 37.5778 13.0043 37.4898 12.9135C37.4018 12.8228 37.3525 12.7007 37.3525 12.5734V11.3233C37.355 11.1967 37.4063 11.0762 37.4955 10.9875C37.5847 10.8989 37.7047 10.8492 37.8296 10.8493H39.0561C39.1812 10.8492 39.3014 10.8991 39.3906 10.988C39.4799 11.0769 39.5311 11.1979 39.5332 11.3247L39.5265 12.5734Z" fill="var(--fill-0, white)"/>
<path id="Path 49890" d="M42.4352 11.6253C42.4352 11.6799 42.4245 11.734 42.4036 11.7844C42.3826 11.8347 42.352 11.8804 42.3134 11.9185C42.2749 11.9567 42.2292 11.9867 42.1791 12.0067C42.1289 12.0268 42.0753 12.0364 42.0214 12.0352H40.9257C40.8169 12.0356 40.7123 11.993 40.634 11.9165C40.5558 11.8399 40.51 11.7355 40.5065 11.6253V10.5186C40.5079 10.4061 40.5524 10.2986 40.6306 10.2188C40.7089 10.1389 40.8147 10.0931 40.9257 10.091H42.0214C42.0768 10.0896 42.1319 10.0998 42.1833 10.1209C42.2346 10.1421 42.2811 10.1737 42.3199 10.2138C42.3587 10.2539 42.3889 10.3016 42.4088 10.3541C42.4286 10.4065 42.4376 10.4625 42.4352 10.5186V11.6253Z" fill="var(--fill-0, white)"/>
<path id="Path 49891" d="M42.8285 21.1234C42.8287 21.185 42.8169 21.246 42.7937 21.3029C42.7705 21.3598 42.7365 21.4116 42.6935 21.4551C42.6506 21.4987 42.5995 21.5332 42.5434 21.5567C42.4872 21.5802 42.427 21.5922 42.3662 21.592H41.1532C41.0929 21.5918 41.0332 21.5795 40.9775 21.5558C40.9219 21.5321 40.8715 21.4975 40.8291 21.4539C40.7868 21.4103 40.7533 21.3587 40.7308 21.302C40.7082 21.2452 40.697 21.1845 40.6977 21.1234V19.906C40.6957 19.8438 40.706 19.7817 40.7279 19.7235C40.7498 19.6652 40.7829 19.612 40.8253 19.5669C40.8677 19.5217 40.9185 19.4856 40.9748 19.4606C41.0311 19.4355 41.0918 19.4221 41.1532 19.421H42.3662C42.4282 19.4214 42.4895 19.4343 42.5465 19.459C42.6035 19.4837 42.6551 19.5197 42.6981 19.5649C42.7412 19.6101 42.7749 19.6635 42.7973 19.7221C42.8197 19.7807 42.8303 19.8432 42.8285 19.906V21.1234Z" fill="var(--fill-0, white)"/>
<path id="Path 49892" d="M27.2937 6.03332C27.2948 6.08607 27.2856 6.13852 27.2667 6.18767C27.2478 6.23682 27.2195 6.28171 27.1834 6.31977C27.1474 6.35783 27.1043 6.38833 27.0566 6.4095C27.0089 6.43068 26.9576 6.44213 26.9056 6.44319H25.8664C25.8149 6.4416 25.7642 6.42974 25.7172 6.40827C25.6703 6.38681 25.6279 6.35617 25.5926 6.3181C25.5573 6.28004 25.5297 6.2353 25.5115 6.18643C25.4933 6.13757 25.4848 6.08554 25.4864 6.03332V4.99362C25.4842 4.94127 25.4924 4.889 25.5104 4.8399C25.5284 4.79079 25.5559 4.74583 25.5913 4.70765C25.6267 4.66947 25.6693 4.63884 25.7165 4.61757C25.7638 4.59629 25.8148 4.58479 25.8664 4.58375H26.9056C26.9578 4.58427 27.0093 4.59534 27.0573 4.61633C27.1052 4.63732 27.1485 4.66779 27.1846 4.70597C27.2208 4.74414 27.2491 4.78925 27.2678 4.83864C27.2865 4.88804 27.2953 4.94072 27.2937 4.99362V6.03332Z" fill="var(--fill-0, white)"/>
<path id="Path 49893" d="M45.326 11.598C45.325 11.6962 45.2861 11.7901 45.2175 11.8596C45.149 11.929 45.0564 11.9685 44.9595 11.9696H43.9985C43.9022 11.9665 43.8107 11.9264 43.7426 11.8573C43.6745 11.7883 43.6349 11.6955 43.6319 11.598V10.6293C43.6363 10.5332 43.6767 10.4424 43.7448 10.3754C43.8129 10.3084 43.9036 10.2702 43.9985 10.2686H44.9541C45.0503 10.2682 45.1427 10.3063 45.2113 10.3746C45.28 10.4429 45.3192 10.5359 45.3206 10.6334L45.326 11.598Z" fill="var(--fill-0, white)"/>
<path id="Path 49894" d="M48.6187 24.681C48.6158 24.776 48.5762 24.866 48.5083 24.9315C48.4404 24.9969 48.3498 25.0326 48.2561 25.0308H47.3261C47.2799 25.0321 47.2338 25.024 47.1906 25.007C47.1474 24.9901 47.108 24.9646 47.0746 24.932C47.0413 24.8995 47.0146 24.8605 46.9962 24.8174C46.9779 24.7743 46.9681 24.728 46.9676 24.681V23.7383C46.969 23.6424 47.0072 23.5508 47.0742 23.4829C47.1411 23.4151 47.2315 23.3763 47.3261 23.3749H48.2561C48.3512 23.3763 48.4419 23.4149 48.5095 23.4827C48.5771 23.5504 48.6162 23.642 48.6187 23.7383V24.681Z" fill="var(--fill-0, white)"/>
<path id="Path 49895" d="M47.8375 12.0434C47.8346 12.111 47.8071 12.175 47.7603 12.2233C47.7135 12.2715 47.6507 12.3003 47.5841 12.3043H46.9102C46.8424 12.302 46.778 12.2738 46.7298 12.2255C46.6816 12.1771 46.6531 12.1121 46.6501 12.0434V11.3603C46.6515 11.2912 46.6794 11.2253 46.728 11.1769C46.7766 11.1284 46.842 11.101 46.9102 11.1007H47.5841C47.6505 11.1047 47.713 11.1334 47.7598 11.1813C47.8066 11.2292 47.8343 11.2929 47.8375 11.3603V12.0434Z" fill="var(--fill-0, white)"/>
<path id="Path 49896" d="M49.872 27.0474C49.8697 27.117 49.8411 27.1831 49.7922 27.2321C49.7434 27.2811 49.6779 27.3094 49.6092 27.3111H48.9636C48.9299 27.3107 48.8967 27.3036 48.8657 27.2901C48.8348 27.2766 48.8067 27.2571 48.7833 27.2325C48.7599 27.208 48.7415 27.179 48.7292 27.1472C48.7169 27.1154 48.7109 27.0815 48.7116 27.0474V26.3752C48.712 26.3077 48.7387 26.243 48.7859 26.1954C48.8331 26.1478 48.897 26.1211 48.9636 26.1211H49.6132C49.6816 26.1209 49.7475 26.147 49.7975 26.1942C49.8476 26.2414 49.878 26.3061 49.8828 26.3752L49.872 27.0474Z" fill="var(--fill-0, white)"/>
<path id="Path 49897" d="M28.3372 13.5462C28.3373 13.7153 28.272 13.8776 28.1553 13.9984C28.0386 14.1192 27.8799 14.1889 27.7132 14.1925H26.0756C25.9916 14.1938 25.9081 14.1779 25.8302 14.1459C25.7522 14.1139 25.6814 14.0663 25.622 14.0061C25.5625 13.9458 25.5157 13.874 25.4841 13.7951C25.4525 13.7161 25.4369 13.6315 25.4381 13.5462V11.8945C25.4387 11.8104 25.4556 11.7274 25.488 11.65C25.5204 11.5727 25.5676 11.5027 25.6269 11.444C25.6862 11.3853 25.7564 11.3391 25.8334 11.3081C25.9104 11.277 25.9928 11.2618 26.0756 11.2633H27.7118C27.876 11.2667 28.0326 11.3343 28.1488 11.4519C28.2651 11.5695 28.3321 11.728 28.3359 11.8945L28.3372 13.5462Z" fill="var(--fill-0, white)"/>
<path id="Path 49898" d="M34.4046 26.9805C34.4026 27.1786 34.3245 27.3682 34.1868 27.509C34.0492 27.6498 33.8629 27.7307 33.6674 27.7346H31.7522C31.556 27.7328 31.3685 27.6526 31.2304 27.5113C31.0924 27.3701 31.0149 27.1793 31.015 26.9805V25.0486C31.016 24.8507 31.094 24.6613 31.232 24.5213C31.3701 24.3814 31.557 24.3023 31.7522 24.3013H33.6633C33.858 24.3041 34.0439 24.3837 34.1816 24.5233C34.3192 24.6628 34.3978 24.8513 34.4006 25.0486L34.4046 26.9805Z" fill="var(--fill-0, white)"/>
<path id="Path 49899" d="M40.515 32.8525C40.5152 32.9188 40.5023 32.9845 40.4772 33.0457C40.452 33.1069 40.4151 33.1624 40.3685 33.209C40.322 33.2555 40.2667 33.2922 40.206 33.3169C40.1453 33.3415 40.0803 33.3537 40.0149 33.3526H38.7238C38.6582 33.3535 38.593 33.3412 38.5321 33.3166C38.4712 33.2919 38.4157 33.2553 38.3687 33.2089C38.3218 33.1624 38.2843 33.107 38.2585 33.0459C38.2327 32.9847 38.2191 32.919 38.2184 32.8525V31.5409C38.2192 31.4746 38.233 31.409 38.2589 31.348C38.2848 31.287 38.3222 31.2318 38.3692 31.1855C38.4161 31.1392 38.4716 31.1027 38.5324 31.0781C38.5932 31.0535 38.6583 31.0414 38.7238 31.0423H40.0149C40.0802 31.0412 40.1451 31.0533 40.2057 31.0778C40.2663 31.1024 40.3215 31.139 40.368 31.1854C40.4146 31.2318 40.4515 31.2871 40.4768 31.3482C40.502 31.4092 40.515 31.4748 40.515 31.5409V32.8525Z" fill="var(--fill-0, white)"/>
<path id="Path 49900" d="M41.4975 36.0837C41.4979 36.1358 41.4879 36.1875 41.4683 36.2356C41.4487 36.2838 41.4197 36.3275 41.3831 36.3642C41.3466 36.4009 41.3032 36.4297 41.2555 36.4491C41.2078 36.4685 41.1567 36.4781 41.1053 36.4771H40.1079C40.0576 36.4764 40.008 36.4657 39.9618 36.4455C39.9156 36.4254 39.8738 36.3962 39.8388 36.3596C39.8038 36.3231 39.7762 36.2799 39.7576 36.2326C39.739 36.1852 39.7298 36.1346 39.7305 36.0837V35.0699C39.7312 34.9688 39.7713 34.8721 39.8419 34.8007C39.9126 34.7293 40.0082 34.6891 40.1079 34.6887H41.1053C41.1558 34.6875 41.206 34.6963 41.2531 34.7149C41.3002 34.7334 41.3432 34.7611 41.3797 34.7966C41.4161 34.832 41.4453 34.8744 41.4655 34.9213C41.4858 34.9682 41.4966 35.0187 41.4975 35.0699V36.0837Z" fill="var(--fill-0, white)"/>
<path id="Path 49901" d="M41.8573 38.8585C41.8573 38.931 41.8289 39.0005 41.7784 39.0517C41.7278 39.103 41.6592 39.1318 41.5878 39.1318H40.8842C40.8481 39.1329 40.8122 39.1266 40.7786 39.1134C40.7449 39.1001 40.7143 39.0802 40.6884 39.0547C40.6625 39.0292 40.6419 38.9987 40.6278 38.965C40.6138 38.9313 40.6066 38.8951 40.6066 38.8585V38.1399C40.6097 38.0681 40.6406 38.0005 40.6926 37.9517C40.7445 37.9028 40.8134 37.8767 40.8842 37.8789H41.5878C41.6572 37.8788 41.724 37.9059 41.7742 37.9545C41.8244 38.0032 41.8542 38.0695 41.8573 38.1399V38.8585Z" fill="var(--fill-0, white)"/>
<path id="Path 49902" d="M34.488 58.6566C34.4873 58.7314 34.4577 58.8029 34.4055 58.8558C34.3534 58.9087 34.2828 58.9387 34.209 58.9394H33.5082C33.4345 58.9377 33.3642 58.9074 33.3118 58.8548C33.2594 58.8023 33.2289 58.7313 33.2265 58.6566V57.9475C33.2306 57.8743 33.262 57.8054 33.3142 57.7546C33.3665 57.7039 33.4358 57.6752 33.5082 57.6743H34.209C34.2814 57.6742 34.351 57.7027 34.4031 57.7537C34.4551 57.8047 34.4856 57.8742 34.488 57.9475V58.6566Z" fill="var(--fill-0, white)"/>
<path id="Path 49903" d="M38.4272 29.411C38.4267 29.492 38.4104 29.5721 38.3791 29.6467C38.3479 29.7213 38.3024 29.7889 38.2452 29.8455C38.1881 29.9022 38.1204 29.9468 38.0462 29.9768C37.9719 30.0068 37.8926 30.0216 37.8127 30.0203H36.2344C36.1542 30.022 36.0744 30.0074 35.9998 29.9776C35.9252 29.9478 35.8571 29.9033 35.7996 29.8466C35.742 29.7899 35.6962 29.7222 35.6646 29.6475C35.6331 29.5727 35.6165 29.4923 35.6158 29.411V27.7961C35.6157 27.7141 35.6318 27.6328 35.663 27.5571C35.6941 27.4814 35.7398 27.4128 35.7973 27.3551C35.8549 27.2974 35.9231 27.2518 35.9981 27.2211C36.0732 27.1903 36.1534 27.1749 36.2344 27.1758H37.8127C37.8933 27.1753 37.9732 27.1909 38.0478 27.2219C38.1225 27.2528 38.1903 27.2985 38.2475 27.3561C38.3046 27.4138 38.3499 27.4824 38.3808 27.5579C38.4116 27.6334 38.4274 27.7144 38.4272 27.7961V29.411Z" fill="var(--fill-0, white)"/>
<path id="Path 49904" d="M39.1811 20.6192C39.1789 20.7733 39.1171 20.9202 39.0089 21.0284C38.9007 21.1365 38.7548 21.1972 38.6029 21.1972H37.1365C37.0615 21.1977 36.9871 21.1831 36.9177 21.1543C36.8482 21.1254 36.7852 21.0829 36.7322 21.0291C36.6791 20.9753 36.6371 20.9114 36.6087 20.841C36.5802 20.7707 36.5658 20.6953 36.5664 20.6192V19.1164C36.5653 19.0399 36.5792 18.964 36.6074 18.8931C36.6356 18.8222 36.6776 18.7577 36.7306 18.7034C36.7837 18.6491 36.8469 18.606 36.9166 18.5768C36.9863 18.5475 37.0611 18.5326 37.1365 18.533H38.6029C38.7557 18.5334 38.9021 18.5948 39.0104 18.7041C39.1187 18.8133 39.18 18.9615 39.1811 19.1164V20.6192Z" fill="var(--fill-0, white)"/>
<path id="Path 49905" d="M36.5401 14.2239C36.5404 14.3801 36.4798 14.5301 36.3715 14.6412C36.2632 14.7523 36.116 14.8154 35.9619 14.8169H34.4537C34.3768 14.817 34.3007 14.8018 34.2296 14.7721C34.1586 14.7423 34.094 14.6987 34.0397 14.6436C33.9853 14.5885 33.9423 14.5231 33.9129 14.451C33.8836 14.379 33.8686 14.3018 33.8688 14.2239V12.7006C33.8684 12.6226 33.8833 12.5454 33.9126 12.4734C33.9418 12.4014 33.985 12.336 34.0394 12.2809C34.0938 12.2259 34.1584 12.1824 34.2295 12.1529C34.3006 12.1233 34.3768 12.1084 34.4537 12.109H35.9619C36.0382 12.1092 36.1137 12.1246 36.1841 12.1545C36.2546 12.1843 36.3185 12.228 36.3722 12.283C36.426 12.3379 36.4684 12.4031 36.4972 12.4748C36.526 12.5465 36.5406 12.6232 36.5401 12.7006V14.2239Z" fill="var(--fill-0, white)"/>
<path id="Path 49906" d="M20.8893 25.2236L21.7385 30.3046L20.8786 30.0409L21.8665 34.9676L21.0699 34.7271L22.0754 39.3627L21.4648 39.2015L22.4204 43.956L21.8328 43.8659L22.756 48.563L22.2102 48.5261L23.1401 53.409L22.6226 53.2574L23.3517 57.7004L15.6518 58.8138L24.4124 58.8316V0.00421429C23.8821 2.12141 23.7207 4.31622 23.9354 6.48974C23.9744 6.75479 22.9919 4.1603 22.5283 2.86921C22.6452 4.79663 23.0727 6.69163 23.7938 8.47898C22.9608 7.19971 22.2392 5.84932 21.6374 4.44311C22.0458 6.51847 22.7295 8.52823 23.6698 10.4177C22.7078 9.1138 21.8165 7.75785 20.9999 6.35585C21.565 8.36857 22.4115 10.2889 23.5135 12.0585C22.3934 10.8641 21.4242 9.53318 20.6279 8.09643C20.675 9.47086 23.4825 14.071 23.4717 14.2595C22.2794 12.9388 21.2165 11.5039 20.2977 9.975C20.9322 12.2309 21.9796 14.3458 23.3854 16.2091C22.195 14.8642 21.083 13.45 20.0551 11.9738C20.2141 13.8223 22.9825 17.9962 22.9825 17.9962C20.1521 14.2554 9.30512 7.63328 1.88825 11.6309C4.3069 11.1872 6.77942 11.1327 9.21479 11.4697C9.72829 11.5817 5.07304 11.9902 4.00963 12.7321C6.51159 12.3922 9.03292 12.2196 11.5572 12.2156C10.9952 12.4288 7.36832 12.8987 6.61896 13.7007C9.13237 13.2515 11.6964 13.17 14.2326 13.4589C14.3917 13.5272 9.35904 13.8073 8.43041 14.5519C11.2899 14.3265 14.1653 14.4283 17.0023 14.8552C15.6384 15.0055 11.971 14.7432 10.3753 15.5902C13.3483 15.4443 16.3275 15.6863 19.2397 16.3102C18.2356 16.3102 13.9833 15.9004 12.3767 16.8663C15.4684 16.6363 18.574 17.0448 21.5053 18.0672C20.5497 17.9306 16.3729 17.1204 14.2946 17.865C16.8328 18.0613 19.3162 18.7151 21.6279 19.7955C18.7329 19.0482 3.11474 16.0821 0 27.2948C1.40471 25.0413 3.22896 23.0867 5.37091 21.5402C3.8375 22.898 2.73377 24.6846 2.19822 26.6759C3.41918 24.2876 5.27799 22.2954 7.56242 20.9268C7.56242 20.9268 4.66065 23.5636 4.26979 25.8056C5.6822 23.6756 7.60734 21.946 9.8631 20.7806C8.25879 21.9122 6.9715 23.4464 6.12703 25.2331C7.72669 23.3048 9.6949 21.7246 11.9131 20.5879C10.495 21.7955 9.21999 23.1659 8.11366 24.6716C10.0342 22.8313 12.3242 21.4332 14.827 20.5729C12.9984 21.5436 11.3691 22.8586 10.0262 24.4475C12.3821 22.8327 15.6761 20.9459 18.8003 20.9869C18.8003 20.9869 13.7636 22.3531 12.2554 24.0623C14.9144 23.0593 17.7549 22.647 20.5847 22.8531C18.2153 23.5363 6.89392 27.9929 8.9156 39.5923C9.30275 37.3832 9.84322 35.2045 10.533 33.0726C10.5989 34.9039 10.8039 36.7273 11.1462 38.5266C11.3634 35.9764 11.7356 33.4422 12.2608 30.9385C12.2497 32.8146 12.4304 34.6868 12.7999 36.5251C12.9428 36.0824 13.2784 30.4426 13.9415 29.5081C13.7035 31.3507 13.7571 33.22 14.1005 35.0454C14.3782 33.2434 14.9092 28.9957 15.6276 27.9232C15.2996 29.8988 15.3215 31.9178 15.6923 33.8855C15.9457 31.317 16.5819 28.8023 17.5792 26.4272C17.2553 28.4658 17.1928 30.5382 17.3932 32.593C17.6142 32.0575 18.1102 27.2757 19.3542 25.3698C18.9795 27.3604 18.8801 29.3942 19.059 31.4126C19.4702 29.2941 20.0827 27.221 20.888 25.2222L20.8893 25.2236Z" fill="var(--fill-0, white)"/>
<path id="Path 49907" d="M31.1837 58.5869C31.1834 58.6327 31.1741 58.6779 31.1564 58.72C31.1386 58.762 31.1129 58.8001 31.0805 58.832C31.0482 58.8639 31.0099 58.889 30.9679 58.9058C30.926 58.9226 30.8811 58.9307 30.836 58.9298H29.937C29.8469 58.9298 29.7605 58.8939 29.6964 58.8297C29.6323 58.7655 29.5958 58.6782 29.5947 58.5869V57.6729C29.5954 57.581 29.6317 57.493 29.6957 57.4278C29.7597 57.3627 29.8463 57.3256 29.937 57.3245H30.8387C30.8841 57.3242 30.9292 57.3329 30.9713 57.3502C31.0134 57.3676 31.0516 57.3931 31.0839 57.4255C31.1162 57.4579 31.1419 57.4964 31.1595 57.5388C31.1771 57.5813 31.1863 57.6269 31.1864 57.6729L31.1837 58.5869Z" fill="var(--fill-0, white)"/>
<path id="Path 49908" d="M26.9473 3.24208C26.9486 3.28522 26.9413 3.32818 26.9259 3.36841C26.9105 3.40864 26.8873 3.44532 26.8576 3.47628C26.8279 3.50724 26.7925 3.53185 26.7532 3.54865C26.714 3.56545 26.6718 3.57409 26.6293 3.57408H25.8206C25.778 3.57409 25.7359 3.56545 25.6967 3.54865C25.6574 3.53185 25.6219 3.50724 25.5923 3.47628C25.5626 3.44532 25.5394 3.40864 25.524 3.36841C25.5086 3.32818 25.5013 3.28522 25.5025 3.24208V2.43463C25.5025 2.34912 25.536 2.26711 25.5957 2.20664C25.6553 2.14617 25.7362 2.1122 25.8206 2.1122H26.6293C26.7136 2.1122 26.7945 2.14617 26.8542 2.20664C26.9138 2.26711 26.9473 2.34912 26.9473 2.43463V3.24208Z" fill="var(--fill-0, white)"/>
<path id="Path 49909" d="M26.6231 0.900352C26.6227 0.965826 26.5969 1.02852 26.5512 1.07482C26.5056 1.12111 26.4437 1.14728 26.3791 1.14764H25.7416C25.6768 1.14764 25.6146 1.12163 25.5687 1.0753C25.5227 1.02896 25.4967 0.966062 25.4963 0.900352V0.256855C25.4956 0.223614 25.5014 0.19056 25.5134 0.159606C25.5253 0.128652 25.5432 0.100412 25.5661 0.0765235C25.5889 0.0526349 25.6161 0.0335719 25.6463 0.0204369C25.6764 0.00730197 25.7088 0.000356363 25.7416 2.86102e-06H26.3791C26.4118 0.000535189 26.4441 0.00761186 26.474 0.0208265C26.504 0.0340412 26.5311 0.0531325 26.5538 0.077003C26.5765 0.100873 26.5943 0.129053 26.6061 0.159918C26.618 0.190784 26.6238 0.223727 26.6231 0.256855V0.900352Z" fill="var(--fill-0, white)"/>
<path id="Path 49910" d="M28.8333 41.6634C28.8331 41.7609 28.814 41.8574 28.777 41.9473C28.7399 42.0373 28.6857 42.1189 28.6175 42.1876C28.5492 42.2562 28.4683 42.3106 28.3793 42.3475C28.2903 42.3844 28.195 42.4031 28.0988 42.4025H26.2119C26.1167 42.402 26.0226 42.3824 25.9349 42.345C25.8472 42.3075 25.7677 42.2529 25.7008 42.1843C25.634 42.1156 25.5811 42.0343 25.5453 41.9449C25.5095 41.8555 25.4915 41.7599 25.4922 41.6634V39.7589C25.4918 39.5644 25.5672 39.3776 25.702 39.2392C25.8368 39.1008 26.0201 39.0219 26.2119 39.0197H28.0988C28.2927 39.0197 28.4787 39.0974 28.6163 39.2359C28.7539 39.3743 28.8319 39.5623 28.8333 39.7589V41.6634Z" fill="var(--fill-0, white)"/>
<path id="Path 49911" d="M29.5569 30.5094C29.5571 30.6261 29.5345 30.7417 29.4904 30.8496C29.4464 30.9574 29.3817 31.0553 29.3001 31.1377C29.2186 31.2202 29.1217 31.2854 29.0152 31.3297C28.9087 31.3741 28.7946 31.3966 28.6795 31.3961H26.4085C26.2939 31.3959 26.1805 31.3728 26.0747 31.3281C25.969 31.2834 25.873 31.218 25.7922 31.1356C25.7115 31.0533 25.6475 30.9556 25.6041 30.8481C25.5607 30.7406 25.5386 30.6255 25.5391 30.5094V28.2223C25.5388 27.9877 25.63 27.7625 25.7928 27.5959C25.9557 27.4292 26.177 27.3347 26.4085 27.3329H28.6795C28.9122 27.3329 29.1354 27.4266 29.2999 27.5934C29.4644 27.7602 29.5569 27.9864 29.5569 28.2223V30.5094Z" fill="var(--fill-0, white)"/>
<path id="Path 49912" d="M29.2096 36.5195C29.2096 36.7337 29.1257 36.939 28.9763 37.0905C28.827 37.2419 28.6243 37.3269 28.4131 37.3269H26.3429C26.1316 37.3269 25.929 37.2419 25.7797 37.0905C25.6303 36.939 25.5464 36.7337 25.5464 36.5195V34.421C25.5448 34.3139 25.5642 34.2076 25.6035 34.1082C25.6428 34.0088 25.7012 33.9183 25.7753 33.8421C25.8494 33.7658 25.9378 33.7052 26.0353 33.6638C26.1327 33.6225 26.2372 33.6012 26.3429 33.6012H28.4131C28.5187 33.6012 28.6233 33.6225 28.7208 33.6638C28.8182 33.7052 28.9065 33.7658 28.9807 33.8421C29.0548 33.9183 29.1132 34.0088 29.1525 34.1082C29.1918 34.2076 29.2112 34.3139 29.2096 34.421V36.5195Z" fill="var(--fill-0, white)"/>
<path id="Path 49913" d="M27.5528 58.479C27.5535 58.5962 27.5084 58.7089 27.4273 58.7924C27.3462 58.8758 27.2357 58.9233 27.1202 58.9244H25.9826C25.9247 58.9253 25.8671 58.9144 25.8134 58.8924C25.7597 58.8703 25.7109 58.8376 25.6699 58.796C25.6289 58.7545 25.5966 58.705 25.5749 58.6505C25.5531 58.5961 25.5424 58.5378 25.5433 58.479V57.3314C25.5429 57.2728 25.554 57.2147 25.576 57.1605C25.5979 57.1063 25.6303 57.0571 25.6711 57.0156C25.712 56.9742 25.7606 56.9414 25.8141 56.9192C25.8675 56.8969 25.9248 56.8856 25.9826 56.886H27.1202C27.2355 56.8878 27.3456 56.9355 27.4265 57.0188C27.5074 57.1022 27.5528 57.2144 27.5528 57.3314V58.479Z" fill="var(--fill-0, white)"/>
<path id="Path 49914" d="M28.0732 50.7762C28.069 50.9277 28.0069 51.0717 27.9 51.1777C27.7932 51.2837 27.6499 51.3435 27.5004 51.3445H26.0501C25.9025 51.3417 25.7618 51.2808 25.6577 51.1748C25.5536 51.0687 25.4942 50.9258 25.4922 50.7762V49.3006C25.4936 49.1513 25.5529 49.0086 25.6573 48.9032C25.7617 48.7979 25.9028 48.7385 26.0501 48.7378H27.499C27.6482 48.7366 27.7919 48.795 27.8991 48.9003C28.0062 49.0056 28.0683 49.1494 28.0718 49.3006L28.0732 50.7762Z" fill="var(--fill-0, white)"/>
<path id="Path 49915" d="M27.7155 54.8626C27.7157 54.9262 27.7035 54.9893 27.6796 55.0481C27.6557 55.1069 27.6206 55.1604 27.5763 55.2055C27.5319 55.2505 27.4793 55.2863 27.4213 55.3107C27.3633 55.3351 27.3012 55.3476 27.2384 55.3476H25.9877C25.862 55.3441 25.7424 55.2919 25.6536 55.2016C25.5648 55.1114 25.5136 54.99 25.5106 54.8626V53.6029C25.5146 53.4758 25.5661 53.355 25.6547 53.265C25.7433 53.1749 25.8623 53.1224 25.9877 53.1179H27.2344C27.3602 53.1214 27.4799 53.1736 27.5689 53.2638C27.6579 53.354 27.7095 53.4754 27.7129 53.6029L27.7155 54.8626Z" fill="var(--fill-0, white)"/>
<path id="Path 49916" d="M28.2377 46.2157C28.2381 46.3788 28.1753 46.5356 28.0629 46.6523C27.9505 46.7691 27.7974 46.8365 27.6366 46.84H26.0691C25.9071 46.8382 25.7525 46.7716 25.6388 46.6546C25.5252 46.5376 25.4618 46.3798 25.4626 46.2157V44.639C25.4626 44.5584 25.4783 44.4786 25.5088 44.4042C25.5393 44.3297 25.584 44.2621 25.6404 44.2053C25.6967 44.1484 25.7636 44.1034 25.8372 44.0728C25.9108 44.0422 25.9896 44.0266 26.0691 44.0269H27.6366C27.7961 44.028 27.9488 44.0929 28.0614 44.2076C28.174 44.3222 28.2373 44.4773 28.2377 44.639V46.2157Z" fill="var(--fill-0, white)"/>
</g>
</svg>
