<svg preserveAspectRatio="none" width="100%" height="100%" overflow="visible" style="display: block;" viewBox="0 0 12 12" fill="none" xmlns="http://www.w3.org/2000/svg">
<path id="Vector" d="M4 7C4.26522 7 4.51949 7.10543 4.70703 7.29297C4.89457 7.48051 5 7.73478 5 8V11C5 11.2652 4.89457 11.5195 4.70703 11.707C4.51949 11.8946 4.26522 12 4 12H1C0.734784 12 0.480505 11.8946 0.292969 11.707C0.105432 11.5195 0 11.2652 0 11V8C0 7.73478 0.105432 7.48051 0.292969 7.29297C0.480505 7.10543 0.734784 7 1 7H4ZM11 7C11.2652 7 11.5195 7.10543 11.707 7.29297C11.8946 7.48051 12 7.73478 12 8V11C12 11.2652 11.8946 11.5195 11.707 11.707C11.5195 11.8946 11.2652 12 11 12H8C7.73478 12 7.48051 11.8946 7.29297 11.707C7.10543 11.5195 7 11.2652 7 11V8C7 7.73478 7.10543 7.48051 7.29297 7.29297C7.48051 7.10543 7.73478 7 8 7H11ZM1 11H4V8H1V11ZM8 8V11H11V8H8ZM4 0C4.26522 0 4.51949 0.105432 4.70703 0.292969C4.89457 0.480505 5 0.734784 5 1V4C5 4.26522 4.89457 4.51949 4.70703 4.70703C4.51949 4.89457 4.26522 5 4 5H1C0.734784 5 0.480505 4.89457 0.292969 4.70703C0.105432 4.51949 0 4.26522 0 4V1C0 0.734784 0.105432 0.480505 0.292969 0.292969C0.480505 0.105432 0.734784 0 1 0H4ZM11 0C11.2652 0 11.5195 0.105432 11.707 0.292969C11.8946 0.480505 12 0.734784 12 1V4C12 4.26522 11.8946 4.51949 11.707 4.70703C11.5195 4.89457 11.2652 5 11 5H8C7.73478 5 7.48051 4.89457 7.29297 4.70703C7.10543 4.51949 7 4.26522 7 4V1C7 0.734784 7.10543 0.480505 7.29297 0.292969C7.48051 0.105432 7.73478 0 8 0H11ZM1 4H4V1H1V4ZM8 4H11V1H8V4Z" fill="var(--fill-0, black)"/>
</svg>
