<svg preserveAspectRatio="none" width="100%" height="100%" overflow="visible" style="display: block;" viewBox="0 0 24 24" fill="none" xmlns="http://www.w3.org/2000/svg">
<g id="fingerprint">
<mask id="mask0_2135_37761" style="mask-type:alpha" maskUnits="userSpaceOnUse" x="0" y="0" width="24" height="24">
<rect id="Bounding box" width="24" height="24" fill="var(--fill-0, #D9D9D9)"/>
</mask>
<g mask="url(#mask0_2135_37761)">
<path id="fingerprint_2" d="M12.2895 3.51771C14.3085 3.51771 16.2106 3.95372 17.9958 4.82572C19.7809 5.69772 21.2626 6.95819 22.4409 8.60714C22.6175 8.84314 22.6738 9.05743 22.61 9.25C22.5462 9.44257 22.4357 9.60257 22.2783 9.73C22.121 9.84676 21.9418 9.89772 21.7409 9.88286C21.5401 9.868 21.3718 9.75743 21.236 9.55114C20.2315 8.09781 18.935 6.98933 17.3466 6.22572C15.7582 5.4621 14.0725 5.07495 12.2895 5.06429C10.5064 5.05343 8.82966 5.43524 7.25918 6.20972C5.68852 6.984 4.40756 8.10324 3.41632 9.56743C3.2588 9.80343 3.07432 9.93095 2.8629 9.95C2.65128 9.96905 2.4668 9.92552 2.30947 9.81943C2.13309 9.70267 2.01975 9.54867 1.96947 9.35743C1.91937 9.16619 1.96223 8.97819 2.09804 8.79343C3.25747 7.12048 4.73575 5.82295 6.5329 4.90086C8.33004 3.97876 10.2489 3.51771 12.2895 3.51771ZM12.2895 6.23571C14.8718 6.23571 17.0759 7.11172 18.902 8.86372C20.7279 10.6155 21.6409 12.7635 21.6409 15.3077C21.6409 16.314 21.292 17.1658 20.5943 17.8631C19.8966 18.5603 19.0459 18.9089 18.0423 18.9089C17.0385 18.9089 16.1782 18.5737 15.4615 17.9034C14.7447 17.233 14.3863 16.4 14.3863 15.4046C14.3863 14.819 14.1853 14.3228 13.7832 13.9157C13.3811 13.5087 12.8886 13.3051 12.3058 13.3051C11.7227 13.3051 11.2301 13.5087 10.828 13.9157C10.4259 14.3228 10.2249 14.819 10.2249 15.4046C10.2249 17.22 10.7402 18.7468 11.7709 19.9849C12.8016 21.223 14.2643 22.0627 16.1592 22.504C16.3843 22.5503 16.5362 22.6617 16.6149 22.8383C16.6936 23.0147 16.7085 23.2006 16.6598 23.396C16.6108 23.5724 16.5103 23.727 16.3583 23.86C16.2065 23.9928 15.9964 24.0348 15.728 23.986C13.5317 23.5231 11.8077 22.5186 10.556 20.9723C9.30423 19.4262 8.67832 17.5703 8.67832 15.4046C8.67832 14.3876 9.03194 13.5257 9.73918 12.8189C10.4464 12.112 11.3019 11.7586 12.3058 11.7586C13.3094 11.7586 14.1648 12.1012 14.872 12.7866C15.5793 13.4719 15.9329 14.3123 15.9329 15.3077C15.9329 15.8824 16.1387 16.3732 16.5503 16.7803C16.9619 17.1873 17.4593 17.3909 18.0423 17.3909C18.6254 17.3909 19.1158 17.1873 19.5138 16.7803C19.9117 16.3732 20.1106 15.8824 20.1106 15.3077C20.1106 13.1843 19.3468 11.3945 17.8192 9.93829C16.2918 8.48191 14.4527 7.75371 12.302 7.75371C10.1512 7.75371 8.32004 8.49533 6.80861 9.97857C5.29737 11.4618 4.54175 13.2664 4.54175 15.3923C4.54175 16.0431 4.58728 16.6899 4.67832 17.3326C4.76937 17.9752 4.93918 18.6514 5.18775 19.3611C5.26642 19.5971 5.26432 19.806 5.18147 19.9877C5.09861 20.1696 4.95947 20.2999 4.76404 20.3786C4.54709 20.4572 4.34566 20.4525 4.15975 20.3643C3.97385 20.2761 3.8308 20.1128 3.73061 19.8743C3.48794 19.2497 3.30471 18.5654 3.1809 17.8214C3.05709 17.0772 2.99518 16.2716 2.99518 15.4046C2.99518 12.8282 3.90071 10.6559 5.71175 8.88771C7.52299 7.11971 9.71556 6.23571 12.2895 6.23571ZM12.3058 0.75C13.5463 0.75 14.7529 0.897619 15.9255 1.19286C17.0982 1.4881 18.2328 1.91724 19.3292 2.48029C19.5652 2.6079 19.7056 2.768 19.7503 2.96057C19.7951 3.15314 19.7781 3.33762 19.6995 3.514C19.6099 3.69038 19.4717 3.82476 19.2846 3.91714C19.0974 4.00933 18.887 3.99171 18.6535 3.86429C17.6655 3.33914 16.636 2.9439 15.5652 2.67857C14.4945 2.41305 13.408 2.28029 12.3058 2.28029C11.201 2.28029 10.1125 2.40886 9.04032 2.666C7.96832 2.92314 6.94661 3.32257 5.97518 3.86429C5.75823 3.99171 5.54394 4.02895 5.33232 3.976C5.12071 3.92305 4.96071 3.79886 4.85232 3.60343C4.76528 3.42952 4.75156 3.24295 4.81118 3.04372C4.8708 2.84448 4.99832 2.68648 5.19375 2.56971C6.28194 1.94457 7.42852 1.48495 8.63347 1.19086C9.83842 0.896952 11.0625 0.75 12.3058 0.75ZM12.3058 8.99086C14.0878 8.99086 15.617 9.60229 16.8932 10.8251C18.1694 12.0478 18.8075 13.542 18.8075 15.3077C18.8075 15.5546 18.7417 15.7572 18.61 15.9157C18.4782 16.0744 18.289 16.1537 18.0423 16.1537C17.8038 16.1537 17.6139 16.0744 17.4726 15.9157C17.3315 15.7572 17.2609 15.5546 17.2609 15.3077C17.2609 13.9652 16.7754 12.8319 15.8043 11.9077C14.8333 10.9835 13.6671 10.5214 12.3058 10.5214C10.9334 10.5214 9.76852 10.9943 8.81118 11.94C7.85385 12.8857 7.37518 14.0406 7.37518 15.4046C7.37518 16.8613 7.60956 18.1251 8.07832 19.196C8.54709 20.2667 9.29032 21.3395 10.308 22.4146C10.4654 22.5719 10.5468 22.751 10.5523 22.9517C10.5577 23.1527 10.4978 23.3264 10.3726 23.4729C10.2153 23.6517 10.0174 23.7331 9.7789 23.7171C9.54042 23.701 9.34252 23.6142 9.18518 23.4569C8.06137 22.2974 7.22366 21.0765 6.67204 19.794C6.12061 18.5117 5.8449 17.0486 5.8449 15.4046C5.8449 13.6175 6.47347 12.1018 7.73061 10.8574C8.98775 9.61305 10.5128 8.99086 12.3058 8.99086ZM12.2932 14.5426C12.5292 14.5426 12.7158 14.6212 12.8529 14.7786C12.9898 14.9359 13.0583 15.123 13.0583 15.34C13.0583 16.8547 13.5565 18.0234 14.5529 18.8463C15.5491 19.669 16.7491 20.0803 18.1529 20.0803C18.3102 20.0803 18.5018 20.0654 18.7275 20.0357C18.953 20.0058 19.1747 19.9826 19.3926 19.966C19.6071 19.9494 19.7924 20.0002 19.9486 20.1183C20.1046 20.2364 20.1909 20.4027 20.2075 20.6171C20.224 20.8341 20.1739 21.0078 20.0572 21.1383C19.9404 21.2686 19.7951 21.3635 19.6212 21.4231C19.3214 21.5184 19.0376 21.5762 18.7698 21.5966C18.5018 21.6168 18.2961 21.6269 18.1529 21.6269C16.3392 21.6269 14.7816 21.069 13.48 19.9531C12.1787 18.8371 11.528 17.2994 11.528 15.34C11.528 15.123 11.5965 14.9359 11.7335 14.7786C11.8706 14.6212 12.0572 14.5426 12.2932 14.5426Z" fill="var(--fill-0, #01858A)"/>
</g>
</g>
</svg>
