<svg preserveAspectRatio="none" width="100%" height="100%" overflow="visible" style="display: block;" viewBox="0 0 1138.42 1140" fill="none" xmlns="http://www.w3.org/2000/svg">
<path id="Union" opacity="0.2" d="M1059.98 340.615C1077.93 340.615 1094.88 351.668 1101.53 369.419C1126.12 434.394 1138.42 502.717 1138.42 572.716C1138.42 709.699 1089.56 842.329 1001.15 946.154L1000.82 946.823C913.066 1049.64 792.41 1117.97 660.121 1139.4C635.857 1143.42 613.254 1126.68 609.266 1102.23V1100.55C606.274 1076.77 622.562 1054.67 646.161 1050.65C879.827 1012.8 1049.34 811.85 1049.34 573.051C1049.34 334.252 1039.04 456.163 1018.43 401.236C1009.79 378.797 1020.76 353.678 1042.7 344.3C1043.36 344.3 1043.69 343.965 1044.36 343.63C1049.68 341.62 1054.99 340.615 1059.98 340.615ZM78.1104 341.285C96.0591 341.285 88.7467 342.29 93.7324 344.3C94.3972 344.3 94.7298 344.635 95.3945 344.97C117.332 354.348 128.3 379.467 119.658 401.906C99.0504 456.498 88.7471 514.106 88.7471 573.052C88.7473 811.851 258.263 1012.8 491.93 1050.65C515.529 1054.33 531.815 1076.44 528.824 1100.55V1102.23C524.836 1126.68 502.234 1143.09 477.97 1139.4C346.013 1117.97 225.025 1049.65 137.275 946.824C48.8611 842.999 0.000101818 710.37 0 573.052C0 435.734 12.2984 434.729 36.5625 370.089C43.2102 352.338 60.1616 341.285 78.1104 341.285ZM311.777 770.32C322.746 770.32 335.376 775.009 344.351 784.387C363.961 805.487 386.563 823.908 411.492 838.645C533.477 911.992 688.036 892.232 787.752 790.416C805.036 773 832.956 772.665 850.572 790.081C850.572 790.081 850.905 790.416 851.237 790.751C868.189 808.167 868.189 835.965 851.237 853.381L850.905 854.051C722.272 985.005 522.841 1010.46 365.623 916.012C333.714 896.586 304.464 873.141 279.203 845.678C262.584 827.927 263.581 799.793 280.865 783.047C280.876 783.036 281.203 782.707 281.53 782.378C290.172 774.34 300.809 770.32 311.777 770.32ZM657.789 185.547C677.067 185.547 665.435 185.882 669.091 186.887C704.988 196.265 739.889 211 771.798 230.426C928.683 324.874 1001.14 514.106 947.629 690.274H947.961C940.981 713.719 916.717 726.78 893.45 720.082H892.453C868.854 712.714 855.891 687.93 862.871 664.15C904.419 527.502 848.246 380.806 726.593 307.458C701.664 292.387 674.741 280.999 646.82 273.631C623.221 267.267 608.929 242.818 615.244 219.039C615.244 219.039 615.244 218.369 615.244 218.034C620.895 198.274 638.511 185.547 657.789 185.547ZM490.268 182.867C510.211 182.867 528.16 196.264 533.146 216.359V217.699C538.796 241.814 523.838 265.928 499.906 271.287C417.475 290.378 348.007 341.286 304.797 414.299C261.587 487.312 249.954 573.052 272.556 655.442C279.203 679.222 265.243 704.006 241.644 710.369H240.646C217.38 716.063 193.448 702.331 187.133 678.887C158.215 572.717 173.172 462.527 229.013 368.079C284.853 273.966 373.933 208.656 480.296 183.872C483.62 183.202 486.944 182.867 490.268 182.867ZM568.711 0C740.554 6.79062e-05 901.096 76.6974 1009.45 211.001C1025.07 230.091 1022.08 258.224 1003.14 273.966L1003.47 273.631C1003.14 273.966 1002.47 274.301 1002.14 274.636C983.195 289.037 956.271 286.023 940.981 267.268C849.243 154.064 713.63 89.4239 568.711 89.4238C423.791 89.4238 288.178 154.399 196.439 267.603C181.15 286.358 154.227 289.372 135.281 274.971C134.949 274.636 134.284 274.301 133.951 273.966C115.006 258.225 112.014 230.091 127.636 211.001C236.326 77.0322 396.868 0 568.711 0Z" fill="url(#paint0_linear_2135_38206)"/>
<defs>
<linearGradient id="paint0_linear_2135_38206" x1="234.844" y1="1372.59" x2="921.302" y2="-0.338666" gradientUnits="userSpaceOnUse">
<stop stop-color="white" stop-opacity="0"/>
<stop offset="1" stop-color="white"/>
</linearGradient>
</defs>
</svg>
