<svg preserveAspectRatio="none" width="100%" height="100%" overflow="visible" style="display: block;" viewBox="0 0 24 24" fill="none" xmlns="http://www.w3.org/2000/svg">
<g id="fingerprint">
<mask id="mask0_2135_37822" style="mask-type:alpha" maskUnits="userSpaceOnUse" x="0" y="0" width="24" height="24">
<rect id="Bounding box" width="24" height="24" fill="var(--fill-0, #D9D9D9)"/>
</mask>
<g mask="url(#mask0_2135_37822)">
<path id="fingerprint_2" d="M14.3099 5.48857C16.329 5.48857 18.2311 5.92457 20.0162 6.79657C21.8013 7.66857 23.2831 8.92905 24.4613 10.578C24.6379 10.814 24.6943 11.0283 24.6305 11.2209C24.5667 11.4134 24.4561 11.5734 24.2988 11.7009C24.1414 11.8176 23.9623 11.8686 23.7613 11.8537C23.5606 11.8389 23.3923 11.7283 23.2565 11.522C22.2519 10.0687 20.9554 8.96019 19.3671 8.19657C17.7787 7.43295 16.093 7.04581 14.3099 7.03514C12.5269 7.02428 10.8501 7.40609 9.27963 8.18057C7.70896 8.95486 6.42801 10.0741 5.43677 11.5383C5.27925 11.7743 5.09477 11.9018 4.88334 11.9209C4.67172 11.9399 4.48725 11.8964 4.32991 11.7903C4.15353 11.6735 4.0402 11.5195 3.98991 11.3283C3.93982 11.137 3.98268 10.949 4.11849 10.7643C5.27791 9.09133 6.7562 7.79381 8.55334 6.87171C10.3505 5.94962 12.2693 5.48857 14.3099 5.48857ZM14.3099 8.20657C16.8922 8.20657 19.0964 9.08257 20.9225 10.8346C22.7484 12.5864 23.6613 14.7344 23.6613 17.2786C23.6613 18.2849 23.3125 19.1367 22.6148 19.834C21.9171 20.5311 21.0664 20.8797 20.0628 20.8797C19.059 20.8797 18.1987 20.5446 17.4819 19.8743C16.7652 19.2038 16.4068 18.3709 16.4068 17.3754C16.4068 16.7899 16.2057 16.2936 15.8036 15.8866C15.4015 15.4795 14.9091 15.276 14.3262 15.276C13.7432 15.276 13.2506 15.4795 12.8485 15.8866C12.4464 16.2936 12.2453 16.7899 12.2453 17.3754C12.2453 19.1909 12.7607 20.7176 13.7913 21.9557C14.822 23.1938 16.2848 24.0335 18.1796 24.4749C18.4048 24.5211 18.5567 24.6326 18.6353 24.8091C18.714 24.9855 18.729 25.1714 18.6802 25.3669C18.6312 25.5432 18.5308 25.6979 18.3788 25.8309C18.227 25.9636 18.0169 26.0056 17.7485 25.9569C15.5521 25.494 13.8281 24.4894 12.5765 22.9431C11.3247 21.397 10.6988 19.5411 10.6988 17.3754C10.6988 16.3585 11.0524 15.4966 11.7596 14.7897C12.4669 14.0829 13.3224 13.7294 14.3262 13.7294C15.3298 13.7294 16.1852 14.0721 16.8925 14.7574C17.5997 15.4428 17.9533 16.2831 17.9533 17.2786C17.9533 17.8532 18.1592 18.3441 18.5708 18.7511C18.9824 19.1582 19.4797 19.3617 20.0628 19.3617C20.6458 19.3617 21.1363 19.1582 21.5342 18.7511C21.9321 18.3441 22.1311 17.8532 22.1311 17.2786C22.1311 15.1551 21.3672 13.3653 19.8396 11.9091C18.3122 10.4528 16.4732 9.72457 14.3225 9.72457C12.1716 9.72457 10.3405 10.4662 8.82906 11.9494C7.31782 13.4327 6.5622 15.2372 6.5622 17.3631C6.5622 18.014 6.60772 18.6608 6.69877 19.3034C6.78982 19.9461 6.95963 20.6223 7.2082 21.332C7.28687 21.568 7.28477 21.7769 7.20191 21.9586C7.11906 22.1405 6.97991 22.2708 6.78449 22.3494C6.56753 22.4281 6.3661 22.4233 6.1802 22.3351C5.9943 22.247 5.85125 22.0836 5.75106 21.8451C5.50839 21.2206 5.32515 20.5363 5.20134 19.7923C5.07753 19.0481 5.01563 18.2425 5.01563 17.3754C5.01563 14.799 5.92115 12.6268 7.7322 10.8586C9.54344 9.09057 11.736 8.20657 14.3099 8.20657ZM14.3262 2.72086C15.5668 2.72086 16.7733 2.86847 17.9459 3.16371C19.1187 3.45895 20.2532 3.88809 21.3496 4.45114C21.5856 4.57876 21.726 4.73886 21.7708 4.93143C21.8155 5.124 21.7986 5.30847 21.7199 5.48486C21.6304 5.66124 21.4921 5.79562 21.3051 5.888C21.1178 5.98019 20.9074 5.96257 20.6739 5.83514C19.6859 5.31 18.6565 4.91476 17.5856 4.64943C16.515 4.3839 15.4285 4.25114 14.3262 4.25114C13.2214 4.25114 12.133 4.37971 11.0608 4.63686C9.98877 4.894 8.96706 5.29343 7.99563 5.83514C7.77868 5.96257 7.56439 5.99981 7.35277 5.94686C7.14115 5.8939 6.98115 5.76971 6.87277 5.57428C6.78572 5.40038 6.77201 5.21381 6.83163 5.01457C6.89125 4.81533 7.01877 4.65733 7.2142 4.54057C8.30239 3.91543 9.44896 3.45581 10.6539 3.16171C11.8589 2.86781 13.083 2.72086 14.3262 2.72086ZM14.3262 10.9617C16.1083 10.9617 17.6374 11.5731 18.9136 12.796C20.1898 14.0187 20.8279 15.5129 20.8279 17.2786C20.8279 17.5254 20.7621 17.7281 20.6305 17.8866C20.4987 18.0452 20.3094 18.1246 20.0628 18.1246C19.8243 18.1246 19.6344 18.0452 19.4931 17.8866C19.3519 17.7281 19.2813 17.5254 19.2813 17.2786C19.2813 15.9361 18.7958 14.8028 17.8248 13.8786C16.8537 12.9544 15.6875 12.4923 14.3262 12.4923C12.9538 12.4923 11.789 12.9651 10.8316 13.9109C9.8743 14.8566 9.39563 16.0114 9.39563 17.3754C9.39563 18.8322 9.63001 20.096 10.0988 21.1669C10.5675 22.2375 11.3108 23.3104 12.3285 24.3854C12.4858 24.5428 12.5672 24.7218 12.5728 24.9226C12.5781 25.1235 12.5182 25.2972 12.3931 25.4437C12.2357 25.6226 12.0378 25.704 11.7993 25.688C11.5609 25.6718 11.363 25.585 11.2056 25.4277C10.0818 24.2683 9.2441 23.0473 8.69249 21.7649C8.14106 20.4826 7.86534 19.0194 7.86534 17.3754C7.86534 15.5884 8.49391 14.0727 9.75106 12.8283C11.0082 11.5839 12.5332 10.9617 14.3262 10.9617ZM14.3136 16.5134C14.5496 16.5134 14.7362 16.5921 14.8733 16.7494C15.0103 16.9068 15.0788 17.0939 15.0788 17.3109C15.0788 18.8255 15.577 19.9943 16.5733 20.8171C17.5695 21.6398 18.7695 22.0511 20.1733 22.0511C20.3307 22.0511 20.5222 22.0363 20.7479 22.0066C20.9734 21.9767 21.1952 21.9534 21.4131 21.9369C21.6275 21.9203 21.8129 21.971 21.9691 22.0891C22.1251 22.2072 22.2113 22.3735 22.2279 22.588C22.2445 22.805 22.1944 22.9787 22.0776 23.1091C21.9609 23.2394 21.8155 23.3344 21.6416 23.394C21.3418 23.4892 21.058 23.547 20.7902 23.5674C20.5222 23.5876 20.3166 23.5977 20.1733 23.5977C18.3596 23.5977 16.802 23.0398 15.5005 21.924C14.1992 20.808 13.5485 19.2703 13.5485 17.3109C13.5485 17.0939 13.617 16.9068 13.7539 16.7494C13.8911 16.5921 14.0776 16.5134 14.3136 16.5134Z" fill="var(--fill-0, #01858A)"/>
</g>
</g>
</svg>
