<svg preserveAspectRatio="none" width="100%" height="100%" overflow="visible" style="display: block;" viewBox="0 0 21 18" fill="none" xmlns="http://www.w3.org/2000/svg">
<path id="Vector" d="M6 10.5C6.39768 10.5005 6.77934 10.6582 7.06055 10.9395C7.34175 11.2207 7.49954 11.6023 7.5 12V16.5C7.49954 16.8977 7.34175 17.2793 7.06055 17.5605C6.77934 17.8418 6.39768 17.9995 6 18H1.5C1.10232 17.9995 0.720659 17.8418 0.439453 17.5605C0.158248 17.2793 0.00045655 16.8977 0 16.5V12C0.00045655 11.6023 0.158248 11.2207 0.439453 10.9395C0.720659 10.6582 1.10232 10.5005 1.5 10.5H6ZM1.5 16.5H6.00098L6 12H1.5V16.5ZM21 15H10.5V13.5H21V15ZM6 0C6.39768 0.00045655 6.77934 0.158247 7.06055 0.439453C7.34175 0.720659 7.49954 1.10232 7.5 1.5V6C7.49954 6.39768 7.34175 6.77934 7.06055 7.06055C6.77934 7.34175 6.39768 7.49954 6 7.5H1.5C1.10232 7.49954 0.720659 7.34175 0.439453 7.06055C0.158247 6.77934 0.00045655 6.39768 0 6V1.5C0.00045655 1.10232 0.158247 0.720659 0.439453 0.439453C0.720659 0.158247 1.10232 0.00045655 1.5 0H6ZM1.5 6H6.00098L6 1.5H1.5V6ZM21 4.5H10.5V3H21V4.5Z" fill="var(--fill-0, #B8B8B8)"/>
</svg>
