<svg preserveAspectRatio="none" width="100%" height="100%" overflow="visible" style="display: block;" viewBox="0 0 43.6223 44.3147" fill="none" xmlns="http://www.w3.org/2000/svg">
<g id="chat 2" clip-path="url(#clip0_2135_37785)">
<path id="Vector" d="M20.2696 2.11818C20.2696 2.0925 20.2696 2.07967 20.2696 2.05399C20.1167 1.11686 19.2504 0.48783 18.3203 0.629041C13.2625 1.45063 8.62509 4.06946 5.26168 8.01055C1.8728 11.9901 0 17.0738 0 22.3371C0 27.6004 0.471386 27.6389 1.40142 30.1165C1.65622 30.7969 2.30597 31.2206 2.99394 31.2206C3.68191 31.2206 3.40162 31.1821 3.59272 31.105C3.6182 31.105 3.63094 31.0922 3.65642 31.0794C4.49728 30.7199 4.9177 29.7571 4.58646 28.897C3.79657 26.8045 3.40162 24.5965 3.40162 22.3371C3.40162 13.184 9.8991 5.48158 18.8554 4.03095C19.76 3.88974 20.3843 3.04247 20.2696 2.11818Z" fill="url(#paint0_linear_2135_37785)"/>
<path id="Vector_2" d="M38.463 33.8137C38.4502 33.8008 38.4247 33.788 38.412 33.7752C37.6858 33.2231 36.6539 33.3387 36.0678 34.0576C32.5515 38.3966 27.3536 40.8742 21.7988 40.8742C16.2441 40.8742 11.0462 38.3838 7.52987 34.0447C6.94383 33.3258 5.91187 33.2103 5.18569 33.7623C5.17294 33.7752 5.14746 33.788 5.13472 33.8008C4.40854 34.4042 4.29387 35.4825 4.89266 36.2143C9.05869 41.3492 15.2122 44.3018 21.7988 44.3018C28.3855 44.3018 34.539 41.3621 38.6923 36.2143C39.2911 35.4825 39.1764 34.4042 38.4502 33.8008L38.463 33.8137Z" fill="url(#paint1_linear_2135_37785)"/>
<path id="Vector_3" d="M38.3612 8.01053C34.9978 4.06944 30.3731 1.45061 25.3025 0.629021C24.3725 0.474972 23.5062 1.11684 23.3533 2.05397C23.3533 2.07965 23.3533 2.09248 23.3533 2.11816C23.2386 3.02961 23.8629 3.87688 24.7674 4.03093C33.7238 5.48156 40.2212 13.184 40.2212 22.3371C40.2212 31.4901 39.8263 26.8173 39.0364 28.9226C38.7052 29.7828 39.1256 30.7456 39.9664 31.105C39.9919 31.105 40.0047 31.1178 40.0301 31.1307C40.234 31.2077 40.4378 31.2462 40.6289 31.2462C41.3169 31.2462 41.9666 30.8226 42.2215 30.1422C43.1642 27.6517 43.6356 25.0329 43.6356 22.3499C43.6356 17.0994 41.7628 12.0158 38.3739 8.0362L38.3612 8.01053Z" fill="url(#paint2_linear_2135_37785)"/>
<path id="Vector_4" d="M32.6153 11.5665C27.6848 6.54708 20.0407 5.57144 14.0146 9.19159C12.7916 9.93616 11.6705 10.8348 10.7022 11.8874C10.0652 12.5678 10.1034 13.6462 10.7659 14.288C10.7659 14.288 10.7786 14.3009 10.7914 14.3137C11.1226 14.6218 11.5303 14.7759 11.9507 14.7759C12.3712 14.7759 12.8553 14.5961 13.1993 14.2367C13.9509 13.4279 14.8173 12.7219 15.7728 12.157C20.4484 9.34564 26.3726 10.103 30.1946 14.0056C30.8571 14.6732 31.9273 14.686 32.6025 14.0185C32.6025 14.0185 32.6153 14.0056 32.628 13.9928C33.2778 13.3252 33.2778 12.2597 32.628 11.5922L32.6153 11.5665Z" fill="url(#paint3_linear_2135_37785)"/>
<path id="Vector_5" d="M36.3356 17.8439C36.068 16.9453 35.138 16.4447 34.2462 16.7014C34.2462 16.7014 34.2207 16.7014 34.208 16.7014C33.3034 16.9838 32.8066 17.9338 33.0741 18.8453C34.6666 24.0829 32.5135 29.7057 27.8506 32.5171C26.8951 33.0948 25.8632 33.5312 24.793 33.8137C23.8885 34.0576 23.3406 34.9947 23.5827 35.9062C23.5827 35.9062 23.5827 35.9318 23.5827 35.9447C23.7993 36.7021 24.4745 37.1899 25.2134 37.1899C25.9524 37.1899 25.5065 37.1771 25.6466 37.1386C27.0225 36.7791 28.3602 36.2143 29.5833 35.4697C35.5967 31.8495 38.374 24.5964 36.3228 17.8439H36.3356Z" fill="url(#paint4_linear_2135_37785)"/>
<path id="Vector_6" d="M19.1615 33.9035C16.0019 33.1718 13.3393 31.2205 11.683 28.4219C10.0268 25.6234 9.58091 22.337 10.4472 19.179C10.702 18.2676 10.167 17.3176 9.2624 17.0737C9.24966 17.0737 9.23692 17.0737 9.22418 17.0737C8.33237 16.8554 7.41508 17.3818 7.17302 18.2804C6.06462 22.3499 6.63793 26.5734 8.77828 30.1935C10.9186 33.8008 14.333 36.3041 18.4098 37.2541C18.5372 37.2798 18.6646 37.2926 18.792 37.2926C19.5564 37.2926 20.2444 36.7791 20.4355 36.0089C20.4355 35.996 20.4355 35.9832 20.4355 35.9575C20.6521 35.0332 20.0788 34.1089 19.1615 33.9035Z" fill="url(#paint5_linear_2135_37785)"/>
</g>
<defs>
<linearGradient id="paint0_linear_2135_37785" x1="0" y1="15.9184" x2="20.2951" y2="15.9184" gradientUnits="userSpaceOnUse">
<stop stop-color="#86BD71"/>
<stop offset="1" stop-color="#1E271B"/>
</linearGradient>
<linearGradient id="paint1_linear_2135_37785" x1="4.5232" y1="38.8716" x2="39.1" y2="38.8716" gradientUnits="userSpaceOnUse">
<stop stop-color="#86BD71"/>
<stop offset="1" stop-color="#1E271B"/>
</linearGradient>
<linearGradient id="paint2_linear_2135_37785" x1="23.3278" y1="15.9312" x2="43.6229" y2="15.9312" gradientUnits="userSpaceOnUse">
<stop stop-color="#86BD71"/>
<stop offset="1" stop-color="#1E271B"/>
</linearGradient>
<linearGradient id="paint3_linear_2135_37785" x1="10.2563" y1="10.899" x2="33.0994" y2="10.899" gradientUnits="userSpaceOnUse">
<stop stop-color="#86BD71"/>
<stop offset="1" stop-color="#1E271B"/>
</linearGradient>
<linearGradient id="paint4_linear_2135_37785" x1="23.5317" y1="26.92" x2="37.0108" y2="26.92" gradientUnits="userSpaceOnUse">
<stop stop-color="#86BD71"/>
<stop offset="1" stop-color="#1E271B"/>
</linearGradient>
<linearGradient id="paint5_linear_2135_37785" x1="6.61245" y1="27.151" x2="20.4865" y2="27.151" gradientUnits="userSpaceOnUse">
<stop stop-color="#86BD71"/>
<stop offset="1" stop-color="#1E271B"/>
</linearGradient>
<clipPath id="clip0_2135_37785">
<rect width="43.6223" height="44.3147" fill="white"/>
</clipPath>
</defs>
</svg>
