<svg preserveAspectRatio="none" width="100%" height="100%" overflow="visible" style="display: block;" viewBox="0 0 63 64" fill="none" xmlns="http://www.w3.org/2000/svg">
<g id="chat 2" clip-path="url(#clip0_2135_38198)">
<path id="Vector" d="M29.2737 3.0591C29.2737 3.02202 29.2737 3.00348 29.2737 2.9664C29.0529 1.61298 27.8017 0.704519 26.4585 0.908459C19.1539 2.09502 12.4565 5.87717 7.59901 11.5689C2.70473 17.3163 0 24.6582 0 32.2596C0 39.8609 0.680783 39.9166 2.02395 43.4948C2.39194 44.4774 3.33032 45.0892 4.32389 45.0892C5.31747 45.0892 4.91268 45.0336 5.18867 44.9224C5.22547 44.9224 5.24387 44.9038 5.28067 44.8853C6.49504 44.3662 7.10222 42.9757 6.62383 41.7335C5.48306 38.7115 4.91268 35.5226 4.91268 32.2596C4.91268 19.0406 14.2964 7.91657 27.2313 5.82155C28.5377 5.61761 29.4393 4.39397 29.2737 3.0591Z" fill="url(#paint0_linear_2135_38198)"/>
<path id="Vector_2" d="M55.5482 48.8343C55.5298 48.8158 55.493 48.7972 55.4746 48.7787C54.4258 47.9815 52.9355 48.1483 52.0891 49.1866C47.0108 55.4531 39.5038 59.0313 31.4816 59.0313C23.4594 59.0313 15.9524 55.4345 10.8741 49.168C10.0277 48.1298 8.53738 47.9629 7.48861 48.7601C7.47021 48.7787 7.43341 48.7972 7.41501 48.8158C6.36624 49.6871 6.20064 51.2445 7.06542 52.3013C13.0821 59.7173 21.969 63.9815 31.4816 63.9815C40.9942 63.9815 49.8811 59.7358 55.8794 52.3013C56.7442 51.2445 56.5786 49.6871 55.5298 48.8158L55.5482 48.8343Z" fill="url(#paint1_linear_2135_38198)"/>
<path id="Vector_3" d="M55.4013 11.569C50.5438 5.87719 43.8648 2.09503 36.5418 0.908471C35.1986 0.685991 33.9474 1.61299 33.7266 2.96641C33.7266 3.00349 33.7266 3.02203 33.7266 3.05911C33.561 4.37545 34.4626 5.59909 35.769 5.82156C48.7038 7.91658 58.0876 19.0406 58.0876 32.2596C58.0876 45.4786 57.5172 38.73 56.3764 41.7706C55.8981 43.0128 56.5053 44.4033 57.7196 44.9224C57.7564 44.9224 57.7748 44.9409 57.8116 44.9595C58.106 45.0707 58.4004 45.1263 58.6764 45.1263C59.67 45.1263 60.6083 44.5145 60.9763 43.5319C62.3379 39.9351 63.0187 36.153 63.0187 32.2781C63.0187 24.6953 60.314 17.3534 55.4197 11.606L55.4013 11.569Z" fill="url(#paint2_linear_2135_38198)"/>
<path id="Vector_4" d="M47.1028 16.7045C39.9822 9.45539 28.9425 8.04635 20.2395 13.2746C18.4731 14.3499 16.854 15.6477 15.4556 17.168C14.5356 18.1506 14.5908 19.708 15.5476 20.635C15.5476 20.635 15.566 20.6535 15.5844 20.6721C16.0628 21.117 16.6516 21.3395 17.2588 21.3395C17.8659 21.3395 18.5651 21.08 19.0619 20.5608C20.1475 19.3928 21.3987 18.3731 22.7786 17.5574C29.5313 13.4971 38.087 14.591 43.6069 20.2271C44.5637 21.1912 46.1092 21.2097 47.0844 20.2457C47.0844 20.2457 47.1028 20.2271 47.1212 20.2086C48.0596 19.2445 48.0596 17.7057 47.1212 16.7416L47.1028 16.7045Z" fill="url(#paint3_linear_2135_38198)"/>
<path id="Vector_5" d="M52.4755 25.7706C52.0891 24.4728 50.7459 23.7497 49.4579 24.1205C49.4579 24.1205 49.4211 24.1205 49.4027 24.1205C48.0964 24.5284 47.3788 25.9003 47.7652 27.2167C50.0651 34.781 46.9556 42.9015 40.2214 46.9618C38.8414 47.7961 37.351 48.4264 35.8055 48.8343C34.4991 49.1866 33.7079 50.54 34.0575 51.8563C34.0575 51.8563 34.0575 51.8934 34.0575 51.9119C34.3703 53.0058 35.3455 53.7103 36.4127 53.7103C37.4798 53.7103 36.8359 53.6918 37.0383 53.6362C39.0254 53.117 40.9574 52.3013 42.7237 51.226C51.4083 45.9977 55.4194 35.5226 52.4571 25.7706H52.4755Z" fill="url(#paint4_linear_2135_38198)"/>
<path id="Vector_6" d="M27.6729 48.9641C23.1098 47.9073 19.2643 45.0892 16.8724 41.0475C14.4804 37.0058 13.8364 32.2596 15.0876 27.6987C15.4556 26.3824 14.6828 25.0104 13.3765 24.6582C13.3581 24.6582 13.3397 24.6582 13.3213 24.6582C12.0333 24.343 10.7085 25.1031 10.3589 26.4009C8.75818 32.2781 9.58616 38.3778 12.6773 43.606C15.7684 48.8158 20.6995 52.4311 26.5873 53.803C26.7713 53.8401 26.9553 53.8586 27.1393 53.8586C28.2433 53.8586 29.2369 53.117 29.5128 52.0046C29.5128 51.9861 29.5128 51.9676 29.5128 51.9305C29.8256 50.5956 28.9977 49.2607 27.6729 48.9641Z" fill="url(#paint5_linear_2135_38198)"/>
</g>
<defs>
<linearGradient id="paint0_linear_2135_38198" x1="0" y1="22.9896" x2="29.3105" y2="22.9896" gradientUnits="userSpaceOnUse">
<stop stop-color="#86BD71"/>
<stop offset="1" stop-color="#1E271B"/>
</linearGradient>
<linearGradient id="paint1_linear_2135_38198" x1="6.53183" y1="56.1391" x2="56.4682" y2="56.1391" gradientUnits="userSpaceOnUse">
<stop stop-color="#86BD71"/>
<stop offset="1" stop-color="#1E271B"/>
</linearGradient>
<linearGradient id="paint2_linear_2135_38198" x1="33.6898" y1="23.0081" x2="63.0003" y2="23.0081" gradientUnits="userSpaceOnUse">
<stop stop-color="#86BD71"/>
<stop offset="1" stop-color="#1E271B"/>
</linearGradient>
<linearGradient id="paint3_linear_2135_38198" x1="14.8116" y1="15.7404" x2="47.802" y2="15.7404" gradientUnits="userSpaceOnUse">
<stop stop-color="#86BD71"/>
<stop offset="1" stop-color="#1E271B"/>
</linearGradient>
<linearGradient id="paint4_linear_2135_38198" x1="33.9839" y1="38.8783" x2="53.4506" y2="38.8783" gradientUnits="userSpaceOnUse">
<stop stop-color="#86BD71"/>
<stop offset="1" stop-color="#1E271B"/>
</linearGradient>
<linearGradient id="paint5_linear_2135_38198" x1="9.54936" y1="39.2121" x2="29.5864" y2="39.2121" gradientUnits="userSpaceOnUse">
<stop stop-color="#86BD71"/>
<stop offset="1" stop-color="#1E271B"/>
</linearGradient>
<clipPath id="clip0_2135_38198">
<rect width="63" height="64" fill="white"/>
</clipPath>
</defs>
</svg>
