<svg preserveAspectRatio="none" width="100%" height="100%" overflow="visible" style="display: block;" viewBox="0 0 26.6667 26.6667" fill="none" xmlns="http://www.w3.org/2000/svg">
<path id="Vector" fill-rule="evenodd" clip-rule="evenodd" d="M8.86533 2.54533C9.62667 1.08933 11.3693 0 13.3333 0C15.2973 0 17.0413 1.088 17.8013 2.54533C19.3693 2.05333 21.3707 2.516 22.7613 3.90533C24.1507 5.29467 24.6133 7.296 24.1213 8.86533C25.5773 9.62667 26.6667 11.3693 26.6667 13.3333C26.6667 15.2973 25.5787 17.04 24.1213 17.8013C24.6133 19.3693 24.1507 21.3707 22.7613 22.7613C21.372 24.1507 19.3707 24.6133 17.8013 24.1213C17.04 25.5773 15.2973 26.6667 13.3333 26.6667C11.3693 26.6667 9.62667 25.5787 8.86533 24.1213C7.29733 24.6133 5.29467 24.1507 3.90533 22.7613C2.516 21.372 2.05333 19.3693 2.54533 17.8013C1.08933 17.04 0 15.2973 0 13.3333C0 11.3693 1.088 9.62533 2.54533 8.86533C2.05333 7.29733 2.516 5.296 3.90533 3.90533C5.29467 2.516 7.29733 2.05467 8.86533 2.54533Z" fill="url(#paint0_linear_2135_37751)"/>
<defs>
<linearGradient id="paint0_linear_2135_37751" x1="3.90533" y1="3.90533" x2="22.7613" y2="22.7627" gradientUnits="userSpaceOnUse">
<stop stop-color="white" stop-opacity="0.6"/>
<stop offset="1" stop-color="white" stop-opacity="0.3"/>
</linearGradient>
</defs>
</svg>
