<svg preserveAspectRatio="none" width="100%" height="100%" overflow="visible" style="display: block;" viewBox="0 0 48 48" fill="none" xmlns="http://www.w3.org/2000/svg">
<g id="Group 1321322158">
<path id="Vector" d="M38.5 48H9.5C4.254 48 0 43.746 0 38.5V9.5C0 4.254 4.254 0 9.5 0H38.5C43.746 0 48 4.254 48 9.5V38.5C48 43.746 43.746 48 38.5 48Z" fill="var(--fill-0, #4AA579)"/>
<g id="icons8-transfer 1">
<path id="Vector_2" d="M33.3333 21.3346H28V14.668C28 12.4586 26.2093 10.668 24 10.668H16C13.7907 10.668 12 12.4586 12 14.668V22.668C12 24.8773 13.7907 26.668 16 26.668H21.3333V33.3346C21.3333 35.544 23.124 37.3346 25.3333 37.3346H33.3333C35.5427 37.3346 37.3333 35.544 37.3333 33.3346V25.3346C37.3333 23.1253 35.5427 21.3346 33.3333 21.3346Z" fill="url(#paint0_linear_2135_37636)"/>
<path id="Vector_3" d="M24 11.3346C25.8387 11.3346 27.3333 12.8306 27.3333 14.668V21.3346V22.0013H28H33.3333C35.172 22.0013 36.6667 23.4973 36.6667 25.3346V33.3346C36.6667 35.172 35.172 36.668 33.3333 36.668H25.3333C23.4947 36.668 22 35.172 22 33.3346V26.668V26.0013H21.3333H16C14.1613 26.0013 12.6667 24.5053 12.6667 22.668V14.668C12.6667 12.8306 14.1613 11.3346 16 11.3346H24ZM24 10.668H16C13.7907 10.668 12 12.4586 12 14.668V22.668C12 24.8773 13.7907 26.668 16 26.668H21.3333V33.3346C21.3333 35.544 23.124 37.3346 25.3333 37.3346H33.3333C35.5427 37.3346 37.3333 35.544 37.3333 33.3346V25.3346C37.3333 23.1253 35.5427 21.3346 33.3333 21.3346H28V14.668C28 12.4586 26.2093 10.668 24 10.668Z" fill="url(#paint1_linear_2135_37636)"/>
<path id="Vector_4" d="M21.3333 25.3346C21.3333 23.1253 23.124 21.3346 25.3333 21.3346H28V14.668C28 12.4586 26.2093 10.668 24 10.668H16C13.7907 10.668 12 12.4586 12 14.668V22.668C12 24.8773 13.7907 26.668 16 26.668H21.3333V25.3346Z" fill="url(#paint2_linear_2135_37636)"/>
<g id="Group">
<path id="Vector_5" d="M18.9643 33.9533L15.8497 30.868C15.411 30.4347 14.667 30.7453 14.667 31.3613V33.3333H13.3337C12.5977 33.3333 12.0003 32.7347 12.0003 32V29.3333C12.0003 28.5973 11.4043 28 10.667 28C9.92966 28 9.33366 28.5973 9.33366 29.3333V32C9.33366 34.2053 11.1283 36 13.3337 36H14.667V37.972C14.667 38.588 15.411 38.8987 15.8497 38.4653L18.9643 35.38C19.3603 34.9867 19.3603 34.3467 18.9643 33.9533Z" fill="url(#paint3_linear_2135_37636)"/>
<path id="Vector_6" d="M10.667 28.6667C11.035 28.6667 11.3337 28.9653 11.3337 29.3333V32C11.3337 33.1027 12.231 34 13.3337 34H14.667H15.3337V33.3333L15.3803 31.3427L18.495 34.428C18.5817 34.5133 18.595 34.6147 18.595 34.6667C18.595 34.7187 18.5817 34.82 18.495 34.9053L15.3337 37.972V36V35.3333H14.667H13.3337C11.495 35.3333 10.0003 33.8387 10.0003 32V29.3333C10.0003 28.9653 10.299 28.6667 10.667 28.6667ZM10.667 28C9.92966 28 9.33366 28.5973 9.33366 29.3333V32C9.33366 34.2053 11.1283 36 13.3337 36H14.667V37.972C14.667 38.3893 15.0097 38.6667 15.3657 38.6667C15.535 38.6667 15.7083 38.604 15.8497 38.464L18.9643 35.3787C19.3603 34.9867 19.3603 34.3453 18.9643 33.9533L15.8497 30.868C15.7083 30.7293 15.535 30.6667 15.3657 30.6667C15.0097 30.6667 14.667 30.944 14.667 31.3613V33.3333H13.3337C12.5977 33.3333 12.0003 32.7347 12.0003 32V29.3333C12.0003 28.5973 11.4043 28 10.667 28Z" fill="url(#paint4_linear_2135_37636)"/>
</g>
</g>
</g>
<defs>
<linearGradient id="paint0_linear_2135_37636" x1="12.8387" y1="12.1733" x2="36.4947" y2="35.8293" gradientUnits="userSpaceOnUse">
<stop stop-color="white" stop-opacity="0.6"/>
<stop offset="1" stop-color="white" stop-opacity="0.3"/>
</linearGradient>
<linearGradient id="paint1_linear_2135_37636" x1="12.8387" y1="12.1733" x2="36.4947" y2="35.8293" gradientUnits="userSpaceOnUse">
<stop stop-color="white" stop-opacity="0.6"/>
<stop offset="0.493" stop-color="white" stop-opacity="0"/>
<stop offset="0.997" stop-color="white" stop-opacity="0.3"/>
</linearGradient>
<linearGradient id="paint2_linear_2135_37636" x1="12" y1="18.668" x2="28" y2="18.668" gradientUnits="userSpaceOnUse">
<stop stop-color="white" stop-opacity="0.7"/>
<stop offset="0.519" stop-color="white" stop-opacity="0.45"/>
<stop offset="1" stop-color="white" stop-opacity="0.55"/>
</linearGradient>
<linearGradient id="paint3_linear_2135_37636" x1="9.22966" y1="28.8853" x2="17.3443" y2="37" gradientUnits="userSpaceOnUse">
<stop stop-color="white" stop-opacity="0.6"/>
<stop offset="1" stop-color="white" stop-opacity="0.3"/>
</linearGradient>
<linearGradient id="paint4_linear_2135_37636" x1="9.22966" y1="28.8853" x2="17.3443" y2="37" gradientUnits="userSpaceOnUse">
<stop stop-color="white" stop-opacity="0.6"/>
<stop offset="0.493" stop-color="white" stop-opacity="0"/>
<stop offset="0.997" stop-color="white" stop-opacity="0.3"/>
</linearGradient>
</defs>
</svg>
