<svg preserveAspectRatio="none" width="100%" height="100%" overflow="visible" style="display: block;" viewBox="0 0 26.6693 26.6693" fill="none" xmlns="http://www.w3.org/2000/svg">
<path id="Vector" fill-rule="evenodd" clip-rule="evenodd" d="M13.3347 0.666667C14.9707 0.666667 16.528 1.54533 17.212 2.85333L17.4707 3.34667L18.0027 3.18C18.3413 3.07333 18.7067 3.02 19.0893 3.02C20.2627 3.02 21.4307 3.51467 22.292 4.376C23.448 5.532 23.9293 7.256 23.488 8.66533L23.3213 9.19733L23.8147 9.456C25.1227 10.14 26.0013 11.6987 26.0013 13.3333C26.0013 14.9693 25.1227 16.5267 23.8147 17.2107L23.3213 17.4693L23.488 18.0013C23.9293 19.4093 23.4493 21.1333 22.292 22.2893C21.4307 23.1507 20.2627 23.6453 19.0893 23.6453C18.7067 23.6453 18.3413 23.592 18.0027 23.4853L17.4707 23.3187L17.212 23.8133C16.528 25.1213 14.9693 26 13.3347 26C11.6987 26 10.1413 25.1213 9.45733 23.8133L9.19867 23.32L8.66667 23.4867C8.328 23.5933 7.96267 23.6467 7.58 23.6467C6.40667 23.6467 5.23867 23.152 4.37733 22.2907C3.22133 21.1347 2.74 19.4107 3.18133 18.0027L3.348 17.4707L2.85467 17.212C1.54667 16.528 0.668 14.9693 0.668 13.3347C0.668 11.6987 1.54667 10.1413 2.85467 9.45733L3.348 9.19867L3.18267 8.66533C2.74133 7.256 3.22133 5.532 4.37867 4.376C5.24 3.51467 6.408 3.02 7.58133 3.02C7.964 3.02 8.32933 3.07333 8.668 3.18L9.19867 3.34667L9.45733 2.85333C10.1413 1.54533 11.6987 0.666667 13.3347 0.666667ZM13.3347 0C11.3693 0 9.628 1.088 8.86533 2.54533C8.46 2.41867 8.02533 2.35467 7.58 2.35467C6.30267 2.35467 4.936 2.87467 3.90533 3.90533C2.516 5.29467 2.05333 7.296 2.54533 8.86533C1.08933 9.62667 0 11.3693 0 13.3347C0 15.3 1.088 17.0413 2.54533 17.804C2.05333 19.372 2.516 21.3733 3.90533 22.764C4.936 23.7947 6.30267 24.3147 7.58 24.3147C8.02533 24.3147 8.46 24.2507 8.86533 24.124C9.62667 25.58 11.3693 26.6693 13.3347 26.6693C15.3 26.6693 17.0427 25.5813 17.804 24.124C18.2093 24.2507 18.644 24.3147 19.0893 24.3147C20.3667 24.3147 21.7333 23.7947 22.764 22.764C24.1533 21.3747 24.616 19.3733 24.124 17.804C25.58 17.0427 26.6693 15.3 26.6693 13.3347C26.6693 11.3693 25.5813 9.62667 24.124 8.86533C24.616 7.29733 24.1533 5.29467 22.764 3.90533C21.7333 2.87467 20.3667 2.35467 19.0893 2.35467C18.644 2.35467 18.2093 2.41733 17.804 2.54533C17.0427 1.088 15.3 0 13.3347 0Z" fill="url(#paint0_linear_2135_37741)"/>
<defs>
<linearGradient id="paint0_linear_2135_37741" x1="3.90667" y1="3.904" x2="22.7627" y2="22.7613" gradientUnits="userSpaceOnUse">
<stop stop-color="white" stop-opacity="0.6"/>
<stop offset="0.493" stop-color="white" stop-opacity="0"/>
<stop offset="0.997" stop-color="white" stop-opacity="0.3"/>
</linearGradient>
</defs>
</svg>
