<svg preserveAspectRatio="none" width="100%" height="100%" overflow="visible" style="display: block;" viewBox="0 0 24 24" fill="none" xmlns="http://www.w3.org/2000/svg">
<g id="fingerprint">
<mask id="mask0_2135_38004" style="mask-type:alpha" maskUnits="userSpaceOnUse" x="0" y="0" width="24" height="24">
<path id="Bounding box" d="M0 0H24V24H0V0Z" fill="var(--fill-0, #D9D9D9)"/>
</mask>
<g mask="url(#mask0_2135_38004)">
<path id="fingerprint_2" d="M12.3402 2.76771C14.3593 2.76771 16.2614 3.20372 18.0465 4.07572C19.8317 4.94772 21.3134 6.20819 22.4917 7.85714C22.6682 8.09314 22.7246 8.30743 22.6608 8.5C22.597 8.69257 22.4864 8.85257 22.3291 8.98C22.1718 9.09676 21.9926 9.14772 21.7917 9.13286C21.5909 9.118 21.4226 9.00743 21.2868 8.80114C20.2822 7.34781 18.9858 6.23933 17.3974 5.47572C15.809 4.7121 14.1233 4.32495 12.3402 4.31429C10.5572 4.30343 8.88044 4.68524 7.30996 5.45972C5.7393 6.234 4.45834 7.35324 3.46711 8.81743C3.30958 9.05343 3.12511 9.18095 2.91368 9.2C2.70206 9.21905 2.51758 9.17552 2.36025 9.06943C2.18387 8.95267 2.07053 8.79867 2.02025 8.60743C1.97015 8.41619 2.01301 8.22819 2.14882 8.04343C3.30825 6.37048 4.78653 5.07295 6.58368 4.15086C8.38082 3.22876 10.2997 2.76771 12.3402 2.76771ZM12.3402 5.48571C14.9225 5.48571 17.1267 6.36172 18.9528 8.11372C20.7787 9.86553 21.6917 12.0135 21.6917 14.5577C21.6917 15.564 21.3428 16.4158 20.6451 17.1131C19.9474 17.8103 19.0967 18.1589 18.0931 18.1589C17.0893 18.1589 16.229 17.8237 15.5122 17.1534C14.7955 16.483 14.4371 15.65 14.4371 14.6546C14.4371 14.069 14.2361 13.5728 13.834 13.1657C13.4319 12.7587 12.9394 12.5551 12.3565 12.5551C11.7735 12.5551 11.2809 12.7587 10.8788 13.1657C10.4767 13.5728 10.2757 14.069 10.2757 14.6546C10.2757 16.47 10.791 17.9968 11.8217 19.2349C12.8523 20.473 14.3151 21.3127 16.21 21.754C16.4351 21.8003 16.587 21.9117 16.6657 22.0883C16.7443 22.2647 16.7593 22.4506 16.7105 22.646C16.6616 22.8224 16.5611 22.9771 16.4091 23.11C16.2573 23.2428 16.0472 23.2848 15.7788 23.236C13.5824 22.7731 11.8584 21.7686 10.6068 20.2223C9.35501 18.6762 8.72911 16.8203 8.72911 14.6546C8.72911 13.6376 9.08272 12.7757 9.78996 12.0689C10.4972 11.362 11.3527 11.0086 12.3565 11.0086C13.3602 11.0086 14.2156 11.3512 14.9228 12.0366C15.6301 12.7219 15.9837 13.5623 15.9837 14.5577C15.9837 15.1324 16.1895 15.6232 16.6011 16.0303C17.0127 16.4373 17.5101 16.6409 18.0931 16.6409C18.6762 16.6409 19.1666 16.4373 19.5645 16.0303C19.9624 15.6232 20.1614 15.1324 20.1614 14.5577C20.1614 12.4343 19.3976 10.6445 17.87 9.18829C16.3425 7.73191 14.5035 7.00371 12.3528 7.00371C10.202 7.00371 8.37082 7.74533 6.85939 9.22857C5.34815 10.7118 4.59253 12.5164 4.59253 14.6423C4.59253 15.2931 4.63806 15.9399 4.72911 16.5826C4.82015 17.2252 4.98996 17.9014 5.23853 18.6111C5.3172 18.8471 5.31511 19.056 5.23225 19.2377C5.14939 19.4196 5.01025 19.5499 4.81482 19.6286C4.59787 19.7072 4.39644 19.7025 4.21053 19.6143C4.02463 19.5261 3.88158 19.3628 3.78139 19.1243C3.53872 18.4997 3.35549 17.8154 3.23168 17.0714C3.10787 16.3272 3.04596 15.5216 3.04596 14.6546C3.04596 12.0782 3.95149 9.90591 5.76253 8.13771C7.57377 6.36971 9.76634 5.48571 12.3402 5.48571ZM12.3565 0C13.5971 0 14.8037 0.147619 15.9762 0.442857C17.149 0.738095 18.2836 1.16724 19.38 1.73029C19.616 1.8579 19.7563 2.018 19.8011 2.21057C19.8459 2.40314 19.8289 2.58762 19.7502 2.764C19.6607 2.94038 19.5224 3.07476 19.3354 3.16714C19.1482 3.25933 18.9378 3.24171 18.7043 3.11429C17.7163 2.58914 16.6868 2.1939 15.616 1.92857C14.5453 1.66305 13.4588 1.53029 12.3565 1.53029C11.2518 1.53029 10.1633 1.65886 9.09111 1.916C8.01911 2.17314 6.99739 2.57257 6.02596 3.11429C5.80901 3.24171 5.59473 3.27895 5.38311 3.226C5.17149 3.17305 5.01149 3.04886 4.90311 2.85343C4.81606 2.67952 4.80234 2.49295 4.86196 2.29372C4.92158 2.09448 5.04911 1.93648 5.24453 1.81971C6.33273 1.19457 7.4793 0.734952 8.68425 0.440857C9.8892 0.146952 11.1133 0 12.3565 0ZM12.3565 8.24086C14.1386 8.24086 15.6678 8.85229 16.944 10.0751C18.2202 11.2978 18.8582 12.792 18.8582 14.5577C18.8582 14.8046 18.7924 15.0072 18.6608 15.1657C18.529 15.3244 18.3398 15.4037 18.0931 15.4037C17.8546 15.4037 17.6647 15.3244 17.5234 15.1657C17.3822 15.0072 17.3117 14.8046 17.3117 14.5577C17.3117 13.2152 16.8262 12.0819 15.8551 11.1577C14.8841 10.2335 13.7179 9.77143 12.3565 9.77143C10.9842 9.77143 9.8193 10.2443 8.86196 11.19C7.90463 12.1357 7.42596 13.2906 7.42596 14.6546C7.42596 16.1113 7.66034 17.3751 8.12911 18.446C8.59787 19.5167 9.34111 20.5895 10.3588 21.6646C10.5162 21.8219 10.5976 22.001 10.6031 22.2017C10.6084 22.4027 10.5485 22.5764 10.4234 22.7229C10.2661 22.9017 10.0682 22.9831 9.82968 22.9671C9.5912 22.951 9.3933 22.8642 9.23596 22.7069C8.11215 21.5474 7.27444 20.3265 6.72282 19.044C6.17139 17.7617 5.89568 16.2986 5.89568 14.6546C5.89568 12.8675 6.52425 11.3518 7.78139 10.1074C9.03853 8.86305 10.5636 8.24086 12.3565 8.24086ZM12.344 13.7926C12.58 13.7926 12.7665 13.8712 12.9037 14.0286C13.0406 14.1859 13.1091 14.373 13.1091 14.59C13.1091 16.1047 13.6073 17.2734 14.6037 18.0963C15.5999 18.919 16.7999 19.3303 18.2037 19.3303C18.361 19.3303 18.5525 19.3154 18.7782 19.2857C19.0038 19.2558 19.2255 19.2326 19.4434 19.216C19.6579 19.1994 19.8432 19.2502 19.9994 19.3683C20.1554 19.4864 20.2417 19.6527 20.2582 19.8671C20.2748 20.0841 20.2247 20.2578 20.108 20.3883C19.9912 20.5186 19.8459 20.6135 19.672 20.6731C19.3722 20.7684 19.0883 20.8262 18.8205 20.8466C18.5525 20.8668 18.3469 20.8769 18.2037 20.8769C16.39 20.8769 14.8323 20.319 13.5308 19.2031C12.2295 18.0871 11.5788 16.5494 11.5788 14.59C11.5788 14.373 11.6473 14.1859 11.7842 14.0286C11.9214 13.8712 12.108 13.7926 12.344 13.7926Z" fill="var(--fill-0, #01858A)"/>
</g>
</g>
</svg>
