<svg preserveAspectRatio="none" width="100%" height="100%" overflow="visible" style="display: block;" viewBox="0 0 18 18" fill="none" xmlns="http://www.w3.org/2000/svg">
<path id="Vector" d="M6 10.5C6.39782 10.5 6.77924 10.6581 7.06055 10.9395C7.34185 11.2208 7.5 11.6022 7.5 12V16.5C7.5 16.8978 7.34185 17.2792 7.06055 17.5605C6.77924 17.8419 6.39782 18 6 18H1.5C1.10218 18 0.720758 17.8419 0.439453 17.5605C0.158149 17.2792 0 16.8978 0 16.5V12C0 11.6022 0.158149 11.2208 0.439453 10.9395C0.720758 10.6581 1.10218 10.5 1.5 10.5H6ZM16.5 10.5C16.8978 10.5 17.2792 10.6581 17.5605 10.9395C17.8419 11.2208 18 11.6022 18 12V16.5C18 16.8978 17.8419 17.2792 17.5605 17.5605C17.2792 17.8419 16.8978 18 16.5 18H12C11.6022 18 11.2208 17.8419 10.9395 17.5605C10.6581 17.2792 10.5 16.8978 10.5 16.5V12C10.5 11.6022 10.6581 11.2208 10.9395 10.9395C11.2208 10.6581 11.6022 10.5 12 10.5H16.5ZM1.5 16.5H6V12H1.5V16.5ZM12 12V16.5H16.5V12H12ZM6 0C6.39782 0 6.77924 0.158149 7.06055 0.439453C7.34185 0.720758 7.5 1.10218 7.5 1.5V6C7.5 6.39782 7.34185 6.77924 7.06055 7.06055C6.77924 7.34185 6.39782 7.5 6 7.5H1.5C1.10218 7.5 0.720758 7.34185 0.439453 7.06055C0.158149 6.77924 0 6.39782 0 6V1.5C0 1.10218 0.158149 0.720758 0.439453 0.439453C0.720758 0.158149 1.10218 0 1.5 0H6ZM16.5 0C16.8978 0 17.2792 0.158149 17.5605 0.439453C17.8419 0.720758 18 1.10218 18 1.5V6C18 6.39782 17.8419 6.77924 17.5605 7.06055C17.2792 7.34185 16.8978 7.5 16.5 7.5H12C11.6022 7.5 11.2208 7.34185 10.9395 7.06055C10.6581 6.77924 10.5 6.39782 10.5 6V1.5C10.5 1.10218 10.6581 0.720758 10.9395 0.439453C11.2208 0.158149 11.6022 0 12 0H16.5ZM1.5 6H6V1.5H1.5V6ZM12 6H16.5V1.5H12V6Z" fill="var(--fill-0, black)"/>
</svg>
