<svg xmlns="http://www.w3.org/2000/svg" width="233" height="259" viewBox="0 0 233 259" fill="none">
  <g filter="url(#filter0_d_1932_6128)">
    <path d="M146.703 69.3144C146.703 86.0436 116.412 125.028 116.412 125.028C116.412 125.028 86.1211 86.0436 86.1211 69.3144C86.1211 52.5851 99.6828 39.0234 116.412 39.0234C133.141 39.0234 146.703 52.5851 146.703 69.3144Z" fill="#4AA579"/>
    <ellipse cx="116.413" cy="69.3152" rx="25.9636" ry="25.9636" fill="white"/>
    <path d="M116.574 83.3398C106.949 83.3398 99.1211 77.3721 99.1211 69.3428C99.1211 61.3135 106.951 55.3398 116.574 55.3398" fill="url(#paint0_radial_1932_6128)"/>
    <path d="M116.582 55.3418C126.209 55.3418 134.041 61.3095 134.041 69.3388C134.041 77.3681 126.209 83.3359 116.582 83.3359" fill="url(#paint1_radial_1932_6128)"/>
    <path d="M132.874 69.3213C132.874 76.8536 125.982 82.9512 116.575 82.9512C107.168 82.9512 100.277 76.8536 100.277 69.3213C100.277 61.789 107.177 55.6914 116.575 55.6914C125.973 55.6914 132.874 61.7943 132.874 69.3213Z" fill="url(#paint2_radial_1932_6128)"/>
    <path d="M118.824 66.9107C118.824 67.0208 118.778 67.1264 118.696 67.2043C118.614 67.2821 118.502 67.3259 118.386 67.3259H117.248C117.19 67.3266 117.133 67.3164 117.079 67.2958C117.025 67.2753 116.976 67.2448 116.935 67.2062C116.894 67.1676 116.861 67.1216 116.839 67.0708C116.816 67.0201 116.805 66.9657 116.805 66.9107V65.8307C116.804 65.7753 116.815 65.7203 116.837 65.6689C116.859 65.6176 116.892 65.5709 116.933 65.5318C116.974 65.4926 117.024 65.4616 117.078 65.4407C117.132 65.4199 117.19 65.4095 117.248 65.4102H118.386C118.444 65.4102 118.501 65.4211 118.555 65.4423C118.609 65.4635 118.657 65.4946 118.698 65.5337C118.739 65.5728 118.771 65.6192 118.792 65.6702C118.814 65.7212 118.825 65.7757 118.824 65.8307V66.9107Z" fill="url(#paint3_radial_1932_6128)"/>
    <path d="M114.672 67.278L115.066 69.4837L114.667 69.3693L115.125 71.508L114.756 71.4036L115.222 73.4159L114.939 73.346L115.383 75.4099L115.11 75.3708L115.538 77.4098L115.285 77.3938L115.717 79.5136L115.476 79.4477L115.815 81.3765L112.24 81.8598L116.307 81.8675V56.3301C116.061 57.2492 115.986 58.202 116.086 59.1455C116.104 59.2606 115.648 58.1343 115.433 57.5738C115.487 58.4105 115.685 59.2331 116.02 60.009C115.633 59.4537 115.298 58.8675 115.019 58.257C115.209 59.158 115.526 60.0304 115.963 60.8506C115.516 60.2846 115.102 59.696 114.723 59.0874C114.985 59.9611 115.378 60.7948 115.89 61.563C115.37 61.0444 114.92 60.4667 114.55 59.843C114.572 60.4396 115.876 62.4366 115.871 62.5184C115.317 61.9451 114.824 61.3222 114.397 60.6585C114.692 61.6378 115.178 62.5559 115.831 63.3648C115.278 62.7809 114.762 62.167 114.284 61.5262C114.358 62.3286 115.643 64.1405 115.643 64.1405C114.329 62.5166 109.293 59.6419 105.849 61.3773C106.972 61.1847 108.12 61.1611 109.251 61.3073C109.49 61.356 107.328 61.5333 106.834 61.8553C107.996 61.7078 109.167 61.6329 110.339 61.6312C110.078 61.7237 108.394 61.9277 108.046 62.2759C109.213 62.0808 110.403 62.0455 111.581 62.1709C111.655 62.2005 109.318 62.3221 108.887 62.6454C110.215 62.5475 111.55 62.5917 112.867 62.777C112.234 62.8423 110.531 62.7284 109.79 63.0961C111.17 63.0328 112.554 63.1378 113.906 63.4087C113.439 63.4087 111.465 63.2307 110.719 63.6501C112.155 63.5502 113.597 63.7276 114.958 64.1714C114.514 64.1121 112.575 63.7604 111.61 64.0836C112.788 64.1688 113.941 64.4526 115.015 64.9216C113.67 64.5972 106.419 63.3096 104.973 68.1771C105.625 67.1989 106.472 66.3504 107.466 65.679C106.754 66.2685 106.242 67.044 105.993 67.9085C106.56 66.8717 107.423 66.0069 108.484 65.4127C108.484 65.4127 107.137 66.5574 106.955 67.5307C107.611 66.606 108.505 65.8552 109.552 65.3493C108.807 65.8405 108.21 66.5065 107.817 67.2822C108.56 66.445 109.474 65.7591 110.504 65.2656C109.846 65.7899 109.254 66.3848 108.74 67.0384C109.632 66.2395 110.695 65.6326 111.857 65.2591C111.008 65.6805 110.251 66.2513 109.628 66.9411C110.722 66.2401 112.251 65.421 113.702 65.4388C113.702 65.4388 111.363 66.0319 110.663 66.7739C111.897 66.3385 113.216 66.1595 114.53 66.249C113.43 66.5455 108.174 68.4802 109.112 73.5156C109.292 72.5566 109.543 71.6108 109.863 70.6853C109.894 71.4803 109.989 72.2719 110.148 73.053C110.249 71.9459 110.422 70.8458 110.665 69.7589C110.66 70.5733 110.744 71.3861 110.916 72.1841C110.982 71.9919 111.138 69.5436 111.446 69.138C111.335 69.9378 111.36 70.7493 111.52 71.5418C111.648 70.7595 111.895 68.9155 112.229 68.45C112.076 69.3076 112.087 70.184 112.259 71.0382C112.376 69.9232 112.672 68.8316 113.135 67.8005C112.984 68.6855 112.955 69.5852 113.048 70.4772C113.151 70.2447 113.381 68.1688 113.959 67.3415C113.785 68.2056 113.739 69.0885 113.822 69.9647C114.013 69.0451 114.297 68.1451 114.671 67.2774L114.672 67.278Z" fill="url(#paint26_radial_1932_6128)"/>
  </g>
  <defs>
    <filter id="filter0_d_1932_6128" x="0" y="0" width="233" height="259" filterUnits="userSpaceOnUse" color-interpolation-filters="sRGB">
      <feFlood flood-opacity="0" result="BackgroundImageFix"/>
      <feColorMatrix in="SourceAlpha" type="matrix" values="0 0 0 0 0 0 0 0 0 0 0 0 0 0 0 0 0 0 127 0" result="hardAlpha"/>
      <feOffset dy="47.0973"/>
      <feGaussianBlur stdDeviation="43.0604"/>
      <feComposite in2="hardAlpha" operator="out"/>
      <feColorMatrix type="matrix" values="0 0 0 0 0 0 0 0 0 0 0 0 0 0 0 0 0 0 0.08 0"/>
      <feBlend mode="normal" in2="BackgroundImageFix" result="effect1_dropShadow_1932_6128"/>
      <feBlend mode="normal" in="SourceGraphic" in2="effect1_dropShadow_1932_6128" result="shape"/>
    </filter>
    <radialGradient id="paint0_radial_1932_6128" cx="0" cy="0" r="1" gradientUnits="userSpaceOnUse" gradientTransform="translate(295.639 85.9414) scale(30.139 30.5306)">
      <stop stop-color="white"/><stop offset="0.311" stop-color="#EC1C24"/><stop offset="0.62" stop-color="#EC1C24"/>
    </radialGradient>
    <radialGradient id="paint1_radial_1932_6128" cx="0" cy="0" r="1" gradientUnits="userSpaceOnUse" gradientTransform="translate(331.558 80.5971) scale(32.7316 30.4901)">
      <stop offset="0.089" stop-color="#EC1C24"/><stop offset="0.266" stop-color="#820F03"/><stop offset="0.568" stop-color="#EC1C24"/>
    </radialGradient>
    <radialGradient id="paint2_radial_1932_6128" cx="0" cy="0" r="1" gradientUnits="userSpaceOnUse" gradientTransform="translate(116.569 69.7818) scale(16.2836 14.6056)">
      <stop offset="0.542" stop-color="white"/><stop offset="0.932" stop-color="#BFBFBF"/><stop offset="1" stop-color="white"/>
    </radialGradient>
    <radialGradient id="paint3_radial_1932_6128" cx="0" cy="0" r="1" gradientUnits="userSpaceOnUse" gradientTransform="translate(116.928 65.527) scale(2.54455 2.41386)">
      <stop stop-color="white"/><stop offset="0.318" stop-color="#51B748"/><stop offset="0.714" stop-color="#007D3A"/>
    </radialGradient>
    <radialGradient id="paint26_radial_1932_6128" cx="0" cy="0" r="1" gradientUnits="userSpaceOnUse" gradientTransform="translate(117.383 65.5928) rotate(-180) scale(8.37445 7.93765)">
      <stop offset="0.021" stop-color="white"/><stop offset="0.307" stop-color="#51B748"/><stop offset="0.714" stop-color="#005B26"/>
    </radialGradient>
  </defs>
</svg>
