<svg preserveAspectRatio="none" width="100%" height="100%" overflow="visible" style="display: block;" viewBox="0 0 17 17" fill="none" xmlns="http://www.w3.org/2000/svg">
<g id="Icons">
<path id="Vector" d="M7.64512 1.46429C10.625 1.12257 13.4507 2.63792 14.815 5.30902C15.1631 5.99214 15.3055 6.39081 15.4596 7.14788C15.6708 8.1957 15.6026 9.60824 15.2887 10.5707C14.6493 12.5128 13.2966 14.0566 11.4586 14.9223C8.43881 16.3461 4.81895 15.4117 2.78673 12.6723C2.42719 12.1882 1.94808 11.2946 1.7711 10.7651C1.19454 9.07926 1.32595 6.98884 2.10802 5.43402C2.59324 4.46012 3.43842 3.45177 4.3004 2.8139C5.20234 2.1363 6.56638 1.58957 7.64512 1.46429ZM8.38731 2.71722C6.69192 2.8539 5.56761 3.32703 4.48302 4.35785C3.75807 5.04695 3.23839 5.91235 2.92442 6.95452C2.78171 7.42724 2.76427 7.54735 2.76427 8.46429C2.76427 9.24962 2.78112 9.54021 2.86094 9.8305C3.48316 12.0915 5.05347 13.6236 7.27403 14.1362C7.89626 14.2842 9.09516 14.2842 9.71739 14.1362C11.9379 13.6236 13.5073 12.0915 14.1295 9.8305C14.2094 9.54013 14.2271 9.24983 14.2272 8.46429C14.2272 7.54735 14.2097 7.42724 14.067 6.95452C13.753 5.91234 13.2334 5.04695 12.5084 4.35785C11.5266 3.42392 10.4082 2.91141 9.06114 2.76898C8.74164 2.74052 8.43894 2.71725 8.38731 2.71722ZM5.65782 9.85394C6.35425 10.5601 7.04578 10.9017 8.01622 11.0326C9.26054 11.1976 10.6362 10.6794 11.441 9.74554C11.5892 9.57497 11.7315 9.43253 11.7604 9.43206C11.8288 9.43206 12.4839 9.90905 12.4859 9.96722C12.4974 10.0697 11.8974 10.6906 11.5035 10.9868C9.70535 12.3593 7.31364 12.3595 5.48692 10.9926C5.11587 10.7192 4.40835 9.96167 4.46544 9.90472C4.47846 9.88666 4.64842 9.7672 4.84141 9.63128L5.19591 9.38128L5.65782 9.85394Z" fill="var(--fill-0, #006E20)"/>
</g>
</svg>
