<svg preserveAspectRatio="none" width="100%" height="100%" overflow="visible" style="display: block;" viewBox="0 0 24.1976 21.2727" fill="none" xmlns="http://www.w3.org/2000/svg">
<path id="Vector" d="M23.1692 0.523272L22.1771 1.51537L21.0277 0.35389C20.5558 -0.117963 19.7936 -0.117963 19.3097 0.35389L18.1482 1.51537L16.9867 0.35389C16.5149 -0.117963 15.7405 -0.117963 15.2687 0.35389L14.1193 1.51537L12.9578 0.35389C12.486 -0.117963 11.7237 -0.117963 11.2519 0.35389L10.0904 1.51537L8.92891 0.35389C8.45705 -0.117963 7.69483 -0.117963 7.21088 0.35389L6.0494 1.51537L4.88791 0.35389C4.41606 -0.117963 3.64174 -0.117963 3.16988 0.35389L2.0205 1.51537L1.0284 0.523272C0.653335 0.14821 0 0.414384 0 0.958829V18.8529C0 20.1838 1.08889 21.2727 2.41976 21.2727H21.7778C23.1087 21.2727 24.1976 20.1838 24.1976 18.8529V0.958829C24.1976 0.414384 23.5442 0.14821 23.1692 0.523272ZM10.8889 18.8529H2.41976V11.5937H10.8889V18.8529ZM21.7778 18.8529H13.3087V16.4332H21.7778V18.8529ZM21.7778 14.0134H13.3087V11.5937H21.7778V14.0134ZM21.7778 9.17391H2.41976V5.54427H21.7778V9.17391Z" fill="var(--fill-0, black)"/>
</svg>
