<svg preserveAspectRatio="none" width="100%" height="100%" overflow="visible" style="display: block;" viewBox="0 0 10.0129 15.0768" fill="none" xmlns="http://www.w3.org/2000/svg">
<g id="Group">
<path id="Vector" d="M0.511031 6.79745H0.438289V5.14849L0 4.71021V2.1141e-07H0.0733557V4.68L0.511031 5.11829V6.79745Z" fill="var(--fill-0, white)"/>
<path id="Vector_2" d="M1.38688 4.69522H1.31414V2.49022L1.75181 2.05193V0.768506L1.3351 0.351794H0.999759V0.279052H1.36531L1.82517 0.738299V2.08213L1.38688 2.52042V4.69522Z" fill="var(--fill-0, white)"/>
<path id="Vector_3" d="M1.3655 7.35955H0.912414V7.28682H1.33529L1.75201 6.87007V3.38104H1.82536V6.90027L1.3655 7.35955Z" fill="var(--fill-0, white)"/>
<path id="Vector_4" d="M1.38705 6.44718H1.31432V6.02429L0.876026 5.58599V3.83407L0.438356 3.3964V2.05194L0.886506 1.60318L0.938289 1.65496L0.511093 2.08215V3.36619L0.949382 3.80386V5.55579L1.38705 5.99409V6.44718Z" fill="var(--fill-0, white)"/>
<path id="Vector_5" d="M0.474919 7.00934C0.406496 7.00934 0.351017 6.95388 0.351017 6.88542C0.351017 6.81702 0.406496 6.76156 0.474919 6.76156C0.543341 6.76156 0.598821 6.81702 0.598821 6.88542C0.598821 6.95326 0.543341 7.00934 0.474919 7.00934ZM0.474919 6.83429C0.446563 6.83429 0.423754 6.85707 0.423754 6.88542C0.423754 6.91377 0.446563 6.93661 0.474919 6.93661C0.503275 6.93661 0.526084 6.91377 0.526084 6.88542C0.526084 6.85707 0.503275 6.83429 0.474919 6.83429Z" fill="var(--fill-0, white)"/>
<path id="Vector_6" d="M0.912173 7.00934C0.84375 7.00934 0.788271 6.95388 0.788271 6.88542C0.788271 6.81702 0.84375 6.76156 0.912173 6.76156C0.980601 6.76156 1.03608 6.81702 1.03608 6.88542C1.03669 6.95326 0.980601 7.00934 0.912173 7.00934ZM0.912173 6.83429C0.883817 6.83429 0.861008 6.85707 0.861008 6.88542C0.861008 6.91377 0.883817 6.93661 0.912173 6.93661C0.940528 6.93661 0.963338 6.91377 0.963338 6.88542C0.963338 6.85707 0.940528 6.83429 0.912173 6.83429Z" fill="var(--fill-0, white)"/>
<path id="Vector_7" d="M0.912173 6.57127C0.84375 6.57127 0.788271 6.5158 0.788271 6.44735C0.788271 6.37895 0.84375 6.32343 0.912173 6.32343C0.980601 6.32343 1.03608 6.37895 1.03608 6.44735C1.03669 6.5158 0.980601 6.57127 0.912173 6.57127ZM0.912173 6.39622C0.883817 6.39622 0.861008 6.419 0.861008 6.44735C0.861008 6.4757 0.883817 6.49854 0.912173 6.49854C0.940528 6.49854 0.963338 6.4757 0.963338 6.44735C0.963338 6.419 0.940528 6.39622 0.912173 6.39622Z" fill="var(--fill-0, white)"/>
<path id="Vector_8" d="M1.34558 7.00934C1.27716 7.00934 1.22168 6.95388 1.22168 6.88542C1.22168 6.81702 1.27716 6.76156 1.34558 6.76156C1.41401 6.76156 1.46949 6.81702 1.46949 6.88542C1.46949 6.95326 1.41401 7.00934 1.34558 7.00934ZM1.34558 6.83429C1.31723 6.83429 1.29442 6.85707 1.29442 6.88542C1.29442 6.91377 1.31723 6.93661 1.34558 6.93661C1.37394 6.93661 1.39675 6.91377 1.39675 6.88542C1.39613 6.85707 1.37333 6.83429 1.34558 6.83429Z" fill="var(--fill-0, white)"/>
<path id="Vector_9" d="M1.78613 7.44961C1.71771 7.44961 1.66223 7.39415 1.66223 7.32569C1.66223 7.25729 1.71771 7.20183 1.78613 7.20183C1.85456 7.20183 1.91004 7.25729 1.91004 7.32569C1.91065 7.39415 1.85456 7.44961 1.78613 7.44961ZM1.78613 7.27456C1.75778 7.27456 1.73498 7.29734 1.73498 7.32569C1.73498 7.3541 1.75778 7.37688 1.78613 7.37688C1.81449 7.37688 1.8373 7.3541 1.8373 7.32569C1.8373 7.29734 1.81449 7.27456 1.78613 7.27456Z" fill="var(--fill-0, white)"/>
<path id="Vector_10" d="M1.35053 4.90684C1.28211 4.90684 1.22663 4.85136 1.22663 4.78293C1.22663 4.71451 1.28211 4.65903 1.35053 4.65903C1.41895 4.65903 1.47443 4.71451 1.47443 4.78293C1.47443 4.85136 1.41895 4.90684 1.35053 4.90684ZM1.35053 4.73177C1.32217 4.73177 1.29936 4.75457 1.29936 4.78293C1.29936 4.81129 1.32217 4.83409 1.35053 4.83409C1.37888 4.83409 1.40169 4.81129 1.40169 4.78293C1.40169 4.75457 1.37888 4.73177 1.35053 4.73177Z" fill="var(--fill-0, white)"/>
<path id="Vector_11" d="M0.474919 4.90684C0.406496 4.90684 0.351017 4.85136 0.351017 4.78293C0.351017 4.71451 0.406496 4.65903 0.474919 4.65903C0.543341 4.65903 0.598821 4.71451 0.598821 4.78293C0.598821 4.85136 0.543341 4.90684 0.474919 4.90684ZM0.474919 4.73177C0.446563 4.73177 0.423754 4.75457 0.423754 4.78293C0.423754 4.81129 0.446563 4.83409 0.474919 4.83409C0.503275 4.83409 0.526084 4.81129 0.526084 4.78293C0.526084 4.75457 0.503275 4.73177 0.474919 4.73177Z" fill="var(--fill-0, white)"/>
<path id="Vector_12" d="M0.912212 7.3231C0.912212 7.39094 0.857351 7.44579 0.789542 7.44579C0.721733 7.44579 0.666872 7.39094 0.666872 7.3231C0.666872 7.25532 0.721733 7.20042 0.789542 7.20042C0.857351 7.20042 0.912212 7.25532 0.912212 7.3231Z" fill="var(--fill-0, white)"/>
<path id="Vector_13" d="M0.597454 7.3231C0.597454 7.39094 0.542593 7.44579 0.474784 7.44579C0.406974 7.44579 0.352114 7.39094 0.352114 7.3231C0.352114 7.25532 0.406974 7.20042 0.474784 7.20042C0.542593 7.20042 0.597454 7.25532 0.597454 7.3231Z" fill="var(--fill-0, white)"/>
<path id="Vector_14" d="M1.47362 6.56997C1.47362 6.63781 1.41875 6.69265 1.35095 6.69265C1.28314 6.69265 1.22828 6.63781 1.22828 6.56997C1.22828 6.50219 1.28314 6.44735 1.35095 6.44735C1.41875 6.44735 1.47362 6.50219 1.47362 6.56997Z" fill="var(--fill-0, white)"/>
<path id="Vector_15" d="M1.70872 5.57547C1.70872 5.64325 1.65386 5.69815 1.58605 5.69815C1.51824 5.69815 1.46338 5.64325 1.46338 5.57547C1.46338 5.50764 1.51824 5.45279 1.58605 5.45279C1.65386 5.45279 1.70872 5.50764 1.70872 5.57547Z" fill="var(--fill-0, white)"/>
<path id="Vector_16" d="M1.03526 6.00528C1.03526 6.07312 0.980398 6.12796 0.912589 6.12796C0.844779 6.12796 0.789919 6.07312 0.789919 6.00528C0.789919 5.9375 0.844779 5.88265 0.912589 5.88265C0.980398 5.88265 1.03526 5.9375 1.03526 6.00528Z" fill="var(--fill-0, white)"/>
<path id="Vector_17" d="M0.361851 7.26224L0 6.90039V5.69832H0.0733557V6.87018L0.413634 7.21044L0.361851 7.26224Z" fill="var(--fill-0, white)"/>
<path id="Vector_18" d="M0.511712 3.85153H0.438356V4.69482H0.511712V3.85153Z" fill="var(--fill-0, white)"/>
<path id="Vector_19" d="M1.22722 6.84858H0.999759V6.92199H1.22722V6.84858Z" fill="var(--fill-0, white)"/>
<path id="Vector_20" d="M1.15332 5.26002C1.0849 5.26002 1.02942 5.20456 1.02942 5.13614C1.02942 5.06772 1.0849 5.01224 1.15332 5.01224C1.22175 5.01224 1.27723 5.06772 1.27723 5.13614C1.27784 5.20394 1.22175 5.26002 1.15332 5.26002ZM1.15332 5.08498C1.12497 5.08498 1.10216 5.10778 1.10216 5.13614C1.10216 5.16451 1.12497 5.18729 1.15332 5.18729C1.18168 5.18729 1.20449 5.16451 1.20449 5.13614C1.20449 5.10778 1.18168 5.08498 1.15332 5.08498Z" fill="var(--fill-0, white)"/>
<path id="Vector_21" d="M1.58673 5.26002C1.51831 5.26002 1.46283 5.20456 1.46283 5.13614C1.46283 5.06772 1.51831 5.01224 1.58673 5.01224C1.65516 5.01224 1.71064 5.06772 1.71064 5.13614C1.71064 5.20394 1.65516 5.26002 1.58673 5.26002ZM1.58673 5.08498C1.55838 5.08498 1.53557 5.10778 1.53557 5.13614C1.53557 5.16451 1.55838 5.18729 1.58673 5.18729C1.61509 5.18729 1.6379 5.16451 1.6379 5.13614C1.6379 5.10778 1.61448 5.08498 1.58673 5.08498Z" fill="var(--fill-0, white)"/>
<path id="Vector_22" d="M1.46837 5.09903H1.24091V5.17239H1.46837V5.09903Z" fill="var(--fill-0, white)"/>
<path id="Vector_23" d="M2.55833 6.79745H2.48497V5.14849L2.0473 4.71021V0H2.12005V4.68L2.55833 5.11829V6.79745Z" fill="var(--fill-0, white)"/>
<path id="Vector_24" d="M3.43419 4.69522H3.36084V2.49022L3.79914 2.05193V0.768506L3.38239 0.351794H3.04706V0.279052H3.41259L3.87187 0.738299V2.08213L3.43419 2.52042V4.69522Z" fill="var(--fill-0, white)"/>
<path id="Vector_25" d="M3.41282 7.35955H2.95972V7.28682H3.38261L3.79931 6.87007V3.38104H3.87204V6.90027L3.41282 7.35955Z" fill="var(--fill-0, white)"/>
<path id="Vector_26" d="M3.43442 6.44718H3.36107V6.02429L2.9234 5.58599V3.83407L2.48511 3.3964V2.05194L2.93388 1.60318L2.98565 1.65496L2.55846 2.08215V3.36619L2.99613 3.80386V5.55579L3.43442 5.99409V6.44718Z" fill="var(--fill-0, white)"/>
<path id="Vector_27" d="M2.52112 7.00934C2.4527 7.00934 2.39722 6.95388 2.39722 6.88542C2.39722 6.81702 2.4527 6.76156 2.52112 6.76156C2.58955 6.76156 2.64503 6.81702 2.64503 6.88542C2.64564 6.95326 2.59016 7.00934 2.52112 7.00934ZM2.52112 6.83429C2.49276 6.83429 2.46996 6.85707 2.46996 6.88542C2.46996 6.91377 2.49276 6.93661 2.52112 6.93661C2.54948 6.93661 2.57228 6.91377 2.57228 6.88542C2.57228 6.85707 2.54948 6.83429 2.52112 6.83429Z" fill="var(--fill-0, white)"/>
<path id="Vector_28" d="M2.95948 7.00934C2.89105 7.00934 2.83557 6.95388 2.83557 6.88542C2.83557 6.81702 2.89105 6.76156 2.95948 6.76156C3.0279 6.76156 3.08338 6.81702 3.08338 6.88542C3.08338 6.95326 3.0279 7.00934 2.95948 7.00934ZM2.95948 6.83429C2.93112 6.83429 2.90831 6.85707 2.90831 6.88542C2.90831 6.91377 2.93112 6.93661 2.95948 6.93661C2.98783 6.93661 3.01064 6.91377 3.01064 6.88542C3.01064 6.85707 2.98783 6.83429 2.95948 6.83429Z" fill="var(--fill-0, white)"/>
<path id="Vector_29" d="M2.95948 6.57127C2.89105 6.57127 2.83557 6.5158 2.83557 6.44735C2.83557 6.37895 2.89105 6.32343 2.95948 6.32343C3.0279 6.32343 3.08338 6.37895 3.08338 6.44735C3.08338 6.5158 3.0279 6.57127 2.95948 6.57127ZM2.95948 6.39622C2.93112 6.39622 2.90831 6.419 2.90831 6.44735C2.90831 6.4757 2.93112 6.49854 2.95948 6.49854C2.98783 6.49854 3.01064 6.4757 3.01064 6.44735C3.01064 6.419 2.98783 6.39622 2.95948 6.39622Z" fill="var(--fill-0, white)"/>
<path id="Vector_30" d="M3.39234 7.00934C3.32389 7.00934 3.26842 6.95388 3.26842 6.88542C3.26842 6.81702 3.32389 6.76156 3.39234 6.76156C3.46074 6.76156 3.51626 6.81702 3.51626 6.88542C3.51688 6.95326 3.46074 7.00934 3.39234 7.00934ZM3.39234 6.83429C3.36399 6.83429 3.34115 6.85707 3.34115 6.88542C3.34115 6.91377 3.36399 6.93661 3.39234 6.93661C3.42069 6.93661 3.44353 6.91377 3.44353 6.88542C3.44353 6.85707 3.42069 6.83429 3.39234 6.83429Z" fill="var(--fill-0, white)"/>
<path id="Vector_31" d="M3.83289 7.44961C3.76449 7.44961 3.70897 7.39415 3.70897 7.32569C3.70897 7.25729 3.76449 7.20183 3.83289 7.20183C3.90129 7.20183 3.95681 7.25729 3.95681 7.32569C3.95681 7.39415 3.90129 7.44961 3.83289 7.44961ZM3.83289 7.27456C3.80454 7.27456 3.7817 7.29734 3.7817 7.32569C3.7817 7.3541 3.80454 7.37688 3.83289 7.37688C3.86124 7.37688 3.88408 7.3541 3.88408 7.32569C3.88408 7.29734 3.86062 7.27456 3.83289 7.27456Z" fill="var(--fill-0, white)"/>
<path id="Vector_32" d="M3.39729 4.90684C3.32884 4.90684 3.27337 4.85136 3.27337 4.78293C3.27337 4.71451 3.32884 4.65903 3.39729 4.65903C3.46569 4.65903 3.52121 4.71451 3.52121 4.78293C3.52183 4.85136 3.46631 4.90684 3.39729 4.90684ZM3.39729 4.73177C3.36894 4.73177 3.3461 4.75457 3.3461 4.78293C3.3461 4.81129 3.36894 4.83409 3.39729 4.83409C3.42564 4.83409 3.44842 4.81129 3.44842 4.78293C3.44842 4.75457 3.42564 4.73177 3.39729 4.73177Z" fill="var(--fill-0, white)"/>
<path id="Vector_33" d="M2.52112 4.90684C2.4527 4.90684 2.39722 4.85136 2.39722 4.78293C2.39722 4.71451 2.4527 4.65903 2.52112 4.65903C2.58955 4.65903 2.64503 4.71451 2.64503 4.78293C2.64564 4.85136 2.59016 4.90684 2.52112 4.90684ZM2.52112 4.73177C2.49276 4.73177 2.46996 4.75457 2.46996 4.78293C2.46996 4.81129 2.49276 4.83409 2.52112 4.83409C2.54948 4.83409 2.57228 4.81129 2.57228 4.78293C2.57228 4.75457 2.54948 4.73177 2.52112 4.73177Z" fill="var(--fill-0, white)"/>
<path id="Vector_34" d="M2.95952 7.3231C2.95952 7.39094 2.90465 7.44579 2.83684 7.44579C2.76904 7.44579 2.71418 7.39094 2.71418 7.3231C2.71418 7.25532 2.76904 7.20042 2.83684 7.20042C2.90465 7.20042 2.95952 7.25532 2.95952 7.3231Z" fill="var(--fill-0, white)"/>
<path id="Vector_35" d="M2.64366 7.3231C2.64366 7.39094 2.58879 7.44579 2.52099 7.44579C2.45318 7.44579 2.39831 7.39094 2.39831 7.3231C2.39831 7.25532 2.45318 7.20042 2.52099 7.20042C2.58879 7.20042 2.64366 7.25532 2.64366 7.3231Z" fill="var(--fill-0, white)"/>
<path id="Vector_36" d="M3.5198 6.56997C3.5198 6.63781 3.46496 6.69265 3.39712 6.69265C3.32934 6.69265 3.2745 6.63781 3.2745 6.56997C3.2745 6.50219 3.32934 6.44735 3.39712 6.44735C3.46496 6.44735 3.5198 6.50219 3.5198 6.56997Z" fill="var(--fill-0, white)"/>
<path id="Vector_37" d="M3.756 5.57547C3.756 5.64325 3.70115 5.69815 3.63337 5.69815C3.56554 5.69815 3.51069 5.64325 3.51069 5.57547C3.51069 5.50764 3.56554 5.45279 3.63337 5.45279C3.70115 5.45279 3.756 5.50764 3.756 5.57547Z" fill="var(--fill-0, white)"/>
<path id="Vector_38" d="M3.08201 6.00528C3.08201 6.07312 3.02715 6.12796 2.95934 6.12796C2.89153 6.12796 2.83667 6.07312 2.83667 6.00528C2.83667 5.9375 2.89153 5.88265 2.95934 5.88265C3.02715 5.88265 3.08201 5.9375 3.08201 6.00528Z" fill="var(--fill-0, white)"/>
<path id="Vector_39" d="M2.2064 5.57547C2.2064 5.64325 2.15154 5.69815 2.08373 5.69815C2.01592 5.69815 1.96106 5.64325 1.96106 5.57547C1.96106 5.50764 2.01592 5.45279 2.08373 5.45279C2.15154 5.45279 2.2064 5.50764 2.2064 5.57547Z" fill="var(--fill-0, white)"/>
<path id="Vector_40" d="M2.40915 7.26224L2.0473 6.90039V5.69832H2.12005V6.87018L2.46093 7.21044L2.40915 7.26224Z" fill="var(--fill-0, white)"/>
<path id="Vector_41" d="M2.55846 3.85153H2.48511V4.69482H2.55846V3.85153Z" fill="var(--fill-0, white)"/>
<path id="Vector_42" d="M3.2745 6.84858H3.04706V6.92199H3.2745V6.84858Z" fill="var(--fill-0, white)"/>
<path id="Vector_43" d="M3.20062 5.26002C3.1322 5.26002 3.07672 5.20456 3.07672 5.13614C3.07672 5.06772 3.1322 5.01224 3.20062 5.01224C3.26904 5.01224 3.3245 5.06772 3.3245 5.13614C3.3245 5.20394 3.26904 5.26002 3.20062 5.26002ZM3.20062 5.08498C3.17227 5.08498 3.14946 5.10778 3.14946 5.13614C3.14946 5.16451 3.17227 5.18729 3.20062 5.18729C3.22898 5.18729 3.25179 5.16451 3.25179 5.13614C3.25179 5.10778 3.22898 5.08498 3.20062 5.08498Z" fill="var(--fill-0, white)"/>
<path id="Vector_44" d="M3.63349 5.26002C3.56509 5.26002 3.50957 5.20456 3.50957 5.13614C3.50957 5.06772 3.56509 5.01224 3.63349 5.01224C3.70189 5.01224 3.7574 5.06772 3.7574 5.13614C3.75802 5.20394 3.70189 5.26002 3.63349 5.26002ZM3.63349 5.08498C3.60514 5.08498 3.5823 5.10778 3.5823 5.13614C3.5823 5.16451 3.60514 5.18729 3.63349 5.18729C3.66184 5.18729 3.68467 5.16451 3.68467 5.13614C3.68467 5.10778 3.66184 5.08498 3.63349 5.08498Z" fill="var(--fill-0, white)"/>
<path id="Vector_45" d="M3.5157 5.09903H3.28822V5.17239H3.5157V5.09903Z" fill="var(--fill-0, white)"/>
<path id="Vector_46" d="M4.60453 6.79745H4.5318V5.14849L4.0935 4.71021V0H4.16685V4.68L4.60453 5.11829V6.79745Z" fill="var(--fill-0, white)"/>
<path id="Vector_47" d="M5.48034 4.69549H5.40755V2.49049L5.84524 2.0522V0.768781L5.42854 0.352064H5.09379V0.279327H5.45936L5.91859 0.738575V2.08241L5.48034 2.5207V4.69549Z" fill="var(--fill-0, white)"/>
<path id="Vector_48" d="M5.45953 7.35984H5.00649V7.28705H5.4287L5.84546 6.87035V3.38132H5.91881V6.90055L5.45953 7.35984Z" fill="var(--fill-0, white)"/>
<path id="Vector_49" d="M5.48057 6.4474H5.40784V6.02457L4.96954 5.58627V3.83434L4.53185 3.39667V2.05222L4.98062 1.60345L5.03242 1.65524L4.60459 2.08243V3.36647L5.04289 3.80414V5.55607L5.48057 5.99437V6.4474Z" fill="var(--fill-0, white)"/>
<path id="Vector_50" d="M4.56842 7.00962C4.50002 7.00962 4.4445 6.95416 4.4445 6.8857C4.4445 6.8173 4.50002 6.76179 4.56842 6.76179C4.63687 6.76179 4.69234 6.8173 4.69234 6.8857C4.69234 6.95354 4.63687 7.00962 4.56842 7.00962ZM4.56842 6.83457C4.54007 6.83457 4.51729 6.85735 4.51729 6.8857C4.51729 6.91405 4.54007 6.93689 4.56842 6.93689C4.59677 6.93689 4.6196 6.91405 4.6196 6.8857C4.6196 6.85735 4.59677 6.83457 4.56842 6.83457Z" fill="var(--fill-0, white)"/>
<path id="Vector_51" d="M5.00621 7.00962C4.93781 7.00962 4.88235 6.95416 4.88235 6.8857C4.88235 6.8173 4.93781 6.76179 5.00621 6.76179C5.07467 6.76179 5.13013 6.8173 5.13013 6.8857C5.13013 6.95354 5.07467 7.00962 5.00621 7.00962ZM5.00621 6.83457C4.97786 6.83457 4.95508 6.85735 4.95508 6.8857C4.95508 6.91405 4.97786 6.93689 5.00621 6.93689C5.03456 6.93689 5.0574 6.91405 5.0574 6.8857C5.05678 6.85735 5.03394 6.83457 5.00621 6.83457Z" fill="var(--fill-0, white)"/>
<path id="Vector_52" d="M5.00621 6.57127C4.93781 6.57127 4.88235 6.5158 4.88235 6.44735C4.88235 6.37895 4.93781 6.32343 5.00621 6.32343C5.07467 6.32343 5.13013 6.37895 5.13013 6.44735C5.13013 6.5158 5.07467 6.57127 5.00621 6.57127ZM5.00621 6.39622C4.97786 6.39622 4.95508 6.419 4.95508 6.44735C4.95508 6.4757 4.97786 6.49854 5.00621 6.49854C5.03456 6.49854 5.0574 6.4757 5.0574 6.44735C5.05678 6.419 5.03394 6.39622 5.00621 6.39622Z" fill="var(--fill-0, white)"/>
<path id="Vector_53" d="M5.43911 7.00962C5.37065 7.00962 5.31519 6.95416 5.31519 6.8857C5.31519 6.8173 5.37065 6.76179 5.43911 6.76179C5.50751 6.76179 5.56297 6.8173 5.56297 6.8857C5.56297 6.95354 5.50751 7.00962 5.43911 7.00962ZM5.43911 6.83457C5.41076 6.83457 5.38792 6.85735 5.38792 6.8857C5.38792 6.91405 5.41076 6.93689 5.43911 6.93689C5.46746 6.93689 5.49024 6.91405 5.49024 6.8857C5.49024 6.85735 5.46684 6.83457 5.43911 6.83457Z" fill="var(--fill-0, white)"/>
<path id="Vector_54" d="M5.8791 7.44961C5.81064 7.44961 5.75518 7.39415 5.75518 7.32569C5.75518 7.25729 5.81064 7.20183 5.8791 7.20183C5.9475 7.20183 6.00302 7.25729 6.00302 7.32569C6.00364 7.39415 5.9475 7.44961 5.8791 7.44961ZM5.8791 7.27456C5.85075 7.27456 5.82791 7.29734 5.82791 7.32569C5.82791 7.3541 5.85075 7.37688 5.8791 7.37688C5.90745 7.37688 5.93023 7.3541 5.93023 7.32569C5.93023 7.29734 5.90745 7.27456 5.8791 7.27456Z" fill="var(--fill-0, white)"/>
<path id="Vector_55" d="M5.44406 4.90684C5.3756 4.90684 5.32014 4.85136 5.32014 4.78293C5.32014 4.71451 5.3756 4.65903 5.44406 4.65903C5.51246 4.65903 5.56792 4.71451 5.56792 4.78293C5.56792 4.85136 5.51246 4.90684 5.44406 4.90684ZM5.44406 4.73177C5.41565 4.73177 5.39287 4.75457 5.39287 4.78293C5.39287 4.81129 5.41565 4.83409 5.44406 4.83409C5.47241 4.83409 5.49519 4.81129 5.49519 4.78293C5.49519 4.75457 5.47241 4.73177 5.44406 4.73177Z" fill="var(--fill-0, white)"/>
<path id="Vector_56" d="M4.56842 4.90684C4.50002 4.90684 4.4445 4.85136 4.4445 4.78293C4.4445 4.71451 4.50002 4.65903 4.56842 4.65903C4.63687 4.65903 4.69234 4.71451 4.69234 4.78293C4.69234 4.85136 4.63687 4.90684 4.56842 4.90684ZM4.56842 4.73177C4.54007 4.73177 4.51729 4.75457 4.51729 4.78293C4.51729 4.81129 4.54007 4.83409 4.56842 4.83409C4.59677 4.83409 4.6196 4.81129 4.6196 4.78293C4.6196 4.75457 4.59677 4.73177 4.56842 4.73177Z" fill="var(--fill-0, white)"/>
<path id="Vector_57" d="M5.00627 7.32339C5.00627 7.39117 4.95142 7.44607 4.88359 7.44607C4.8158 7.44607 4.7609 7.39117 4.7609 7.32339C4.7609 7.2556 4.8158 7.2007 4.88359 7.2007C4.95142 7.2007 5.00627 7.2556 5.00627 7.32339Z" fill="var(--fill-0, white)"/>
<path id="Vector_58" d="M4.69099 7.32339C4.69099 7.39117 4.63609 7.44607 4.5683 7.44607C4.50047 7.44607 4.44562 7.39117 4.44562 7.32339C4.44562 7.2556 4.50047 7.2007 4.5683 7.2007C4.63609 7.2007 4.69099 7.2556 4.69099 7.32339Z" fill="var(--fill-0, white)"/>
<path id="Vector_59" d="M5.56657 6.56997C5.56657 6.63781 5.51173 6.69265 5.44389 6.69265C5.37611 6.69265 5.32121 6.63781 5.32121 6.56997C5.32121 6.50219 5.37611 6.44735 5.44389 6.44735C5.51173 6.44735 5.56657 6.50219 5.56657 6.56997Z" fill="var(--fill-0, white)"/>
<path id="Vector_60" d="M5.80277 5.57575C5.80277 5.64354 5.74792 5.69838 5.68009 5.69838C5.6123 5.69838 5.55746 5.64354 5.55746 5.57575C5.55746 5.50792 5.6123 5.45307 5.68009 5.45307C5.74792 5.45307 5.80277 5.50792 5.80277 5.57575Z" fill="var(--fill-0, white)"/>
<path id="Vector_61" d="M5.12934 6.00528C5.12934 6.07312 5.07444 6.12796 5.00666 6.12796C4.93882 6.12796 4.88398 6.07312 4.88398 6.00528C4.88398 5.9375 4.93882 5.88265 5.00666 5.88265C5.07382 5.88265 5.12934 5.9375 5.12934 6.00528Z" fill="var(--fill-0, white)"/>
<path id="Vector_62" d="M4.25314 5.57575C4.25314 5.64354 4.19829 5.69838 4.13051 5.69838C4.06267 5.69838 4.00783 5.64354 4.00783 5.57575C4.00783 5.50792 4.06267 5.45307 4.13051 5.45307C4.19829 5.45307 4.25314 5.50792 4.25314 5.57575Z" fill="var(--fill-0, white)"/>
<path id="Vector_63" d="M4.45597 7.26224L4.0935 6.90039V5.69832H4.16685V6.87018L4.50716 7.21044L4.45597 7.26224Z" fill="var(--fill-0, white)"/>
<path id="Vector_64" d="M4.6052 3.85153H4.53185V4.69482H4.6052V3.85153Z" fill="var(--fill-0, white)"/>
<path id="Vector_65" d="M5.32127 6.84858H5.09379V6.92199H5.32127V6.84858Z" fill="var(--fill-0, white)"/>
<path id="Vector_66" d="M5.24735 5.26002C5.17895 5.26002 5.12349 5.20456 5.12349 5.13614C5.12349 5.06772 5.17895 5.01224 5.24735 5.01224C5.31581 5.01224 5.37127 5.06772 5.37127 5.13614C5.37127 5.20394 5.31581 5.26002 5.24735 5.26002ZM5.24735 5.08498C5.219 5.08498 5.19622 5.10778 5.19622 5.13614C5.19622 5.16451 5.219 5.18729 5.24735 5.18729C5.27576 5.18729 5.29854 5.16451 5.29854 5.13614C5.29854 5.10778 5.27514 5.08498 5.24735 5.08498Z" fill="var(--fill-0, white)"/>
<path id="Vector_67" d="M5.68025 5.26002C5.6118 5.26002 5.55634 5.20456 5.55634 5.13614C5.55634 5.06772 5.6118 5.01224 5.68025 5.01224C5.74865 5.01224 5.80412 5.06772 5.80412 5.13614C5.80412 5.20394 5.74865 5.26002 5.68025 5.26002ZM5.68025 5.08498C5.6519 5.08498 5.62907 5.10778 5.62907 5.13614C5.62907 5.16451 5.6519 5.18729 5.68025 5.18729C5.7086 5.18729 5.73139 5.16451 5.73139 5.13614C5.73139 5.10778 5.70799 5.08498 5.68025 5.08498Z" fill="var(--fill-0, white)"/>
<path id="Vector_68" d="M5.56241 5.09931H5.33494V5.17267H5.56241V5.09931Z" fill="var(--fill-0, white)"/>
<path id="Vector_69" d="M6.65237 6.79745H6.57902V5.14849L6.14134 4.71021V0H6.21412V4.68L6.65237 5.11829V6.79745Z" fill="var(--fill-0, white)"/>
<path id="Vector_70" d="M7.52824 4.69549H7.45489V2.49049L7.89319 2.0522V0.768781L7.47643 0.352064H7.14112V0.279327H7.50664L7.96592 0.738575V2.08241L7.52824 2.5207V4.69549Z" fill="var(--fill-0, white)"/>
<path id="Vector_71" d="M7.50686 7.35984H7.05377V7.28705H7.47665L7.89335 6.87035V3.38132H7.96609V6.90055L7.50686 7.35984Z" fill="var(--fill-0, white)"/>
<path id="Vector_72" d="M7.52846 6.4474H7.45511V6.02457L7.01743 5.58627V3.83434L6.57919 3.39667V2.05222L7.02795 1.60345L7.0797 1.65524L6.65254 2.08243V3.36647L7.09022 3.80414V5.55607L7.52846 5.99437V6.4474Z" fill="var(--fill-0, white)"/>
<path id="Vector_73" d="M6.61625 7.00962C6.54785 7.00962 6.49239 6.95416 6.49239 6.8857C6.49239 6.8173 6.54785 6.76179 6.61625 6.76179C6.68471 6.76179 6.74017 6.8173 6.74017 6.8857C6.74017 6.95354 6.68471 7.00962 6.61625 7.00962ZM6.61625 6.83457C6.5879 6.83457 6.56512 6.85735 6.56512 6.8857C6.56512 6.91405 6.5879 6.93689 6.61625 6.93689C6.64466 6.93689 6.66744 6.91405 6.66744 6.8857C6.66682 6.85735 6.64404 6.83457 6.61625 6.83457Z" fill="var(--fill-0, white)"/>
<path id="Vector_74" d="M7.05354 7.00962C6.98509 7.00962 6.92962 6.95416 6.92962 6.8857C6.92962 6.8173 6.98509 6.76179 7.05354 6.76179C7.12194 6.76179 7.17746 6.8173 7.17746 6.8857C7.17808 6.95354 7.12194 7.00962 7.05354 7.00962ZM7.05354 6.83457C7.02519 6.83457 7.00235 6.85735 7.00235 6.8857C7.00235 6.91405 7.02519 6.93689 7.05354 6.93689C7.08189 6.93689 7.10467 6.91405 7.10467 6.8857C7.10467 6.85735 7.08189 6.83457 7.05354 6.83457Z" fill="var(--fill-0, white)"/>
<path id="Vector_75" d="M7.05354 6.57127C6.98509 6.57127 6.92962 6.5158 6.92962 6.44735C6.92962 6.37895 6.98509 6.32343 7.05354 6.32343C7.12194 6.32343 7.17746 6.37895 7.17746 6.44735C7.17808 6.5158 7.12194 6.57127 7.05354 6.57127ZM7.05354 6.39622C7.02519 6.39622 7.00235 6.419 7.00235 6.44735C7.00235 6.4757 7.02519 6.49854 7.05354 6.49854C7.08189 6.49854 7.10467 6.4757 7.10467 6.44735C7.10467 6.419 7.08189 6.39622 7.05354 6.39622Z" fill="var(--fill-0, white)"/>
<path id="Vector_76" d="M7.48639 7.00962C7.41799 7.00962 7.36247 6.95416 7.36247 6.8857C7.36247 6.8173 7.41799 6.76179 7.48639 6.76179C7.55484 6.76179 7.6103 6.8173 7.6103 6.8857C7.61092 6.95354 7.55484 7.00962 7.48639 7.00962ZM7.48639 6.83457C7.45804 6.83457 7.43525 6.85735 7.43525 6.8857C7.43525 6.91405 7.45804 6.93689 7.48639 6.93689C7.51474 6.93689 7.53757 6.91405 7.53757 6.8857C7.53757 6.85735 7.51474 6.83457 7.48639 6.83457Z" fill="var(--fill-0, white)"/>
<path id="Vector_77" d="M7.9275 7.44961C7.85904 7.44961 7.80358 7.39415 7.80358 7.32569C7.80358 7.25729 7.85904 7.20183 7.9275 7.20183C7.9959 7.20183 8.05142 7.25729 8.05142 7.32569C8.05142 7.39415 7.9959 7.44961 7.9275 7.44961ZM7.9275 7.27456C7.89915 7.27456 7.87631 7.29734 7.87631 7.32569C7.87631 7.3541 7.89915 7.37688 7.9275 7.37688C7.95585 7.37688 7.97869 7.3541 7.97869 7.32569C7.97869 7.29734 7.95585 7.27456 7.9275 7.27456Z" fill="var(--fill-0, white)"/>
<path id="Vector_78" d="M7.4919 4.90684C7.42344 4.90684 7.36798 4.85136 7.36798 4.78293C7.36798 4.71451 7.42344 4.65903 7.4919 4.65903C7.5603 4.65903 7.61582 4.71451 7.61582 4.78293C7.61582 4.85136 7.5603 4.90684 7.4919 4.90684ZM7.4919 4.73177C7.46355 4.73177 7.44071 4.75457 7.44071 4.78293C7.44071 4.81129 7.46355 4.83409 7.4919 4.83409C7.52025 4.83409 7.54303 4.81129 7.54303 4.78293C7.54303 4.75457 7.51963 4.73177 7.4919 4.73177Z" fill="var(--fill-0, white)"/>
<path id="Vector_79" d="M6.61625 4.90684C6.54785 4.90684 6.49239 4.85136 6.49239 4.78293C6.49239 4.71451 6.54785 4.65903 6.61625 4.65903C6.68471 4.65903 6.74017 4.71451 6.74017 4.78293C6.74017 4.85136 6.68471 4.90684 6.61625 4.90684ZM6.61625 4.73177C6.5879 4.73177 6.56512 4.75457 6.56512 4.78293C6.56512 4.81129 6.5879 4.83409 6.61625 4.83409C6.64466 4.83409 6.66744 4.81129 6.66744 4.78293C6.66744 4.75457 6.64404 4.73177 6.61625 4.73177Z" fill="var(--fill-0, white)"/>
<path id="Vector_80" d="M7.0536 7.32339C7.0536 7.39117 6.9987 7.44607 6.93092 7.44607C6.86308 7.44607 6.80824 7.39117 6.80824 7.32339C6.80824 7.2556 6.86308 7.2007 6.93092 7.2007C6.9987 7.2007 7.0536 7.2556 7.0536 7.32339Z" fill="var(--fill-0, white)"/>
<path id="Vector_81" d="M6.73882 7.32339C6.73882 7.39117 6.68392 7.44607 6.61614 7.44607C6.54836 7.44607 6.49346 7.39117 6.49346 7.32339C6.49346 7.2556 6.54836 7.2007 6.61614 7.2007C6.68392 7.2007 6.73882 7.2556 6.73882 7.32339Z" fill="var(--fill-0, white)"/>
<path id="Vector_82" d="M7.61497 6.56997C7.61497 6.63781 7.56013 6.69265 7.49229 6.69265C7.42451 6.69265 7.36961 6.63781 7.36961 6.56997C7.36961 6.50219 7.42451 6.44735 7.49229 6.44735C7.56013 6.44735 7.61497 6.50219 7.61497 6.56997Z" fill="var(--fill-0, white)"/>
<path id="Vector_83" d="M7.8501 5.57575C7.8501 5.64354 7.7952 5.69838 7.72742 5.69838C7.65958 5.69838 7.60473 5.64354 7.60473 5.57575C7.60473 5.50792 7.65958 5.45307 7.72742 5.45307C7.7952 5.45307 7.8501 5.50792 7.8501 5.57575Z" fill="var(--fill-0, white)"/>
<path id="Vector_84" d="M7.17662 6.00528C7.17662 6.07312 7.12177 6.12796 7.05394 6.12796C6.98616 6.12796 6.93125 6.07312 6.93125 6.00528C6.93125 5.9375 6.98616 5.88265 7.05394 5.88265C7.12177 5.88265 7.17662 5.9375 7.17662 6.00528Z" fill="var(--fill-0, white)"/>
<path id="Vector_85" d="M6.30047 5.57575C6.30047 5.64354 6.24562 5.69838 6.17779 5.69838C6.11 5.69838 6.0551 5.64354 6.0551 5.57575C6.0551 5.50792 6.11 5.45307 6.17779 5.45307C6.24562 5.45307 6.30047 5.50792 6.30047 5.57575Z" fill="var(--fill-0, white)"/>
<path id="Vector_86" d="M6.50319 7.26224L6.14134 6.90039V5.69832H6.21412V6.87018L6.555 7.21044L6.50319 7.26224Z" fill="var(--fill-0, white)"/>
<path id="Vector_87" d="M6.65254 3.85153H6.57919V4.69482H6.65254V3.85153Z" fill="var(--fill-0, white)"/>
<path id="Vector_88" d="M7.3686 6.84858H7.14112V6.92199H7.3686V6.84858Z" fill="var(--fill-0, white)"/>
<path id="Vector_89" d="M7.29469 5.26002C7.22623 5.26002 7.17077 5.20456 7.17077 5.13614C7.17077 5.06772 7.22623 5.01224 7.29469 5.01224C7.36309 5.01224 7.4186 5.06772 7.4186 5.13614C7.41922 5.20394 7.36309 5.26002 7.29469 5.26002ZM7.29469 5.08498C7.26634 5.08498 7.2435 5.10778 7.2435 5.13614C7.2435 5.16451 7.26634 5.18729 7.29469 5.18729C7.32304 5.18729 7.34587 5.16451 7.34587 5.13614C7.34587 5.10778 7.32304 5.08498 7.29469 5.08498Z" fill="var(--fill-0, white)"/>
<path id="Vector_90" d="M7.72753 5.26002C7.65913 5.26002 7.60367 5.20456 7.60367 5.13614C7.60367 5.06772 7.65913 5.01224 7.72753 5.01224C7.79598 5.01224 7.85145 5.06772 7.85145 5.13614C7.85207 5.20394 7.79598 5.26002 7.72753 5.26002ZM7.72753 5.08498C7.69918 5.08498 7.6764 5.10778 7.6764 5.13614C7.6764 5.16451 7.69918 5.18729 7.72753 5.18729C7.75588 5.18729 7.77872 5.16451 7.77872 5.13614C7.77872 5.10778 7.75588 5.08498 7.72753 5.08498Z" fill="var(--fill-0, white)"/>
<path id="Vector_91" d="M7.60974 5.09931H7.38227V5.17267H7.60974V5.09931Z" fill="var(--fill-0, white)"/>
<path id="Vector_92" d="M8.69919 6.79745H8.62584V5.14849L8.18754 4.71021V0H8.26089V4.68L8.69919 5.11829V6.79745Z" fill="var(--fill-0, white)"/>
<path id="Vector_93" d="M9.575 4.69522H9.50165V2.49022L9.93928 2.05193V0.768506L9.5232 0.351794H9.18789V0.279052H9.5534L10.0127 0.738299V2.08213L9.575 2.52042V4.69522Z" fill="var(--fill-0, white)"/>
<path id="Vector_94" d="M9.55363 7.35955H9.10054V7.28682H9.52342L9.93951 6.87007V3.38104H10.0129V6.90027L9.55363 7.35955Z" fill="var(--fill-0, white)"/>
<path id="Vector_95" d="M9.57523 6.44718H9.50188V6.02429L9.06358 5.58599V3.83407L8.6259 3.3964V2.05194L9.07466 1.60318L9.12647 1.65496L8.69925 2.08215V3.36619L9.13693 3.80386V5.55579L9.57523 5.99409V6.44718Z" fill="var(--fill-0, white)"/>
<path id="Vector_96" d="M8.66246 7.00934C8.59406 7.00934 8.5386 6.95388 8.5386 6.88542C8.5386 6.81702 8.59406 6.76156 8.66246 6.76156C8.73092 6.76156 8.78638 6.81702 8.78638 6.88542C8.787 6.95326 8.73092 7.00934 8.66246 7.00934ZM8.66246 6.83429C8.63411 6.83429 8.61133 6.85707 8.61133 6.88542C8.61133 6.91377 8.63411 6.93661 8.66246 6.93661C8.69081 6.93661 8.71365 6.91377 8.71365 6.88542C8.71365 6.85707 8.69081 6.83429 8.66246 6.83429Z" fill="var(--fill-0, white)"/>
<path id="Vector_97" d="M9.10082 7.00934C9.03242 7.00934 8.97695 6.95388 8.97695 6.88542C8.97695 6.81702 9.03242 6.76156 9.10082 6.76156C9.16927 6.76156 9.22474 6.81702 9.22474 6.88542C9.22474 6.95326 9.16927 7.00934 9.10082 7.00934ZM9.10082 6.83429C9.07247 6.83429 9.04969 6.85707 9.04969 6.88542C9.04969 6.91377 9.07247 6.93661 9.10082 6.93661C9.12917 6.93661 9.152 6.91377 9.152 6.88542C9.152 6.85707 9.12855 6.83429 9.10082 6.83429Z" fill="var(--fill-0, white)"/>
<path id="Vector_98" d="M9.10082 6.57127C9.03242 6.57127 8.97695 6.5158 8.97695 6.44735C8.97695 6.37895 9.03242 6.32343 9.10082 6.32343C9.16927 6.32343 9.22474 6.37895 9.22474 6.44735C9.22474 6.5158 9.16927 6.57127 9.10082 6.57127ZM9.10082 6.39622C9.07247 6.39622 9.04969 6.419 9.04969 6.44735C9.04969 6.4757 9.07247 6.49854 9.10082 6.49854C9.12917 6.49854 9.152 6.4757 9.152 6.44735C9.152 6.419 9.12855 6.39622 9.10082 6.39622Z" fill="var(--fill-0, white)"/>
<path id="Vector_99" d="M8.66246 4.90684C8.59406 4.90684 8.5386 4.85136 8.5386 4.78293C8.5386 4.71451 8.59406 4.65903 8.66246 4.65903C8.73092 4.65903 8.78638 4.71451 8.78638 4.78293C8.787 4.85136 8.73092 4.90684 8.66246 4.90684ZM8.66246 4.73177C8.63411 4.73177 8.61133 4.75457 8.61133 4.78293C8.61133 4.81129 8.63411 4.83409 8.66246 4.83409C8.69081 4.83409 8.71365 4.81129 8.71365 4.78293C8.71365 4.75457 8.69081 4.73177 8.66246 4.73177Z" fill="var(--fill-0, white)"/>
<path id="Vector_100" d="M9.10031 7.3231C9.10031 7.39094 9.04547 7.44579 8.97763 7.44579C8.90985 7.44579 8.855 7.39094 8.855 7.3231C8.855 7.25532 8.90985 7.20042 8.97763 7.20042C9.04547 7.20042 9.10031 7.25532 9.10031 7.3231Z" fill="var(--fill-0, white)"/>
<path id="Vector_101" d="M8.78503 7.3231C8.78503 7.39094 8.73013 7.44579 8.66235 7.44579C8.59451 7.44579 8.53967 7.39094 8.53967 7.3231C8.53967 7.25532 8.59451 7.20042 8.66235 7.20042C8.73013 7.20042 8.78503 7.25532 8.78503 7.3231Z" fill="var(--fill-0, white)"/>
<path id="Vector_102" d="M9.22339 6.00528C9.22339 6.07312 9.16849 6.12796 9.1007 6.12796C9.03287 6.12796 8.97802 6.07312 8.97802 6.00528C8.97802 5.9375 9.03287 5.88265 9.1007 5.88265C9.16849 5.88265 9.22339 5.9375 9.22339 6.00528Z" fill="var(--fill-0, white)"/>
<path id="Vector_103" d="M8.34724 5.57547C8.34724 5.64325 8.29234 5.69815 8.22455 5.69815C8.15672 5.69815 8.10187 5.64325 8.10187 5.57547C8.10187 5.50764 8.15672 5.45279 8.22455 5.45279C8.29234 5.45279 8.34724 5.50764 8.34724 5.57547Z" fill="var(--fill-0, white)"/>
<path id="Vector_104" d="M8.55002 7.26224L8.18754 6.90039V5.69832H8.26089V6.87018L8.60182 7.21044L8.55002 7.26224Z" fill="var(--fill-0, white)"/>
<path id="Vector_105" d="M8.69925 3.85153H8.6259V4.69482H8.69925V3.85153Z" fill="var(--fill-0, white)"/>
<path id="Vector_106" d="M9.41531 6.84858H9.18789V6.92199H9.41531V6.84858Z" fill="var(--fill-0, white)"/>
<path id="Vector_107" d="M9.34145 5.26002C9.273 5.26002 9.21754 5.20456 9.21754 5.13614C9.21754 5.06772 9.273 5.01224 9.34145 5.01224C9.40985 5.01224 9.46532 5.06772 9.46532 5.13614C9.46532 5.20394 9.40985 5.26002 9.34145 5.26002ZM9.34145 5.08498C9.3131 5.08498 9.29027 5.10778 9.29027 5.13614C9.29027 5.16451 9.3131 5.18729 9.34145 5.18729C9.3698 5.18729 9.39258 5.16451 9.39258 5.13614C9.39258 5.10778 9.36919 5.08498 9.34145 5.08498Z" fill="var(--fill-0, white)"/>
<path id="Vector_108" d="M0.511031 14.5144H0.438289V12.8655L0 12.4278V7.71764H0.0733557V12.397L0.511031 12.8353V14.5144Z" fill="var(--fill-0, white)"/>
<path id="Vector_109" d="M1.38688 12.4125H1.31414V10.2075L1.75181 9.76987V8.48585L1.3351 8.06915H0.999759V7.99642H1.36531L1.82517 8.45564V9.80007L1.38688 10.2378V12.4125Z" fill="var(--fill-0, white)"/>
<path id="Vector_110" d="M1.3655 15.0768H0.912414V15.0041H1.33529L1.75201 14.5873V11.0989H1.82536V14.6175L1.3655 15.0768Z" fill="var(--fill-0, white)"/>
<path id="Vector_111" d="M1.38705 14.1645H1.31432V13.7416L0.876026 13.3039V11.552L0.438356 11.1137V9.76987L0.886506 9.32105L0.938289 9.37286L0.511093 9.80007V11.0835L0.949382 11.5218V13.2731L1.38705 13.7114V14.1645Z" fill="var(--fill-0, white)"/>
<path id="Vector_112" d="M0.912173 8.15712C0.84375 8.15712 0.788271 8.10166 0.788271 8.03326C0.788271 7.9648 0.84375 7.90934 0.912173 7.90934C0.980601 7.90934 1.03608 7.9648 1.03608 8.03326C1.03608 8.10166 0.980601 8.15712 0.912173 8.15712ZM0.912173 7.98145C0.883817 7.98145 0.861008 8.00424 0.861008 8.03264C0.861008 8.06099 0.883817 8.08377 0.912173 8.08377C0.940528 8.08377 0.963338 8.06099 0.963338 8.03264C0.963338 8.00424 0.940528 7.98145 0.912173 7.98145Z" fill="var(--fill-0, white)"/>
<path id="Vector_113" d="M0.912173 10.8499C0.84375 10.8499 0.788271 10.7944 0.788271 10.726C0.788271 10.6575 0.84375 10.6021 0.912173 10.6021C0.980601 10.6021 1.03608 10.6575 1.03608 10.726C1.03669 10.7938 0.980601 10.8499 0.912173 10.8499ZM0.912173 10.6748C0.883817 10.6748 0.861008 10.6977 0.861008 10.726C0.861008 10.7544 0.883817 10.7771 0.912173 10.7771C0.940528 10.7771 0.963338 10.7544 0.963338 10.726C0.963338 10.6977 0.940528 10.6748 0.912173 10.6748Z" fill="var(--fill-0, white)"/>
<path id="Vector_114" d="M1.78833 8.15712C1.71991 8.15712 1.66443 8.10166 1.66443 8.03326C1.66443 7.9648 1.71991 7.90934 1.78833 7.90934C1.85676 7.90934 1.91224 7.9648 1.91224 8.03326C1.91224 8.10166 1.85676 8.15712 1.78833 8.15712ZM1.78833 7.98145C1.75998 7.98145 1.73717 8.00424 1.73717 8.03264C1.73717 8.06099 1.75998 8.08377 1.78833 8.08377C1.81669 8.08377 1.8395 8.06099 1.8395 8.03264C1.8395 8.00424 1.81669 7.98145 1.78833 7.98145Z" fill="var(--fill-0, white)"/>
<path id="Vector_115" d="M1.78833 11.1353C1.71991 11.1353 1.66443 11.0798 1.66443 11.0114C1.66443 10.9429 1.71991 10.8874 1.78833 10.8874C1.85676 10.8874 1.91224 10.9429 1.91224 11.0114C1.91285 11.0798 1.85676 11.1353 1.78833 11.1353ZM1.78833 10.9602C1.75998 10.9602 1.73717 10.983 1.73717 11.0114C1.73717 11.0397 1.75998 11.0625 1.78833 11.0625C1.81669 11.0625 1.8395 11.0397 1.8395 11.0114C1.8395 10.983 1.81669 10.9602 1.78833 10.9602Z" fill="var(--fill-0, white)"/>
<path id="Vector_116" d="M1.35053 12.6244C1.28211 12.6244 1.22663 12.569 1.22663 12.5006C1.22663 12.4321 1.28211 12.3767 1.35053 12.3767C1.41895 12.3767 1.47443 12.4321 1.47443 12.5006C1.47443 12.5684 1.41895 12.6244 1.35053 12.6244ZM1.35053 12.4488C1.32217 12.4488 1.29936 12.4716 1.29936 12.5C1.29936 12.5283 1.32217 12.5511 1.35053 12.5511C1.37888 12.5511 1.40169 12.5283 1.40169 12.5C1.40169 12.4716 1.37888 12.4488 1.35053 12.4488Z" fill="var(--fill-0, white)"/>
<path id="Vector_117" d="M0.474919 12.6244C0.406496 12.6244 0.351017 12.569 0.351017 12.5006C0.351017 12.4321 0.406496 12.3767 0.474919 12.3767C0.543341 12.3767 0.598821 12.4321 0.598821 12.5006C0.598821 12.5684 0.543341 12.6244 0.474919 12.6244ZM0.474919 12.4488C0.446563 12.4488 0.423754 12.4716 0.423754 12.5C0.423754 12.5283 0.446563 12.5511 0.474919 12.5511C0.503275 12.5511 0.526084 12.5283 0.526084 12.5C0.526084 12.4716 0.503275 12.4488 0.474919 12.4488Z" fill="var(--fill-0, white)"/>
<path id="Vector_118" d="M0.474919 11.6055C0.406496 11.6055 0.351017 11.55 0.351017 11.4816C0.351017 11.4132 0.406496 11.3577 0.474919 11.3577C0.543341 11.3577 0.598821 11.4132 0.598821 11.4816C0.598821 11.55 0.543341 11.6055 0.474919 11.6055ZM0.474919 11.4304C0.446563 11.4304 0.423754 11.4532 0.423754 11.4816C0.423754 11.5099 0.446563 11.5327 0.474919 11.5327C0.503275 11.5327 0.526084 11.5099 0.526084 11.4816C0.526084 11.4532 0.503275 11.4304 0.474919 11.4304Z" fill="var(--fill-0, white)"/>
<path id="Vector_119" d="M0.474919 9.04289C0.406496 9.04289 0.351017 8.98743 0.351017 8.91903C0.351017 8.85057 0.406496 8.79511 0.474919 8.79511C0.543341 8.79511 0.598821 8.85057 0.598821 8.91903C0.598821 8.98681 0.543341 9.04289 0.474919 9.04289ZM0.474919 8.86722C0.446563 8.86722 0.423754 8.89006 0.423754 8.91841C0.423754 8.94676 0.446563 8.96954 0.474919 8.96954C0.503275 8.96954 0.526084 8.94676 0.526084 8.91841C0.526084 8.89006 0.503275 8.86722 0.474919 8.86722Z" fill="var(--fill-0, white)"/>
<path id="Vector_120" d="M1.03526 9.34709C1.03526 9.41487 0.980398 9.46972 0.912589 9.46972C0.844779 9.46972 0.789919 9.41487 0.789919 9.34709C0.789919 9.27925 0.844779 9.22441 0.912589 9.22441C0.980398 9.22441 1.03526 9.27925 1.03526 9.34709Z" fill="var(--fill-0, white)"/>
<path id="Vector_121" d="M0.912589 8.60594C0.980336 8.60594 1.03526 8.55104 1.03526 8.48326C1.03526 8.41554 0.980336 8.36058 0.912589 8.36058C0.844841 8.36058 0.789919 8.41554 0.789919 8.48326C0.789919 8.55104 0.844841 8.60594 0.912589 8.60594Z" fill="var(--fill-0, white)"/>
<path id="Vector_122" d="M0.511093 8.831H0.438356V8.0179L0.897604 7.55806H1.36548L1.72671 7.9193L1.67493 7.97105L1.33527 7.63141H0.92781L0.511093 8.04811V8.831Z" fill="var(--fill-0, white)"/>
<path id="Vector_123" d="M0.511712 11.5691H0.438356V12.4124H0.511712V11.5691Z" fill="var(--fill-0, white)"/>
<path id="Vector_124" d="M0.949517 10.6378H0.876161V10.2075L1.3089 9.77476V8.93394L0.948285 8.57332L1.00006 8.52157L1.38225 8.90373V9.80497L0.949517 10.2377V10.6378Z" fill="var(--fill-0, white)"/>
<path id="Vector_125" d="M2.55833 14.5144H2.48497V12.8655L2.0473 12.4278V7.71764H2.12005V12.397L2.55833 12.8353V14.5144Z" fill="var(--fill-0, white)"/>
<path id="Vector_126" d="M3.43419 12.4125H3.36084V10.2075L3.79914 9.76987V8.48585L3.38239 8.06915H3.04706V7.99642H3.41259L3.87187 8.45564V9.80007L3.43419 10.2378V12.4125Z" fill="var(--fill-0, white)"/>
<path id="Vector_127" d="M3.41282 15.0768H2.95972V15.0041H3.38261L3.79931 14.5873V11.0989H3.87204V14.6175L3.41282 15.0768Z" fill="var(--fill-0, white)"/>
<path id="Vector_128" d="M3.43442 14.1645H3.36107V13.7416L2.9234 13.3039V11.552L2.48511 11.1137V9.76987L2.93388 9.32105L2.98565 9.37286L2.55846 9.80007V11.0835L2.99613 11.5218V13.2731L3.43442 13.7114V14.1645Z" fill="var(--fill-0, white)"/>
<path id="Vector_129" d="M2.95948 8.15712C2.89105 8.15712 2.83557 8.10166 2.83557 8.03326C2.83557 7.9648 2.89105 7.90934 2.95948 7.90934C3.0279 7.90934 3.08338 7.9648 3.08338 8.03326C3.08338 8.10166 3.0279 8.15712 2.95948 8.15712ZM2.95948 7.98145C2.93112 7.98145 2.90831 8.00424 2.90831 8.03264C2.90831 8.06099 2.93112 8.08377 2.95948 8.08377C2.98783 8.08377 3.01064 8.06099 3.01064 8.03264C3.01064 8.00424 2.98783 7.98145 2.95948 7.98145Z" fill="var(--fill-0, white)"/>
<path id="Vector_130" d="M2.95948 10.8499C2.89105 10.8499 2.83557 10.7944 2.83557 10.726C2.83557 10.6575 2.89105 10.6021 2.95948 10.6021C3.0279 10.6021 3.08338 10.6575 3.08338 10.726C3.08338 10.7938 3.0279 10.8499 2.95948 10.8499ZM2.95948 10.6748C2.93112 10.6748 2.90831 10.6977 2.90831 10.726C2.90831 10.7544 2.93112 10.7771 2.95948 10.7771C2.98783 10.7771 3.01064 10.7544 3.01064 10.726C3.01064 10.6977 2.98783 10.6748 2.95948 10.6748Z" fill="var(--fill-0, white)"/>
<path id="Vector_131" d="M3.83565 8.15712C3.76719 8.15712 3.71173 8.10166 3.71173 8.03326C3.71173 7.9648 3.76719 7.90934 3.83565 7.90934C3.90405 7.90934 3.95957 7.9648 3.95957 8.03326C3.95957 8.10166 3.90405 8.15712 3.83565 8.15712ZM3.83565 7.98145C3.8073 7.98145 3.78446 8.00424 3.78446 8.03264C3.78446 8.06099 3.8073 8.08377 3.83565 8.08377C3.864 8.08377 3.88678 8.06099 3.88678 8.03264C3.88678 8.00424 3.864 7.98145 3.83565 7.98145Z" fill="var(--fill-0, white)"/>
<path id="Vector_132" d="M3.83565 11.1353C3.76719 11.1353 3.71173 11.0798 3.71173 11.0114C3.71173 10.9429 3.76719 10.8874 3.83565 10.8874C3.90405 10.8874 3.95957 10.9429 3.95957 11.0114C3.95957 11.0798 3.90405 11.1353 3.83565 11.1353ZM3.83565 10.9602C3.8073 10.9602 3.78446 10.983 3.78446 11.0114C3.78446 11.0397 3.8073 11.0625 3.83565 11.0625C3.864 11.0625 3.88678 11.0397 3.88678 11.0114C3.88678 10.983 3.864 10.9602 3.83565 10.9602Z" fill="var(--fill-0, white)"/>
<path id="Vector_133" d="M3.39729 12.6244C3.32884 12.6244 3.27337 12.569 3.27337 12.5006C3.27337 12.4321 3.32884 12.3767 3.39729 12.3767C3.46569 12.3767 3.52121 12.4321 3.52121 12.5006C3.52183 12.5684 3.46631 12.6244 3.39729 12.6244ZM3.39729 12.4488C3.36894 12.4488 3.3461 12.4716 3.3461 12.5C3.3461 12.5283 3.36894 12.5511 3.39729 12.5511C3.42564 12.5511 3.44842 12.5283 3.44842 12.5C3.44842 12.4716 3.42564 12.4488 3.39729 12.4488Z" fill="var(--fill-0, white)"/>
<path id="Vector_134" d="M2.52112 12.6244C2.4527 12.6244 2.39722 12.569 2.39722 12.5006C2.39722 12.4321 2.4527 12.3767 2.52112 12.3767C2.58955 12.3767 2.64503 12.4321 2.64503 12.5006C2.64564 12.5684 2.59016 12.6244 2.52112 12.6244ZM2.52112 12.4488C2.49276 12.4488 2.46996 12.4716 2.46996 12.5C2.46996 12.5283 2.49276 12.5511 2.52112 12.5511C2.54948 12.5511 2.57228 12.5283 2.57228 12.5C2.57228 12.4716 2.54948 12.4488 2.52112 12.4488Z" fill="var(--fill-0, white)"/>
<path id="Vector_135" d="M2.52112 11.6055C2.4527 11.6055 2.39722 11.55 2.39722 11.4816C2.39722 11.4132 2.4527 11.3577 2.52112 11.3577C2.58955 11.3577 2.64503 11.4132 2.64503 11.4816C2.64564 11.55 2.59016 11.6055 2.52112 11.6055ZM2.52112 11.4304C2.49276 11.4304 2.46996 11.4532 2.46996 11.4816C2.46996 11.5099 2.49276 11.5327 2.52112 11.5327C2.54948 11.5327 2.57228 11.5099 2.57228 11.4816C2.57228 11.4532 2.54948 11.4304 2.52112 11.4304Z" fill="var(--fill-0, white)"/>
<path id="Vector_136" d="M2.52112 9.04289C2.4527 9.04289 2.39722 8.98743 2.39722 8.91903C2.39722 8.85057 2.4527 8.79511 2.52112 8.79511C2.58955 8.79511 2.64503 8.85057 2.64503 8.91903C2.64564 8.98681 2.59016 9.04289 2.52112 9.04289ZM2.52112 8.86722C2.49276 8.86722 2.46996 8.89006 2.46996 8.91841C2.46996 8.94676 2.49276 8.96954 2.52112 8.96954C2.54948 8.96954 2.57228 8.94676 2.57228 8.91841C2.57228 8.89006 2.54948 8.86722 2.52112 8.86722Z" fill="var(--fill-0, white)"/>
<path id="Vector_137" d="M2.2064 7.59502C2.2064 7.66285 2.15154 7.7177 2.08373 7.7177C2.01592 7.7177 1.96106 7.66285 1.96106 7.59502C1.96106 7.52724 2.01592 7.47234 2.08373 7.47234C2.15154 7.47234 2.2064 7.52724 2.2064 7.59502Z" fill="var(--fill-0, white)"/>
<path id="Vector_138" d="M3.08201 9.34709C3.08201 9.41487 3.02715 9.46972 2.95934 9.46972C2.89153 9.46972 2.83667 9.41487 2.83667 9.34709C2.83667 9.27925 2.89153 9.22441 2.95934 9.22441C3.02715 9.22441 3.08201 9.27925 3.08201 9.34709Z" fill="var(--fill-0, white)"/>
<path id="Vector_139" d="M2.95934 8.60594C3.02709 8.60594 3.08201 8.55104 3.08201 8.48326C3.08201 8.41554 3.02709 8.36058 2.95934 8.36058C2.89159 8.36058 2.83667 8.41554 2.83667 8.48326C2.83667 8.55104 2.89159 8.60594 2.95934 8.60594Z" fill="var(--fill-0, white)"/>
<path id="Vector_140" d="M2.55846 8.831H2.48511V8.0179L2.94436 7.55806H3.41287L3.77405 7.9193L3.7223 7.97105L3.38267 7.63141H2.97518L2.55846 8.04811V8.831Z" fill="var(--fill-0, white)"/>
<path id="Vector_141" d="M2.55846 11.5691H2.48511V12.4124H2.55846V11.5691Z" fill="var(--fill-0, white)"/>
<path id="Vector_142" d="M2.9962 10.6378H2.92346V10.2075L3.35623 9.77476V8.93394L2.99559 8.57332L3.04737 8.52157L3.42896 8.90373V9.80497L2.9962 10.2377V10.6378Z" fill="var(--fill-0, white)"/>
<path id="Vector_143" d="M4.60453 14.5144H4.5318V12.8655L4.0935 12.4278V7.71764H4.16685V12.397L4.60453 12.8353V14.5144Z" fill="var(--fill-0, white)"/>
<path id="Vector_144" d="M5.48034 12.4125H5.40755V10.2075L5.84524 9.76987V8.48585L5.42854 8.06915H5.09379V7.99642H5.45936L5.91859 8.45564V9.80007L5.48034 10.2378V12.4125Z" fill="var(--fill-0, white)"/>
<path id="Vector_145" d="M5.45953 15.0768H5.00649V15.0041H5.4287L5.84546 14.5873V11.0989H5.91881V14.6175L5.45953 15.0768Z" fill="var(--fill-0, white)"/>
<path id="Vector_146" d="M5.48057 14.1645H5.40784V13.7416L4.96954 13.3039V11.552L4.53185 11.1137V9.76987L4.98062 9.32105L5.03242 9.37286L4.60459 9.80007V11.0835L5.04289 11.5218V13.2731L5.48057 13.7114V14.1645Z" fill="var(--fill-0, white)"/>
<path id="Vector_147" d="M5.00621 8.15712C4.93781 8.15712 4.88235 8.10166 4.88235 8.03326C4.88235 7.9648 4.93781 7.90934 5.00621 7.90934C5.07467 7.90934 5.13013 7.9648 5.13013 8.03326C5.13013 8.10166 5.07467 8.15712 5.00621 8.15712ZM5.00621 7.98145C4.97786 7.98145 4.95508 8.00424 4.95508 8.03264C4.95508 8.06099 4.97786 8.08377 5.00621 8.08377C5.03456 8.08377 5.0574 8.06099 5.0574 8.03264C5.0574 8.00424 5.03394 7.98145 5.00621 7.98145Z" fill="var(--fill-0, white)"/>
<path id="Vector_148" d="M5.00621 10.8499C4.93781 10.8499 4.88235 10.7944 4.88235 10.726C4.88235 10.6575 4.93781 10.6021 5.00621 10.6021C5.07467 10.6021 5.13013 10.6575 5.13013 10.726C5.13013 10.7938 5.07467 10.8499 5.00621 10.8499ZM5.00621 10.6748C4.97786 10.6748 4.95508 10.6977 4.95508 10.726C4.95508 10.7544 4.97786 10.7771 5.00621 10.7771C5.03456 10.7771 5.0574 10.7544 5.0574 10.726C5.05678 10.6977 5.03394 10.6748 5.00621 10.6748Z" fill="var(--fill-0, white)"/>
<path id="Vector_149" d="M5.88242 8.15712C5.81396 8.15712 5.7585 8.10166 5.7585 8.03326C5.7585 7.9648 5.81396 7.90934 5.88242 7.90934C5.95082 7.90934 6.00628 7.9648 6.00628 8.03326C6.00628 8.10166 5.95082 8.15712 5.88242 8.15712ZM5.88242 7.98145C5.85401 7.98145 5.83123 8.00424 5.83123 8.03264C5.83123 8.06099 5.85401 8.08377 5.88242 8.08377C5.91077 8.08377 5.93355 8.06099 5.93355 8.03264C5.93355 8.00424 5.91015 7.98145 5.88242 7.98145Z" fill="var(--fill-0, white)"/>
<path id="Vector_150" d="M5.88242 11.1353C5.81396 11.1353 5.7585 11.0798 5.7585 11.0114C5.7585 10.9429 5.81396 10.8874 5.88242 10.8874C5.95082 10.8874 6.00628 10.9429 6.00628 11.0114C6.00628 11.0798 5.95082 11.1353 5.88242 11.1353ZM5.88242 10.9602C5.85401 10.9602 5.83123 10.983 5.83123 11.0114C5.83123 11.0397 5.85401 11.0625 5.88242 11.0625C5.91077 11.0625 5.93355 11.0397 5.93355 11.0114C5.93355 10.983 5.91015 10.9602 5.88242 10.9602Z" fill="var(--fill-0, white)"/>
<path id="Vector_151" d="M5.44406 12.6244C5.3756 12.6244 5.32014 12.569 5.32014 12.5006C5.32014 12.4321 5.3756 12.3767 5.44406 12.3767C5.51246 12.3767 5.56792 12.4321 5.56792 12.5006C5.56792 12.5684 5.51246 12.6244 5.44406 12.6244ZM5.44406 12.4488C5.41565 12.4488 5.39287 12.4716 5.39287 12.5C5.39287 12.5283 5.41565 12.5511 5.44406 12.5511C5.47241 12.5511 5.49519 12.5283 5.49519 12.5C5.49519 12.4716 5.47241 12.4488 5.44406 12.4488Z" fill="var(--fill-0, white)"/>
<path id="Vector_152" d="M4.56842 12.6244C4.50002 12.6244 4.4445 12.569 4.4445 12.5006C4.4445 12.4321 4.50002 12.3767 4.56842 12.3767C4.63687 12.3767 4.69234 12.4321 4.69234 12.5006C4.69234 12.5684 4.63687 12.6244 4.56842 12.6244ZM4.56842 12.4488C4.54007 12.4488 4.51729 12.4716 4.51729 12.5C4.51729 12.5283 4.54007 12.5511 4.56842 12.5511C4.59677 12.5511 4.6196 12.5283 4.6196 12.5C4.6196 12.4716 4.59677 12.4488 4.56842 12.4488Z" fill="var(--fill-0, white)"/>
<path id="Vector_153" d="M4.56842 11.6055C4.50002 11.6055 4.4445 11.55 4.4445 11.4816C4.4445 11.4132 4.50002 11.3577 4.56842 11.3577C4.63687 11.3577 4.69234 11.4132 4.69234 11.4816C4.69234 11.55 4.63687 11.6055 4.56842 11.6055ZM4.56842 11.4304C4.54007 11.4304 4.51729 11.4532 4.51729 11.4816C4.51729 11.5099 4.54007 11.5327 4.56842 11.5327C4.59677 11.5327 4.6196 11.5099 4.6196 11.4816C4.6196 11.4532 4.59677 11.4304 4.56842 11.4304Z" fill="var(--fill-0, white)"/>
<path id="Vector_154" d="M4.56842 9.04289C4.50002 9.04289 4.4445 8.98743 4.4445 8.91903C4.4445 8.85057 4.50002 8.79511 4.56842 8.79511C4.63687 8.79511 4.69234 8.85057 4.69234 8.91903C4.69234 8.98681 4.63687 9.04289 4.56842 9.04289ZM4.56842 8.86722C4.54007 8.86722 4.51729 8.89006 4.51729 8.91841C4.51729 8.94676 4.54007 8.96954 4.56842 8.96954C4.59677 8.96954 4.6196 8.94676 4.6196 8.91841C4.6196 8.89006 4.59677 8.86722 4.56842 8.86722Z" fill="var(--fill-0, white)"/>
<path id="Vector_155" d="M4.25314 7.59502C4.25314 7.66285 4.19829 7.7177 4.13051 7.7177C4.06267 7.7177 4.00783 7.66285 4.00783 7.59502C4.00783 7.52724 4.06267 7.47234 4.13051 7.47234C4.19829 7.47234 4.25314 7.52724 4.25314 7.59502Z" fill="var(--fill-0, white)"/>
<path id="Vector_156" d="M5.12934 9.34709C5.12934 9.41487 5.07444 9.46972 5.00666 9.46972C4.93882 9.46972 4.88398 9.41487 4.88398 9.34709C4.88398 9.27925 4.93882 9.22441 5.00666 9.22441C5.07382 9.22441 5.12934 9.27925 5.12934 9.34709Z" fill="var(--fill-0, white)"/>
<path id="Vector_157" d="M5.00666 8.60594C5.07439 8.60594 5.12934 8.55104 5.12934 8.48326C5.12934 8.41554 5.07439 8.36058 5.00666 8.36058C4.93888 8.36058 4.88398 8.41554 4.88398 8.48326C4.88398 8.55104 4.93888 8.60594 5.00666 8.60594Z" fill="var(--fill-0, white)"/>
<path id="Vector_158" d="M4.60459 8.831H4.53185V8.0179L4.99114 7.55806H5.45959L5.8202 7.9193L5.76907 7.97105L5.42876 7.63141H5.02129L4.60459 8.04811V8.831Z" fill="var(--fill-0, white)"/>
<path id="Vector_159" d="M4.6052 11.5691H4.53185V12.4124H4.6052V11.5691Z" fill="var(--fill-0, white)"/>
<path id="Vector_160" d="M5.043 10.6378H4.96965V10.2075L5.40238 9.77476V8.93394L5.04238 8.57332L5.09357 8.52157L5.47579 8.90373V9.80497L5.043 10.2377V10.6378Z" fill="var(--fill-0, white)"/>
<path id="Vector_161" d="M6.65237 14.5144H6.57902V12.8655L6.14134 12.4278V7.71764H6.21412V12.397L6.65237 12.8353V14.5144Z" fill="var(--fill-0, white)"/>
<path id="Vector_162" d="M7.52824 12.4125H7.45489V10.2075L7.89319 9.76987V8.48585L7.47643 8.06915H7.14112V7.99642H7.50664L7.96592 8.45564V9.80007L7.52824 10.2378V12.4125Z" fill="var(--fill-0, white)"/>
<path id="Vector_163" d="M7.50686 15.0768H7.05377V15.0041H7.47665L7.89335 14.5873V11.0989H7.96609V14.6175L7.50686 15.0768Z" fill="var(--fill-0, white)"/>
<path id="Vector_164" d="M7.52846 14.1645H7.45511V13.7416L7.01743 13.3039V11.552L6.57919 11.1137V9.76987L7.02795 9.32105L7.0797 9.37286L6.65254 9.80007V11.0835L7.09022 11.5218V13.2731L7.52846 13.7114V14.1645Z" fill="var(--fill-0, white)"/>
<path id="Vector_165" d="M7.05354 8.15712C6.98509 8.15712 6.92962 8.10166 6.92962 8.03326C6.92962 7.9648 6.98509 7.90934 7.05354 7.90934C7.12194 7.90934 7.17746 7.9648 7.17746 8.03326C7.17746 8.10166 7.12194 8.15712 7.05354 8.15712ZM7.05354 7.98145C7.02519 7.98145 7.00235 8.00424 7.00235 8.03264C7.00235 8.06099 7.02519 8.08377 7.05354 8.08377C7.08189 8.08377 7.10467 8.06099 7.10467 8.03264C7.10467 8.00424 7.08189 7.98145 7.05354 7.98145Z" fill="var(--fill-0, white)"/>
<path id="Vector_166" d="M7.05354 10.8499C6.98509 10.8499 6.92962 10.7944 6.92962 10.726C6.92962 10.6575 6.98509 10.6021 7.05354 10.6021C7.12194 10.6021 7.17746 10.6575 7.17746 10.726C7.17808 10.7938 7.12194 10.8499 7.05354 10.8499ZM7.05354 10.6748C7.02519 10.6748 7.00235 10.6977 7.00235 10.726C7.00235 10.7544 7.02519 10.7771 7.05354 10.7771C7.08189 10.7771 7.10467 10.7544 7.10467 10.726C7.10467 10.6977 7.08189 10.6748 7.05354 10.6748Z" fill="var(--fill-0, white)"/>
<path id="Vector_167" d="M7.92969 8.15712C7.86129 8.15712 7.80577 8.10166 7.80577 8.03326C7.80577 7.9648 7.86129 7.90934 7.92969 7.90934C7.99809 7.90934 8.05361 7.9648 8.05361 8.03326C8.05361 8.10166 7.99809 8.15712 7.92969 8.15712ZM7.92969 7.98145C7.90134 7.98145 7.8785 8.00424 7.8785 8.03264C7.8785 8.06099 7.90134 8.08377 7.92969 8.08377C7.95804 8.08377 7.98088 8.06099 7.98088 8.03264C7.98088 8.00424 7.95804 7.98145 7.92969 7.98145Z" fill="var(--fill-0, white)"/>
<path id="Vector_168" d="M7.92969 11.1353C7.86129 11.1353 7.80577 11.0798 7.80577 11.0114C7.80577 10.9429 7.86129 10.8874 7.92969 10.8874C7.99809 10.8874 8.05361 10.9429 8.05361 11.0114C8.05423 11.0798 7.99809 11.1353 7.92969 11.1353ZM7.92969 10.9602C7.90134 10.9602 7.8785 10.983 7.8785 11.0114C7.8785 11.0397 7.90134 11.0625 7.92969 11.0625C7.95804 11.0625 7.98088 11.0397 7.98088 11.0114C7.98088 10.983 7.95804 10.9602 7.92969 10.9602Z" fill="var(--fill-0, white)"/>
<path id="Vector_169" d="M7.4919 12.6244C7.42344 12.6244 7.36798 12.569 7.36798 12.5006C7.36798 12.4321 7.42344 12.3767 7.4919 12.3767C7.5603 12.3767 7.61582 12.4321 7.61582 12.5006C7.61582 12.5684 7.5603 12.6244 7.4919 12.6244ZM7.4919 12.4488C7.46355 12.4488 7.44071 12.4716 7.44071 12.5C7.44071 12.5283 7.46355 12.5511 7.4919 12.5511C7.52025 12.5511 7.54303 12.5283 7.54303 12.5C7.54303 12.4716 7.51963 12.4488 7.4919 12.4488Z" fill="var(--fill-0, white)"/>
<path id="Vector_170" d="M6.61625 12.6244C6.54785 12.6244 6.49239 12.569 6.49239 12.5006C6.49239 12.4321 6.54785 12.3767 6.61625 12.3767C6.68471 12.3767 6.74017 12.4321 6.74017 12.5006C6.74017 12.5684 6.68471 12.6244 6.61625 12.6244ZM6.61625 12.4488C6.5879 12.4488 6.56512 12.4716 6.56512 12.5C6.56512 12.5283 6.5879 12.5511 6.61625 12.5511C6.64466 12.5511 6.66744 12.5283 6.66744 12.5C6.66744 12.4716 6.64404 12.4488 6.61625 12.4488Z" fill="var(--fill-0, white)"/>
<path id="Vector_171" d="M6.61625 11.6055C6.54785 11.6055 6.49239 11.55 6.49239 11.4816C6.49239 11.4132 6.54785 11.3577 6.61625 11.3577C6.68471 11.3577 6.74017 11.4132 6.74017 11.4816C6.74017 11.55 6.68471 11.6055 6.61625 11.6055ZM6.61625 11.4304C6.5879 11.4304 6.56512 11.4532 6.56512 11.4816C6.56512 11.5099 6.5879 11.5327 6.61625 11.5327C6.64466 11.5327 6.66744 11.5099 6.66744 11.4816C6.66682 11.4532 6.64404 11.4304 6.61625 11.4304Z" fill="var(--fill-0, white)"/>
<path id="Vector_172" d="M6.61625 9.04289C6.54785 9.04289 6.49239 8.98743 6.49239 8.91903C6.49239 8.85057 6.54785 8.79511 6.61625 8.79511C6.68471 8.79511 6.74017 8.85057 6.74017 8.91903C6.74017 8.98681 6.68471 9.04289 6.61625 9.04289ZM6.61625 8.86722C6.5879 8.86722 6.56512 8.89006 6.56512 8.91841C6.56512 8.94676 6.5879 8.96954 6.61625 8.96954C6.64466 8.96954 6.66744 8.94676 6.66744 8.91841C6.66744 8.89006 6.64404 8.86722 6.61625 8.86722Z" fill="var(--fill-0, white)"/>
<path id="Vector_173" d="M6.30047 7.59502C6.30047 7.66285 6.24562 7.7177 6.17779 7.7177C6.11 7.7177 6.0551 7.66285 6.0551 7.59502C6.0551 7.52724 6.11 7.47234 6.17779 7.47234C6.24562 7.47234 6.30047 7.52724 6.30047 7.59502Z" fill="var(--fill-0, white)"/>
<path id="Vector_174" d="M7.17662 9.34709C7.17662 9.41487 7.12177 9.46972 7.05394 9.46972C6.98616 9.46972 6.93125 9.41487 6.93125 9.34709C6.93125 9.27925 6.98616 9.22441 7.05394 9.22441C7.12177 9.22441 7.17662 9.27925 7.17662 9.34709Z" fill="var(--fill-0, white)"/>
<path id="Vector_175" d="M7.05394 8.60594C7.12172 8.60594 7.17662 8.55104 7.17662 8.48326C7.17662 8.41554 7.12172 8.36058 7.05394 8.36058C6.98621 8.36058 6.93125 8.41554 6.93125 8.48326C6.93125 8.55104 6.98621 8.60594 7.05394 8.60594Z" fill="var(--fill-0, white)"/>
<path id="Vector_176" d="M6.65254 8.831H6.57919V8.0179L7.03903 7.55806H7.50692L7.86815 7.9193L7.81635 7.97105L7.47671 7.63141H7.06924L6.65254 8.04811V8.831Z" fill="var(--fill-0, white)"/>
<path id="Vector_177" d="M6.65254 11.5691H6.57919V12.4124H6.65254V11.5691Z" fill="var(--fill-0, white)"/>
<path id="Vector_178" d="M7.09027 10.6378H7.01754V10.2075L7.45027 9.77476V8.93394L7.08965 8.57332L7.1414 8.52157L7.52362 8.90373V9.80497L7.09027 10.2377V10.6378Z" fill="var(--fill-0, white)"/>
<path id="Vector_179" d="M8.69919 14.5144H8.62584V12.8655L8.18754 12.4278V7.71764H8.26089V12.397L8.69919 12.8353V14.5144Z" fill="var(--fill-0, white)"/>
<path id="Vector_180" d="M9.575 12.4125H9.50165V10.2075L9.93928 9.76987V8.48585L9.5232 8.06915H9.18789V7.99642H9.5534L10.0127 8.45564V9.80007L9.575 10.2378V12.4125Z" fill="var(--fill-0, white)"/>
<path id="Vector_181" d="M9.55363 15.0768H9.10054V15.0041H9.52342L9.93951 14.5873V11.0989H10.0129V14.6175L9.55363 15.0768Z" fill="var(--fill-0, white)"/>
<path id="Vector_182" d="M9.57523 14.1645H9.50188V13.7416L9.06358 13.3039V11.552L8.6259 11.1137V9.76987L9.07466 9.32105L9.12647 9.37286L8.69925 9.80007V11.0835L9.13693 11.5218V13.2731L9.57523 13.7114V14.1645Z" fill="var(--fill-0, white)"/>
<path id="Vector_183" d="M9.10082 8.15712C9.03242 8.15712 8.97695 8.10166 8.97695 8.03326C8.97695 7.9648 9.03242 7.90934 9.10082 7.90934C9.16927 7.90934 9.22474 7.9648 9.22474 8.03326C9.22474 8.10166 9.16927 8.15712 9.10082 8.15712ZM9.10082 7.98145C9.07247 7.98145 9.04969 8.00424 9.04969 8.03264C9.04969 8.06099 9.07247 8.08377 9.10082 8.08377C9.12917 8.08377 9.152 8.06099 9.152 8.03264C9.152 8.00424 9.12855 7.98145 9.10082 7.98145Z" fill="var(--fill-0, white)"/>
<path id="Vector_184" d="M9.10082 10.8499C9.03242 10.8499 8.97695 10.7944 8.97695 10.726C8.97695 10.6575 9.03242 10.6021 9.10082 10.6021C9.16927 10.6021 9.22474 10.6575 9.22474 10.726C9.22474 10.7938 9.16927 10.8499 9.10082 10.8499ZM9.10082 10.6748C9.07247 10.6748 9.04969 10.6977 9.04969 10.726C9.04969 10.7544 9.07247 10.7771 9.10082 10.7771C9.12917 10.7771 9.152 10.7544 9.152 10.726C9.152 10.6977 9.12855 10.6748 9.10082 10.6748Z" fill="var(--fill-0, white)"/>
<path id="Vector_185" d="M8.66246 12.6244C8.59406 12.6244 8.5386 12.569 8.5386 12.5006C8.5386 12.4321 8.59406 12.3767 8.66246 12.3767C8.73092 12.3767 8.78638 12.4321 8.78638 12.5006C8.787 12.5684 8.73092 12.6244 8.66246 12.6244ZM8.66246 12.4488C8.63411 12.4488 8.61133 12.4716 8.61133 12.5C8.61133 12.5283 8.63411 12.5511 8.66246 12.5511C8.69081 12.5511 8.71365 12.5283 8.71365 12.5C8.71365 12.4716 8.69081 12.4488 8.66246 12.4488Z" fill="var(--fill-0, white)"/>
<path id="Vector_186" d="M8.66246 11.6055C8.59406 11.6055 8.5386 11.55 8.5386 11.4816C8.5386 11.4132 8.59406 11.3577 8.66246 11.3577C8.73092 11.3577 8.78638 11.4132 8.78638 11.4816C8.787 11.55 8.73092 11.6055 8.66246 11.6055ZM8.66246 11.4304C8.63411 11.4304 8.61133 11.4532 8.61133 11.4816C8.61133 11.5099 8.63411 11.5327 8.66246 11.5327C8.69081 11.5327 8.71365 11.5099 8.71365 11.4816C8.71365 11.4532 8.69081 11.4304 8.66246 11.4304Z" fill="var(--fill-0, white)"/>
<path id="Vector_187" d="M8.66246 9.04289C8.59406 9.04289 8.5386 8.98743 8.5386 8.91903C8.5386 8.85057 8.59406 8.79511 8.66246 8.79511C8.73092 8.79511 8.78638 8.85057 8.78638 8.91903C8.787 8.98681 8.73092 9.04289 8.66246 9.04289ZM8.66246 8.86722C8.63411 8.86722 8.61133 8.89006 8.61133 8.91841C8.61133 8.94676 8.63411 8.96954 8.66246 8.96954C8.69081 8.96954 8.71365 8.94676 8.71365 8.91841C8.71365 8.89006 8.69081 8.86722 8.66246 8.86722Z" fill="var(--fill-0, white)"/>
<path id="Vector_188" d="M8.34724 7.59502C8.34724 7.66285 8.29234 7.7177 8.22455 7.7177C8.15672 7.7177 8.10187 7.66285 8.10187 7.59502C8.10187 7.52724 8.15672 7.47234 8.22455 7.47234C8.29234 7.47234 8.34724 7.52724 8.34724 7.59502Z" fill="var(--fill-0, white)"/>
<path id="Vector_189" d="M9.22339 9.34709C9.22339 9.41487 9.16849 9.46972 9.1007 9.46972C9.03287 9.46972 8.97802 9.41487 8.97802 9.34709C8.97802 9.27925 9.03287 9.22441 9.1007 9.22441C9.16849 9.22441 9.22339 9.27925 9.22339 9.34709Z" fill="var(--fill-0, white)"/>
<path id="Vector_190" d="M9.1007 8.60594C9.16843 8.60594 9.22339 8.55104 9.22339 8.48326C9.22339 8.41554 9.16843 8.36058 9.1007 8.36058C9.03292 8.36058 8.97802 8.41554 8.97802 8.48326C8.97802 8.55104 9.03292 8.60594 9.1007 8.60594Z" fill="var(--fill-0, white)"/>
<path id="Vector_191" d="M8.69925 8.831H8.6259V8.0179L9.08518 7.55806H9.55363L9.91487 7.9193L9.86312 7.97105L9.52342 7.63141H9.11539L8.69925 8.04811V8.831Z" fill="var(--fill-0, white)"/>
<path id="Vector_192" d="M8.69925 11.5691H8.6259V12.4124H8.69925V11.5691Z" fill="var(--fill-0, white)"/>
<path id="Vector_193" d="M9.1371 10.6378H9.06375V10.2075L9.4971 9.77476V8.93394L9.13648 8.57332L9.18823 8.52157L9.56983 8.90373V9.80497L9.1371 10.2377V10.6378Z" fill="var(--fill-0, white)"/>
</g>
</svg>
