<svg preserveAspectRatio="none" width="100%" height="100%" overflow="visible" style="display: block;" viewBox="0 0 11.6667 10.2565" fill="none" xmlns="http://www.w3.org/2000/svg">
<path id="Vector" d="M11.1708 0.252292L10.6925 0.730625L10.1383 0.170625C9.91083 -0.056875 9.54333 -0.056875 9.31 0.170625L8.75 0.730625L8.19 0.170625C7.9625 -0.056875 7.58917 -0.056875 7.36167 0.170625L6.8075 0.730625L6.2475 0.170625C6.02 -0.056875 5.6525 -0.056875 5.425 0.170625L4.865 0.730625L4.305 0.170625C4.0775 -0.056875 3.71 -0.056875 3.47667 0.170625L2.91667 0.730625L2.35667 0.170625C2.12917 -0.056875 1.75583 -0.056875 1.52833 0.170625L0.974167 0.730625L0.495833 0.252292C0.315 0.0714582 0 0.199792 0 0.462292V9.08979C0 9.73146 0.525 10.2565 1.16667 10.2565H10.5C11.1417 10.2565 11.6667 9.73146 11.6667 9.08979V0.462292C11.6667 0.199792 11.3517 0.0714582 11.1708 0.252292ZM5.25 9.08979H1.16667V5.58979H5.25V9.08979ZM10.5 9.08979H6.41667V7.92312H10.5V9.08979ZM10.5 6.75646H6.41667V5.58979H10.5V6.75646ZM10.5 4.42312H1.16667V2.67312H10.5V4.42312Z" fill="var(--fill-0, black)"/>
</svg>
