<svg preserveAspectRatio="none" width="100%" height="100%" overflow="visible" style="display: block;" viewBox="0 0 49 10" fill="none" xmlns="http://www.w3.org/2000/svg">
<g id="icon-noqodi-blue 1" clip-path="url(#clip0_2212_5801)">
<path id="Path 54385" d="M42.5883 3.09529L41.8738 3.76804C42.0518 3.93504 42.193 4.13349 42.2894 4.352C42.3858 4.57051 42.4354 4.80478 42.4354 5.04138C42.4354 5.27799 42.3858 5.51226 42.2894 5.73077C42.193 5.94928 42.0518 6.14773 41.8738 6.31473L42.5883 6.98748C42.8598 6.73205 43.0752 6.42876 43.2221 6.09493C43.3691 5.7611 43.4447 5.40328 43.4447 5.04191C43.4447 4.68055 43.3691 4.32273 43.2221 3.9889C43.0752 3.65507 42.8598 3.35178 42.5883 3.09635" fill="var(--fill-0, #069CFF)"/>
<path id="Path 54386" d="M45.3642 0.479626L44.8345 1.00064C45.6561 1.74342 48.2088 4.48217 48.2359 5.04245C48.2088 5.60272 45.6583 8.34359 44.8379 9.08531L45.3676 9.6042C45.4036 9.57131 49 6.1025 49 5.04138C49 3.98026 45.4003 0.510399 45.3642 0.478565" fill="var(--fill-0, #069CFF)"/>
<path id="Path 54387" d="M43.9948 1.7657L43.2972 2.45225C43.8145 2.91808 44.6812 3.87415 44.6812 5.04563C44.6812 6.21711 43.8168 7.16787 43.3017 7.63476L44.0005 8.32025C44.6316 7.75043 45.691 6.56621 45.691 5.04563C45.691 3.52504 44.6305 2.33447 43.9948 1.7657Z" fill="var(--fill-0, #069CFF)"/>
<path id="Path 54388" d="M10.9852 2.04584H9.90549C9.22844 2.04668 8.57938 2.30028 8.10063 2.75103C7.62188 3.20178 7.35253 3.81289 7.35163 4.45034V5.46795C7.35223 6.10549 7.62149 6.71676 8.1003 7.16757C8.57911 7.61838 9.22835 7.87189 9.90549 7.87245H10.9852C11.6623 7.87189 12.3116 7.61838 12.7904 7.16757C13.2692 6.71676 13.5384 6.10549 13.539 5.46795V4.45034C13.5381 3.81289 13.2688 3.20178 12.79 2.75103C12.3113 2.30028 11.6622 2.04668 10.9852 2.04584ZM12.5236 5.28862C12.523 5.72016 12.3407 6.13386 12.0166 6.439C11.6925 6.74415 11.2531 6.91582 10.7947 6.91638H10.096C9.63762 6.91582 9.19822 6.74415 8.87412 6.439C8.55003 6.13386 8.36769 5.72016 8.36709 5.28862V4.63073C8.36739 4.19901 8.5496 3.78504 8.87373 3.47967C9.19785 3.17429 9.63742 3.00247 10.096 3.00191H10.7947C11.2533 3.00247 11.6928 3.17429 12.017 3.47967C12.3411 3.78504 12.5233 4.19901 12.5236 4.63073V5.28862Z" fill="var(--fill-0, #069CFF)"/>
<path id="Path 54389" d="M25.6963 2.04584H24.6166C23.9396 2.04668 23.2905 2.30028 22.8118 2.75103C22.333 3.20178 22.0637 3.81289 22.0628 4.45034V5.46795C22.0634 6.10549 22.3326 6.71676 22.8115 7.16757C23.2903 7.61838 23.9395 7.87189 24.6166 7.87245H25.6963C26.3735 7.87189 27.0227 7.61838 27.5015 7.16757C27.9803 6.71676 28.2496 6.10549 28.2502 5.46795V4.45034C28.2493 3.81289 27.98 3.20178 27.5012 2.75103C27.0225 2.30028 26.3734 2.04668 25.6963 2.04584ZM27.2347 5.28862C27.2341 5.72016 27.0518 6.13386 26.7277 6.439C26.4036 6.74415 25.9642 6.91582 25.5059 6.91638H24.8071C24.3494 6.91498 23.9108 6.74293 23.5875 6.43788C23.2641 6.13283 23.0822 5.71961 23.0816 5.28862V4.63073C23.0819 4.19901 23.2641 3.78504 23.5883 3.47967C23.9124 3.17429 24.352 3.00247 24.8105 3.00191H25.5093C25.9678 3.00247 26.4074 3.17429 26.7315 3.47967C27.0556 3.78504 27.2378 4.19901 27.2381 4.63073L27.2347 5.28862Z" fill="var(--fill-0, #069CFF)"/>
<path id="Path 54390" d="M18.3368 2.04584H17.256C16.5789 2.04668 15.9299 2.30028 15.4511 2.75103C14.9724 3.20178 14.703 3.81289 14.7021 4.45034V5.46795C14.703 6.10541 14.9724 6.71651 15.4511 7.16726C15.9299 7.61801 16.5789 7.87161 17.256 7.87245H18.3368C18.8618 7.87274 19.3738 7.71921 19.802 7.43315L19.8763 7.38328V10H20.8907V4.45034C20.8898 3.81289 20.6204 3.20178 20.1417 2.75103C19.6629 2.30028 19.0139 2.04668 18.3368 2.04584ZM19.8752 5.28862C19.8746 5.72034 19.6921 6.13421 19.3678 6.43938C19.0435 6.74455 18.6038 6.9161 18.1452 6.91638H17.4465C16.9879 6.9161 16.5482 6.74455 16.2239 6.43938C15.8996 6.13421 15.7171 5.72034 15.7165 5.28862V4.63073C15.7171 4.19891 15.8995 3.78494 16.2238 3.4796C16.5481 3.17426 16.9878 3.00247 17.4465 3.00191H18.1452C18.6038 3.00247 19.0433 3.17429 19.3675 3.47967C19.6916 3.78504 19.8738 4.19901 19.8741 4.63073L19.8752 5.28862Z" fill="var(--fill-0, #069CFF)"/>
<path id="Path 54391" d="M29.4156 4.53205V5.54966C29.4153 6.18803 29.6842 6.80039 30.1634 7.25209C30.6425 7.70378 31.2925 7.95784 31.9705 7.9584H33.0514C33.7292 7.95756 34.3789 7.70338 34.8578 7.25171C35.3367 6.80004 35.6055 6.18785 35.6052 5.54966V0H34.5909V2.61672L34.5165 2.56791C34.0885 2.28154 33.5764 2.12764 33.0514 2.12755H31.9705C31.2933 2.12811 30.6439 2.38159 30.1649 2.83236C29.686 3.28314 29.4164 3.89441 29.4156 4.53205ZM32.8598 3.08362C33.3183 3.08418 33.7579 3.256 34.082 3.56137C34.4061 3.86674 34.5883 4.28072 34.5886 4.71244V5.37033C34.5891 5.58437 34.5447 5.7964 34.4582 5.9943C34.3716 6.19221 34.2444 6.37212 34.084 6.52376C33.9236 6.67541 33.733 6.79582 33.5231 6.87811C33.3132 6.96041 33.0882 7.00298 32.8609 7.0034H32.1621C31.9344 7.00354 31.7089 6.96138 31.4985 6.87933C31.2881 6.79728 31.097 6.67697 30.9361 6.52527C30.7752 6.37357 30.6477 6.19347 30.5608 5.99528C30.4739 5.7971 30.4294 5.58473 30.4299 5.37033V4.71244C30.4305 4.28062 30.6129 3.86665 30.9372 3.56131C31.2616 3.25597 31.7012 3.08418 32.1599 3.08362H32.8598Z" fill="var(--fill-0, #069CFF)"/>
<path id="Path 54394" d="M36.7965 2.10632H37.8119V7.87245H36.7965V2.10632Z" fill="var(--fill-0, #069CFF)"/>
<path id="Path 54393" d="M36.7965 0H37.8119V0.95607H36.7965V0Z" fill="var(--fill-0, #069CFF)"/>
<path id="Path 54392" d="M3.63468 2.04584H2.55386C1.87681 2.04668 1.22774 2.30028 0.748995 2.75103C0.270248 3.20178 0.000894584 3.81289 0 4.45034L0 7.86927H1.01433V4.63073C1.01463 4.19883 1.19699 3.78469 1.52136 3.47929C1.84574 3.17389 2.28559 3.00219 2.74432 3.00191H3.44308C3.90173 3.00247 4.34141 3.17426 4.66572 3.4796C4.99003 3.78494 5.17248 4.19891 5.17308 4.63073V7.86927H6.18741V4.45034C6.18652 3.81307 5.91732 3.20212 5.43881 2.75141C4.96031 2.30069 4.31154 2.04696 3.63468 2.04584Z" fill="var(--fill-0, #069CFF)"/>
</g>
<defs>
<clipPath id="clip0_2212_5801">
<rect width="49" height="10" fill="white"/>
</clipPath>
</defs>
</svg>
