<svg preserveAspectRatio="none" width="100%" height="100%" overflow="visible" style="display: block;" viewBox="0 0 7.58333 10.8333" fill="none" xmlns="http://www.w3.org/2000/svg">
<g id="Vector">
<path d="M3.79167 0C1.69542 0 0 1.69542 0 3.79167C0 6.63542 3.79167 10.8333 3.79167 10.8333C3.79167 10.8333 7.58333 6.63542 7.58333 3.79167C7.58333 1.69542 5.88792 0 3.79167 0ZM1.08333 3.79167C1.08333 2.29667 2.29667 1.08333 3.79167 1.08333C5.28667 1.08333 6.5 2.29667 6.5 3.79167C6.5 5.35167 4.94 7.68625 3.79167 9.14333C2.665 7.69708 1.08333 5.33542 1.08333 3.79167Z" fill="var(--fill-0, black)"/>
<path d="M3.79167 5.14583C4.53955 5.14583 5.14583 4.53955 5.14583 3.79167C5.14583 3.04378 4.53955 2.4375 3.79167 2.4375C3.04378 2.4375 2.4375 3.04378 2.4375 3.79167C2.4375 4.53955 3.04378 5.14583 3.79167 5.14583Z" fill="var(--fill-0, black)"/>
</g>
</svg>
