<svg preserveAspectRatio="none" width="100%" height="100%" overflow="visible" style="display: block;" viewBox="0 0 15.7284 22.4692" fill="none" xmlns="http://www.w3.org/2000/svg">
<g id="Vector">
<path d="M7.86421 0C3.51643 0 0 3.51643 0 7.86421C0 13.7624 7.86421 22.4692 7.86421 22.4692C7.86421 22.4692 15.7284 13.7624 15.7284 7.86421C15.7284 3.51643 12.212 0 7.86421 0ZM2.24692 7.86421C2.24692 4.76347 4.76347 2.24692 7.86421 2.24692C10.965 2.24692 13.4815 4.76347 13.4815 7.86421C13.4815 11.0998 10.2459 15.9419 7.86421 18.964C5.52742 15.9644 2.24692 11.0661 2.24692 7.86421Z" fill="var(--fill-0, black)"/>
<path d="M7.86421 10.6729C9.41539 10.6729 10.6729 9.41539 10.6729 7.86421C10.6729 6.31304 9.41539 5.05557 7.86421 5.05557C6.31304 5.05557 5.05557 6.31304 5.05557 7.86421C5.05557 9.41539 6.31304 10.6729 7.86421 10.6729Z" fill="var(--fill-0, black)"/>
</g>
</svg>
