<svg preserveAspectRatio="none" width="100%" height="100%" overflow="visible" style="display: block;" viewBox="0 0 48 7" fill="none" xmlns="http://www.w3.org/2000/svg">
<g id="icons-dubaiae 1" clip-path="url(#clip0_2212_5824)">
<path id="Path 66279" d="M2.54767 6.99947C1.24265 6.99947 1.38283e-08 6.07258 1.38283e-08 4.37725V4.36034C1.38283e-08 2.66712 1.224 1.74023 2.54708 1.74023C2.88281 1.73415 3.21543 1.79945 3.51828 1.93088C3.82113 2.06231 4.08578 2.25622 4.29099 2.49706V-5.91278e-08H5.87753V6.90494H4.29099V6.17663C4.0994 6.43483 3.83947 6.64542 3.53494 6.78915C3.2304 6.93289 2.89098 7.0052 2.54767 6.99947ZM2.95567 5.77946C3.14794 5.77238 3.33662 5.72995 3.51023 5.65473C3.68385 5.57952 3.83876 5.4731 3.96557 5.34194C4.09238 5.21079 4.18843 5.05763 4.24788 4.89179C4.30733 4.72595 4.32894 4.55089 4.31139 4.37725V4.36034C4.32852 4.18682 4.30656 4.01196 4.24685 3.84636C4.18714 3.68076 4.09092 3.52789 3.96403 3.397C3.83714 3.26612 3.68223 3.15997 3.50869 3.08498C3.33515 3.00999 3.14661 2.96773 2.9545 2.96077C2.76158 2.9667 2.57201 3.00818 2.39736 3.08269C2.22271 3.1572 2.06665 3.26317 1.93869 3.39414C1.81074 3.52511 1.71357 3.67833 1.65313 3.84444C1.59268 4.01056 1.57022 4.1861 1.58712 4.36034V4.37725C1.57065 4.55155 1.5934 4.72706 1.65397 4.89317C1.71455 5.05927 1.81169 5.21251 1.93953 5.3436C2.06737 5.47469 2.22323 5.58091 2.39769 5.65583C2.57215 5.73075 2.76158 5.77281 2.9545 5.77946H2.95567Z" fill="var(--fill-0, #464744)"/>
<path id="Path 66280" d="M9.25751 6.99947C8.05683 6.99947 7.3574 6.28067 7.3574 5.11717V1.83477H8.94394V4.66297C8.94394 5.34427 9.2989 5.6939 9.90448 5.6939C10.5101 5.6939 10.8953 5.34375 10.8953 4.66297V1.83477H12.4819V6.90493H10.8965V6.18613C10.7182 6.43339 10.4753 6.63697 10.1895 6.77884C9.90356 6.92072 9.58346 6.9965 9.25751 6.99947Z" fill="var(--fill-0, #464744)"/>
<path id="Path 66281" d="M17.3382 6.99947C17.0026 7.00547 16.6701 6.94013 16.3674 6.8087C16.0646 6.67727 15.8001 6.48341 15.5949 6.24264V6.90493H14.0078V-3.12279e-08H15.5943V2.56308C15.786 2.3048 16.046 2.09416 16.3506 1.95042C16.6553 1.80668 16.9948 1.73441 17.3382 1.74023C18.6433 1.74023 19.8853 2.66712 19.8853 4.36034V4.37724C19.8853 6.07258 18.6637 6.99947 17.3382 6.99947ZM16.9302 5.77946C17.1235 5.77363 17.3134 5.73212 17.4883 5.65748C17.6632 5.58284 17.8195 5.47663 17.9476 5.34537C18.0756 5.2141 18.1728 5.06054 18.2331 4.89407C18.2934 4.72761 18.3155 4.55174 18.2982 4.37724V4.36034C18.3229 4.18505 18.3062 4.00699 18.249 3.83803C18.1919 3.66907 18.0956 3.51307 17.9668 3.38043C17.8379 3.24778 17.6793 3.14154 17.5016 3.06876C17.3239 2.99598 17.1311 2.95833 16.9361 2.95833C16.741 2.95833 16.5482 2.99598 16.3705 3.06876C16.1928 3.14154 16.0342 3.24778 15.9054 3.38043C15.7765 3.51307 15.6803 3.66907 15.6231 3.83803C15.566 4.00699 15.5492 4.18505 15.5739 4.36034V4.37724C15.5564 4.55097 15.578 4.72612 15.6376 4.89203C15.6971 5.05794 15.7932 5.21114 15.9202 5.34231C16.0471 5.47349 16.2021 5.57988 16.3759 5.65504C16.5496 5.73019 16.7379 5.77252 16.9302 5.77946Z" fill="var(--fill-0, #464744)"/>
<path id="Path 66282" d="M22.7437 6.99947C21.6893 6.99947 20.8202 6.45073 20.8202 5.44832V5.4293C20.8202 4.32021 21.7493 3.8116 23.0753 3.8116C23.541 3.80786 24.0039 3.87829 24.4427 4.01969V3.93466C24.4427 3.33892 24.0347 3.00777 23.242 3.00777C22.7123 3.00818 22.1876 3.10125 21.6968 3.28188L21.2999 2.1844C21.9802 1.90144 22.7227 1.76238 23.4711 1.77773C23.8118 1.7544 24.1543 1.79258 24.4787 1.89003C24.803 1.98749 25.1028 2.1423 25.3607 2.34548C25.575 2.56522 25.739 2.82142 25.843 3.09916C25.9469 3.3769 25.9888 3.67061 25.9663 3.96318V6.90493H24.4345V6.35619C24.2224 6.56969 23.9608 6.73806 23.6685 6.84926C23.3762 6.96047 23.0604 7.01176 22.7437 6.99947ZM23.2239 6.00604C23.9653 6.00604 24.466 5.63634 24.466 5.11664V4.86155C24.1471 4.73426 23.802 4.66981 23.4536 4.67248C22.7751 4.67248 22.3572 4.91859 22.3572 5.37226V5.39128C22.3572 5.77946 22.7122 6.00656 23.2233 6.00656L23.2239 6.00604Z" fill="var(--fill-0, #464744)"/>
<path id="Path 66283" d="M27.47 1.27652V-3.12279e-08H29.1405V1.27652H27.47ZM27.512 6.90493V1.83477H29.0985V6.90493H27.512Z" fill="var(--fill-0, #464744)"/>
<path id="Path 66284" d="M35.0338 5.2022C35.0338 5.55736 34.9175 5.90453 34.6998 6.19983C34.482 6.49513 34.1725 6.72529 33.8104 6.8612C33.4483 6.99711 33.0499 7.03267 32.6654 6.96338C32.281 6.8941 31.9279 6.72308 31.6508 6.47194C31.3736 6.22081 31.1849 5.90085 31.1084 5.55252C31.032 5.2042 31.0712 4.84314 31.2212 4.51502C31.3712 4.18691 31.6252 3.90646 31.9511 3.70915C32.277 3.51183 32.6601 3.40652 33.0521 3.40652C33.5776 3.40652 34.0817 3.59571 34.4533 3.93246C34.825 4.26922 35.0338 4.72596 35.0338 5.2022Z" fill="var(--fill-0, #609DDD)"/>
<path id="Path 66285" d="M39.0322 2.49706C38.7367 2.49491 38.4424 2.53047 38.1579 2.60269C37.8961 2.66728 37.6412 2.75283 37.3961 2.85831L37.156 2.26256C37.4477 2.13891 37.7517 2.04076 38.064 1.96944C38.4084 1.88953 38.763 1.85135 39.1184 1.85589C39.7355 1.81877 40.3448 1.99823 40.8198 2.3571C41.0288 2.54879 41.19 2.77883 41.2927 3.03173C41.3953 3.28462 41.437 3.55451 41.4149 3.82322V6.81251H40.6397V6.07311C40.4296 6.31096 40.1709 6.50999 39.8779 6.65935C39.5141 6.84008 39.1028 6.92754 38.6883 6.91233C38.4375 6.91234 38.1879 6.88052 37.9469 6.81779C37.7152 6.75687 37.4965 6.66099 37.2999 6.53418C37.1129 6.40274 36.9568 6.23881 36.8406 6.05198C36.7244 5.84405 36.6669 5.61321 36.6733 5.38019C36.6677 5.14419 36.7251 4.91046 36.8406 4.69888C36.9497 4.49957 37.111 4.32749 37.3104 4.19768C37.533 4.05949 37.7803 3.95711 38.0413 3.89505C38.348 3.82272 38.6639 3.7872 38.9809 3.78942C39.2847 3.78648 39.5884 3.80538 39.889 3.84593C40.1425 3.88307 40.3933 3.93368 40.6403 3.99751V3.83062C40.6555 3.64658 40.625 3.46178 40.5509 3.28985C40.4769 3.11792 40.3612 2.96323 40.2125 2.83718C39.8801 2.59356 39.4588 2.47214 39.0322 2.49706ZM39.0636 4.33235C38.6516 4.30832 38.2419 4.40437 37.8944 4.60646C37.7051 4.73968 37.5718 4.92763 37.5168 5.13902C37.4618 5.35042 37.4883 5.57253 37.5919 5.76837C37.6695 5.88922 37.7722 5.99524 37.8944 6.0805C38.0245 6.16457 38.1691 6.22846 38.3222 6.26958C38.4927 6.31422 38.6694 6.33645 38.8468 6.3356C39.084 6.33744 39.32 6.30554 39.5462 6.24106C39.7531 6.17932 39.9472 6.08667 40.1204 5.96695C40.2804 5.85477 40.4122 5.71287 40.5068 5.55078C40.6048 5.38503 40.6551 5.19957 40.6531 5.01154V4.53622C40.4514 4.48587 40.2183 4.43851 39.9537 4.39415C39.6596 4.34857 39.362 4.32788 39.0636 4.33235Z" fill="var(--fill-0, #464744)"/>
<path id="Path 66286" d="M43.7096 4.63498C43.7317 4.88082 43.8024 5.12107 43.9183 5.34427C44.0245 5.53994 44.1695 5.71627 44.3461 5.86449C44.5178 6.00211 44.7152 6.11101 44.9289 6.18613C45.1467 6.25635 45.3762 6.29208 45.6074 6.29176C45.9398 6.30062 46.2695 6.23571 46.5679 6.10269C46.8438 5.97366 47.0942 5.80432 47.3093 5.60148L47.8106 6.00815C47.547 6.28 47.2325 6.50744 46.8815 6.67995C46.5158 6.83017 46.1209 6.91335 45.7196 6.92468C45.3182 6.93601 44.9184 6.87527 44.5431 6.74596C44.2241 6.62414 43.9341 6.44748 43.6892 6.22574C43.4402 5.99026 43.2424 5.71432 43.1063 5.4124C42.9639 5.0809 42.893 4.72768 42.8977 4.37196C42.8948 4.03336 42.9583 3.69699 43.0854 3.37853C43.2073 3.07853 43.3915 2.80245 43.628 2.56519C43.8592 2.32605 44.1449 2.13521 44.4654 2.00583C44.7859 1.87644 45.1336 1.81159 45.4844 1.81575C45.8523 1.81002 46.2167 1.88123 46.5493 2.02384C46.8552 2.15133 47.1262 2.33874 47.3425 2.57258C47.5639 2.81517 47.7306 3.09472 47.8333 3.39543C47.9467 3.72281 48.0032 4.06422 48.0006 4.40735V4.51298C48.0003 4.55417 47.9968 4.59529 47.9901 4.63603L43.7096 4.63498ZM43.7096 4.09574H47.1863C47.1663 3.87898 47.1136 3.66573 47.0295 3.46197C46.9573 3.26787 46.8439 3.08845 46.6956 2.93383C46.5525 2.77996 46.3733 2.65706 46.171 2.57417C45.9505 2.47565 45.7069 2.42691 45.4611 2.4321C45.2336 2.43032 45.0088 2.47566 44.8036 2.56466C44.6015 2.64694 44.4204 2.76615 44.2715 2.91482C44.1133 3.06678 43.986 3.2429 43.8955 3.43504C43.7964 3.64529 43.7337 3.86815 43.7096 4.09574Z" fill="var(--fill-0, #464744)"/>
</g>
<defs>
<clipPath id="clip0_2212_5824">
<rect width="48" height="7" fill="white"/>
</clipPath>
</defs>
</svg>
