<svg preserveAspectRatio="none" width="100%" height="100%" overflow="visible" style="display: block;" viewBox="0 0 99.5558 14.5185" fill="none" xmlns="http://www.w3.org/2000/svg">
<g id="icons-dubaiae 1" clip-path="url(#clip0_2235_5821)">
<path id="Path 66279" d="M5.28402 14.5175C2.57732 14.5175 -3.63925e-05 12.595 -3.63925e-05 9.07875V9.0437C-3.63925e-05 5.53182 2.53863 3.60937 5.28282 3.60937C5.97914 3.59677 6.66903 3.7322 7.29716 4.0048C7.92529 4.27739 8.47419 4.67958 8.89982 5.1791V2.47181e-06H12.1904V14.3214H8.89982V12.8108C8.50244 13.3463 7.96332 13.7831 7.3317 14.0812C6.70007 14.3794 5.99608 14.5293 5.28402 14.5175ZM6.13025 11.9871C6.52904 11.9724 6.92038 11.8844 7.28046 11.7284C7.64055 11.5724 7.96186 11.3516 8.22487 11.0796C8.48788 10.8076 8.68709 10.4899 8.8104 10.146C8.9337 9.802 8.97852 9.4389 8.94213 9.07875V9.0437C8.97766 8.6838 8.93212 8.32112 8.80827 7.97766C8.68442 7.6342 8.48486 7.31711 8.22168 7.04565C7.9585 6.77419 7.63719 6.55402 7.27726 6.39849C6.91733 6.24295 6.52628 6.15531 6.12783 6.14086C5.72769 6.15316 5.33451 6.23921 4.97227 6.39374C4.61004 6.54828 4.28636 6.76808 4.02097 7.03971C3.75558 7.31135 3.55405 7.62914 3.42868 7.97368C3.30331 8.31823 3.25673 8.6823 3.29177 9.0437V9.07875C3.25762 9.44026 3.3048 9.8043 3.43043 10.1488C3.55607 10.4933 3.75756 10.8111 4.0227 11.083C4.28784 11.3549 4.61112 11.5753 4.97297 11.7306C5.33481 11.886 5.7277 11.9733 6.12783 11.9871H6.13025Z" fill="var(--fill-0, #464744)"/>
<path id="Path 66280" d="M19.2017 14.5175C16.7114 14.5175 15.2607 13.0266 15.2607 10.6134V3.80548H18.5513V9.67139C18.5513 11.0845 19.2875 11.8096 20.5435 11.8096C21.7996 11.8096 22.5987 11.0834 22.5987 9.67139V3.80548H25.8893V14.3214H22.6011V12.8305C22.2313 13.3434 21.7276 13.7656 21.1346 14.0599C20.5416 14.3541 19.8777 14.5113 19.2017 14.5175Z" fill="var(--fill-0, #464744)"/>
<path id="Path 66281" d="M35.9638 14.5175C35.2677 14.5299 34.5781 14.3944 33.9501 14.1218C33.3222 13.8492 32.7735 13.4471 32.348 12.9477V14.3214H29.0562V2.47181e-06H32.3468V5.31602C32.7443 4.78033 33.2836 4.34346 33.9155 4.04533C34.5473 3.74719 35.2516 3.59731 35.9638 3.60937C38.6705 3.60937 41.2467 5.53182 41.2467 9.0437V9.07875C41.2467 12.595 38.7128 14.5175 35.9638 14.5175ZM35.1176 11.9871C35.5184 11.975 35.9123 11.8889 36.2751 11.7341C36.6379 11.5792 36.962 11.359 37.2276 11.0867C37.4932 10.8145 37.6947 10.496 37.8198 10.1507C37.9448 9.80543 37.9908 9.44067 37.9549 9.07875V9.0437C38.0061 8.68012 37.9713 8.31082 37.8528 7.96038C37.7343 7.60993 37.5347 7.28639 37.2674 7.01127C37.0002 6.73616 36.6713 6.5158 36.3027 6.36484C35.9341 6.21389 35.5342 6.13582 35.1297 6.13582C34.7252 6.13582 34.3253 6.21389 33.9567 6.36484C33.5881 6.5158 33.2592 6.73616 32.9919 7.01127C32.7246 7.28639 32.5251 7.60993 32.4066 7.96038C32.288 8.31082 32.2532 8.68012 32.3045 9.0437V9.07875C32.2681 9.43908 32.313 9.80235 32.4365 10.1465C32.5599 10.4906 32.7593 10.8083 33.0226 11.0804C33.2859 11.3524 33.6075 11.5731 33.9678 11.729C34.3282 11.8849 34.7186 11.9727 35.1176 11.9871Z" fill="var(--fill-0, #464744)"/>
<path id="Path 66282" d="M47.1749 14.5174C44.988 14.5174 43.1855 13.3793 43.1855 11.3002V11.2607C43.1855 8.96038 45.1125 7.90551 47.8627 7.90551C48.8287 7.89773 49.7886 8.04382 50.6988 8.3371V8.16074C50.6988 6.92512 49.8525 6.23829 48.2085 6.23829C47.1098 6.23915 46.0216 6.43219 45.0037 6.80681L44.1804 4.53055C45.5915 3.94367 47.1313 3.65525 48.6835 3.68709C49.3903 3.63871 50.1006 3.71789 50.7734 3.92002C51.4461 4.12215 52.0679 4.44323 52.6028 4.86465C53.0474 5.3204 53.3874 5.85179 53.6031 6.42784C53.8187 7.00389 53.9056 7.61308 53.8588 8.21989V14.3213H50.6818V13.1832C50.2419 13.626 49.6994 13.9752 49.0931 14.2059C48.4868 14.4365 47.8318 14.5429 47.1749 14.5174ZM48.171 12.4569C49.7087 12.4569 50.7471 11.6901 50.7471 10.6123V10.0832C50.0857 9.81916 49.37 9.68549 48.6473 9.69102C47.2401 9.69102 46.3734 10.2015 46.3734 11.1424V11.1819C46.3734 11.987 47.1096 12.458 48.1698 12.458L48.171 12.4569Z" fill="var(--fill-0, #464744)"/>
<path id="Path 66283" d="M56.9789 2.64761V2.47181e-06H60.4436V2.64761H56.9789ZM57.066 14.3214V3.80545H60.3566V14.3214H57.066Z" fill="var(--fill-0, #464744)"/>
<path id="Path 66284" d="M72.666 10.7898C72.666 11.5264 72.425 12.2465 71.9733 12.859C71.5217 13.4715 70.8798 13.9488 70.1287 14.2307C69.3777 14.5126 68.5512 14.5864 67.7539 14.4427C66.9566 14.2989 66.2243 13.9442 65.6494 13.4234C65.0746 12.9025 64.6831 12.2389 64.5246 11.5164C64.366 10.794 64.4474 10.0451 64.7584 9.36456C65.0695 8.68402 65.5964 8.10235 66.2723 7.69311C66.9482 7.28387 67.7429 7.06544 68.5558 7.06544C69.6459 7.06544 70.6914 7.45783 71.4622 8.15628C72.233 8.85474 72.666 9.80206 72.666 10.7898Z" fill="var(--fill-0, #609DDD)"/>
<path id="Path 66285" d="M80.9577 5.1791C80.3449 5.17464 79.7345 5.24839 79.1444 5.39818C78.6014 5.53216 78.0726 5.70959 77.5643 5.92836L77.0663 4.69274C77.6713 4.43627 78.302 4.2327 78.9497 4.08479C79.664 3.91905 80.3994 3.83985 81.1366 3.84927C82.4165 3.77227 83.6801 4.1445 84.6654 4.88882C85.0988 5.2864 85.4333 5.76351 85.6462 6.28804C85.8591 6.81257 85.9455 7.37234 85.8996 7.92967V14.1297H84.2918V12.5961C83.856 13.0894 83.3196 13.5022 82.7118 13.812C81.9573 14.1869 81.1042 14.3683 80.2444 14.3367C79.7243 14.3367 79.2067 14.2707 78.7067 14.1406C78.2261 14.0143 77.7725 13.8154 77.3649 13.5524C76.9771 13.2798 76.6532 12.9398 76.4123 12.5523C76.1711 12.121 76.0519 11.6423 76.0653 11.1589C76.0536 10.6695 76.1727 10.1847 76.4123 9.74586C76.6385 9.33246 76.9731 8.97555 77.3866 8.70631C77.8484 8.4197 78.3612 8.20737 78.9026 8.07865C79.5388 7.92862 80.194 7.85496 80.8513 7.85956C81.4816 7.85346 82.1114 7.89266 82.7348 7.97677C83.2605 8.05379 83.7809 8.15877 84.293 8.29116V7.94501C84.3246 7.56329 84.2613 7.18002 84.1077 6.82342C83.9542 6.46682 83.7143 6.14598 83.4057 5.88454C82.7164 5.37925 81.8425 5.12742 80.9577 5.1791ZM81.023 8.98564C80.1684 8.9358 79.3186 9.13501 78.5979 9.55416C78.2053 9.83047 77.9289 10.2203 77.8147 10.6587C77.7006 11.0972 77.7555 11.5579 77.9705 11.9641C78.1313 12.2147 78.3444 12.4346 78.5979 12.6114C78.8677 12.7858 79.1676 12.9183 79.4853 13.0036C79.8388 13.0962 80.2052 13.1423 80.5733 13.1405C81.0652 13.1444 81.5547 13.0782 82.0239 12.9445C82.453 12.8164 82.8555 12.6242 83.2147 12.3759C83.5467 12.1432 83.82 11.8489 84.0162 11.5128C84.2195 11.169 84.3238 10.7843 84.3196 10.3943V9.40847C83.9013 9.30404 83.4178 9.20582 82.8689 9.11381C82.2589 9.01928 81.6418 8.97637 81.023 8.98564Z" fill="var(--fill-0, #464744)"/>
<path id="Path 66286" d="M90.6563 9.61336C90.7022 10.1233 90.8488 10.6215 91.0891 11.0845C91.3095 11.4903 91.6103 11.856 91.9764 12.1635C92.3326 12.4489 92.742 12.6748 93.1853 12.8306C93.637 12.9762 94.113 13.0503 94.5925 13.0497C95.2819 13.068 95.9658 12.9334 96.5847 12.6575C97.1568 12.3899 97.6764 12.0387 98.1224 11.618L99.1621 12.4614C98.6155 13.0253 97.9631 13.497 97.2351 13.8548C96.4766 14.1664 95.6576 14.3389 94.8252 14.3624C93.9928 14.3859 93.1635 14.2599 92.385 13.9917C91.7233 13.739 91.1219 13.3726 90.614 12.9127C90.0975 12.4243 89.6874 11.852 89.4051 11.2258C89.1097 10.5382 88.9627 9.80564 88.9723 9.06784C88.9664 8.36555 89.0982 7.66788 89.3616 7.00738C89.6146 6.38516 89.9966 5.81256 90.4871 5.32045C90.9666 4.82446 91.5592 4.42864 92.2239 4.16028C92.8887 3.89193 93.6097 3.75743 94.3374 3.76606C95.1004 3.75416 95.8562 3.90185 96.546 4.19765C97.1806 4.46206 97.7426 4.85078 98.1913 5.33578C98.6504 5.83892 98.9963 6.41874 99.2092 7.04243C99.4445 7.72145 99.5615 8.42955 99.5562 9.14123V9.36032C99.5556 9.44575 99.5483 9.53104 99.5344 9.61555L90.6563 9.61336ZM90.6563 8.49494H97.8673C97.8258 8.04536 97.7164 7.60307 97.5422 7.18045C97.3924 6.77786 97.157 6.40572 96.8495 6.08504C96.5528 5.7659 96.181 5.511 95.7615 5.33907C95.304 5.13474 94.7989 5.03365 94.289 5.0444C93.8173 5.04072 93.3509 5.13476 92.9254 5.31935C92.5062 5.49001 92.1305 5.73726 91.8217 6.04561C91.4936 6.36079 91.2296 6.72608 91.042 7.12459C90.8364 7.56067 90.7063 8.0229 90.6563 8.49494Z" fill="var(--fill-0, #464744)"/>
</g>
<defs>
<clipPath id="clip0_2235_5821">
<rect width="99.5558" height="14.5185" fill="white"/>
</clipPath>
</defs>
</svg>
