<svg preserveAspectRatio="none" width="100%" height="100%" overflow="visible" style="display: block;" viewBox="0 0 3.52119 15.0768" fill="none" xmlns="http://www.w3.org/2000/svg">
<g id="Group">
<path id="Vector" d="M0.94905 4.69522H0.8757V2.49022L1.314 2.05193V0.768506L0.8973 0.351794H0.561938V0.279052H0.927507L1.38735 0.738299V2.08213L0.94905 2.52042V4.69522Z" fill="var(--fill-0, white)"/>
<path id="Vector_2" d="M0.927675 7.35955H0.474581V7.28682H0.897469L1.31417 6.87007V3.38104H1.38758V6.90027L0.927675 7.35955Z" fill="var(--fill-0, white)"/>
<path id="Vector_3" d="M1.34781 7.44961C1.27935 7.44961 1.22389 7.39415 1.22389 7.32569C1.22389 7.25729 1.27935 7.20183 1.34781 7.20183C1.41621 7.20183 1.47167 7.25729 1.47167 7.32569C1.47167 7.39415 1.41621 7.44961 1.34781 7.44961ZM1.34781 7.27456C1.3194 7.27456 1.29662 7.29734 1.29662 7.32569C1.29662 7.3541 1.3194 7.37688 1.34781 7.37688C1.37616 7.37688 1.39894 7.3541 1.39894 7.32569C1.39894 7.29734 1.37616 7.27456 1.34781 7.27456Z" fill="var(--fill-0, white)"/>
<path id="Vector_4" d="M1.27091 5.57547C1.27091 5.64325 1.21607 5.69815 1.14823 5.69815C1.08045 5.69815 1.02555 5.64325 1.02555 5.57547C1.02555 5.50764 1.08045 5.45279 1.14823 5.45279C1.21607 5.45279 1.27091 5.50764 1.27091 5.57547Z" fill="var(--fill-0, white)"/>
<path id="Vector_5" d="M1.1484 5.26002C1.07994 5.26002 1.02448 5.20456 1.02448 5.13614C1.02448 5.06772 1.07994 5.01224 1.1484 5.01224C1.2168 5.01224 1.27226 5.06772 1.27226 5.13614C1.27288 5.20394 1.2168 5.26002 1.1484 5.26002ZM1.1484 5.08498C1.11999 5.08498 1.09721 5.10778 1.09721 5.13614C1.09721 5.16451 1.11999 5.18729 1.1484 5.18729C1.17675 5.18729 1.19953 5.16451 1.19953 5.13614C1.19953 5.10778 1.17675 5.08498 1.1484 5.08498Z" fill="var(--fill-0, white)"/>
<path id="Vector_6" d="M2.11995 6.79745H2.0466V5.14849L1.60892 4.71021V0H1.68171V4.68L2.11995 5.11829V6.79745Z" fill="var(--fill-0, white)"/>
<path id="Vector_7" d="M2.99582 4.69549H2.92247V2.49049L3.36077 2.0522V0.768781L2.94407 0.352064H2.60871V0.279327H2.97428L3.4335 0.738575V2.08241L2.99582 2.5207V4.69549Z" fill="var(--fill-0, white)"/>
<path id="Vector_8" d="M2.97444 7.35984H2.52135V7.28705H2.94424L3.36094 6.87035V3.38132H3.43367V6.90055L2.97444 7.35984Z" fill="var(--fill-0, white)"/>
<path id="Vector_9" d="M2.99604 6.4474H2.92269V6.02457L2.48501 5.58627V3.83434L2.04677 3.39667V2.05222L2.49553 1.60345L2.54728 1.65524L2.12012 2.08243V3.36647L2.5578 3.80414V5.55607L2.99604 5.99437V6.4474Z" fill="var(--fill-0, white)"/>
<path id="Vector_10" d="M2.08333 7.00962C2.01488 7.00962 1.95941 6.95416 1.95941 6.8857C1.95941 6.8173 2.01488 6.76179 2.08333 6.76179C2.15173 6.76179 2.20719 6.8173 2.20719 6.8857C2.20781 6.95354 2.15173 7.00962 2.08333 7.00962ZM2.08333 6.83457C2.05498 6.83457 2.03214 6.85735 2.03214 6.8857C2.03214 6.91405 2.05498 6.93689 2.08333 6.93689C2.11168 6.93689 2.13446 6.91405 2.13446 6.8857C2.13446 6.85735 2.11168 6.83457 2.08333 6.83457Z" fill="var(--fill-0, white)"/>
<path id="Vector_11" d="M2.52113 7.00962C2.45267 7.00962 2.39721 6.95416 2.39721 6.8857C2.39721 6.8173 2.45267 6.76179 2.52113 6.76179C2.58953 6.76179 2.64504 6.8173 2.64504 6.8857C2.64504 6.95354 2.58953 7.00962 2.52113 7.00962ZM2.52113 6.83457C2.49278 6.83457 2.46994 6.85735 2.46994 6.8857C2.46994 6.91405 2.49278 6.93689 2.52113 6.93689C2.54948 6.93689 2.57226 6.91405 2.57226 6.8857C2.57226 6.85735 2.54948 6.83457 2.52113 6.83457Z" fill="var(--fill-0, white)"/>
<path id="Vector_12" d="M2.52113 6.57127C2.45267 6.57127 2.39721 6.5158 2.39721 6.44735C2.39721 6.37895 2.45267 6.32343 2.52113 6.32343C2.58953 6.32343 2.64504 6.37895 2.64504 6.44735C2.64504 6.5158 2.58953 6.57127 2.52113 6.57127ZM2.52113 6.39622C2.49278 6.39622 2.46994 6.419 2.46994 6.44735C2.46994 6.4757 2.49278 6.49854 2.52113 6.49854C2.54948 6.49854 2.57226 6.4757 2.57226 6.44735C2.57226 6.419 2.54948 6.39622 2.52113 6.39622Z" fill="var(--fill-0, white)"/>
<path id="Vector_13" d="M2.95397 7.00962C2.88557 7.00962 2.83005 6.95416 2.83005 6.8857C2.83005 6.8173 2.88557 6.76179 2.95397 6.76179C3.02243 6.76179 3.07789 6.8173 3.07789 6.8857C3.07789 6.95354 3.02243 7.00962 2.95397 7.00962ZM2.95397 6.83457C2.92562 6.83457 2.90284 6.85735 2.90284 6.8857C2.90284 6.91405 2.92562 6.93689 2.95397 6.93689C2.98232 6.93689 3.00516 6.91405 3.00516 6.8857C3.00516 6.85735 2.98232 6.83457 2.95397 6.83457Z" fill="var(--fill-0, white)"/>
<path id="Vector_14" d="M3.39508 7.44961C3.32668 7.44961 3.27116 7.39415 3.27116 7.32569C3.27116 7.25729 3.32668 7.20183 3.39508 7.20183C3.46348 7.20183 3.519 7.25729 3.519 7.32569C3.519 7.39415 3.46348 7.44961 3.39508 7.44961ZM3.39508 7.27456C3.36673 7.27456 3.34389 7.29734 3.34389 7.32569C3.34389 7.3541 3.36673 7.37688 3.39508 7.37688C3.42343 7.37688 3.44627 7.3541 3.44627 7.32569C3.44627 7.29734 3.42281 7.27456 3.39508 7.27456Z" fill="var(--fill-0, white)"/>
<path id="Vector_15" d="M2.95892 4.90684C2.89052 4.90684 2.835 4.85136 2.835 4.78293C2.835 4.71451 2.89052 4.65903 2.95892 4.65903C3.02737 4.65903 3.08284 4.71451 3.08284 4.78293C3.08346 4.85136 3.02737 4.90684 2.95892 4.90684ZM2.95892 4.73177C2.93057 4.73177 2.90773 4.75457 2.90773 4.78293C2.90773 4.81129 2.93057 4.83409 2.95892 4.83409C2.98727 4.83409 3.01011 4.81129 3.01011 4.78293C3.01011 4.75457 2.98727 4.73177 2.95892 4.73177Z" fill="var(--fill-0, white)"/>
<path id="Vector_16" d="M2.08333 4.90684C2.01488 4.90684 1.95941 4.85136 1.95941 4.78293C1.95941 4.71451 2.01488 4.65903 2.08333 4.65903C2.15173 4.65903 2.20719 4.71451 2.20719 4.78293C2.20781 4.85136 2.15173 4.90684 2.08333 4.90684ZM2.08333 4.73177C2.05498 4.73177 2.03214 4.75457 2.03214 4.78293C2.03214 4.81129 2.05498 4.83409 2.08333 4.83409C2.11168 4.83409 2.13446 4.81129 2.13446 4.78293C2.13446 4.75457 2.11168 4.73177 2.08333 4.73177Z" fill="var(--fill-0, white)"/>
<path id="Vector_17" d="M2.52118 7.32339C2.52118 7.39117 2.46628 7.44607 2.3985 7.44607C2.33066 7.44607 2.27582 7.39117 2.27582 7.32339C2.27582 7.2556 2.33066 7.2007 2.3985 7.2007C2.46628 7.2007 2.52118 7.2556 2.52118 7.32339Z" fill="var(--fill-0, white)"/>
<path id="Vector_18" d="M2.20584 7.32339C2.20584 7.39117 2.151 7.44607 2.08316 7.44607C2.01538 7.44607 1.96048 7.39117 1.96048 7.32339C1.96048 7.2556 2.01538 7.2007 2.08316 7.2007C2.151 7.2007 2.20584 7.2556 2.20584 7.32339Z" fill="var(--fill-0, white)"/>
<path id="Vector_19" d="M3.08143 6.56997C3.08143 6.63781 3.02659 6.69265 2.95881 6.69265C2.89097 6.69265 2.83612 6.63781 2.83612 6.56997C2.83612 6.50219 2.89097 6.44735 2.95881 6.44735C3.02659 6.44735 3.08143 6.50219 3.08143 6.56997Z" fill="var(--fill-0, white)"/>
<path id="Vector_20" d="M3.31768 5.57575C3.31768 5.64354 3.26278 5.69838 3.195 5.69838C3.12716 5.69838 3.07232 5.64354 3.07232 5.57575C3.07232 5.50792 3.12716 5.45307 3.195 5.45307C3.26278 5.45307 3.31768 5.50792 3.31768 5.57575Z" fill="var(--fill-0, white)"/>
<path id="Vector_21" d="M2.6442 6.00528C2.6442 6.07312 2.58936 6.12796 2.52152 6.12796C2.45374 6.12796 2.39884 6.07312 2.39884 6.00528C2.39884 5.9375 2.45374 5.88265 2.52152 5.88265C2.58936 5.88265 2.6442 5.9375 2.6442 6.00528Z" fill="var(--fill-0, white)"/>
<path id="Vector_22" d="M1.76805 5.57575C1.76805 5.64354 1.71321 5.69838 1.64537 5.69838C1.57759 5.69838 1.52269 5.64354 1.52269 5.57575C1.52269 5.50792 1.57759 5.45307 1.64537 5.45307C1.71321 5.45307 1.76805 5.50792 1.76805 5.57575Z" fill="var(--fill-0, white)"/>
<path id="Vector_23" d="M1.97078 7.26224L1.60892 6.90039V5.69832H1.68171V6.87018L2.02258 7.21044L1.97078 7.26224Z" fill="var(--fill-0, white)"/>
<path id="Vector_24" d="M2.12012 3.85153H2.04677V4.69482H2.12012V3.85153Z" fill="var(--fill-0, white)"/>
<path id="Vector_25" d="M2.83618 6.84858H2.60871V6.92199H2.83618V6.84858Z" fill="var(--fill-0, white)"/>
<path id="Vector_26" d="M2.76227 5.26002C2.69387 5.26002 2.63835 5.20456 2.63835 5.13614C2.63835 5.06772 2.69387 5.01224 2.76227 5.01224C2.83067 5.01224 2.88619 5.06772 2.88619 5.13614C2.88619 5.20394 2.83067 5.26002 2.76227 5.26002ZM2.76227 5.08498C2.73392 5.08498 2.71108 5.10778 2.71108 5.13614C2.71108 5.16451 2.73392 5.18729 2.76227 5.18729C2.79062 5.18729 2.81346 5.16451 2.81346 5.13614C2.81346 5.10778 2.79 5.08498 2.76227 5.08498Z" fill="var(--fill-0, white)"/>
<path id="Vector_27" d="M3.19511 5.26002C3.12671 5.26002 3.07125 5.20456 3.07125 5.13614C3.07125 5.06772 3.12671 5.01224 3.19511 5.01224C3.26357 5.01224 3.31903 5.06772 3.31903 5.13614C3.31903 5.20394 3.26357 5.26002 3.19511 5.26002ZM3.19511 5.08498C3.16676 5.08498 3.14398 5.10778 3.14398 5.13614C3.14398 5.16451 3.16676 5.18729 3.19511 5.18729C3.22346 5.18729 3.2463 5.16451 3.2463 5.13614C3.2463 5.10778 3.22346 5.08498 3.19511 5.08498Z" fill="var(--fill-0, white)"/>
<path id="Vector_28" d="M3.07733 5.09931H2.84985V5.17267H3.07733V5.09931Z" fill="var(--fill-0, white)"/>
<path id="Vector_29" d="M0.94905 12.4125H0.8757V10.2075L1.314 9.76987V8.48585L0.8973 8.06915H0.561938V7.99642H0.927507L1.38735 8.45564V9.80007L0.94905 10.2378V12.4125Z" fill="var(--fill-0, white)"/>
<path id="Vector_30" d="M0.927675 15.0768H0.474581V15.0041H0.897469L1.31417 14.5873V11.0989H1.38758V14.6175L0.927675 15.0768Z" fill="var(--fill-0, white)"/>
<path id="Vector_31" d="M1.35051 8.15712C1.28211 8.15712 1.22664 8.10166 1.22664 8.03326C1.22664 7.9648 1.28211 7.90934 1.35051 7.90934C1.41896 7.90934 1.47443 7.9648 1.47443 8.03326C1.47443 8.10166 1.41896 8.15712 1.35051 8.15712ZM1.35051 7.98145C1.32216 7.98145 1.29938 8.00424 1.29938 8.03264C1.29938 8.06099 1.32216 8.08377 1.35051 8.08377C1.37886 8.08377 1.40169 8.06099 1.40169 8.03264C1.40169 8.00424 1.37886 7.98145 1.35051 7.98145Z" fill="var(--fill-0, white)"/>
<path id="Vector_32" d="M1.35051 11.1353C1.28211 11.1353 1.22664 11.0798 1.22664 11.0114C1.22664 10.9429 1.28211 10.8874 1.35051 10.8874C1.41896 10.8874 1.47443 10.9429 1.47443 11.0114C1.47504 11.0798 1.41896 11.1353 1.35051 11.1353ZM1.35051 10.9602C1.32216 10.9602 1.29938 10.983 1.29938 11.0114C1.29938 11.0397 1.32216 11.0625 1.35051 11.0625C1.37886 11.0625 1.40169 11.0397 1.40169 11.0114C1.40169 10.983 1.37886 10.9602 1.35051 10.9602Z" fill="var(--fill-0, white)"/>
<path id="Vector_33" d="M0.0733498 8.831H0V8.0179L0.459844 7.55806H0.927731L1.28897 7.9193L1.23716 7.97105L0.897525 7.63141H0.49005L0.0733498 8.04811V8.831Z" fill="var(--fill-0, white)"/>
<path id="Vector_34" d="M2.11995 14.5144H2.0466V12.8655L1.60892 12.4278V7.71764H1.68171V12.397L2.11995 12.8353V14.5144Z" fill="var(--fill-0, white)"/>
<path id="Vector_35" d="M2.99582 12.4125H2.92247V10.2075L3.36077 9.76987V8.48585L2.94407 8.06915H2.60871V7.99642H2.97428L3.4335 8.45564V9.80007L2.99582 10.2378V12.4125Z" fill="var(--fill-0, white)"/>
<path id="Vector_36" d="M2.97444 15.0768H2.52135V15.0041H2.94424L3.36094 14.5873V11.0989H3.43367V14.6175L2.97444 15.0768Z" fill="var(--fill-0, white)"/>
<path id="Vector_37" d="M2.99604 14.1645H2.92269V13.7416L2.48501 13.3039V11.552L2.04677 11.1137V9.76987L2.49553 9.32105L2.54728 9.37286L2.12012 9.80007V11.0835L2.5578 11.5218V13.2731L2.99604 13.7114V14.1645Z" fill="var(--fill-0, white)"/>
<path id="Vector_38" d="M2.52113 8.15712C2.45267 8.15712 2.39721 8.10166 2.39721 8.03326C2.39721 7.9648 2.45267 7.90934 2.52113 7.90934C2.58953 7.90934 2.64504 7.9648 2.64504 8.03326C2.64504 8.10166 2.58953 8.15712 2.52113 8.15712ZM2.52113 7.98145C2.49278 7.98145 2.46994 8.00424 2.46994 8.03264C2.46994 8.06099 2.49278 8.08377 2.52113 8.08377C2.54948 8.08377 2.57226 8.06099 2.57226 8.03264C2.57226 8.00424 2.54948 7.98145 2.52113 7.98145Z" fill="var(--fill-0, white)"/>
<path id="Vector_39" d="M2.52113 10.8499C2.45267 10.8499 2.39721 10.7944 2.39721 10.726C2.39721 10.6575 2.45267 10.6021 2.52113 10.6021C2.58953 10.6021 2.64504 10.6575 2.64504 10.726C2.64504 10.7938 2.58953 10.8499 2.52113 10.8499ZM2.52113 10.6748C2.49278 10.6748 2.46994 10.6977 2.46994 10.726C2.46994 10.7544 2.49278 10.7771 2.52113 10.7771C2.54948 10.7771 2.57226 10.7544 2.57226 10.726C2.57226 10.6977 2.54948 10.6748 2.52113 10.6748Z" fill="var(--fill-0, white)"/>
<path id="Vector_40" d="M3.39728 8.15712C3.32888 8.15712 3.27336 8.10166 3.27336 8.03326C3.27336 7.9648 3.32888 7.90934 3.39728 7.90934C3.46568 7.90934 3.52119 7.9648 3.52119 8.03326C3.52119 8.10166 3.46568 8.15712 3.39728 8.15712ZM3.39728 7.98145C3.36893 7.98145 3.34609 8.00424 3.34609 8.03264C3.34609 8.06099 3.36893 8.08377 3.39728 8.08377C3.42563 8.08377 3.44846 8.06099 3.44846 8.03264C3.44846 8.00424 3.42501 7.98145 3.39728 7.98145Z" fill="var(--fill-0, white)"/>
<path id="Vector_41" d="M3.39728 11.1353C3.32888 11.1353 3.27336 11.0798 3.27336 11.0114C3.27336 10.9429 3.32888 10.8874 3.39728 10.8874C3.46568 10.8874 3.52119 10.9429 3.52119 11.0114C3.52119 11.0798 3.46568 11.1353 3.39728 11.1353ZM3.39728 10.9602C3.36893 10.9602 3.34609 10.983 3.34609 11.0114C3.34609 11.0397 3.36893 11.0625 3.39728 11.0625C3.42563 11.0625 3.44846 11.0397 3.44846 11.0114C3.44846 10.983 3.42501 10.9602 3.39728 10.9602Z" fill="var(--fill-0, white)"/>
<path id="Vector_42" d="M2.95892 12.6244C2.89052 12.6244 2.835 12.569 2.835 12.5006C2.835 12.4321 2.89052 12.3767 2.95892 12.3767C3.02737 12.3767 3.08284 12.4321 3.08284 12.5006C3.08346 12.5684 3.02737 12.6244 2.95892 12.6244ZM2.95892 12.4488C2.93057 12.4488 2.90773 12.4716 2.90773 12.5C2.90773 12.5283 2.93057 12.5511 2.95892 12.5511C2.98727 12.5511 3.01011 12.5283 3.01011 12.5C3.01011 12.4716 2.98727 12.4488 2.95892 12.4488Z" fill="var(--fill-0, white)"/>
<path id="Vector_43" d="M2.08333 12.6244C2.01488 12.6244 1.95941 12.569 1.95941 12.5006C1.95941 12.4321 2.01488 12.3767 2.08333 12.3767C2.15173 12.3767 2.20719 12.4321 2.20719 12.5006C2.20781 12.5684 2.15173 12.6244 2.08333 12.6244ZM2.08333 12.4488C2.05498 12.4488 2.03214 12.4716 2.03214 12.5C2.03214 12.5283 2.05498 12.5511 2.08333 12.5511C2.11168 12.5511 2.13446 12.5283 2.13446 12.5C2.13446 12.4716 2.11168 12.4488 2.08333 12.4488Z" fill="var(--fill-0, white)"/>
<path id="Vector_44" d="M2.08333 11.6055C2.01488 11.6055 1.95941 11.55 1.95941 11.4816C1.95941 11.4132 2.01488 11.3577 2.08333 11.3577C2.15173 11.3577 2.20719 11.4132 2.20719 11.4816C2.20781 11.55 2.15173 11.6055 2.08333 11.6055ZM2.08333 11.4304C2.05498 11.4304 2.03214 11.4532 2.03214 11.4816C2.03214 11.5099 2.05498 11.5327 2.08333 11.5327C2.11168 11.5327 2.13446 11.5099 2.13446 11.4816C2.13446 11.4532 2.11168 11.4304 2.08333 11.4304Z" fill="var(--fill-0, white)"/>
<path id="Vector_45" d="M2.08333 9.04289C2.01488 9.04289 1.95941 8.98743 1.95941 8.91903C1.95941 8.85057 2.01488 8.79511 2.08333 8.79511C2.15173 8.79511 2.20719 8.85057 2.20719 8.91903C2.20781 8.98681 2.15173 9.04289 2.08333 9.04289ZM2.08333 8.86722C2.05498 8.86722 2.03214 8.89006 2.03214 8.91841C2.03214 8.94676 2.05498 8.96954 2.08333 8.96954C2.11168 8.96954 2.13446 8.94676 2.13446 8.91841C2.13446 8.89006 2.11168 8.86722 2.08333 8.86722Z" fill="var(--fill-0, white)"/>
<path id="Vector_46" d="M1.76805 7.59502C1.76805 7.66285 1.71321 7.7177 1.64537 7.7177C1.57759 7.7177 1.52269 7.66285 1.52269 7.59502C1.52269 7.52724 1.57759 7.47234 1.64537 7.47234C1.71321 7.47234 1.76805 7.52724 1.76805 7.59502Z" fill="var(--fill-0, white)"/>
<path id="Vector_47" d="M2.6442 9.34709C2.6442 9.41487 2.58936 9.46972 2.52152 9.46972C2.45374 9.46972 2.39884 9.41487 2.39884 9.34709C2.39884 9.27925 2.45374 9.22441 2.52152 9.22441C2.58936 9.22441 2.6442 9.27925 2.6442 9.34709Z" fill="var(--fill-0, white)"/>
<path id="Vector_48" d="M2.52152 8.60594C2.5893 8.60594 2.6442 8.55104 2.6442 8.48326C2.6442 8.41554 2.5893 8.36058 2.52152 8.36058C2.45379 8.36058 2.39884 8.41554 2.39884 8.48326C2.39884 8.55104 2.45379 8.60594 2.52152 8.60594Z" fill="var(--fill-0, white)"/>
<path id="Vector_49" d="M2.12012 8.831H2.04677V8.0179L2.50599 7.55806H2.9745L3.33574 7.9193L3.28393 7.97105L2.94429 7.63141H2.5362L2.12012 8.04811V8.831Z" fill="var(--fill-0, white)"/>
<path id="Vector_50" d="M2.12012 11.5691H2.04677V12.4124H2.12012V11.5691Z" fill="var(--fill-0, white)"/>
<path id="Vector_51" d="M2.55786 10.6378H2.48513V10.2075L2.91786 9.77476V8.93394L2.55724 8.57332L2.60899 8.52157L2.99059 8.90373V9.80497L2.55786 10.2377V10.6378Z" fill="var(--fill-0, white)"/>
</g>
</svg>
