<svg preserveAspectRatio="none" width="100%" height="100%" overflow="visible" style="display: block;" viewBox="0 0 94.5873 19.3035" fill="none" xmlns="http://www.w3.org/2000/svg">
<g id="icon-noqodi-blue 1" clip-path="url(#clip0_2235_5790)">
<path id="Path 54385" d="M82.2098 5.97497L80.8305 7.27362C81.1742 7.59599 81.4468 7.97906 81.6329 8.40086C81.8189 8.82267 81.9147 9.2749 81.9147 9.73162C81.9147 10.1884 81.8189 10.6406 81.6329 11.0624C81.4468 11.4842 81.1742 11.8673 80.8305 12.1896L82.2098 13.4883C82.7339 12.9952 83.1497 12.4097 83.4333 11.7653C83.717 11.1209 83.863 10.4302 83.863 9.73265C83.863 9.03509 83.717 8.34437 83.4333 7.69996C83.1497 7.05555 82.7339 6.47009 82.2098 5.97702" fill="var(--fill-0, #069CFF)"/>
<path id="Path 54386" d="M87.5687 0.925867L86.5462 1.9316C88.1322 3.36544 93.0599 8.6522 93.1121 9.73372C93.0599 10.8152 88.1365 16.1061 86.5527 17.5379L87.5752 18.5395C87.6449 18.476 94.5871 11.78 94.5871 9.73167C94.5871 7.68333 87.6383 0.985268 87.5687 0.923818" fill="var(--fill-0, #069CFF)"/>
<path id="Path 54387" d="M84.925 3.40839L83.5783 4.73367C84.5769 5.63289 86.2499 7.47844 86.2499 9.73981C86.2499 12.0012 84.5812 13.8365 83.587 14.7378L84.9358 16.061C86.1542 14.961 88.1992 12.6751 88.1992 9.73981C88.1992 6.80454 86.152 4.5063 84.925 3.40839Z" fill="var(--fill-0, #069CFF)"/>
<path id="Path 54388" d="M21.2052 3.94919H19.121C17.814 3.95081 16.5611 4.44035 15.6369 5.31046C14.7128 6.18056 14.1928 7.36021 14.1911 8.59072V10.5551C14.1923 11.7858 14.712 12.9657 15.6363 13.8359C16.5606 14.7062 17.8138 15.1955 19.121 15.1966H21.2052C22.5123 15.1955 23.7655 14.7062 24.6898 13.8359C25.6141 12.9657 26.1338 11.7858 26.135 10.5551V8.59072C26.1333 7.36021 25.6133 6.18056 24.6892 5.31046C23.765 4.44035 22.5121 3.95081 21.2052 3.94919ZM24.1748 10.2089C24.1737 11.0419 23.8217 11.8405 23.1961 12.4295C22.5704 13.0186 21.7222 13.35 20.8375 13.3511H19.4886C18.6039 13.35 17.7557 13.0186 17.1301 12.4295C16.5044 11.8405 16.1525 11.0419 16.1513 10.2089V8.93894C16.1519 8.10556 16.5036 7.30645 17.1293 6.71697C17.755 6.1275 18.6035 5.79582 19.4886 5.79474H20.8375C21.7226 5.79582 22.5711 6.1275 23.1968 6.71697C23.8225 7.30645 24.1742 8.10556 24.1748 8.93894V10.2089Z" fill="var(--fill-0, #069CFF)"/>
<path id="Path 54389" d="M49.6025 3.94919H47.5183C46.2113 3.95081 44.9584 4.44035 44.0343 5.31046C43.1101 6.18056 42.5902 7.36021 42.5884 8.59072V10.5551C42.5896 11.7858 43.1093 12.9657 44.0336 13.8359C44.9579 14.7062 46.2111 15.1955 47.5183 15.1966H49.6025C50.9096 15.1955 52.1628 14.7062 53.0871 13.8359C54.0114 12.9657 54.5312 11.7858 54.5323 10.5551V8.59072C54.5306 7.36021 54.0106 6.18056 53.0865 5.31046C52.1623 4.44035 50.9094 3.95081 49.6025 3.94919ZM52.5721 10.2089C52.571 11.0419 52.219 11.8405 51.5934 12.4295C50.9677 13.0186 50.1196 13.35 49.2348 13.3511H47.8859C47.0023 13.3483 46.1558 13.0162 45.5316 12.4274C44.9074 11.8385 44.5563 11.0409 44.5551 10.2089V8.93894C44.5557 8.10556 44.9074 7.30645 45.5331 6.71697C46.1588 6.1275 47.0073 5.79582 47.8925 5.79474H49.2413C50.1265 5.79582 50.975 6.1275 51.6007 6.71697C52.2264 7.30645 52.5781 8.10556 52.5786 8.93894L52.5721 10.2089Z" fill="var(--fill-0, #069CFF)"/>
<path id="Path 54390" d="M35.3954 3.94919H33.3091C32.0021 3.95081 30.7492 4.44035 29.825 5.31045C28.9009 6.18056 28.3809 7.36021 28.3792 8.59072V10.5551C28.3809 11.7856 28.9009 12.9652 29.825 13.8353C30.7492 14.7054 32.0021 15.195 33.3091 15.1966H35.3954C36.4088 15.1972 37.3973 14.9008 38.2237 14.3486L38.3673 14.2523V19.3035H40.3253V8.59072C40.3236 7.36021 39.8036 6.18056 38.8795 5.31045C37.9553 4.44035 36.7024 3.95081 35.3954 3.94919ZM38.3651 10.2089C38.3639 11.0423 38.0117 11.8412 37.3856 12.4303C36.7595 13.0194 35.9107 13.3505 35.0256 13.3511H33.6767C32.7916 13.3505 31.9428 13.0194 31.3167 12.4303C30.6907 11.8412 30.3384 11.0423 30.3372 10.2089V8.93894C30.3384 8.10538 30.6906 7.30627 31.3166 6.71685C31.9426 6.12743 32.7914 5.79582 33.6767 5.79474H35.0256C35.9107 5.79582 36.7592 6.1275 37.3849 6.71697C38.0106 7.30645 38.3623 8.10556 38.3629 8.93894L38.3651 10.2089Z" fill="var(--fill-0, #069CFF)"/>
<path id="Path 54391" d="M56.7826 8.74845V10.7128C56.782 11.9451 57.3012 13.1272 58.2261 13.9991C59.1509 14.871 60.4057 15.3614 61.7146 15.3625H63.801C65.1094 15.3609 66.3636 14.8702 67.288 13.9984C68.2124 13.1265 68.7314 11.9447 68.7308 10.7128V-3.79712e-06H66.7728V5.0512L66.6292 4.95697C65.803 4.40418 64.8145 4.1071 63.801 4.10691H61.7146C60.4073 4.108 59.1538 4.5973 58.2291 5.46746C57.3045 6.33762 56.7843 7.51758 56.7826 8.74845ZM63.4311 5.95247C64.3162 5.95355 65.1648 6.28523 65.7904 6.8747C66.4161 7.46418 66.7679 8.26329 66.7684 9.09666V10.3666C66.7693 10.7798 66.6837 11.1891 66.5166 11.5711C66.3494 11.9531 66.104 12.3004 65.7943 12.5932C65.4846 12.8859 65.1167 13.1183 64.7116 13.2772C64.3065 13.436 63.8721 13.5182 63.4333 13.519H62.0844C61.6449 13.5193 61.2095 13.4379 60.8034 13.2795C60.3973 13.1212 60.0284 12.8889 59.7178 12.5961C59.4072 12.3032 59.161 11.9556 58.9933 11.573C58.8256 11.1904 58.7397 10.7805 58.7406 10.3666V9.09666C58.7417 8.2631 59.0939 7.46399 59.72 6.87458C60.346 6.28516 61.1947 5.95355 62.0801 5.95247H63.4311Z" fill="var(--fill-0, #069CFF)"/>
<path id="Path 54394" d="M71.031 4.06594H72.9912V15.1966H71.031V4.06594Z" fill="var(--fill-0, #069CFF)"/>
<path id="Path 54393" d="M71.031 -3.79712e-06H72.9912V1.84555H71.031V-3.79712e-06Z" fill="var(--fill-0, #069CFF)"/>
<path id="Path 54392" d="M7.01622 3.94919H4.92985C3.6229 3.95081 2.36998 4.44035 1.44583 5.31045C0.521674 6.18056 0.00172686 7.36021 0 8.59072L0 15.1905H1.95801V8.93894C1.95859 8.10521 2.31062 7.30579 2.93677 6.71625C3.56292 6.12672 4.412 5.79528 5.29752 5.79474H6.64637C7.53171 5.79582 8.38046 6.12743 9.00648 6.71685C9.63251 7.30627 9.98472 8.10538 9.98587 8.93894V15.1905H11.9439V8.59072C11.9422 7.36056 11.4225 6.18122 10.4988 5.31118C9.57515 4.44113 8.32279 3.95135 7.01622 3.94919Z" fill="var(--fill-0, #069CFF)"/>
</g>
<defs>
<clipPath id="clip0_2235_5790">
<rect width="94.5873" height="19.3035" fill="white"/>
</clipPath>
</defs>
</svg>
