<svg preserveAspectRatio="none" width="100%" height="100%" overflow="visible" style="display: block;" viewBox="0 0 33.6141 37.1754" fill="none" xmlns="http://www.w3.org/2000/svg">
<path id="Vector" d="M0.0779918 29.2174C7.33756 39.2258 22.1648 39.3052 29.4449 29.2942C35.3414 21.1371 33.329 9.76188 25.0402 4.07364C20.2342 0.735375 14.0857 -0.0407001 8.58154 1.92186C5.21517 3.1352 2.26174 5.33173 0.0792752 8.17648L0 8.12023C0.135532 7.91822 0.490969 7.4247 0.622651 7.23037C0.760738 7.04753 1.15581 6.56681 1.30156 6.38014C1.76439 5.85082 2.30265 5.28571 2.81279 4.80753C3.33572 4.33575 3.93663 3.832 4.50558 3.42159C5.08348 3.01629 5.74578 2.59182 6.35947 2.24917C7.19564 1.79656 8.13797 1.3657 9.03549 1.05245C14.6495 -0.956135 21.0895 -0.0547636 25.916 3.45739C30.7541 6.90562 33.6831 12.7652 33.6129 18.6976C33.5387 31.6441 20.4988 40.6054 8.41412 35.9106C7.76842 35.6536 7.055 35.3238 6.43619 34.999C5.82632 34.6692 5.15892 34.2549 4.5823 33.8611C4.01591 33.461 3.40221 32.9725 2.87673 32.5148C2.61462 32.2885 2.34613 32.0022 2.08659 31.7694C1.92548 31.6096 1.50868 31.1519 1.34247 30.9793C1.07782 30.6571 0.667405 30.193 0.430874 29.8568L0 29.2749L0.0779918 29.2174Z" fill="var(--fill-0, #00AFE7)"/>
</svg>
