<svg preserveAspectRatio="none" width="100%" height="100%" overflow="visible" style="display: block;" viewBox="0 0 16.2068 17.9238" fill="none" xmlns="http://www.w3.org/2000/svg">
<path id="Vector" d="M0.0376031 14.0869C3.53774 18.9124 10.6866 18.9507 14.1966 14.124C17.0396 10.1911 16.0693 4.70661 12.0729 1.96407C9.75577 0.354555 6.79128 -0.0196232 4.13752 0.926611C2.51445 1.51161 1.09048 2.57065 0.0382219 3.94222L0 3.9151C0.0653456 3.8177 0.236717 3.57976 0.300206 3.48606C0.366784 3.39791 0.557263 3.16613 0.627536 3.07613C0.850686 2.82093 1.11021 2.54846 1.35616 2.31791C1.60829 2.09045 1.89802 1.84757 2.17233 1.64969C2.45096 1.45428 2.77028 1.24963 3.06617 1.08442C3.46932 0.866198 3.92366 0.658461 4.35639 0.507432C7.06314 -0.460993 10.1681 -0.0264038 12.4952 1.66695C14.8278 3.32949 16.24 6.15463 16.2062 9.01488C16.1704 15.2569 9.88334 19.5776 4.0568 17.314C3.74548 17.1901 3.40151 17.0311 3.10315 16.8745C2.80911 16.7155 2.48733 16.5157 2.20932 16.3259C1.93624 16.1329 1.64035 15.8974 1.38699 15.6767C1.26062 15.5676 1.13117 15.4296 1.00603 15.3174C0.928356 15.2403 0.727397 15.0196 0.647263 14.9364C0.51966 14.7811 0.321784 14.5573 0.207742 14.3952L0 14.1147L0.0376031 14.0869Z" fill="var(--fill-0, #00AFE7)"/>
</svg>
