<svg preserveAspectRatio="none" width="100%" height="100%" overflow="visible" style="display: block;" viewBox="0 0 35.2593 35.2593" fill="none" xmlns="http://www.w3.org/2000/svg">
<g id="Icons">
<path id="Vector" d="M15.8553 3.03669C22.0356 2.32795 27.8966 5.47037 30.7263 11.0103C31.4485 12.4278 31.7446 13.2548 32.0642 14.8258C32.5023 16.9993 32.36 19.9291 31.7088 21.9254C30.3827 25.9533 27.5768 29.1543 23.7644 30.9498C17.5012 33.9029 9.99504 31.9656 5.78006 26.2838C5.03416 25.2797 4.03966 23.4253 3.67264 22.3267C2.47684 18.8302 2.74883 14.4949 4.37088 11.2701C5.37729 9.25024 7.13002 7.15943 8.91775 5.8365C10.7884 4.43097 13.6177 3.29659 15.8553 3.03669ZM17.3943 5.6363C13.8783 5.91983 11.546 6.8999 9.29666 9.03767C7.79301 10.467 6.71543 12.2627 6.06424 14.4244C5.76826 15.4048 5.73221 15.6528 5.73221 17.5543C5.73221 19.1839 5.76774 19.787 5.93338 20.3892C7.2239 25.0787 10.4801 28.2567 15.0857 29.3199C16.3762 29.627 18.8625 29.627 20.1531 29.3199C24.7588 28.2568 28.0149 25.0788 29.3054 20.3892C29.4711 19.7869 29.5066 19.1841 29.5066 17.5543C29.5066 15.6529 29.4715 15.4047 29.1756 14.4244C28.5244 12.2627 27.4468 10.467 25.9431 9.03767C23.9067 7.10045 21.586 6.03708 18.7918 5.74177C18.1288 5.68271 17.5009 5.6363 17.3943 5.6363ZM11.7342 20.4371C13.1785 21.9017 14.6112 22.6107 16.6238 22.8824C19.2049 23.225 22.0589 22.1497 23.7283 20.2125C24.0361 19.8582 24.3322 19.5631 24.3914 19.5631C24.535 19.5644 25.8943 20.5554 25.8943 20.6734C25.9179 20.8861 24.6751 22.1734 23.8582 22.7877C20.1286 25.6345 15.1674 25.6344 11.3787 22.7994C10.6094 22.2325 9.14289 20.6631 9.25955 20.5435C9.28323 20.5081 9.63831 20.2596 10.0408 19.9761L10.7752 19.4566L11.7342 20.4371Z" fill="var(--fill-0, #006E20)"/>
</g>
</svg>
