<svg preserveAspectRatio="none" width="100%" height="100%" overflow="visible" style="display: block;" viewBox="0 0 20.7667 31.2705" fill="none" xmlns="http://www.w3.org/2000/svg">
<g id="Group">
<path id="Vector" d="M1.05992 14.0985H0.909045V10.6784L0 9.76936V2.26782e-05H0.152146V9.70671L1.05992 10.6158V14.0985Z" fill="var(--fill-0, white)"/>
<path id="Vector_2" d="M2.87686 9.73833H2.726V5.16499L3.63376 4.25594V1.59403L2.76947 0.729733H2.07395V0.57886H2.83212L3.78591 1.53138V4.31859L2.87686 5.22764V9.73833Z" fill="var(--fill-0, white)"/>
<path id="Vector_3" d="M2.83105 15.2644H1.89132V15.1135H2.7684L3.6327 14.2492V7.01265H3.78485V14.3118L2.83105 15.2644Z" fill="var(--fill-0, white)"/>
<path id="Vector_4" d="M2.8745 13.372H2.72363V12.4949L1.81459 11.5858V7.95222L0.906827 7.04446V4.25596L1.83632 3.32519L1.94373 3.43258L1.05769 4.31861V6.98181L1.96673 7.88957V11.5232L2.8745 12.4323V13.372Z" fill="var(--fill-0, white)"/>
<path id="Vector_5" d="M0.983284 14.5379C0.84137 14.5379 0.726301 14.4229 0.726301 14.2809C0.726301 14.1391 0.84137 14.024 0.983284 14.024C1.1252 14.024 1.24027 14.1391 1.24027 14.2809C1.24027 14.4216 1.1252 14.5379 0.983284 14.5379ZM0.983284 14.1749C0.924472 14.1749 0.877164 14.2221 0.877164 14.2809C0.877164 14.3397 0.924472 14.3871 0.983284 14.3871C1.0421 14.3871 1.0894 14.3397 1.0894 14.2809C1.0894 14.2221 1.0421 14.1749 0.983284 14.1749Z" fill="var(--fill-0, white)"/>
<path id="Vector_6" d="M1.89431 14.5379C1.7524 14.5379 1.63733 14.4229 1.63733 14.2809C1.63733 14.1391 1.7524 14.024 1.89431 14.024C2.03623 14.024 2.1513 14.1391 2.1513 14.2809C2.15257 14.4216 2.03623 14.5379 1.89431 14.5379ZM1.89431 14.1749C1.8355 14.1749 1.78819 14.2221 1.78819 14.2809C1.78819 14.3397 1.8355 14.3871 1.89431 14.3871C1.95312 14.3871 2.00043 14.3397 2.00043 14.2809C2.00043 14.2221 1.95312 14.1749 1.89431 14.1749Z" fill="var(--fill-0, white)"/>
<path id="Vector_7" d="M1.89431 13.6294C1.7524 13.6294 1.63733 13.5144 1.63733 13.3724C1.63733 13.2305 1.7524 13.1154 1.89431 13.1154C2.03623 13.1154 2.1513 13.2305 2.1513 13.3724C2.15257 13.5144 2.03623 13.6294 1.89431 13.6294ZM1.89431 13.2663C1.8355 13.2663 1.78819 13.3136 1.78819 13.3724C1.78819 13.4312 1.8355 13.4785 1.89431 13.4785C1.95312 13.4785 2.00043 13.4312 2.00043 13.3724C2.00043 13.3136 1.95312 13.2663 1.89431 13.2663Z" fill="var(--fill-0, white)"/>
<path id="Vector_8" d="M2.79274 14.5379C2.65083 14.5379 2.53576 14.4229 2.53576 14.2809C2.53576 14.1391 2.65083 14.024 2.79274 14.024C2.93465 14.024 3.04972 14.1391 3.04972 14.2809C3.04972 14.4216 2.93465 14.5379 2.79274 14.5379ZM2.79274 14.1749C2.73393 14.1749 2.68662 14.2221 2.68662 14.2809C2.68662 14.3397 2.73393 14.3871 2.79274 14.3871C2.85155 14.3871 2.89886 14.3397 2.89886 14.2809C2.89758 14.2221 2.85028 14.1749 2.79274 14.1749Z" fill="var(--fill-0, white)"/>
<path id="Vector_9" d="M3.70586 15.4511C3.56395 15.4511 3.44888 15.3361 3.44888 15.1941C3.44888 15.0523 3.56395 14.9372 3.70586 14.9372C3.84779 14.9372 3.96286 15.0523 3.96286 15.1941C3.96413 15.3361 3.84779 15.4511 3.70586 15.4511ZM3.70586 15.0881C3.64705 15.0881 3.59976 15.1353 3.59976 15.1941C3.59976 15.253 3.64705 15.3003 3.70586 15.3003C3.76468 15.3003 3.81198 15.253 3.81198 15.1941C3.81198 15.1353 3.76468 15.0881 3.70586 15.0881Z" fill="var(--fill-0, white)"/>
<path id="Vector_10" d="M2.80324 10.1772C2.66132 10.1772 2.54625 10.0622 2.54625 9.92026C2.54625 9.77834 2.66132 9.66327 2.80324 9.66327C2.94515 9.66327 3.06022 9.77834 3.06022 9.92026C3.06022 10.0622 2.94515 10.1772 2.80324 10.1772ZM2.80324 9.81414C2.74442 9.81414 2.69711 9.86144 2.69711 9.92026C2.69711 9.97908 2.74442 10.0264 2.80324 10.0264C2.86205 10.0264 2.90936 9.97908 2.90936 9.92026C2.90936 9.86144 2.86205 9.81414 2.80324 9.81414Z" fill="var(--fill-0, white)"/>
<path id="Vector_11" d="M0.983284 10.1772C0.84137 10.1772 0.726301 10.0622 0.726301 9.92026C0.726301 9.77834 0.84137 9.66327 0.983284 9.66327C1.1252 9.66327 1.24027 9.77834 1.24027 9.92026C1.24027 10.0622 1.1252 10.1772 0.983284 10.1772ZM0.983284 9.81414C0.924472 9.81414 0.877164 9.86144 0.877164 9.92026C0.877164 9.97908 0.924472 10.0264 0.983284 10.0264C1.0421 10.0264 1.0894 9.97908 1.0894 9.92026C1.0894 9.86144 1.0421 9.81414 0.983284 9.81414Z" fill="var(--fill-0, white)"/>
<path id="Vector_12" d="M1.89009 15.1888C1.89009 15.3295 1.7763 15.4432 1.63566 15.4432C1.49502 15.4432 1.38123 15.3295 1.38123 15.1888C1.38123 15.0482 1.49502 14.9343 1.63566 14.9343C1.7763 14.9343 1.89009 15.0482 1.89009 15.1888Z" fill="var(--fill-0, white)"/>
<path id="Vector_13" d="M1.23516 15.1888C1.23516 15.3295 1.12137 15.4432 0.980729 15.4432C0.840087 15.4432 0.726301 15.3295 0.726301 15.1888C0.726301 15.0482 0.840087 14.9343 0.980729 14.9343C1.12137 14.9343 1.23516 15.0482 1.23516 15.1888Z" fill="var(--fill-0, white)"/>
<path id="Vector_14" d="M3.05721 13.6266C3.05721 13.7673 2.94342 13.8811 2.80278 13.8811C2.66214 13.8811 2.54835 13.7673 2.54835 13.6266C2.54835 13.4861 2.66214 13.3723 2.80278 13.3723C2.94342 13.3723 3.05721 13.4861 3.05721 13.6266Z" fill="var(--fill-0, white)"/>
<path id="Vector_15" d="M3.54632 11.564C3.54632 11.7046 3.43252 11.8185 3.29189 11.8185C3.15125 11.8185 3.03745 11.7046 3.03745 11.564C3.03745 11.4233 3.15125 11.3096 3.29189 11.3096C3.43252 11.3096 3.54632 11.4233 3.54632 11.564Z" fill="var(--fill-0, white)"/>
<path id="Vector_16" d="M2.14618 12.4555C2.14618 12.5962 2.0324 12.7099 1.89175 12.7099C1.75111 12.7099 1.63733 12.5962 1.63733 12.4555C1.63733 12.3149 1.75111 12.2011 1.89175 12.2011C2.0324 12.2011 2.14618 12.3149 2.14618 12.4555Z" fill="var(--fill-0, white)"/>
<path id="Vector_17" d="M0.750507 15.0624L0 14.3119V11.8188H0.152146V14.2493L0.85791 14.955L0.750507 15.0624Z" fill="var(--fill-0, white)"/>
<path id="Vector_18" d="M1.05897 7.98855H0.906827V9.73759H1.05897V7.98855Z" fill="var(--fill-0, white)"/>
<path id="Vector_19" d="M2.54573 14.2045H2.07395V14.3567H2.54573V14.2045Z" fill="var(--fill-0, white)"/>
<path id="Vector_20" d="M2.3918 10.9097C2.24989 10.9097 2.13482 10.7946 2.13482 10.6527C2.13482 10.5108 2.24989 10.3957 2.3918 10.3957C2.53373 10.3957 2.6488 10.5108 2.6488 10.6527C2.65007 10.7933 2.53373 10.9097 2.3918 10.9097ZM2.3918 10.5466C2.33299 10.5466 2.2857 10.5939 2.2857 10.6527C2.2857 10.7116 2.33299 10.7588 2.3918 10.7588C2.45063 10.7588 2.49793 10.7116 2.49793 10.6527C2.49793 10.5939 2.45063 10.5466 2.3918 10.5466Z" fill="var(--fill-0, white)"/>
<path id="Vector_21" d="M3.29443 10.9097C3.15252 10.9097 3.03745 10.7946 3.03745 10.6527C3.03745 10.5108 3.15252 10.3957 3.29443 10.3957C3.43636 10.3957 3.55143 10.5108 3.55143 10.6527C3.55143 10.7933 3.43636 10.9097 3.29443 10.9097ZM3.29443 10.5466C3.23562 10.5466 3.18831 10.5939 3.18831 10.6527C3.18831 10.7116 3.23562 10.7588 3.29443 10.7588C3.35324 10.7588 3.40055 10.7116 3.40055 10.6527C3.40055 10.5939 3.35197 10.5466 3.29443 10.5466Z" fill="var(--fill-0, white)"/>
<path id="Vector_22" d="M3.04532 10.5759H2.57354V10.7281H3.04532V10.5759Z" fill="var(--fill-0, white)"/>
<path id="Vector_23" d="M5.30646 14.0985H5.15432V10.6784L4.24655 9.76936V2.26782e-05H4.39743V9.70671L5.30646 10.6158V14.0985Z" fill="var(--fill-0, white)"/>
<path id="Vector_24" d="M7.12345 9.73833H6.97132V5.16499L7.88038 4.25594V1.59403L7.016 0.729733H6.3205V0.57886H7.07865L8.03124 1.53138V4.31859L7.12345 5.22764V9.73833Z" fill="var(--fill-0, white)"/>
<path id="Vector_25" d="M7.07764 15.2644H6.13788V15.1135H7.01499L7.87926 14.2492V7.01265H8.03011V14.3118L7.07764 15.2644Z" fill="var(--fill-0, white)"/>
<path id="Vector_26" d="M7.12232 13.372H6.97019V12.4949L6.06243 11.5858V7.95222L5.15338 7.04446V4.25596L6.08416 3.32519L6.19155 3.43258L5.30553 4.31861V6.98181L6.21329 7.88957V11.5232L7.12232 12.4323V13.372Z" fill="var(--fill-0, white)"/>
<path id="Vector_27" d="M5.22774 14.5379C5.08583 14.5379 4.97076 14.4229 4.97076 14.2809C4.97076 14.1391 5.08583 14.024 5.22774 14.024C5.36966 14.024 5.48473 14.1391 5.48473 14.2809C5.48601 14.4216 5.37094 14.5379 5.22774 14.5379ZM5.22774 14.1749C5.16893 14.1749 5.12163 14.2221 5.12163 14.2809C5.12163 14.3397 5.16893 14.3871 5.22774 14.3871C5.28655 14.3871 5.33386 14.3397 5.33386 14.2809C5.33386 14.2221 5.28655 14.1749 5.22774 14.1749Z" fill="var(--fill-0, white)"/>
<path id="Vector_28" d="M6.13876 14.5379C5.99685 14.5379 5.88178 14.4229 5.88178 14.2809C5.88178 14.1391 5.99685 14.024 6.13876 14.024C6.28069 14.024 6.39576 14.1391 6.39576 14.2809C6.39576 14.4216 6.28069 14.5379 6.13876 14.5379ZM6.13876 14.1749C6.07995 14.1749 6.03264 14.2221 6.03264 14.2809C6.03264 14.3397 6.07995 14.3871 6.13876 14.3871C6.19757 14.3871 6.24488 14.3397 6.24488 14.2809C6.24488 14.2221 6.19757 14.1749 6.13876 14.1749Z" fill="var(--fill-0, white)"/>
<path id="Vector_29" d="M6.13876 13.6294C5.99685 13.6294 5.88178 13.5144 5.88178 13.3724C5.88178 13.2305 5.99685 13.1154 6.13876 13.1154C6.28069 13.1154 6.39576 13.2305 6.39576 13.3724C6.39576 13.5144 6.28069 13.6294 6.13876 13.6294ZM6.13876 13.2663C6.07995 13.2663 6.03264 13.3136 6.03264 13.3724C6.03264 13.4312 6.07995 13.4785 6.13876 13.4785C6.19757 13.4785 6.24488 13.4312 6.24488 13.3724C6.24488 13.3136 6.19757 13.2663 6.13876 13.2663Z" fill="var(--fill-0, white)"/>
<path id="Vector_30" d="M7.03513 14.5379C6.89315 14.5379 6.77811 14.4229 6.77811 14.2809C6.77811 14.1391 6.89315 14.024 7.03513 14.024C7.177 14.024 7.29215 14.1391 7.29215 14.2809C7.29343 14.4216 7.177 14.5379 7.03513 14.5379ZM7.03513 14.1749C6.97633 14.1749 6.92896 14.2221 6.92896 14.2809C6.92896 14.3397 6.97633 14.3871 7.03513 14.3871C7.09393 14.3871 7.1413 14.3397 7.1413 14.2809C7.1413 14.2221 7.09393 14.1749 7.03513 14.1749Z" fill="var(--fill-0, white)"/>
<path id="Vector_31" d="M7.95035 15.4511C7.80849 15.4511 7.69334 15.3361 7.69334 15.1941C7.69334 15.0523 7.80849 14.9372 7.95035 14.9372C8.09222 14.9372 8.20737 15.0523 8.20737 15.1941C8.20737 15.3361 8.09222 15.4511 7.95035 15.4511ZM7.95035 15.0881C7.89155 15.0881 7.84419 15.1353 7.84419 15.1941C7.84419 15.253 7.89155 15.3003 7.95035 15.3003C8.00915 15.3003 8.05652 15.253 8.05652 15.1941C8.05652 15.1353 8.00787 15.0881 7.95035 15.0881Z" fill="var(--fill-0, white)"/>
<path id="Vector_32" d="M7.04353 10.1772C6.90154 10.1772 6.78651 10.0622 6.78651 9.92026C6.78651 9.77834 6.90154 9.66327 7.04353 9.66327C7.18539 9.66327 7.30054 9.77834 7.30054 9.92026C7.30183 10.0622 7.18668 10.1772 7.04353 10.1772ZM7.04353 9.81414C6.98473 9.81414 6.93736 9.86144 6.93736 9.92026C6.93736 9.97908 6.98473 10.0264 7.04353 10.0264C7.10233 10.0264 7.14958 9.97908 7.14958 9.92026C7.14958 9.86144 7.10233 9.81414 7.04353 9.81414Z" fill="var(--fill-0, white)"/>
<path id="Vector_33" d="M5.22774 10.1772C5.08583 10.1772 4.97076 10.0622 4.97076 9.92026C4.97076 9.77834 5.08583 9.66327 5.22774 9.66327C5.36966 9.66327 5.48473 9.77834 5.48473 9.92026C5.48601 10.0622 5.37094 10.1772 5.22774 10.1772ZM5.22774 9.81414C5.16893 9.81414 5.12163 9.86144 5.12163 9.92026C5.12163 9.97908 5.16893 10.0264 5.22774 10.0264C5.28655 10.0264 5.33386 9.97908 5.33386 9.92026C5.33386 9.86144 5.28655 9.81414 5.22774 9.81414Z" fill="var(--fill-0, white)"/>
<path id="Vector_34" d="M6.14084 15.1888C6.14084 15.3295 6.02705 15.4432 5.88641 15.4432C5.74577 15.4432 5.63198 15.3295 5.63198 15.1888C5.63198 15.0482 5.74577 14.9343 5.88641 14.9343C6.02705 14.9343 6.14084 15.0482 6.14084 15.1888Z" fill="var(--fill-0, white)"/>
<path id="Vector_35" d="M5.48382 15.1888C5.48382 15.3295 5.37002 15.4432 5.22939 15.4432C5.08875 15.4432 4.97495 15.3295 4.97495 15.1888C4.97495 15.0482 5.08875 14.9343 5.22939 14.9343C5.37002 14.9343 5.48382 15.0482 5.48382 15.1888Z" fill="var(--fill-0, white)"/>
<path id="Vector_36" d="M7.30159 13.6266C7.30159 13.7673 7.18784 13.8811 7.04714 13.8811C6.90656 13.8811 6.79281 13.7673 6.79281 13.6266C6.79281 13.4861 6.90656 13.3723 7.04714 13.3723C7.18784 13.3723 7.30159 13.4861 7.30159 13.6266Z" fill="var(--fill-0, white)"/>
<path id="Vector_37" d="M7.78439 11.564C7.78439 11.7046 7.67064 11.8185 7.53006 11.8185C7.38936 11.8185 7.27561 11.7046 7.27561 11.564C7.27561 11.4233 7.38936 11.3096 7.53006 11.3096C7.67064 11.3096 7.78439 11.4233 7.78439 11.564Z" fill="var(--fill-0, white)"/>
<path id="Vector_38" d="M6.39064 12.4555C6.39064 12.5962 6.27685 12.7099 6.13621 12.7099C5.99557 12.7099 5.88178 12.5962 5.88178 12.4555C5.88178 12.3149 5.99557 12.2011 6.13621 12.2011C6.27685 12.2011 6.39064 12.3149 6.39064 12.4555Z" fill="var(--fill-0, white)"/>
<path id="Vector_39" d="M4.57698 11.564C4.57698 11.7046 4.4632 11.8185 4.32255 11.8185C4.18191 11.8185 4.06813 11.7046 4.06813 11.564C4.06813 11.4233 4.18191 11.3096 4.32255 11.3096C4.4632 11.3096 4.57698 11.4233 4.57698 11.564Z" fill="var(--fill-0, white)"/>
<path id="Vector_40" d="M4.99706 15.0624L4.24655 14.3119V11.8188H4.39743V14.2493L5.10445 14.955L4.99706 15.0624Z" fill="var(--fill-0, white)"/>
<path id="Vector_41" d="M5.30553 7.98855H5.15338V9.73759H5.30553V7.98855Z" fill="var(--fill-0, white)"/>
<path id="Vector_42" d="M6.79223 14.2045H6.3205V14.3567H6.79223V14.2045Z" fill="var(--fill-0, white)"/>
<path id="Vector_43" d="M6.63836 10.9097C6.49644 10.9097 6.38138 10.7946 6.38138 10.6527C6.38138 10.5108 6.49644 10.3957 6.63836 10.3957C6.78026 10.3957 6.89529 10.5108 6.89529 10.6527C6.89529 10.7933 6.78026 10.9097 6.63836 10.9097ZM6.63836 10.5466C6.57955 10.5466 6.53224 10.5939 6.53224 10.6527C6.53224 10.7116 6.57955 10.7588 6.63836 10.7588C6.69717 10.7588 6.74448 10.7116 6.74448 10.6527C6.74448 10.5939 6.69717 10.5466 6.63836 10.5466Z" fill="var(--fill-0, white)"/>
<path id="Vector_44" d="M7.53263 10.9097C7.39076 10.9097 7.27561 10.7946 7.27561 10.6527C7.27561 10.5108 7.39076 10.3957 7.53263 10.3957C7.67449 10.3957 7.78964 10.5108 7.78964 10.6527C7.79093 10.7933 7.67449 10.9097 7.53263 10.9097ZM7.53263 10.5466C7.47383 10.5466 7.42646 10.5939 7.42646 10.6527C7.42646 10.7116 7.47383 10.7588 7.53263 10.7588C7.59143 10.7588 7.63879 10.7116 7.63879 10.6527C7.63879 10.5939 7.59143 10.5466 7.53263 10.5466Z" fill="var(--fill-0, white)"/>
<path id="Vector_45" d="M7.294 10.5759H6.8222V10.7281H7.294V10.5759Z" fill="var(--fill-0, white)"/>
<path id="Vector_46" d="M9.55093 14.0985H9.40008V10.6784L8.49101 9.76936V2.26782e-05H8.64314V9.70671L9.55093 10.6158V14.0985Z" fill="var(--fill-0, white)"/>
<path id="Vector_47" d="M11.3646 9.73879H11.2136V5.16545L12.1214 4.2564V1.59448L11.2571 0.730181H10.5629V0.579319H11.3211L12.2735 1.53183V4.31905L11.3646 5.2281V9.73879Z" fill="var(--fill-0, white)"/>
<path id="Vector_48" d="M11.322 15.2649H10.3823V15.114H11.258L12.1224 14.2497V7.01317H12.2746V14.3123L11.322 15.2649Z" fill="var(--fill-0, white)"/>
<path id="Vector_49" d="M11.3676 13.3724H11.2168V12.4955L10.3077 11.5864V7.95276L9.39994 7.04499V4.25649L10.3307 3.32571L10.4382 3.43312L9.55079 4.31914V6.98234L10.4599 7.89011V11.5237L11.3676 12.4328V13.3724Z" fill="var(--fill-0, white)"/>
<path id="Vector_50" d="M9.47643 14.5386C9.33456 14.5386 9.21941 14.4236 9.21941 14.2816C9.21941 14.1397 9.33456 14.0246 9.47643 14.0246C9.61841 14.0246 9.73344 14.1397 9.73344 14.2816C9.73344 14.4223 9.61841 14.5386 9.47643 14.5386ZM9.47643 14.1755C9.41763 14.1755 9.37038 14.2228 9.37038 14.2816C9.37038 14.3404 9.41763 14.3877 9.47643 14.3877C9.53523 14.3877 9.58259 14.3404 9.58259 14.2816C9.58259 14.2228 9.53523 14.1755 9.47643 14.1755Z" fill="var(--fill-0, white)"/>
<path id="Vector_51" d="M10.381 14.5386C10.2392 14.5386 10.1241 14.4236 10.1241 14.2816C10.1241 14.1397 10.2392 14.0246 10.381 14.0246C10.523 14.0246 10.6381 14.1397 10.6381 14.2816C10.6381 14.4223 10.523 14.5386 10.381 14.5386ZM10.381 14.1755C10.3222 14.1755 10.275 14.2228 10.275 14.2816C10.275 14.3404 10.3222 14.3877 10.381 14.3877C10.4398 14.3877 10.4872 14.3404 10.4872 14.2816C10.4859 14.2228 10.4386 14.1755 10.381 14.1755Z" fill="var(--fill-0, white)"/>
<path id="Vector_52" d="M10.381 13.6294C10.2392 13.6294 10.1241 13.5144 10.1241 13.3724C10.1241 13.2305 10.2392 13.1154 10.381 13.1154C10.523 13.1154 10.6381 13.2305 10.6381 13.3724C10.6381 13.5144 10.523 13.6294 10.381 13.6294ZM10.381 13.2663C10.3222 13.2663 10.275 13.3136 10.275 13.3724C10.275 13.4312 10.3222 13.4785 10.381 13.4785C10.4398 13.4785 10.4872 13.4312 10.4872 13.3724C10.4859 13.3136 10.4386 13.2663 10.381 13.2663Z" fill="var(--fill-0, white)"/>
<path id="Vector_53" d="M11.2796 14.5386C11.1376 14.5386 11.0226 14.4236 11.0226 14.2816C11.0226 14.1397 11.1376 14.0246 11.2796 14.0246C11.4215 14.0246 11.5365 14.1397 11.5365 14.2816C11.5365 14.4223 11.4215 14.5386 11.2796 14.5386ZM11.2796 14.1755C11.2208 14.1755 11.1734 14.2228 11.1734 14.2816C11.1734 14.3404 11.2208 14.3877 11.2796 14.3877C11.3384 14.3877 11.3856 14.3404 11.3856 14.2816C11.3856 14.2228 11.3371 14.1755 11.2796 14.1755Z" fill="var(--fill-0, white)"/>
<path id="Vector_54" d="M12.1927 15.4511C12.0507 15.4511 11.9357 15.3361 11.9357 15.1941C11.9357 15.0523 12.0507 14.9372 12.1927 14.9372C12.3346 14.9372 12.4497 15.0523 12.4497 15.1941C12.451 15.3361 12.3346 15.4511 12.1927 15.4511ZM12.1927 15.0881C12.1339 15.0881 12.0865 15.1353 12.0865 15.1941C12.0865 15.253 12.1339 15.3003 12.1927 15.3003C12.2515 15.3003 12.2988 15.253 12.2988 15.1941C12.2988 15.1353 12.2515 15.0881 12.1927 15.0881Z" fill="var(--fill-0, white)"/>
<path id="Vector_55" d="M11.2901 10.1772C11.1481 10.1772 11.0331 10.0622 11.0331 9.92026C11.0331 9.77834 11.1481 9.66327 11.2901 9.66327C11.4319 9.66327 11.547 9.77834 11.547 9.92026C11.547 10.0622 11.4319 10.1772 11.2901 10.1772ZM11.2901 9.81414C11.2312 9.81414 11.1839 9.86144 11.1839 9.92026C11.1839 9.97908 11.2312 10.0264 11.2901 10.0264C11.3489 10.0264 11.3961 9.97908 11.3961 9.92026C11.3961 9.86144 11.3489 9.81414 11.2901 9.81414Z" fill="var(--fill-0, white)"/>
<path id="Vector_56" d="M9.47643 10.1772C9.33456 10.1772 9.21941 10.0622 9.21941 9.92026C9.21941 9.77834 9.33456 9.66327 9.47643 9.66327C9.61841 9.66327 9.73344 9.77834 9.73344 9.92026C9.73344 10.0622 9.61841 10.1772 9.47643 10.1772ZM9.47643 9.81414C9.41763 9.81414 9.37038 9.86144 9.37038 9.92026C9.37038 9.97908 9.41763 10.0264 9.47643 10.0264C9.53523 10.0264 9.58259 9.97908 9.58259 9.92026C9.58259 9.86144 9.53523 9.81414 9.47643 9.81414Z" fill="var(--fill-0, white)"/>
<path id="Vector_57" d="M10.3853 15.1893C10.3853 15.3299 10.2716 15.4438 10.1309 15.4438C9.99031 15.4438 9.87644 15.3299 9.87644 15.1893C9.87644 15.0487 9.99031 14.9349 10.1309 14.9349C10.2716 14.9349 10.3853 15.0487 10.3853 15.1893Z" fill="var(--fill-0, white)"/>
<path id="Vector_58" d="M9.72831 15.1893C9.72831 15.3299 9.61444 15.4438 9.47386 15.4438C9.33316 15.4438 9.21941 15.3299 9.21941 15.1893C9.21941 15.0487 9.33316 14.9349 9.47386 14.9349C9.61444 14.9349 9.72831 15.0487 9.72831 15.1893Z" fill="var(--fill-0, white)"/>
<path id="Vector_59" d="M11.542 13.6266C11.542 13.7673 11.4282 13.8811 11.2875 13.8811C11.1469 13.8811 11.0331 13.7673 11.0331 13.6266C11.0331 13.4861 11.1469 13.3723 11.2875 13.3723C11.4282 13.3723 11.542 13.4861 11.542 13.6266Z" fill="var(--fill-0, white)"/>
<path id="Vector_60" d="M12.033 11.5646C12.033 11.7051 11.9193 11.8189 11.7786 11.8189C11.638 11.8189 11.5243 11.7051 11.5243 11.5646C11.5243 11.4239 11.638 11.3101 11.7786 11.3101C11.9193 11.3101 12.033 11.4239 12.033 11.5646Z" fill="var(--fill-0, white)"/>
<path id="Vector_61" d="M10.6393 12.4555C10.6393 12.5962 10.5255 12.7099 10.3849 12.7099C10.2442 12.7099 10.1304 12.5962 10.1304 12.4555C10.1304 12.3149 10.2442 12.2011 10.3849 12.2011C10.5242 12.2011 10.6393 12.3149 10.6393 12.4555Z" fill="var(--fill-0, white)"/>
<path id="Vector_62" d="M8.82137 11.5646C8.82137 11.7051 8.70762 11.8189 8.56703 11.8189C8.42633 11.8189 8.31258 11.7051 8.31258 11.5646C8.31258 11.4239 8.42633 11.3101 8.56703 11.3101C8.70762 11.3101 8.82137 11.4239 8.82137 11.5646Z" fill="var(--fill-0, white)"/>
<path id="Vector_63" d="M9.24281 15.0624L8.49101 14.3119V11.8188H8.64314V14.2493L9.34898 14.955L9.24281 15.0624Z" fill="var(--fill-0, white)"/>
<path id="Vector_64" d="M9.55207 7.98855H9.39994V9.73759H9.55207V7.98855Z" fill="var(--fill-0, white)"/>
<path id="Vector_65" d="M11.0347 14.2045H10.5629V14.3567H11.0347V14.2045Z" fill="var(--fill-0, white)"/>
<path id="Vector_66" d="M10.8785 10.9097C10.7367 10.9097 10.6216 10.7946 10.6216 10.6527C10.6216 10.5108 10.7367 10.3957 10.8785 10.3957C11.0205 10.3957 11.1356 10.5108 11.1356 10.6527C11.1356 10.7933 11.0205 10.9097 10.8785 10.9097ZM10.8785 10.5466C10.8197 10.5466 10.7725 10.5939 10.7725 10.6527C10.7725 10.7116 10.8197 10.7588 10.8785 10.7588C10.9375 10.7588 10.9847 10.7116 10.9847 10.6527C10.9847 10.5939 10.9362 10.5466 10.8785 10.5466Z" fill="var(--fill-0, white)"/>
<path id="Vector_67" d="M11.7813 10.9097C11.6393 10.9097 11.5243 10.7946 11.5243 10.6527C11.5243 10.5108 11.6393 10.3957 11.7813 10.3957C11.9231 10.3957 12.0382 10.5108 12.0382 10.6527C12.0382 10.7933 11.9231 10.9097 11.7813 10.9097ZM11.7813 10.5466C11.7225 10.5466 11.6751 10.5939 11.6751 10.6527C11.6751 10.7116 11.7225 10.7588 11.7813 10.7588C11.8401 10.7588 11.8873 10.7116 11.8873 10.6527C11.8873 10.5939 11.8388 10.5466 11.7813 10.5466Z" fill="var(--fill-0, white)"/>
<path id="Vector_68" d="M11.5322 10.5765H11.0604V10.7286H11.5322V10.5765Z" fill="var(--fill-0, white)"/>
<path id="Vector_69" d="M13.7975 14.0985H13.6453V10.6784L12.7376 9.76936V2.26782e-05H12.8885V9.70671L13.7975 10.6158V14.0985Z" fill="var(--fill-0, white)"/>
<path id="Vector_70" d="M15.6102 9.73879H15.4581V5.16545L16.3671 4.2564V1.59448L15.5028 0.730181H14.8073V0.579319H15.5654L16.518 1.53183V4.31905L15.6102 5.2281V9.73879Z" fill="var(--fill-0, white)"/>
<path id="Vector_71" d="M15.5728 15.2649H14.6331V15.114H15.5102L16.3745 14.2497V7.01317H16.5253V14.3123L15.5728 15.2649Z" fill="var(--fill-0, white)"/>
<path id="Vector_72" d="M15.6175 13.3724H15.4653V12.4955L14.5575 11.5864V7.95276L13.6486 7.04499V4.25649L14.5794 3.32571L14.6867 3.43312L13.8007 4.31914V6.98234L14.7085 7.89011V11.5237L15.6175 12.4328V13.3724Z" fill="var(--fill-0, white)"/>
<path id="Vector_73" d="M13.7208 14.5386C13.5789 14.5386 13.4639 14.4236 13.4639 14.2816C13.4639 14.1397 13.5789 14.0246 13.7208 14.0246C13.8627 14.0246 13.9778 14.1397 13.9778 14.2816C13.9778 14.4223 13.8627 14.5386 13.7208 14.5386ZM13.7208 14.1755C13.662 14.1755 13.6147 14.2228 13.6147 14.2816C13.6147 14.3404 13.662 14.3877 13.7208 14.3877C13.7797 14.3877 13.8269 14.3404 13.8269 14.2816C13.8256 14.2228 13.7784 14.1755 13.7208 14.1755Z" fill="var(--fill-0, white)"/>
<path id="Vector_74" d="M14.6256 14.5386C14.4836 14.5386 14.3686 14.4236 14.3686 14.2816C14.3686 14.1397 14.4836 14.0246 14.6256 14.0246C14.7675 14.0246 14.8826 14.1397 14.8826 14.2816C14.8839 14.4223 14.7675 14.5386 14.6256 14.5386ZM14.6256 14.1755C14.5668 14.1755 14.5194 14.2228 14.5194 14.2816C14.5194 14.3404 14.5668 14.3877 14.6256 14.3877C14.6844 14.3877 14.7317 14.3404 14.7317 14.2816C14.7317 14.2228 14.6844 14.1755 14.6256 14.1755Z" fill="var(--fill-0, white)"/>
<path id="Vector_75" d="M14.6256 13.6294C14.4836 13.6294 14.3686 13.5144 14.3686 13.3724C14.3686 13.2305 14.4836 13.1154 14.6256 13.1154C14.7675 13.1154 14.8826 13.2305 14.8826 13.3724C14.8839 13.5144 14.7675 13.6294 14.6256 13.6294ZM14.6256 13.2663C14.5668 13.2663 14.5194 13.3136 14.5194 13.3724C14.5194 13.4312 14.5668 13.4785 14.6256 13.4785C14.6844 13.4785 14.7317 13.4312 14.7317 13.3724C14.7317 13.3136 14.6844 13.2663 14.6256 13.2663Z" fill="var(--fill-0, white)"/>
<path id="Vector_76" d="M15.5282 14.5386C15.3864 14.5386 15.2712 14.4236 15.2712 14.2816C15.2712 14.1397 15.3864 14.0246 15.5282 14.0246C15.6702 14.0246 15.7853 14.1397 15.7853 14.2816C15.7865 14.4223 15.6702 14.5386 15.5282 14.5386ZM15.5282 14.1755C15.4694 14.1755 15.4222 14.2228 15.4222 14.2816C15.4222 14.3404 15.4694 14.3877 15.5282 14.3877C15.587 14.3877 15.6344 14.3404 15.6344 14.2816C15.6344 14.2228 15.587 14.1755 15.5282 14.1755Z" fill="var(--fill-0, white)"/>
<path id="Vector_77" d="M16.4414 15.4511C16.2994 15.4511 16.1843 15.3361 16.1843 15.1941C16.1843 15.0523 16.2994 14.9372 16.4414 14.9372C16.5832 14.9372 16.6984 15.0523 16.6984 15.1941C16.6984 15.3361 16.5832 15.4511 16.4414 15.4511ZM16.4414 15.0881C16.3826 15.0881 16.3352 15.1353 16.3352 15.1941C16.3352 15.253 16.3826 15.3003 16.4414 15.3003C16.5002 15.3003 16.5475 15.253 16.5475 15.1941C16.5475 15.1353 16.5002 15.0881 16.4414 15.0881Z" fill="var(--fill-0, white)"/>
<path id="Vector_78" d="M15.5387 10.1772C15.3968 10.1772 15.2817 10.0622 15.2817 9.92026C15.2817 9.77834 15.3968 9.66327 15.5387 9.66327C15.6806 9.66327 15.7958 9.77834 15.7958 9.92026C15.7958 10.0622 15.6806 10.1772 15.5387 10.1772ZM15.5387 9.81414C15.4799 9.81414 15.4326 9.86144 15.4326 9.92026C15.4326 9.97908 15.4799 10.0264 15.5387 10.0264C15.5975 10.0264 15.6448 9.97908 15.6448 9.92026C15.6448 9.86144 15.5963 9.81414 15.5387 9.81414Z" fill="var(--fill-0, white)"/>
<path id="Vector_79" d="M13.7208 10.1772C13.5789 10.1772 13.4639 10.0622 13.4639 9.92026C13.4639 9.77834 13.5789 9.66327 13.7208 9.66327C13.8627 9.66327 13.9778 9.77834 13.9778 9.92026C13.9778 10.0622 13.8627 10.1772 13.7208 10.1772ZM13.7208 9.81414C13.662 9.81414 13.6147 9.86144 13.6147 9.92026C13.6147 9.97908 13.662 10.0264 13.7208 10.0264C13.7797 10.0264 13.8269 9.97908 13.8269 9.92026C13.8269 9.86144 13.7784 9.81414 13.7208 9.81414Z" fill="var(--fill-0, white)"/>
<path id="Vector_80" d="M14.6298 15.1893C14.6298 15.3299 14.5159 15.4438 14.3753 15.4438C14.2346 15.4438 14.1209 15.3299 14.1209 15.1893C14.1209 15.0487 14.2346 14.9349 14.3753 14.9349C14.5159 14.9349 14.6298 15.0487 14.6298 15.1893Z" fill="var(--fill-0, white)"/>
<path id="Vector_81" d="M13.9749 15.1893C13.9749 15.3299 13.861 15.4438 13.7204 15.4438C13.5798 15.4438 13.466 15.3299 13.466 15.1893C13.466 15.0487 13.5798 14.9349 13.7204 14.9349C13.861 14.9349 13.9749 15.0487 13.9749 15.1893Z" fill="var(--fill-0, white)"/>
<path id="Vector_82" d="M15.7948 13.6266C15.7948 13.7673 15.6811 13.8811 15.5404 13.8811C15.3998 13.8811 15.2859 13.7673 15.2859 13.6266C15.2859 13.4861 15.3998 13.3723 15.5404 13.3723C15.6811 13.3723 15.7948 13.4861 15.7948 13.6266Z" fill="var(--fill-0, white)"/>
<path id="Vector_83" d="M16.2818 11.5646C16.2818 11.7051 16.168 11.8189 16.0274 11.8189C15.8867 11.8189 15.7729 11.7051 15.7729 11.5646C15.7729 11.4239 15.8867 11.3101 16.0274 11.3101C16.168 11.3101 16.2818 11.4239 16.2818 11.5646Z" fill="var(--fill-0, white)"/>
<path id="Vector_84" d="M14.8838 12.4555C14.8838 12.5962 14.77 12.7099 14.6293 12.7099C14.4888 12.7099 14.3749 12.5962 14.3749 12.4555C14.3749 12.3149 14.4888 12.2011 14.6293 12.2011C14.77 12.2011 14.8838 12.3149 14.8838 12.4555Z" fill="var(--fill-0, white)"/>
<path id="Vector_85" d="M13.0659 11.5646C13.0659 11.7051 12.9522 11.8189 12.8115 11.8189C12.6709 11.8189 12.557 11.7051 12.557 11.5646C12.557 11.4239 12.6709 11.3101 12.8115 11.3101C12.9522 11.3101 13.0659 11.4239 13.0659 11.5646Z" fill="var(--fill-0, white)"/>
<path id="Vector_86" d="M13.4881 15.0624L12.7376 14.3119V11.8188H12.8885V14.2493L13.5955 14.955L13.4881 15.0624Z" fill="var(--fill-0, white)"/>
<path id="Vector_87" d="M13.8007 7.98855H13.6486V9.73759H13.8007V7.98855Z" fill="var(--fill-0, white)"/>
<path id="Vector_88" d="M15.2791 14.2045H14.8073V14.3567H15.2791V14.2045Z" fill="var(--fill-0, white)"/>
<path id="Vector_89" d="M15.1273 10.9097C14.9853 10.9097 14.8703 10.7946 14.8703 10.6527C14.8703 10.5108 14.9853 10.3957 15.1273 10.3957C15.2692 10.3957 15.3843 10.5108 15.3843 10.6527C15.3856 10.7933 15.2692 10.9097 15.1273 10.9097ZM15.1273 10.5466C15.0685 10.5466 15.0211 10.5939 15.0211 10.6527C15.0211 10.7116 15.0685 10.7588 15.1273 10.7588C15.1861 10.7588 15.2335 10.7116 15.2335 10.6527C15.2335 10.5939 15.1861 10.5466 15.1273 10.5466Z" fill="var(--fill-0, white)"/>
<path id="Vector_90" d="M16.0256 10.9097C15.8838 10.9097 15.7687 10.7946 15.7687 10.6527C15.7687 10.5108 15.8838 10.3957 16.0256 10.3957C16.1676 10.3957 16.2826 10.5108 16.2826 10.6527C16.2839 10.7933 16.1676 10.9097 16.0256 10.9097ZM16.0256 10.5466C15.9668 10.5466 15.9196 10.5939 15.9196 10.6527C15.9196 10.7116 15.9668 10.7588 16.0256 10.7588C16.0844 10.7588 16.1318 10.7116 16.1318 10.6527C16.1318 10.5939 16.0844 10.5466 16.0256 10.5466Z" fill="var(--fill-0, white)"/>
<path id="Vector_91" d="M15.785 10.5765H15.3132V10.7286H15.785V10.5765Z" fill="var(--fill-0, white)"/>
<path id="Vector_92" d="M18.0453 14.0985H17.8932V10.6784L16.9841 9.76936V2.26782e-05H17.1363V9.70671L18.0453 10.6158V14.0985Z" fill="var(--fill-0, white)"/>
<path id="Vector_93" d="M19.8589 9.73833H19.7067V5.16499L20.6144 4.25594V1.59403L19.7514 0.729733H19.056V0.57886H19.8141L20.7667 1.53138V4.31859L19.8589 5.22764V9.73833Z" fill="var(--fill-0, white)"/>
<path id="Vector_94" d="M19.811 15.2644H18.8712V15.1135H19.7483L20.6113 14.2492V7.01265H20.7635V14.3118L19.811 15.2644Z" fill="var(--fill-0, white)"/>
<path id="Vector_95" d="M19.8557 13.372H19.7036V12.4949L18.7945 11.5858V7.95222L17.8867 7.04446V4.25596L18.8175 3.32519L18.925 3.43258L18.0389 4.31861V6.98181L18.9467 7.88957V11.5232L19.8557 12.4323V13.372Z" fill="var(--fill-0, white)"/>
<path id="Vector_96" d="M17.9652 14.5379C17.8234 14.5379 17.7083 14.4229 17.7083 14.2809C17.7083 14.1391 17.8234 14.024 17.9652 14.024C18.1072 14.024 18.2222 14.1391 18.2222 14.2809C18.2235 14.4216 18.1072 14.5379 17.9652 14.5379ZM17.9652 14.1749C17.9064 14.1749 17.8592 14.2221 17.8592 14.2809C17.8592 14.3397 17.9064 14.3871 17.9652 14.3871C18.024 14.3871 18.0714 14.3397 18.0714 14.2809C18.0714 14.2221 18.024 14.1749 17.9652 14.1749Z" fill="var(--fill-0, white)"/>
<path id="Vector_97" d="M18.8741 14.5379C18.7323 14.5379 18.6172 14.4229 18.6172 14.2809C18.6172 14.1391 18.7323 14.024 18.8741 14.024C19.0161 14.024 19.1312 14.1391 19.1312 14.2809C19.1312 14.4216 19.0161 14.5379 18.8741 14.5379ZM18.8741 14.1749C18.8153 14.1749 18.7681 14.2221 18.7681 14.2809C18.7681 14.3397 18.8153 14.3871 18.8741 14.3871C18.9329 14.3871 18.9803 14.3397 18.9803 14.2809C18.9803 14.2221 18.9317 14.1749 18.8741 14.1749Z" fill="var(--fill-0, white)"/>
<path id="Vector_98" d="M18.8741 13.6294C18.7323 13.6294 18.6172 13.5144 18.6172 13.3724C18.6172 13.2305 18.7323 13.1154 18.8741 13.1154C19.0161 13.1154 19.1312 13.2305 19.1312 13.3724C19.1312 13.5144 19.0161 13.6294 18.8741 13.6294ZM18.8741 13.2663C18.8153 13.2663 18.7681 13.3136 18.7681 13.3724C18.7681 13.4312 18.8153 13.4785 18.8741 13.4785C18.9329 13.4785 18.9803 13.4312 18.9803 13.3724C18.9803 13.3136 18.9317 13.2663 18.8741 13.2663Z" fill="var(--fill-0, white)"/>
<path id="Vector_99" d="M17.9652 10.1772C17.8234 10.1772 17.7083 10.0622 17.7083 9.92026C17.7083 9.77834 17.8234 9.66327 17.9652 9.66327C18.1072 9.66327 18.2222 9.77834 18.2222 9.92026C18.2235 10.0622 18.1072 10.1772 17.9652 10.1772ZM17.9652 9.81414C17.9064 9.81414 17.8592 9.86144 17.8592 9.92026C17.8592 9.97908 17.9064 10.0264 17.9652 10.0264C18.024 10.0264 18.0714 9.97908 18.0714 9.92026C18.0714 9.86144 18.024 9.81414 17.9652 9.81414Z" fill="var(--fill-0, white)"/>
<path id="Vector_100" d="M18.8741 15.1888C18.8741 15.3295 18.7604 15.4432 18.6197 15.4432C18.4791 15.4432 18.3653 15.3295 18.3653 15.1888C18.3653 15.0482 18.4791 14.9343 18.6197 14.9343C18.7604 14.9343 18.8741 15.0482 18.8741 15.1888Z" fill="var(--fill-0, white)"/>
<path id="Vector_101" d="M18.2172 15.1888C18.2172 15.3295 18.1034 15.4432 17.9628 15.4432C17.8221 15.4432 17.7083 15.3295 17.7083 15.1888C17.7083 15.0482 17.8221 14.9343 17.9628 14.9343C18.1034 14.9343 18.2172 15.0482 18.2172 15.1888Z" fill="var(--fill-0, white)"/>
<path id="Vector_102" d="M19.1324 12.4555C19.1324 12.5962 19.0186 12.7099 18.878 12.7099C18.7373 12.7099 18.6235 12.5962 18.6235 12.4555C18.6235 12.3149 18.7373 12.2011 18.878 12.2011C19.0186 12.2011 19.1324 12.3149 19.1324 12.4555Z" fill="var(--fill-0, white)"/>
<path id="Vector_103" d="M17.3104 11.564C17.3104 11.7046 17.1965 11.8185 17.0559 11.8185C16.9152 11.8185 16.8015 11.7046 16.8015 11.564C16.8015 11.4233 16.9152 11.3096 17.0559 11.3096C17.1965 11.3096 17.3104 11.4233 17.3104 11.564Z" fill="var(--fill-0, white)"/>
<path id="Vector_104" d="M17.7359 15.0624L16.9841 14.3119V11.8188H17.1363V14.2493L17.8434 14.955L17.7359 15.0624Z" fill="var(--fill-0, white)"/>
<path id="Vector_105" d="M18.0389 7.98855H17.8867V9.73759H18.0389V7.98855Z" fill="var(--fill-0, white)"/>
<path id="Vector_106" d="M19.5277 14.2045H19.056V14.3567H19.5277V14.2045Z" fill="var(--fill-0, white)"/>
<path id="Vector_107" d="M19.3739 10.9097C19.2319 10.9097 19.1168 10.7946 19.1168 10.6527C19.1168 10.5108 19.2319 10.3957 19.3739 10.3957C19.5157 10.3957 19.6308 10.5108 19.6308 10.6527C19.6308 10.7933 19.5157 10.9097 19.3739 10.9097ZM19.3739 10.5466C19.3151 10.5466 19.2677 10.5939 19.2677 10.6527C19.2677 10.7116 19.3151 10.7588 19.3739 10.7588C19.4327 10.7588 19.4799 10.7116 19.4799 10.6527C19.4799 10.5939 19.4314 10.5466 19.3739 10.5466Z" fill="var(--fill-0, white)"/>
<path id="Vector_108" d="M1.05992 30.1042H0.909045V26.6841L0 25.7764V16.0071H0.152146V25.7125L1.05992 26.6214V30.1042Z" fill="var(--fill-0, white)"/>
<path id="Vector_109" d="M2.87686 25.7446H2.726V21.1713L3.63376 20.2635V17.6004L2.76947 16.7361H2.07395V16.5852H2.83212L3.78591 17.5377V20.3262L2.87686 21.2339V25.7446Z" fill="var(--fill-0, white)"/>
<path id="Vector_110" d="M2.83105 31.2705H1.89132V31.1197H2.7684L3.6327 30.2553V23.0201H3.78485V30.3179L2.83105 31.2705Z" fill="var(--fill-0, white)"/>
<path id="Vector_111" d="M2.8745 29.3783H2.72363V28.5012L1.81459 27.5935V23.9599L0.906827 23.0508V20.2636L1.83632 19.3327L1.94373 19.4402L1.05769 20.3263V22.9882L1.96673 23.8972V27.5295L2.8745 28.4386V29.3783Z" fill="var(--fill-0, white)"/>
<path id="Vector_112" d="M1.89431 16.9186C1.7524 16.9186 1.63733 16.8035 1.63733 16.6617C1.63733 16.5197 1.7524 16.4046 1.89431 16.4046C2.03623 16.4046 2.1513 16.5197 2.1513 16.6617C2.1513 16.8035 2.03623 16.9186 1.89431 16.9186ZM1.89431 16.5542C1.8355 16.5542 1.78819 16.6015 1.78819 16.6604C1.78819 16.7192 1.8355 16.7664 1.89431 16.7664C1.95312 16.7664 2.00043 16.7192 2.00043 16.6604C2.00043 16.6015 1.95312 16.5542 1.89431 16.5542Z" fill="var(--fill-0, white)"/>
<path id="Vector_113" d="M1.89431 22.5036C1.7524 22.5036 1.63733 22.3885 1.63733 22.2467C1.63733 22.1047 1.7524 21.9897 1.89431 21.9897C2.03623 21.9897 2.1513 22.1047 2.1513 22.2467C2.15257 22.3873 2.03623 22.5036 1.89431 22.5036ZM1.89431 22.1405C1.8355 22.1405 1.78819 22.1879 1.78819 22.2467C1.78819 22.3055 1.8355 22.3527 1.89431 22.3527C1.95312 22.3527 2.00043 22.3055 2.00043 22.2467C2.00043 22.1879 1.95312 22.1405 1.89431 22.1405Z" fill="var(--fill-0, white)"/>
<path id="Vector_114" d="M3.70796 16.9186C3.56605 16.9186 3.45098 16.8035 3.45098 16.6617C3.45098 16.5197 3.56605 16.4046 3.70796 16.4046C3.84988 16.4046 3.96495 16.5197 3.96495 16.6617C3.96495 16.8035 3.84988 16.9186 3.70796 16.9186ZM3.70796 16.5542C3.64915 16.5542 3.60184 16.6015 3.60184 16.6604C3.60184 16.7192 3.64915 16.7664 3.70796 16.7664C3.76678 16.7664 3.81408 16.7192 3.81408 16.6604C3.81408 16.6015 3.76678 16.5542 3.70796 16.5542Z" fill="var(--fill-0, white)"/>
<path id="Vector_115" d="M3.70796 23.0955C3.56605 23.0955 3.45098 22.9804 3.45098 22.8385C3.45098 22.6965 3.56605 22.5815 3.70796 22.5815C3.84988 22.5815 3.96495 22.6965 3.96495 22.8385C3.96623 22.9804 3.84988 23.0955 3.70796 23.0955ZM3.70796 22.7323C3.64915 22.7323 3.60184 22.7797 3.60184 22.8385C3.60184 22.8973 3.64915 22.9446 3.70796 22.9446C3.76678 22.9446 3.81408 22.8973 3.81408 22.8385C3.81408 22.7797 3.76678 22.7323 3.70796 22.7323Z" fill="var(--fill-0, white)"/>
<path id="Vector_116" d="M2.80324 26.1841C2.66132 26.1841 2.54625 26.0691 2.54625 25.9272C2.54625 25.7852 2.66132 25.6702 2.80324 25.6702C2.94515 25.6702 3.06022 25.7852 3.06022 25.9272C3.06022 26.0678 2.94515 26.1841 2.80324 26.1841ZM2.80324 25.8197C2.74442 25.8197 2.69711 25.867 2.69711 25.9259C2.69711 25.9847 2.74442 26.032 2.80324 26.032C2.86205 26.032 2.90936 25.9847 2.90936 25.9259C2.90936 25.867 2.86205 25.8197 2.80324 25.8197Z" fill="var(--fill-0, white)"/>
<path id="Vector_117" d="M0.983284 26.1841C0.84137 26.1841 0.726301 26.0691 0.726301 25.9272C0.726301 25.7852 0.84137 25.6702 0.983284 25.6702C1.1252 25.6702 1.24027 25.7852 1.24027 25.9272C1.24027 26.0678 1.1252 26.1841 0.983284 26.1841ZM0.983284 25.8197C0.924472 25.8197 0.877164 25.867 0.877164 25.9259C0.877164 25.9847 0.924472 26.032 0.983284 26.032C1.0421 26.032 1.0894 25.9847 1.0894 25.9259C1.0894 25.867 1.0421 25.8197 0.983284 25.8197Z" fill="var(--fill-0, white)"/>
<path id="Vector_118" d="M0.983284 24.0707C0.84137 24.0707 0.726301 23.9556 0.726301 23.8136C0.726301 23.6718 0.84137 23.5567 0.983284 23.5567C1.1252 23.5567 1.24027 23.6718 1.24027 23.8136C1.24027 23.9556 1.1252 24.0707 0.983284 24.0707ZM0.983284 23.7076C0.924472 23.7076 0.877164 23.7548 0.877164 23.8136C0.877164 23.8724 0.924472 23.9198 0.983284 23.9198C1.0421 23.9198 1.0894 23.8724 1.0894 23.8136C1.0894 23.7548 1.0421 23.7076 0.983284 23.7076Z" fill="var(--fill-0, white)"/>
<path id="Vector_119" d="M0.983284 18.7557C0.84137 18.7557 0.726301 18.6407 0.726301 18.4988C0.726301 18.3568 0.84137 18.2418 0.983284 18.2418C1.1252 18.2418 1.24027 18.3568 1.24027 18.4988C1.24027 18.6394 1.1252 18.7557 0.983284 18.7557ZM0.983284 18.3914C0.924472 18.3914 0.877164 18.4387 0.877164 18.4975C0.877164 18.5563 0.924472 18.6036 0.983284 18.6036C1.0421 18.6036 1.0894 18.5563 1.0894 18.4975C1.0894 18.4387 1.0421 18.3914 0.983284 18.3914Z" fill="var(--fill-0, white)"/>
<path id="Vector_120" d="M2.14618 19.3867C2.14618 19.5272 2.0324 19.641 1.89175 19.641C1.75111 19.641 1.63733 19.5272 1.63733 19.3867C1.63733 19.246 1.75111 19.1322 1.89175 19.1322C2.0324 19.1322 2.14618 19.246 2.14618 19.3867Z" fill="var(--fill-0, white)"/>
<path id="Vector_121" d="M1.89175 17.8495C2.03227 17.8495 2.14618 17.7356 2.14618 17.5951C2.14618 17.4546 2.03227 17.3406 1.89175 17.3406C1.75124 17.3406 1.63733 17.4546 1.63733 17.5951C1.63733 17.7356 1.75124 17.8495 1.89175 17.8495Z" fill="var(--fill-0, white)"/>
<path id="Vector_122" d="M1.05769 18.3162H0.906827V16.6298L1.85934 15.6761H2.82975L3.57898 16.4253L3.47159 16.5326L2.7671 15.8282H1.92199L1.05769 16.6925V18.3162Z" fill="var(--fill-0, white)"/>
<path id="Vector_123" d="M1.05897 23.9954H0.906827V25.7445H1.05897V23.9954Z" fill="var(--fill-0, white)"/>
<path id="Vector_124" d="M1.97 22.0636H1.81785V21.1711L2.71538 20.2736V18.5297L1.96744 17.7817L2.07484 17.6744L2.86753 18.467V20.3362L1.97 21.2338V22.0636Z" fill="var(--fill-0, white)"/>
<path id="Vector_125" d="M5.30646 30.1042H5.15432V26.6841L4.24655 25.7764V16.0071H4.39743V25.7125L5.30646 26.6214V30.1042Z" fill="var(--fill-0, white)"/>
<path id="Vector_126" d="M7.12345 25.7446H6.97132V21.1713L7.88038 20.2635V17.6004L7.016 16.7361H6.3205V16.5852H7.07865L8.03124 17.5377V20.3262L7.12345 21.2339V25.7446Z" fill="var(--fill-0, white)"/>
<path id="Vector_127" d="M7.07764 31.2705H6.13788V31.1197H7.01499L7.87926 30.2553V23.0201H8.03011V30.3179L7.07764 31.2705Z" fill="var(--fill-0, white)"/>
<path id="Vector_128" d="M7.12232 29.3783H6.97019V28.5012L6.06243 27.5935V23.9599L5.15338 23.0508V20.2636L6.08416 19.3327L6.19155 19.4402L5.30553 20.3263V22.9882L6.21329 23.8972V27.5295L7.12232 28.4386V29.3783Z" fill="var(--fill-0, white)"/>
<path id="Vector_129" d="M6.13876 16.9186C5.99685 16.9186 5.88178 16.8035 5.88178 16.6617C5.88178 16.5197 5.99685 16.4046 6.13876 16.4046C6.28069 16.4046 6.39576 16.5197 6.39576 16.6617C6.39576 16.8035 6.28069 16.9186 6.13876 16.9186ZM6.13876 16.5542C6.07995 16.5542 6.03264 16.6015 6.03264 16.6604C6.03264 16.7192 6.07995 16.7664 6.13876 16.7664C6.19757 16.7664 6.24488 16.7192 6.24488 16.6604C6.24488 16.6015 6.19757 16.5542 6.13876 16.5542Z" fill="var(--fill-0, white)"/>
<path id="Vector_130" d="M6.13876 22.5036C5.99685 22.5036 5.88178 22.3885 5.88178 22.2467C5.88178 22.1047 5.99685 21.9897 6.13876 21.9897C6.28069 21.9897 6.39576 22.1047 6.39576 22.2467C6.39576 22.3873 6.28069 22.5036 6.13876 22.5036ZM6.13876 22.1405C6.07995 22.1405 6.03264 22.1879 6.03264 22.2467C6.03264 22.3055 6.07995 22.3527 6.13876 22.3527C6.19757 22.3527 6.24488 22.3055 6.24488 22.2467C6.24488 22.1879 6.19757 22.1405 6.13876 22.1405Z" fill="var(--fill-0, white)"/>
<path id="Vector_131" d="M7.95455 16.9186C7.81257 16.9186 7.69754 16.8035 7.69754 16.6617C7.69754 16.5197 7.81257 16.4046 7.95455 16.4046C8.09642 16.4046 8.21157 16.5197 8.21157 16.6617C8.21157 16.8035 8.09642 16.9186 7.95455 16.9186ZM7.95455 16.5542C7.89575 16.5542 7.84839 16.6015 7.84839 16.6604C7.84839 16.7192 7.89575 16.7664 7.95455 16.7664C8.01335 16.7664 8.0606 16.7192 8.0606 16.6604C8.0606 16.6015 8.01335 16.5542 7.95455 16.5542Z" fill="var(--fill-0, white)"/>
<path id="Vector_132" d="M7.95455 23.0955C7.81257 23.0955 7.69754 22.9804 7.69754 22.8385C7.69754 22.6965 7.81257 22.5815 7.95455 22.5815C8.09642 22.5815 8.21157 22.6965 8.21157 22.8385C8.21157 22.9804 8.09642 23.0955 7.95455 23.0955ZM7.95455 22.7323C7.89575 22.7323 7.84839 22.7797 7.84839 22.8385C7.84839 22.8973 7.89575 22.9446 7.95455 22.9446C8.01335 22.9446 8.0606 22.8973 8.0606 22.8385C8.0606 22.7797 8.01335 22.7323 7.95455 22.7323Z" fill="var(--fill-0, white)"/>
<path id="Vector_133" d="M7.04353 26.1841C6.90154 26.1841 6.78651 26.0691 6.78651 25.9272C6.78651 25.7852 6.90154 25.6702 7.04353 25.6702C7.18539 25.6702 7.30054 25.7852 7.30054 25.9272C7.30183 26.0678 7.18668 26.1841 7.04353 26.1841ZM7.04353 25.8197C6.98473 25.8197 6.93736 25.867 6.93736 25.9259C6.93736 25.9847 6.98473 26.032 7.04353 26.032C7.10233 26.032 7.14958 25.9847 7.14958 25.9259C7.14958 25.867 7.10233 25.8197 7.04353 25.8197Z" fill="var(--fill-0, white)"/>
<path id="Vector_134" d="M5.22774 26.1841C5.08583 26.1841 4.97076 26.0691 4.97076 25.9272C4.97076 25.7852 5.08583 25.6702 5.22774 25.6702C5.36966 25.6702 5.48473 25.7852 5.48473 25.9272C5.48601 26.0678 5.37094 26.1841 5.22774 26.1841ZM5.22774 25.8197C5.16893 25.8197 5.12163 25.867 5.12163 25.9259C5.12163 25.9847 5.16893 26.032 5.22774 26.032C5.28655 26.032 5.33386 25.9847 5.33386 25.9259C5.33386 25.867 5.28655 25.8197 5.22774 25.8197Z" fill="var(--fill-0, white)"/>
<path id="Vector_135" d="M5.22774 24.0707C5.08583 24.0707 4.97076 23.9556 4.97076 23.8136C4.97076 23.6718 5.08583 23.5567 5.22774 23.5567C5.36966 23.5567 5.48473 23.6718 5.48473 23.8136C5.48601 23.9556 5.37094 24.0707 5.22774 24.0707ZM5.22774 23.7076C5.16893 23.7076 5.12163 23.7548 5.12163 23.8136C5.12163 23.8724 5.16893 23.9198 5.22774 23.9198C5.28655 23.9198 5.33386 23.8724 5.33386 23.8136C5.33386 23.7548 5.28655 23.7076 5.22774 23.7076Z" fill="var(--fill-0, white)"/>
<path id="Vector_136" d="M5.22774 18.7557C5.08583 18.7557 4.97076 18.6407 4.97076 18.4988C4.97076 18.3568 5.08583 18.2418 5.22774 18.2418C5.36966 18.2418 5.48473 18.3568 5.48473 18.4988C5.48601 18.6394 5.37094 18.7557 5.22774 18.7557ZM5.22774 18.3914C5.16893 18.3914 5.12163 18.4387 5.12163 18.4975C5.12163 18.5563 5.16893 18.6036 5.22774 18.6036C5.28655 18.6036 5.33386 18.5563 5.33386 18.4975C5.33386 18.4387 5.28655 18.3914 5.22774 18.3914Z" fill="var(--fill-0, white)"/>
<path id="Vector_137" d="M4.57698 15.7528C4.57698 15.8935 4.4632 16.0072 4.32255 16.0072C4.18191 16.0072 4.06813 15.8935 4.06813 15.7528C4.06813 15.6122 4.18191 15.4983 4.32255 15.4983C4.4632 15.4983 4.57698 15.6122 4.57698 15.7528Z" fill="var(--fill-0, white)"/>
<path id="Vector_138" d="M6.39064 19.3867C6.39064 19.5272 6.27685 19.641 6.13621 19.641C5.99557 19.641 5.88178 19.5272 5.88178 19.3867C5.88178 19.246 5.99557 19.1322 6.13621 19.1322C6.27685 19.1322 6.39064 19.246 6.39064 19.3867Z" fill="var(--fill-0, white)"/>
<path id="Vector_139" d="M6.13621 17.8495C6.27673 17.8495 6.39064 17.7356 6.39064 17.5951C6.39064 17.4546 6.27673 17.3406 6.13621 17.3406C5.9957 17.3406 5.88178 17.4546 5.88178 17.5951C5.88178 17.7356 5.9957 17.8495 6.13621 17.8495Z" fill="var(--fill-0, white)"/>
<path id="Vector_140" d="M5.30553 18.3162H5.15338V16.6298L6.1059 15.6761H7.07764L7.82676 16.4253L7.71942 16.5326L7.01499 15.8282H6.16982L5.30553 16.6925V18.3162Z" fill="var(--fill-0, white)"/>
<path id="Vector_141" d="M5.30553 23.9954H5.15338V25.7445H5.30553V23.9954Z" fill="var(--fill-0, white)"/>
<path id="Vector_142" d="M6.21737 22.0636H6.06651V21.1711L6.96409 20.2736V18.5297L6.2161 17.7817L6.32349 17.6744L7.11494 18.467V20.3362L6.21737 21.2338V22.0636Z" fill="var(--fill-0, white)"/>
<path id="Vector_143" d="M9.55093 30.1042H9.40008V26.6841L8.49101 25.7764V16.0071H8.64314V25.7125L9.55093 26.6214V30.1042Z" fill="var(--fill-0, white)"/>
<path id="Vector_144" d="M11.3646 25.7446H11.2136V21.1713L12.1214 20.2635V17.6004L11.2571 16.7361H10.5629V16.5852H11.3211L12.2735 17.5377V20.3262L11.3646 21.2339V25.7446Z" fill="var(--fill-0, white)"/>
<path id="Vector_145" d="M11.322 31.2705H10.3823V31.1197H11.258L12.1224 30.2553V23.0201H12.2746V30.3179L11.322 31.2705Z" fill="var(--fill-0, white)"/>
<path id="Vector_146" d="M11.3676 29.3783H11.2168V28.5012L10.3077 27.5935V23.9599L9.39994 23.0508V20.2636L10.3307 19.3327L10.4382 19.4402L9.55079 20.3263V22.9882L10.4599 23.8972V27.5295L11.3676 28.4386V29.3783Z" fill="var(--fill-0, white)"/>
<path id="Vector_147" d="M10.381 16.9186C10.2392 16.9186 10.1241 16.8035 10.1241 16.6617C10.1241 16.5197 10.2392 16.4046 10.381 16.4046C10.523 16.4046 10.6381 16.5197 10.6381 16.6617C10.6381 16.8035 10.523 16.9186 10.381 16.9186ZM10.381 16.5542C10.3222 16.5542 10.275 16.6015 10.275 16.6604C10.275 16.7192 10.3222 16.7664 10.381 16.7664C10.4398 16.7664 10.4872 16.7192 10.4872 16.6604C10.4872 16.6015 10.4386 16.5542 10.381 16.5542Z" fill="var(--fill-0, white)"/>
<path id="Vector_148" d="M10.381 22.5036C10.2392 22.5036 10.1241 22.3885 10.1241 22.2467C10.1241 22.1047 10.2392 21.9897 10.381 21.9897C10.523 21.9897 10.6381 22.1047 10.6381 22.2467C10.6381 22.3873 10.523 22.5036 10.381 22.5036ZM10.381 22.1405C10.3222 22.1405 10.275 22.1879 10.275 22.2467C10.275 22.3055 10.3222 22.3527 10.381 22.3527C10.4398 22.3527 10.4872 22.3055 10.4872 22.2467C10.4859 22.1879 10.4386 22.1405 10.381 22.1405Z" fill="var(--fill-0, white)"/>
<path id="Vector_149" d="M12.2011 16.9186C12.0591 16.9186 11.9441 16.8035 11.9441 16.6617C11.9441 16.5197 12.0591 16.4046 12.2011 16.4046C12.343 16.4046 12.458 16.5197 12.458 16.6617C12.458 16.8035 12.343 16.9186 12.2011 16.9186ZM12.2011 16.5542C12.1422 16.5542 12.0949 16.6015 12.0949 16.6604C12.0949 16.7192 12.1422 16.7664 12.2011 16.7664C12.2599 16.7664 12.3072 16.7192 12.3072 16.6604C12.3072 16.6015 12.2586 16.5542 12.2011 16.5542Z" fill="var(--fill-0, white)"/>
<path id="Vector_150" d="M12.2011 23.0955C12.0591 23.0955 11.9441 22.9804 11.9441 22.8385C11.9441 22.6965 12.0591 22.5815 12.2011 22.5815C12.343 22.5815 12.458 22.6965 12.458 22.8385C12.458 22.9804 12.343 23.0955 12.2011 23.0955ZM12.2011 22.7323C12.1422 22.7323 12.0949 22.7797 12.0949 22.8385C12.0949 22.8973 12.1422 22.9446 12.2011 22.9446C12.2599 22.9446 12.3072 22.8973 12.3072 22.8385C12.3072 22.7797 12.2586 22.7323 12.2011 22.7323Z" fill="var(--fill-0, white)"/>
<path id="Vector_151" d="M11.2901 26.1841C11.1481 26.1841 11.0331 26.0691 11.0331 25.9272C11.0331 25.7852 11.1481 25.6702 11.2901 25.6702C11.4319 25.6702 11.547 25.7852 11.547 25.9272C11.547 26.0678 11.4319 26.1841 11.2901 26.1841ZM11.2901 25.8197C11.2312 25.8197 11.1839 25.867 11.1839 25.9259C11.1839 25.9847 11.2312 26.032 11.2901 26.032C11.3489 26.032 11.3961 25.9847 11.3961 25.9259C11.3961 25.867 11.3489 25.8197 11.2901 25.8197Z" fill="var(--fill-0, white)"/>
<path id="Vector_152" d="M9.47643 26.1841C9.33456 26.1841 9.21941 26.0691 9.21941 25.9272C9.21941 25.7852 9.33456 25.6702 9.47643 25.6702C9.61841 25.6702 9.73344 25.7852 9.73344 25.9272C9.73344 26.0678 9.61841 26.1841 9.47643 26.1841ZM9.47643 25.8197C9.41763 25.8197 9.37038 25.867 9.37038 25.9259C9.37038 25.9847 9.41763 26.032 9.47643 26.032C9.53523 26.032 9.58259 25.9847 9.58259 25.9259C9.58259 25.867 9.53523 25.8197 9.47643 25.8197Z" fill="var(--fill-0, white)"/>
<path id="Vector_153" d="M9.47643 24.0707C9.33456 24.0707 9.21941 23.9556 9.21941 23.8136C9.21941 23.6718 9.33456 23.5567 9.47643 23.5567C9.61841 23.5567 9.73344 23.6718 9.73344 23.8136C9.73344 23.9556 9.61841 24.0707 9.47643 24.0707ZM9.47643 23.7076C9.41763 23.7076 9.37038 23.7548 9.37038 23.8136C9.37038 23.8724 9.41763 23.9198 9.47643 23.9198C9.53523 23.9198 9.58259 23.8724 9.58259 23.8136C9.58259 23.7548 9.53523 23.7076 9.47643 23.7076Z" fill="var(--fill-0, white)"/>
<path id="Vector_154" d="M9.47643 18.7557C9.33456 18.7557 9.21941 18.6407 9.21941 18.4988C9.21941 18.3568 9.33456 18.2418 9.47643 18.2418C9.61841 18.2418 9.73344 18.3568 9.73344 18.4988C9.73344 18.6394 9.61841 18.7557 9.47643 18.7557ZM9.47643 18.3914C9.41763 18.3914 9.37038 18.4387 9.37038 18.4975C9.37038 18.5563 9.41763 18.6036 9.47643 18.6036C9.53523 18.6036 9.58259 18.5563 9.58259 18.4975C9.58259 18.4387 9.53523 18.3914 9.47643 18.3914Z" fill="var(--fill-0, white)"/>
<path id="Vector_155" d="M8.82137 15.7528C8.82137 15.8935 8.70762 16.0072 8.56703 16.0072C8.42633 16.0072 8.31258 15.8935 8.31258 15.7528C8.31258 15.6122 8.42633 15.4983 8.56703 15.4983C8.70762 15.4983 8.82137 15.6122 8.82137 15.7528Z" fill="var(--fill-0, white)"/>
<path id="Vector_156" d="M10.6393 19.3867C10.6393 19.5272 10.5255 19.641 10.3849 19.641C10.2442 19.641 10.1304 19.5272 10.1304 19.3867C10.1304 19.246 10.2442 19.1322 10.3849 19.1322C10.5242 19.1322 10.6393 19.246 10.6393 19.3867Z" fill="var(--fill-0, white)"/>
<path id="Vector_157" d="M10.3849 17.8495C10.5254 17.8495 10.6393 17.7356 10.6393 17.5951C10.6393 17.4546 10.5254 17.3406 10.3849 17.3406C10.2443 17.3406 10.1304 17.4546 10.1304 17.5951C10.1304 17.7356 10.2443 17.8495 10.3849 17.8495Z" fill="var(--fill-0, white)"/>
<path id="Vector_158" d="M9.55079 18.3162H9.39994V16.6298L10.3525 15.6761H11.3241L12.0721 16.4253L11.966 16.5326L11.2602 15.8282H10.4151L9.55079 16.6925V18.3162Z" fill="var(--fill-0, white)"/>
<path id="Vector_159" d="M9.55207 23.9954H9.39994V25.7445H9.55207V23.9954Z" fill="var(--fill-0, white)"/>
<path id="Vector_160" d="M10.4589 22.0636H10.3068V21.1711L11.2043 20.2736V18.5297L10.4576 17.7817L10.5638 17.6744L11.3565 18.467V20.3362L10.4589 21.2338V22.0636Z" fill="var(--fill-0, white)"/>
<path id="Vector_161" d="M13.7975 30.1042H13.6453V26.6841L12.7376 25.7764V16.0071H12.8885V25.7125L13.7975 26.6214V30.1042Z" fill="var(--fill-0, white)"/>
<path id="Vector_162" d="M15.6102 25.7446H15.4581V21.1713L16.3671 20.2635V17.6004L15.5028 16.7361H14.8073V16.5852H15.5654L16.518 17.5377V20.3262L15.6102 21.2339V25.7446Z" fill="var(--fill-0, white)"/>
<path id="Vector_163" d="M15.5728 31.2705H14.6331V31.1197H15.5102L16.3745 30.2553V23.0201H16.5253V30.3179L15.5728 31.2705Z" fill="var(--fill-0, white)"/>
<path id="Vector_164" d="M15.6175 29.3783H15.4653V28.5012L14.5575 27.5935V23.9599L13.6486 23.0508V20.2636L14.5794 19.3327L14.6867 19.4402L13.8007 20.3263V22.9882L14.7085 23.8972V27.5295L15.6175 28.4386V29.3783Z" fill="var(--fill-0, white)"/>
<path id="Vector_165" d="M14.6256 16.9186C14.4836 16.9186 14.3686 16.8035 14.3686 16.6617C14.3686 16.5197 14.4836 16.4046 14.6256 16.4046C14.7675 16.4046 14.8826 16.5197 14.8826 16.6617C14.8826 16.8035 14.7675 16.9186 14.6256 16.9186ZM14.6256 16.5542C14.5668 16.5542 14.5194 16.6015 14.5194 16.6604C14.5194 16.7192 14.5668 16.7664 14.6256 16.7664C14.6844 16.7664 14.7317 16.7192 14.7317 16.6604C14.7317 16.6015 14.6844 16.5542 14.6256 16.5542Z" fill="var(--fill-0, white)"/>
<path id="Vector_166" d="M14.6256 22.5036C14.4836 22.5036 14.3686 22.3885 14.3686 22.2467C14.3686 22.1047 14.4836 21.9897 14.6256 21.9897C14.7675 21.9897 14.8826 22.1047 14.8826 22.2467C14.8839 22.3873 14.7675 22.5036 14.6256 22.5036ZM14.6256 22.1405C14.5668 22.1405 14.5194 22.1879 14.5194 22.2467C14.5194 22.3055 14.5668 22.3527 14.6256 22.3527C14.6844 22.3527 14.7317 22.3055 14.7317 22.2467C14.7317 22.1879 14.6844 22.1405 14.6256 22.1405Z" fill="var(--fill-0, white)"/>
<path id="Vector_167" d="M16.4456 16.9186C16.3037 16.9186 16.1885 16.8035 16.1885 16.6617C16.1885 16.5197 16.3037 16.4046 16.4456 16.4046C16.5874 16.4046 16.7026 16.5197 16.7026 16.6617C16.7026 16.8035 16.5874 16.9186 16.4456 16.9186ZM16.4456 16.5542C16.3868 16.5542 16.3394 16.6015 16.3394 16.6604C16.3394 16.7192 16.3868 16.7664 16.4456 16.7664C16.5044 16.7664 16.5517 16.7192 16.5517 16.6604C16.5517 16.6015 16.5044 16.5542 16.4456 16.5542Z" fill="var(--fill-0, white)"/>
<path id="Vector_168" d="M16.4456 23.0955C16.3037 23.0955 16.1885 22.9804 16.1885 22.8385C16.1885 22.6965 16.3037 22.5815 16.4456 22.5815C16.5874 22.5815 16.7026 22.6965 16.7026 22.8385C16.7039 22.9804 16.5874 23.0955 16.4456 23.0955ZM16.4456 22.7323C16.3868 22.7323 16.3394 22.7797 16.3394 22.8385C16.3394 22.8973 16.3868 22.9446 16.4456 22.9446C16.5044 22.9446 16.5517 22.8973 16.5517 22.8385C16.5517 22.7797 16.5044 22.7323 16.4456 22.7323Z" fill="var(--fill-0, white)"/>
<path id="Vector_169" d="M15.5387 26.1841C15.3968 26.1841 15.2817 26.0691 15.2817 25.9272C15.2817 25.7852 15.3968 25.6702 15.5387 25.6702C15.6806 25.6702 15.7958 25.7852 15.7958 25.9272C15.7958 26.0678 15.6806 26.1841 15.5387 26.1841ZM15.5387 25.8197C15.4799 25.8197 15.4326 25.867 15.4326 25.9259C15.4326 25.9847 15.4799 26.032 15.5387 26.032C15.5975 26.032 15.6448 25.9847 15.6448 25.9259C15.6448 25.867 15.5963 25.8197 15.5387 25.8197Z" fill="var(--fill-0, white)"/>
<path id="Vector_170" d="M13.7208 26.1841C13.5789 26.1841 13.4639 26.0691 13.4639 25.9272C13.4639 25.7852 13.5789 25.6702 13.7208 25.6702C13.8627 25.6702 13.9778 25.7852 13.9778 25.9272C13.9778 26.0678 13.8627 26.1841 13.7208 26.1841ZM13.7208 25.8197C13.662 25.8197 13.6147 25.867 13.6147 25.9259C13.6147 25.9847 13.662 26.032 13.7208 26.032C13.7797 26.032 13.8269 25.9847 13.8269 25.9259C13.8269 25.867 13.7784 25.8197 13.7208 25.8197Z" fill="var(--fill-0, white)"/>
<path id="Vector_171" d="M13.7208 24.0707C13.5789 24.0707 13.4639 23.9556 13.4639 23.8136C13.4639 23.6718 13.5789 23.5567 13.7208 23.5567C13.8627 23.5567 13.9778 23.6718 13.9778 23.8136C13.9778 23.9556 13.8627 24.0707 13.7208 24.0707ZM13.7208 23.7076C13.662 23.7076 13.6147 23.7548 13.6147 23.8136C13.6147 23.8724 13.662 23.9198 13.7208 23.9198C13.7797 23.9198 13.8269 23.8724 13.8269 23.8136C13.8256 23.7548 13.7784 23.7076 13.7208 23.7076Z" fill="var(--fill-0, white)"/>
<path id="Vector_172" d="M13.7208 18.7557C13.5789 18.7557 13.4639 18.6407 13.4639 18.4988C13.4639 18.3568 13.5789 18.2418 13.7208 18.2418C13.8627 18.2418 13.9778 18.3568 13.9778 18.4988C13.9778 18.6394 13.8627 18.7557 13.7208 18.7557ZM13.7208 18.3914C13.662 18.3914 13.6147 18.4387 13.6147 18.4975C13.6147 18.5563 13.662 18.6036 13.7208 18.6036C13.7797 18.6036 13.8269 18.5563 13.8269 18.4975C13.8269 18.4387 13.7784 18.3914 13.7208 18.3914Z" fill="var(--fill-0, white)"/>
<path id="Vector_173" d="M13.0659 15.7528C13.0659 15.8935 12.9522 16.0072 12.8115 16.0072C12.6709 16.0072 12.557 15.8935 12.557 15.7528C12.557 15.6122 12.6709 15.4983 12.8115 15.4983C12.9522 15.4983 13.0659 15.6122 13.0659 15.7528Z" fill="var(--fill-0, white)"/>
<path id="Vector_174" d="M14.8838 19.3867C14.8838 19.5272 14.77 19.641 14.6293 19.641C14.4888 19.641 14.3749 19.5272 14.3749 19.3867C14.3749 19.246 14.4888 19.1322 14.6293 19.1322C14.77 19.1322 14.8838 19.246 14.8838 19.3867Z" fill="var(--fill-0, white)"/>
<path id="Vector_175" d="M14.6293 17.8495C14.7699 17.8495 14.8838 17.7356 14.8838 17.5951C14.8838 17.4546 14.7699 17.3406 14.6293 17.3406C14.4889 17.3406 14.3749 17.4546 14.3749 17.5951C14.3749 17.7356 14.4889 17.8495 14.6293 17.8495Z" fill="var(--fill-0, white)"/>
<path id="Vector_176" d="M13.8007 18.3162H13.6486V16.6298L14.6023 15.6761H15.5728L16.322 16.4253L16.2146 16.5326L15.5101 15.8282H14.665L13.8007 16.6925V18.3162Z" fill="var(--fill-0, white)"/>
<path id="Vector_177" d="M13.8007 23.9954H13.6486V25.7445H13.8007V23.9954Z" fill="var(--fill-0, white)"/>
<path id="Vector_178" d="M14.7042 22.0636H14.5533V21.1711L15.4508 20.2736V18.5297L14.7029 17.7817L14.8102 17.6744L15.603 18.467V20.3362L14.7042 21.2338V22.0636Z" fill="var(--fill-0, white)"/>
<path id="Vector_179" d="M18.0453 30.1042H17.8932V26.6841L16.9841 25.7764V16.0071H17.1363V25.7125L18.0453 26.6214V30.1042Z" fill="var(--fill-0, white)"/>
<path id="Vector_180" d="M19.8589 25.7446H19.7067V21.1713L20.6144 20.2635V17.6004L19.7514 16.7361H19.056V16.5852H19.8141L20.7667 17.5377V20.3262L19.8589 21.2339V25.7446Z" fill="var(--fill-0, white)"/>
<path id="Vector_181" d="M19.811 31.2705H18.8712V31.1197H19.7483L20.6113 30.2553V23.0201H20.7635V30.3179L19.811 31.2705Z" fill="var(--fill-0, white)"/>
<path id="Vector_182" d="M19.8557 29.3783H19.7036V28.5012L18.7945 27.5935V23.9599L17.8867 23.0508V20.2636L18.8175 19.3327L18.925 19.4402L18.0389 20.3263V22.9882L18.9467 23.8972V27.5295L19.8557 28.4386V29.3783Z" fill="var(--fill-0, white)"/>
<path id="Vector_183" d="M18.8741 16.9186C18.7323 16.9186 18.6172 16.8035 18.6172 16.6617C18.6172 16.5197 18.7323 16.4046 18.8741 16.4046C19.0161 16.4046 19.1312 16.5197 19.1312 16.6617C19.1312 16.8035 19.0161 16.9186 18.8741 16.9186ZM18.8741 16.5542C18.8153 16.5542 18.7681 16.6015 18.7681 16.6604C18.7681 16.7192 18.8153 16.7664 18.8741 16.7664C18.9329 16.7664 18.9803 16.7192 18.9803 16.6604C18.9803 16.6015 18.9317 16.5542 18.8741 16.5542Z" fill="var(--fill-0, white)"/>
<path id="Vector_184" d="M18.8741 22.5036C18.7323 22.5036 18.6172 22.3885 18.6172 22.2467C18.6172 22.1047 18.7323 21.9897 18.8741 21.9897C19.0161 21.9897 19.1312 22.1047 19.1312 22.2467C19.1312 22.3873 19.0161 22.5036 18.8741 22.5036ZM18.8741 22.1405C18.8153 22.1405 18.7681 22.1879 18.7681 22.2467C18.7681 22.3055 18.8153 22.3527 18.8741 22.3527C18.9329 22.3527 18.9803 22.3055 18.9803 22.2467C18.9803 22.1879 18.9317 22.1405 18.8741 22.1405Z" fill="var(--fill-0, white)"/>
<path id="Vector_185" d="M17.9652 26.1841C17.8234 26.1841 17.7083 26.0691 17.7083 25.9272C17.7083 25.7852 17.8234 25.6702 17.9652 25.6702C18.1072 25.6702 18.2222 25.7852 18.2222 25.9272C18.2235 26.0678 18.1072 26.1841 17.9652 26.1841ZM17.9652 25.8197C17.9064 25.8197 17.8592 25.867 17.8592 25.9259C17.8592 25.9847 17.9064 26.032 17.9652 26.032C18.024 26.032 18.0714 25.9847 18.0714 25.9259C18.0714 25.867 18.024 25.8197 17.9652 25.8197Z" fill="var(--fill-0, white)"/>
<path id="Vector_186" d="M17.9652 24.0707C17.8234 24.0707 17.7083 23.9556 17.7083 23.8136C17.7083 23.6718 17.8234 23.5567 17.9652 23.5567C18.1072 23.5567 18.2222 23.6718 18.2222 23.8136C18.2235 23.9556 18.1072 24.0707 17.9652 24.0707ZM17.9652 23.7076C17.9064 23.7076 17.8592 23.7548 17.8592 23.8136C17.8592 23.8724 17.9064 23.9198 17.9652 23.9198C18.024 23.9198 18.0714 23.8724 18.0714 23.8136C18.0714 23.7548 18.024 23.7076 17.9652 23.7076Z" fill="var(--fill-0, white)"/>
<path id="Vector_187" d="M17.9652 18.7557C17.8234 18.7557 17.7083 18.6407 17.7083 18.4988C17.7083 18.3568 17.8234 18.2418 17.9652 18.2418C18.1072 18.2418 18.2222 18.3568 18.2222 18.4988C18.2235 18.6394 18.1072 18.7557 17.9652 18.7557ZM17.9652 18.3914C17.9064 18.3914 17.8592 18.4387 17.8592 18.4975C17.8592 18.5563 17.9064 18.6036 17.9652 18.6036C18.024 18.6036 18.0714 18.5563 18.0714 18.4975C18.0714 18.4387 18.024 18.3914 17.9652 18.3914Z" fill="var(--fill-0, white)"/>
<path id="Vector_188" d="M17.3104 15.7528C17.3104 15.8935 17.1965 16.0072 17.0559 16.0072C16.9152 16.0072 16.8015 15.8935 16.8015 15.7528C16.8015 15.6122 16.9152 15.4983 17.0559 15.4983C17.1965 15.4983 17.3104 15.6122 17.3104 15.7528Z" fill="var(--fill-0, white)"/>
<path id="Vector_189" d="M19.1324 19.3867C19.1324 19.5272 19.0186 19.641 18.878 19.641C18.7373 19.641 18.6235 19.5272 18.6235 19.3867C18.6235 19.246 18.7373 19.1322 18.878 19.1322C19.0186 19.1322 19.1324 19.246 19.1324 19.3867Z" fill="var(--fill-0, white)"/>
<path id="Vector_190" d="M18.878 17.8495C19.0185 17.8495 19.1324 17.7356 19.1324 17.5951C19.1324 17.4546 19.0185 17.3406 18.878 17.3406C18.7374 17.3406 18.6235 17.4546 18.6235 17.5951C18.6235 17.7356 18.7374 17.8495 18.878 17.8495Z" fill="var(--fill-0, white)"/>
<path id="Vector_191" d="M18.0389 18.3162H17.8867V16.6298L18.8393 15.6761H19.8109L20.5602 16.4253L20.4528 16.5326L19.7483 15.8282H18.902L18.0389 16.6925V18.3162Z" fill="var(--fill-0, white)"/>
<path id="Vector_192" d="M18.0389 23.9954H17.8867V25.7445H18.0389V23.9954Z" fill="var(--fill-0, white)"/>
<path id="Vector_193" d="M18.952 22.0636H18.7999V21.1711L19.6987 20.2736V18.5297L18.9507 17.7817L19.0581 17.6744L19.8495 18.467V20.3362L18.952 21.2338V22.0636Z" fill="var(--fill-0, white)"/>
</g>
</svg>
