<svg preserveAspectRatio="none" width="100%" height="100%" overflow="visible" style="display: block;" viewBox="0 0 7.30684 31.2705" fill="none" xmlns="http://www.w3.org/2000/svg">
<g id="Group">
<path id="Vector" d="M1.97212 9.73831H1.81999V5.16497L2.72906 4.25592V1.594L1.86479 0.729711H1.16922V0.578837H1.92744L2.88119 1.53135V4.31857L1.97212 5.22762V9.73831Z" fill="var(--fill-0, white)"/>
<path id="Vector_2" d="M1.92425 15.2644H0.984495V15.1135H1.8616L2.72586 14.2491V7.01263H2.87812V14.3118L1.92425 15.2644Z" fill="var(--fill-0, white)"/>
<path id="Vector_3" d="M2.80117 15.4511C2.65919 15.4511 2.54415 15.3361 2.54415 15.1941C2.54415 15.0522 2.65919 14.9372 2.80117 14.9372C2.94304 14.9372 3.05807 15.0522 3.05807 15.1941C3.05807 15.3361 2.94304 15.4511 2.80117 15.4511ZM2.80117 15.088C2.74226 15.088 2.69501 15.1353 2.69501 15.1941C2.69501 15.253 2.74226 15.3003 2.80117 15.3003C2.85997 15.3003 2.90722 15.253 2.90722 15.1941C2.90722 15.1353 2.85997 15.088 2.80117 15.088Z" fill="var(--fill-0, white)"/>
<path id="Vector_4" d="M2.63533 11.564C2.63533 11.7046 2.52158 11.8185 2.38088 11.8185C2.24029 11.8185 2.12643 11.7046 2.12643 11.564C2.12643 11.4233 2.24029 11.3096 2.38088 11.3096C2.52158 11.3096 2.63533 11.4233 2.63533 11.564Z" fill="var(--fill-0, white)"/>
<path id="Vector_5" d="M2.38344 10.9096C2.24146 10.9096 2.12643 10.7946 2.12643 10.6527C2.12643 10.5108 2.24146 10.3957 2.38344 10.3957C2.52531 10.3957 2.64034 10.5108 2.64034 10.6527C2.64163 10.7933 2.52531 10.9096 2.38344 10.9096ZM2.38344 10.5466C2.32453 10.5466 2.27728 10.5939 2.27728 10.6527C2.27728 10.7115 2.32453 10.7588 2.38344 10.7588C2.44224 10.7588 2.48949 10.7115 2.48949 10.6527C2.48949 10.5939 2.44224 10.5466 2.38344 10.5466Z" fill="var(--fill-0, white)"/>
<path id="Vector_6" d="M4.39755 14.0984H4.24541V10.6784L3.33763 9.76934V0H3.4886V9.70669L4.39755 10.6157V14.0984Z" fill="var(--fill-0, white)"/>
<path id="Vector_7" d="M6.21658 9.73877H6.06444V5.16543L6.97351 4.25638V1.59446L6.10924 0.730158H5.41367V0.579296H6.17189L7.12436 1.53181V4.31903L6.21658 5.22808V9.73877Z" fill="var(--fill-0, white)"/>
<path id="Vector_8" d="M6.1729 15.2649H5.23315V15.1139H6.11025L6.97452 14.2497V7.01315H7.12537V14.3123L6.1729 15.2649Z" fill="var(--fill-0, white)"/>
<path id="Vector_9" d="M6.21752 13.3724H6.06539V12.4954L5.15761 11.5864V7.95273L4.24865 7.04497V4.25647L5.17942 3.32569L5.28675 3.43309L4.40079 4.31912V6.98232L5.30857 7.89008V11.5237L6.21752 12.4328V13.3724Z" fill="var(--fill-0, white)"/>
<path id="Vector_10" d="M4.32095 14.5386C4.17896 14.5386 4.06393 14.4235 4.06393 14.2815C4.06393 14.1397 4.17896 14.0245 4.32095 14.0245C4.46281 14.0245 4.57785 14.1397 4.57785 14.2815C4.57913 14.4222 4.46281 14.5386 4.32095 14.5386ZM4.32095 14.1755C4.26215 14.1755 4.21478 14.2227 4.21478 14.2815C4.21478 14.3403 4.26215 14.3877 4.32095 14.3877C4.37975 14.3877 4.427 14.3403 4.427 14.2815C4.427 14.2227 4.37975 14.1755 4.32095 14.1755Z" fill="var(--fill-0, white)"/>
<path id="Vector_11" d="M5.22777 14.5386C5.08579 14.5386 4.97076 14.4235 4.97076 14.2815C4.97076 14.1397 5.08579 14.0245 5.22777 14.0245C5.36964 14.0245 5.48479 14.1397 5.48479 14.2815C5.48479 14.4222 5.36964 14.5386 5.22777 14.5386ZM5.22777 14.1755C5.16897 14.1755 5.12161 14.2227 5.12161 14.2815C5.12161 14.3403 5.16897 14.3877 5.22777 14.3877C5.28657 14.3877 5.33383 14.3403 5.33383 14.2815C5.33383 14.2227 5.28657 14.1755 5.22777 14.1755Z" fill="var(--fill-0, white)"/>
<path id="Vector_12" d="M5.22777 13.6294C5.08579 13.6294 4.97076 13.5143 4.97076 13.3724C4.97076 13.2305 5.08579 13.1153 5.22777 13.1153C5.36964 13.1153 5.48479 13.2305 5.48479 13.3724C5.48479 13.5143 5.36964 13.6294 5.22777 13.6294ZM5.22777 13.2663C5.16897 13.2663 5.12161 13.3136 5.12161 13.3724C5.12161 13.4312 5.16897 13.4785 5.22777 13.4785C5.28657 13.4785 5.33383 13.4312 5.33383 13.3724C5.33383 13.3136 5.28657 13.2663 5.22777 13.2663Z" fill="var(--fill-0, white)"/>
<path id="Vector_13" d="M6.1304 14.5386C5.98854 14.5386 5.87339 14.4235 5.87339 14.2815C5.87339 14.1397 5.98854 14.0245 6.1304 14.0245C6.27239 14.0245 6.38742 14.1397 6.38742 14.2815C6.38742 14.4222 6.27239 14.5386 6.1304 14.5386ZM6.1304 14.1755C6.0716 14.1755 6.02435 14.2227 6.02435 14.2815C6.02435 14.3403 6.0716 14.3877 6.1304 14.3877C6.1892 14.3877 6.23657 14.3403 6.23657 14.2815C6.23657 14.2227 6.1892 14.1755 6.1304 14.1755Z" fill="var(--fill-0, white)"/>
<path id="Vector_14" d="M7.04563 15.4511C6.90376 15.4511 6.78861 15.3361 6.78861 15.1941C6.78861 15.0522 6.90376 14.9372 7.04563 14.9372C7.18749 14.9372 7.30264 15.0522 7.30264 15.1941C7.30264 15.3361 7.18749 15.4511 7.04563 15.4511ZM7.04563 15.088C6.98683 15.088 6.93946 15.1353 6.93946 15.1941C6.93946 15.253 6.98683 15.3003 7.04563 15.3003C7.10443 15.3003 7.15179 15.253 7.15179 15.1941C7.15179 15.1353 7.10314 15.088 7.04563 15.088Z" fill="var(--fill-0, white)"/>
<path id="Vector_15" d="M6.143 10.1772C6.00113 10.1772 5.88598 10.0622 5.88598 9.92024C5.88598 9.77832 6.00113 9.66325 6.143 9.66325C6.28498 9.66325 6.40001 9.77832 6.40001 9.92024C6.4013 10.0622 6.28498 10.1772 6.143 10.1772ZM6.143 9.81412C6.0842 9.81412 6.03683 9.86142 6.03683 9.92024C6.03683 9.97905 6.0842 10.0263 6.143 10.0263C6.2018 10.0263 6.24916 9.97905 6.24916 9.92024C6.24916 9.86142 6.2018 9.81412 6.143 9.81412Z" fill="var(--fill-0, white)"/>
<path id="Vector_16" d="M4.32095 10.1772C4.17896 10.1772 4.06393 10.0622 4.06393 9.92024C4.06393 9.77832 4.17896 9.66325 4.32095 9.66325C4.46281 9.66325 4.57785 9.77832 4.57785 9.92024C4.57913 10.0622 4.46281 10.1772 4.32095 10.1772ZM4.32095 9.81412C4.26215 9.81412 4.21478 9.86142 4.21478 9.92024C4.21478 9.97905 4.26215 10.0263 4.32095 10.0263C4.37975 10.0263 4.427 9.97905 4.427 9.92024C4.427 9.86142 4.37975 9.81412 4.32095 9.81412Z" fill="var(--fill-0, white)"/>
<path id="Vector_17" d="M5.22986 15.1893C5.22986 15.3299 5.11599 15.4437 4.97541 15.4437C4.83471 15.4437 4.72096 15.3299 4.72096 15.1893C4.72096 15.0487 4.83471 14.9348 4.97541 14.9348C5.11599 14.9348 5.22986 15.0487 5.22986 15.1893Z" fill="var(--fill-0, white)"/>
<path id="Vector_18" d="M4.57703 15.1893C4.57703 15.3299 4.46328 15.4437 4.32258 15.4437C4.18199 15.4437 4.06813 15.3299 4.06813 15.1893C4.06813 15.0487 4.18199 14.9348 4.32258 14.9348C4.46328 14.9348 4.57703 15.0487 4.57703 15.1893Z" fill="var(--fill-0, white)"/>
<path id="Vector_19" d="M6.39476 13.6266C6.39476 13.7673 6.28102 13.8811 6.14043 13.8811C5.99973 13.8811 5.88598 13.7673 5.88598 13.6266C5.88598 13.486 5.99973 13.3723 6.14043 13.3723C6.28102 13.3723 6.39476 13.486 6.39476 13.6266Z" fill="var(--fill-0, white)"/>
<path id="Vector_20" d="M6.88188 11.5645C6.88188 11.7051 6.76801 11.8189 6.62743 11.8189C6.48673 11.8189 6.37298 11.7051 6.37298 11.5645C6.37298 11.4238 6.48673 11.3101 6.62743 11.3101C6.76801 11.3101 6.88188 11.4238 6.88188 11.5645Z" fill="var(--fill-0, white)"/>
<path id="Vector_21" d="M5.48595 12.4554C5.48595 12.5961 5.3722 12.7099 5.2315 12.7099C5.09092 12.7099 4.97705 12.5961 4.97705 12.4554C4.97705 12.3149 5.09092 12.2011 5.2315 12.2011C5.3722 12.2011 5.48595 12.3149 5.48595 12.4554Z" fill="var(--fill-0, white)"/>
<path id="Vector_22" d="M3.6681 11.5645C3.6681 11.7051 3.55435 11.8189 3.41365 11.8189C3.27307 11.8189 3.1592 11.7051 3.1592 11.5645C3.1592 11.4238 3.27307 11.3101 3.41365 11.3101C3.55435 11.3101 3.6681 11.4238 3.6681 11.5645Z" fill="var(--fill-0, white)"/>
<path id="Vector_23" d="M4.08815 15.0624L3.33763 14.3119V11.8187H3.4886V14.2493L4.1956 14.955L4.08815 15.0624Z" fill="var(--fill-0, white)"/>
<path id="Vector_24" d="M4.40079 7.98853H4.24865V9.73756H4.40079V7.98853Z" fill="var(--fill-0, white)"/>
<path id="Vector_25" d="M5.88548 14.2045H5.41367V14.3567H5.88548V14.2045Z" fill="var(--fill-0, white)"/>
<path id="Vector_26" d="M5.73157 10.9096C5.5897 10.9096 5.47455 10.7946 5.47455 10.6527C5.47455 10.5108 5.5897 10.3957 5.73157 10.3957C5.87343 10.3957 5.98858 10.5108 5.98858 10.6527C5.98858 10.7933 5.87343 10.9096 5.73157 10.9096ZM5.73157 10.5466C5.67277 10.5466 5.6254 10.5939 5.6254 10.6527C5.6254 10.7115 5.67277 10.7588 5.73157 10.7588C5.79037 10.7588 5.83773 10.7115 5.83773 10.6527C5.83773 10.5939 5.78908 10.5466 5.73157 10.5466Z" fill="var(--fill-0, white)"/>
<path id="Vector_27" d="M6.62778 10.9096C6.48591 10.9096 6.37088 10.7946 6.37088 10.6527C6.37088 10.5108 6.48591 10.3957 6.62778 10.3957C6.76976 10.3957 6.8848 10.5108 6.8848 10.6527C6.8848 10.7933 6.76976 10.9096 6.62778 10.9096ZM6.62778 10.5466C6.56898 10.5466 6.52173 10.5939 6.52173 10.6527C6.52173 10.7115 6.56898 10.7588 6.62778 10.7588C6.68658 10.7588 6.73395 10.7115 6.73395 10.6527C6.73395 10.5939 6.68658 10.5466 6.62778 10.5466Z" fill="var(--fill-0, white)"/>
<path id="Vector_28" d="M6.38507 10.5764H5.91327V10.7286H6.38507V10.5764Z" fill="var(--fill-0, white)"/>
<path id="Vector_29" d="M1.97212 25.7446H1.81999V21.1713L2.72906 20.2635V17.6003L1.86479 16.7361H1.16922V16.5852H1.92744L2.88119 17.5377V20.3261L1.97212 21.2339V25.7446Z" fill="var(--fill-0, white)"/>
<path id="Vector_30" d="M1.92425 31.2705H0.984495V31.1197H1.8616L2.72586 30.2553V23.0201H2.87812V30.3179L1.92425 31.2705Z" fill="var(--fill-0, white)"/>
<path id="Vector_31" d="M2.80315 16.9185C2.66129 16.9185 2.54625 16.8035 2.54625 16.6616C2.54625 16.5197 2.66129 16.4046 2.80315 16.4046C2.94514 16.4046 3.06017 16.5197 3.06017 16.6616C3.06017 16.8035 2.94514 16.9185 2.80315 16.9185ZM2.80315 16.5542C2.74435 16.5542 2.6971 16.6014 2.6971 16.6604C2.6971 16.7192 2.74435 16.7664 2.80315 16.7664C2.86195 16.7664 2.90932 16.7192 2.90932 16.6604C2.90932 16.6014 2.86195 16.5542 2.80315 16.5542Z" fill="var(--fill-0, white)"/>
<path id="Vector_32" d="M2.80315 23.0955C2.66129 23.0955 2.54625 22.9804 2.54625 22.8385C2.54625 22.6965 2.66129 22.5815 2.80315 22.5815C2.94514 22.5815 3.06017 22.6965 3.06017 22.8385C3.06145 22.9804 2.94514 23.0955 2.80315 23.0955ZM2.80315 22.7323C2.74435 22.7323 2.6971 22.7797 2.6971 22.8385C2.6971 22.8973 2.74435 22.9445 2.80315 22.9445C2.86195 22.9445 2.90932 22.8973 2.90932 22.8385C2.90932 22.7797 2.86195 22.7323 2.80315 22.7323Z" fill="var(--fill-0, white)"/>
<path id="Vector_33" d="M0.152133 18.3162H0V16.6298L0.953753 15.676H1.92419L2.67342 16.4253L2.56597 16.5326L1.86154 15.8282H1.0164L0.152133 16.6924V18.3162Z" fill="var(--fill-0, white)"/>
<path id="Vector_34" d="M4.39755 30.1041H4.24541V26.684L3.33763 25.7764V16.007H3.4886V25.7124L4.39755 26.6214V30.1041Z" fill="var(--fill-0, white)"/>
<path id="Vector_35" d="M6.21658 25.7446H6.06444V21.1713L6.97351 20.2635V17.6003L6.10924 16.7361H5.41367V16.5852H6.17189L7.12436 17.5377V20.3261L6.21658 21.2339V25.7446Z" fill="var(--fill-0, white)"/>
<path id="Vector_36" d="M6.1729 31.2705H5.23315V31.1197H6.11025L6.97452 30.2553V23.0201H7.12537V30.3179L6.1729 31.2705Z" fill="var(--fill-0, white)"/>
<path id="Vector_37" d="M6.21752 29.3783H6.06539V28.5012L5.15761 27.5934V23.9598L4.24865 23.0508V20.2636L5.17942 19.3327L5.28675 19.4402L4.40079 20.3263V22.9881L5.30857 23.8972V27.5295L6.21752 28.4386V29.3783Z" fill="var(--fill-0, white)"/>
<path id="Vector_38" d="M5.22777 16.9185C5.08579 16.9185 4.97076 16.8035 4.97076 16.6616C4.97076 16.5197 5.08579 16.4046 5.22777 16.4046C5.36964 16.4046 5.48479 16.5197 5.48479 16.6616C5.48479 16.8035 5.36964 16.9185 5.22777 16.9185ZM5.22777 16.5542C5.16897 16.5542 5.12161 16.6014 5.12161 16.6604C5.12161 16.7192 5.16897 16.7664 5.22777 16.7664C5.28657 16.7664 5.33383 16.7192 5.33383 16.6604C5.33383 16.6014 5.28657 16.5542 5.22777 16.5542Z" fill="var(--fill-0, white)"/>
<path id="Vector_39" d="M5.22777 22.5036C5.08579 22.5036 4.97076 22.3885 4.97076 22.2467C4.97076 22.1047 5.08579 21.9896 5.22777 21.9896C5.36964 21.9896 5.48479 22.1047 5.48479 22.2467C5.48479 22.3872 5.36964 22.5036 5.22777 22.5036ZM5.22777 22.1405C5.16897 22.1405 5.12161 22.1879 5.12161 22.2467C5.12161 22.3055 5.16897 22.3527 5.22777 22.3527C5.28657 22.3527 5.33383 22.3055 5.33383 22.2467C5.33383 22.1879 5.28657 22.1405 5.22777 22.1405Z" fill="var(--fill-0, white)"/>
<path id="Vector_40" d="M7.04983 16.9185C6.90796 16.9185 6.79281 16.8035 6.79281 16.6616C6.79281 16.5197 6.90796 16.4046 7.04983 16.4046C7.19169 16.4046 7.30684 16.5197 7.30684 16.6616C7.30684 16.8035 7.19169 16.9185 7.04983 16.9185ZM7.04983 16.5542C6.99103 16.5542 6.94366 16.6014 6.94366 16.6604C6.94366 16.7192 6.99103 16.7664 7.04983 16.7664C7.10863 16.7664 7.15599 16.7192 7.15599 16.6604C7.15599 16.6014 7.10734 16.5542 7.04983 16.5542Z" fill="var(--fill-0, white)"/>
<path id="Vector_41" d="M7.04983 23.0955C6.90796 23.0955 6.79281 22.9804 6.79281 22.8385C6.79281 22.6965 6.90796 22.5815 7.04983 22.5815C7.19169 22.5815 7.30684 22.6965 7.30684 22.8385C7.30684 22.9804 7.19169 23.0955 7.04983 23.0955ZM7.04983 22.7323C6.99103 22.7323 6.94366 22.7797 6.94366 22.8385C6.94366 22.8973 6.99103 22.9445 7.04983 22.9445C7.10863 22.9445 7.15599 22.8973 7.15599 22.8385C7.15599 22.7797 7.10734 22.7323 7.04983 22.7323Z" fill="var(--fill-0, white)"/>
<path id="Vector_42" d="M6.143 26.1841C6.00113 26.1841 5.88598 26.069 5.88598 25.9272C5.88598 25.7852 6.00113 25.6702 6.143 25.6702C6.28498 25.6702 6.40001 25.7852 6.40001 25.9272C6.4013 26.0678 6.28498 26.1841 6.143 26.1841ZM6.143 25.8197C6.0842 25.8197 6.03683 25.867 6.03683 25.9259C6.03683 25.9847 6.0842 26.0319 6.143 26.0319C6.2018 26.0319 6.24916 25.9847 6.24916 25.9259C6.24916 25.867 6.2018 25.8197 6.143 25.8197Z" fill="var(--fill-0, white)"/>
<path id="Vector_43" d="M4.32095 26.1841C4.17896 26.1841 4.06393 26.069 4.06393 25.9272C4.06393 25.7852 4.17896 25.6702 4.32095 25.6702C4.46281 25.6702 4.57785 25.7852 4.57785 25.9272C4.57913 26.0678 4.46281 26.1841 4.32095 26.1841ZM4.32095 25.8197C4.26215 25.8197 4.21478 25.867 4.21478 25.9259C4.21478 25.9847 4.26215 26.0319 4.32095 26.0319C4.37975 26.0319 4.427 25.9847 4.427 25.9259C4.427 25.867 4.37975 25.8197 4.32095 25.8197Z" fill="var(--fill-0, white)"/>
<path id="Vector_44" d="M4.32095 24.0706C4.17896 24.0706 4.06393 23.9556 4.06393 23.8136C4.06393 23.6717 4.17896 23.5567 4.32095 23.5567C4.46281 23.5567 4.57785 23.6717 4.57785 23.8136C4.57913 23.9556 4.46281 24.0706 4.32095 24.0706ZM4.32095 23.7076C4.26215 23.7076 4.21478 23.7548 4.21478 23.8136C4.21478 23.8724 4.26215 23.9198 4.32095 23.9198C4.37975 23.9198 4.427 23.8724 4.427 23.8136C4.427 23.7548 4.37975 23.7076 4.32095 23.7076Z" fill="var(--fill-0, white)"/>
<path id="Vector_45" d="M4.32095 18.7557C4.17896 18.7557 4.06393 18.6406 4.06393 18.4988C4.06393 18.3568 4.17896 18.2418 4.32095 18.2418C4.46281 18.2418 4.57785 18.3568 4.57785 18.4988C4.57913 18.6394 4.46281 18.7557 4.32095 18.7557ZM4.32095 18.3913C4.26215 18.3913 4.21478 18.4387 4.21478 18.4975C4.21478 18.5563 4.26215 18.6035 4.32095 18.6035C4.37975 18.6035 4.427 18.5563 4.427 18.4975C4.427 18.4387 4.37975 18.3913 4.32095 18.3913Z" fill="var(--fill-0, white)"/>
<path id="Vector_46" d="M3.6681 15.7528C3.6681 15.8935 3.55435 16.0072 3.41365 16.0072C3.27307 16.0072 3.1592 15.8935 3.1592 15.7528C3.1592 15.6122 3.27307 15.4983 3.41365 15.4983C3.55435 15.4983 3.6681 15.6122 3.6681 15.7528Z" fill="var(--fill-0, white)"/>
<path id="Vector_47" d="M5.48595 19.3866C5.48595 19.5272 5.3722 19.641 5.2315 19.641C5.09092 19.641 4.97705 19.5272 4.97705 19.3866C4.97705 19.2459 5.09092 19.1322 5.2315 19.1322C5.3722 19.1322 5.48595 19.2459 5.48595 19.3866Z" fill="var(--fill-0, white)"/>
<path id="Vector_48" d="M5.2315 17.8495C5.37209 17.8495 5.48595 17.7356 5.48595 17.595C5.48595 17.4546 5.37209 17.3406 5.2315 17.3406C5.09104 17.3406 4.97705 17.4546 4.97705 17.595C4.97705 17.7356 5.09104 17.8495 5.2315 17.8495Z" fill="var(--fill-0, white)"/>
<path id="Vector_49" d="M4.40079 18.3162H4.24865V16.6298L5.20112 15.676H6.17284L6.92208 16.4253L6.81463 16.5326L6.11019 15.8282H5.26377L4.40079 16.6924V18.3162Z" fill="var(--fill-0, white)"/>
<path id="Vector_50" d="M4.40079 23.9954H4.24865V25.7444H4.40079V23.9954Z" fill="var(--fill-0, white)"/>
<path id="Vector_51" d="M5.30843 22.0636H5.15758V21.1711L6.0551 20.2736V18.5296L5.30715 17.7817L5.41448 17.6743L6.20595 18.467V20.3362L5.30843 21.2337V22.0636Z" fill="var(--fill-0, white)"/>
</g>
</svg>
